<svg width="182" height="121" viewBox="0 0 182 121" fill="none" xmlns="http://www.w3.org/2000/svg">
<path d="M0 119.864V89.2706H8.24584V100.922H8.36534C8.6641 100.146 9.10229 99.4335 9.67989 98.7862C10.2575 98.1289 10.9745 97.6061 11.831 97.2177C12.6874 96.8193 13.6833 96.6201 14.8186 96.6201C16.3323 96.6201 17.7714 97.0235 19.1357 97.8301C20.51 98.6368 21.6254 99.9065 22.4819 101.639C23.3483 103.372 23.7815 105.623 23.7815 108.391C23.7815 111.04 23.3682 113.236 22.5416 114.979C21.725 116.722 20.6295 118.021 19.2552 118.878C17.8909 119.734 16.3921 120.163 14.7588 120.163C13.6833 120.163 12.7223 119.988 11.8758 119.64C11.0393 119.281 10.3222 118.798 9.72471 118.191C9.13714 117.573 8.68402 116.876 8.36534 116.099H8.18608V119.864H0ZM8.06658 108.391C8.06658 109.507 8.21098 110.473 8.49978 111.289C8.79855 112.096 9.21681 112.723 9.75458 113.172C10.3023 113.61 10.9546 113.829 11.7115 113.829C12.4683 113.829 13.1107 113.615 13.6385 113.187C14.1763 112.748 14.5846 112.126 14.8634 111.319C15.1522 110.503 15.2966 109.527 15.2966 108.391C15.2966 107.256 15.1522 106.285 14.8634 105.478C14.5846 104.662 14.1763 104.039 13.6385 103.611C13.1107 103.173 12.4683 102.954 11.7115 102.954C10.9546 102.954 10.3023 103.173 9.75458 103.611C9.21681 104.039 8.79855 104.662 8.49978 105.478C8.21098 106.285 8.06658 107.256 8.06658 108.391Z" fill="#FFF1E2"/>
<path d="M42.1105 109.825V96.9189H50.3564V119.864H42.5288V115.502H42.2898C41.7918 116.966 40.9205 118.111 39.6756 118.938C38.4308 119.754 36.9519 120.163 35.239 120.163C33.6356 120.163 32.2315 119.794 31.0264 119.057C29.8314 118.32 28.9003 117.304 28.233 116.01C27.5757 114.715 27.2421 113.231 27.2322 111.558V96.9189H35.478V109.825C35.488 110.961 35.7768 111.852 36.3444 112.499C36.922 113.147 37.7287 113.47 38.7644 113.47C39.4515 113.47 40.0441 113.326 40.542 113.037C41.0499 112.738 41.4383 112.32 41.7072 111.782C41.986 111.235 42.1205 110.582 42.1105 109.825Z" fill="#FFF1E2"/>
<path d="M54.5502 119.864V96.9189H62.7961V119.864H54.5502ZM58.6731 94.5288C57.5578 94.5288 56.6017 94.1603 55.805 93.4234C55.0083 92.6864 54.61 91.8001 54.61 90.7644C54.61 89.7287 55.0083 88.8424 55.805 88.1054C56.6017 87.3685 57.5578 87 58.6731 87C59.7985 87 60.7545 87.3685 61.5413 88.1054C62.338 88.8424 62.7363 89.7287 62.7363 90.7644C62.7363 91.8001 62.338 92.6864 61.5413 93.4234C60.7545 94.1603 59.7985 94.5288 58.6731 94.5288Z" fill="#FFF1E2"/>
<path d="M75.303 120.163C73.6698 120.163 72.166 119.734 70.7917 118.878C69.4273 118.021 68.3319 116.722 67.5053 114.979C66.6887 113.236 66.2804 111.04 66.2804 108.391C66.2804 105.623 66.7086 103.372 67.5651 101.639C68.4315 99.9065 69.5468 98.6368 70.9112 97.8301C72.2855 97.0235 73.7295 96.6201 75.2432 96.6201C76.3785 96.6201 77.3744 96.8193 78.2309 97.2177C79.0873 97.6061 79.8043 98.1289 80.382 98.7862C80.9596 99.4335 81.3977 100.146 81.6965 100.922H81.816V89.2706H90.0619V119.864H81.8758V116.099H81.6965C81.3778 116.876 80.9197 117.573 80.3222 118.191C79.7346 118.798 79.0176 119.281 78.1711 119.64C77.3346 119.988 76.3785 120.163 75.303 120.163ZM78.3504 113.829C79.1072 113.829 79.7545 113.61 80.2923 113.172C80.8401 112.723 81.2583 112.096 81.5471 111.289C81.8459 110.473 81.9953 109.507 81.9953 108.391C81.9953 107.256 81.8459 106.285 81.5471 105.478C81.2583 104.662 80.8401 104.039 80.2923 103.611C79.7545 103.173 79.1072 102.954 78.3504 102.954C77.5935 102.954 76.9462 103.173 76.4084 103.611C75.8806 104.039 75.4723 104.662 75.1835 105.478C74.9046 106.285 74.7652 107.256 74.7652 108.391C74.7652 109.527 74.9046 110.503 75.1835 111.319C75.4723 112.126 75.8806 112.748 76.4084 113.187C76.9462 113.615 77.5935 113.829 78.3504 113.829Z" fill="#FFF1E2"/>
<path d="M102.356 89.2706V119.864H94.1101V89.2706H102.356Z" fill="#FFF1E2"/>
<path d="M106.438 119.864V89.2706H114.684V100.922H114.803C115.102 100.146 115.54 99.4335 116.118 98.7862C116.695 98.1289 117.412 97.6061 118.269 97.2177C119.125 96.8193 120.121 96.6201 121.256 96.6201C122.77 96.6201 124.209 97.0235 125.573 97.8301C126.948 98.6368 128.063 99.9065 128.92 101.639C129.786 103.372 130.219 105.623 130.219 108.391C130.219 111.04 129.806 113.236 128.979 114.979C128.163 116.722 127.067 118.021 125.693 118.878C124.329 119.734 122.83 120.163 121.197 120.163C120.121 120.163 119.16 119.988 118.314 119.64C117.477 119.281 116.76 118.798 116.162 118.191C115.575 117.573 115.122 116.876 114.803 116.099H114.624V119.864H106.438ZM114.504 108.391C114.504 109.507 114.649 110.473 114.938 111.289C115.236 112.096 115.655 112.723 116.192 113.172C116.74 113.61 117.392 113.829 118.149 113.829C118.906 113.829 119.548 113.615 120.076 113.187C120.614 112.748 121.022 112.126 121.301 111.319C121.59 110.503 121.734 109.527 121.734 108.391C121.734 107.256 121.59 106.285 121.301 105.478C121.022 104.662 120.614 104.039 120.076 103.611C119.548 103.173 118.906 102.954 118.149 102.954C117.392 102.954 116.74 103.173 116.192 103.611C115.655 104.039 115.236 104.662 114.938 105.478C114.649 106.285 114.504 107.256 114.504 108.391Z" fill="#FFF1E2"/>
<path d="M144.724 120.282C142.234 120.282 140.103 119.789 138.331 118.803C136.558 117.807 135.199 116.423 134.252 114.65C133.306 112.868 132.833 110.801 132.833 108.451C132.833 106.101 133.306 104.039 134.252 102.267C135.199 100.484 136.558 99.0999 138.331 98.114C140.103 97.1181 142.234 96.6201 144.724 96.6201C147.214 96.6201 149.345 97.1181 151.118 98.114C152.89 99.0999 154.25 100.484 155.196 102.267C156.142 104.039 156.615 106.101 156.615 108.451C156.615 110.801 156.142 112.868 155.196 114.65C154.25 116.423 152.89 117.807 151.118 118.803C149.345 119.789 147.214 120.282 144.724 120.282ZM144.784 114.187C145.481 114.187 146.083 113.953 146.591 113.485C147.099 113.017 147.493 112.35 147.771 111.484C148.05 110.617 148.19 109.586 148.19 108.391C148.19 107.186 148.05 106.156 147.771 105.299C147.493 104.433 147.099 103.766 146.591 103.297C146.083 102.829 145.481 102.595 144.784 102.595C144.047 102.595 143.415 102.829 142.887 103.297C142.359 103.766 141.956 104.433 141.677 105.299C141.398 106.156 141.258 107.186 141.258 108.391C141.258 109.586 141.398 110.617 141.677 111.484C141.956 112.35 142.359 113.017 142.887 113.485C143.415 113.953 144.047 114.187 144.784 114.187Z" fill="#FFF1E2"/>
<path d="M166.291 96.9189L169.637 104.029L173.163 96.9189H181.349L175.194 108.391L181.647 119.864H173.521L169.637 112.574L165.873 119.864H157.627L164.14 108.391L158.045 96.9189H166.291Z" fill="#FFF1E2"/>
<path d="M75.832 2.13623H123.638V49.9423H88.115C81.336 49.9423 75.832 44.4384 75.832 37.6593V2.13623Z" fill="#E54DE5"/>
<path d="M58.1357 20.0576H92.7115C100.014 20.0576 105.939 25.9858 105.939 33.2854V67.8612H58.1357V20.0576Z" fill="#16DBBE"/>
<path fill-rule="evenodd" clip-rule="evenodd" d="M105.851 49.9421H88.0261C81.2471 49.9421 75.7432 44.4382 75.7432 37.6592V20.0576H92.6234C99.9256 20.0576 105.851 25.9858 105.851 33.2854V49.9421Z" fill="#FFC800"/>
<path fill-rule="evenodd" clip-rule="evenodd" d="M56 20.0575C56 18.8778 56.9564 17.9214 58.1361 17.9214H92.7119C101.194 17.9214 108.076 24.8062 108.076 33.2854V67.8611C108.076 69.0409 107.119 69.9972 105.94 69.9972H58.1361C56.9564 69.9972 56 69.0409 56 67.8611V20.0575ZM60.2723 22.1937V65.7249H103.804V33.2854C103.804 27.1652 98.8341 22.1937 92.7119 22.1937H60.2723Z" fill="#FFF1E2"/>
<path fill-rule="evenodd" clip-rule="evenodd" d="M73.6953 2.13615C73.6953 0.956387 74.6517 0 75.8315 0H123.638C124.817 0 125.774 0.956387 125.774 2.13615V49.9423C125.774 51.122 124.817 52.0784 123.638 52.0784H88.1144C80.1557 52.0784 73.6953 45.618 73.6953 37.6593V2.13615ZM77.9676 4.2723V37.6593C77.9676 43.2585 82.5152 47.8061 88.1144 47.8061H121.501V4.2723H77.9676Z" fill="#FFF1E2"/>
<path fill-rule="evenodd" clip-rule="evenodd" d="M125.138 48.4223C125.978 49.2512 125.986 50.6037 125.157 51.4432L107.462 69.3647C106.633 70.2042 105.28 70.2128 104.441 69.3839C103.601 68.555 103.593 67.2025 104.422 66.363L122.117 48.4414C122.946 47.6019 124.299 47.5934 125.138 48.4223Z" fill="#FFF1E2"/>
<path fill-rule="evenodd" clip-rule="evenodd" d="M77.3325 0.616108C78.172 1.44501 78.1806 2.79752 77.3517 3.63702L59.6562 21.5586C58.8273 22.3981 57.4748 22.4067 56.6353 21.5778C55.7958 20.7489 55.7872 19.3963 56.6161 18.5569L74.3116 0.635281C75.1405 -0.204215 76.493 -0.212799 77.3325 0.616108Z" fill="#FFF1E2"/>
</svg>
