<svg width="121" height="23" viewBox="0 0 121 23" fill="none" xmlns="http://www.w3.org/2000/svg">
<path d="M8.35899 10.5487H2.78272V4.57959H0.0999756V19.052H2.78272V13.0302H8.35899V19.052H11.0465V4.57959H8.35899V10.5487Z" fill="white"/>
<path d="M52.6482 12.853C53.453 11.9093 53.8797 10.701 53.8458 9.46121C53.888 8.21808 53.4624 7.00434 52.653 6.05988C52.1868 5.55842 51.6159 5.16582 50.9808 4.90997C50.3458 4.65413 49.6622 4.54132 48.9786 4.57958H44.6047V19.052H47.2923V14.3285H48.5139L52.035 19.052H55.1297L51.2445 13.8925C51.7807 13.6493 52.2592 13.295 52.6482 12.853ZM51.3643 9.46121C51.4081 10.0899 51.2073 10.7113 50.8038 11.1954C50.5666 11.4332 50.2805 11.6164 49.9652 11.7323C49.65 11.8481 49.3133 11.8938 48.9786 11.8661H47.2731V7.07549H48.9786C49.3154 7.03984 49.6559 7.07841 49.9762 7.18849C50.2965 7.29856 50.5888 7.47747 50.8325 7.71264C51.2253 8.20685 51.4155 8.83198 51.3643 9.46121Z" fill="white"/>
<path d="M63.7145 4.57959H61.0269V19.052H63.7145V4.57959Z" fill="white"/>
<path d="M71.5328 4.57959V7.26712H76.9462L70.2585 19.052H81.7368V16.3645H75.0539L81.7368 4.57959H71.5328Z" fill="white"/>
<path d="M88.1227 19.052H97.0044V16.5705H90.8102V12.7428H95.9074V10.266H90.8102V7.04196H97.0044V4.57959H88.1227V19.052Z" fill="white"/>
<path d="M112.219 13.6482L105.417 4.57959H103.448V19.052H106.135V9.96424L112.972 19.052H114.926V4.57959H112.219V13.6482Z" fill="white"/>
<path d="M36.6092 5.47543L34.8271 8.23482C35.5839 9.72489 35.8501 11.4161 35.5878 13.0666C35.3254 14.7171 34.5479 16.2423 33.3665 17.4243C32.185 18.6063 30.6601 19.3845 29.0097 19.6476C27.3593 19.9107 25.668 19.6452 24.1776 18.8891L21.4182 20.676C23.5171 22.1732 26.0789 22.8775 28.6482 22.6637C31.2175 22.4498 33.6277 21.3317 35.4501 19.5081C37.2726 17.6845 38.3892 15.2736 38.6014 12.7042C38.8137 10.1348 38.1078 7.57336 36.6092 5.47543Z" fill="url(#paint0_radial_1_18)"/>
<path d="M27.7514 17.2699C29.0296 17.27 30.2675 16.8226 31.2502 16.0053C32.2329 15.1879 32.8984 14.0523 33.1312 12.7955C31.4262 12.4299 29.6637 12.4238 27.9563 12.7777C26.2488 13.1315 24.6339 13.8376 23.2147 14.8507C23.7144 15.5951 24.3897 16.2051 25.1808 16.627C25.972 17.0489 26.8548 17.2697 27.7514 17.2699Z" fill="url(#paint1_radial_1_18)"/>
<path d="M30.4485 11.5212C31.381 11.5219 32.3108 11.6215 33.2223 11.8182C33.2223 10.3672 32.6459 8.9757 31.6199 7.94971C30.5939 6.92372 29.2024 6.34733 27.7514 6.34733C26.3004 6.34733 24.9089 6.92372 23.8829 7.94971C22.8569 8.9757 22.2805 10.3672 22.2805 11.8182C22.2812 12.0619 22.2988 12.3052 22.3332 12.5464C21.5757 13.1027 20.8859 13.7458 20.278 14.4626C19.7546 12.9738 19.6877 11.3626 20.0858 9.83552C20.484 8.30843 21.3291 6.93502 22.5128 5.89129C23.6965 4.84757 25.1649 4.18109 26.7298 3.97726C28.2947 3.77344 29.8849 4.04156 31.2964 4.74726L34.0654 2.95078C31.9559 1.44232 29.3773 0.736259 26.7936 0.959651C24.2099 1.18304 21.7908 2.32122 19.9715 4.16937C18.1522 6.01752 17.0523 8.4543 16.8696 11.0412C16.6869 13.6281 17.4335 16.1953 18.975 18.2807C19.49 17.3526 20.1157 16.4903 20.8385 15.713C21.4306 15.0999 22.0714 14.536 22.7548 14.0267C24.9879 12.395 27.6828 11.5174 30.4485 11.5212Z" fill="white"/>
<path d="M116.842 6.54853V4.8814H116.248V4.57959H117.781V4.8814H117.187V6.54853H116.842Z" fill="white"/>
<path d="M119.774 6.54853V5.08739L119.171 6.54853H119.022L118.418 5.08739V6.54853H118.074V4.57959H118.553L119.084 5.87305L119.621 4.57959H120.1V6.54853H119.774Z" fill="white"/>
<defs>
<radialGradient id="paint0_radial_1_18" cx="0" cy="0" r="1" gradientUnits="userSpaceOnUse" gradientTransform="translate(36.6092 5.46585) scale(18.3289)">
<stop offset="0.1" stop-color="#26DB8D"/>
<stop offset="0.26" stop-color="#23D29A"/>
<stop offset="0.56" stop-color="#1ABBBB"/>
<stop offset="0.89" stop-color="#0E9DE5"/>
</radialGradient>
<radialGradient id="paint1_radial_1_18" cx="0" cy="0" r="1" gradientUnits="userSpaceOnUse" gradientTransform="translate(36.6092 5.46586) scale(18.3289 18.3289)">
<stop offset="0.1" stop-color="#26DB8D"/>
<stop offset="0.26" stop-color="#23D29A"/>
<stop offset="0.56" stop-color="#1ABBBB"/>
<stop offset="0.89" stop-color="#0E9DE5"/>
</radialGradient>
</defs>
</svg>
