<svg width="108" height="70" viewBox="0 0 108 70" fill="none" xmlns="http://www.w3.org/2000/svg">
<g clip-path="url(#clip0_2032_320)">
<path d="M76.1286 70H69.2284C60.9556 70 54.2295 63.2739 54.2295 55.0011C54.2295 46.7283 60.9556 40 69.2306 40C77.5055 40 84.2295 46.7261 84.2295 54.9989V69.6998H78.2299V54.9989C78.2299 50.0261 74.2034 45.9996 69.2306 45.9996C64.2578 45.9996 60.2312 50.0261 60.2312 54.9989C60.2312 59.9717 64.2578 63.9983 69.2306 63.9983H76.1307V69.9978L76.1286 70Z" fill="white"/>
<path d="M42.231 69.6998H36.2314V54.9989C36.2314 46.7261 42.9576 40 51.2304 40V45.9996C46.2576 45.9996 42.231 50.0261 42.231 54.9989V69.6998Z" fill="white"/>
<path d="M15.2304 70C6.95757 70 0.231445 63.2739 0.231445 55.0011C0.231445 46.7283 6.95757 40 15.2304 40C23.5031 40 30.2293 46.7261 30.2293 54.9989V57.9987H12.9789V51.9991H23.7076C22.4612 48.5012 19.1373 45.9996 15.2369 45.9996C10.2641 45.9996 6.23754 50.0261 6.23754 54.9989C6.23754 59.9717 10.2641 63.9983 15.2369 63.9983C18.2367 63.9983 21.0385 62.4973 22.7135 59.9956L27.6863 63.3435C24.9084 67.4962 20.2576 69.9978 15.2282 69.9978L15.2304 70Z" fill="white"/>
<path d="M107.882 45.9995H93.2285V69.6997H107.882V45.9995Z" fill="white"/>
</g>
<path d="M63.0773 24.0004L75.0764 11.9991L63.0773 0V8.99935L51.0781 18.0009H63.0773V24.0004Z" fill="white"/>
<path d="M45.0763 0L33.0771 11.9991L45.0763 24.0004V15.0011L57.0776 5.99956H45.0763V0Z" fill="white"/>
<defs>
<clipPath id="clip0_2032_320">
<rect width="107.692" height="30" fill="white" transform="translate(0 40)"/>
</clipPath>
</defs>
</svg>
