<svg width="207" height="39" viewBox="0 0 207 39" fill="none" xmlns="http://www.w3.org/2000/svg">
<g clip-path="url(#clip0_2032_310)">
<path d="M164.968 39H155.998C145.243 39 136.499 30.256 136.499 19.5014C136.499 8.74679 145.243 0 156 0C166.758 0 175.499 8.74396 175.499 19.4986V38.6097H167.7V19.4986C167.7 13.0339 162.465 7.79943 156 7.79943C149.536 7.79943 144.301 13.0339 144.301 19.4986C144.301 25.9632 149.536 31.1977 156 31.1977H164.971V38.9972L164.968 39Z" fill="white"/>
<path d="M120.9 38.6097H113.101V19.4986C113.101 8.74396 121.845 0 132.599 0V7.79943C126.135 7.79943 120.9 13.0339 120.9 19.4986V38.6097Z" fill="white"/>
<path d="M85.7994 39C75.0447 39 66.3008 30.256 66.3008 19.5014C66.3008 8.74679 75.0447 0 85.7994 0C96.554 0 105.298 8.74396 105.298 19.4986V23.3983H82.8725V15.5989H96.8198C95.1994 11.0516 90.8783 7.79943 85.8078 7.79943C79.3432 7.79943 74.1087 13.0339 74.1087 19.4986C74.1087 25.9632 79.3432 31.1977 85.8078 31.1977C89.7076 31.1977 93.3499 29.2465 95.5274 25.9943L101.992 30.3465C98.3808 35.745 92.3347 38.9972 85.7965 38.9972L85.7994 39Z" fill="white"/>
<path d="M206.246 7.79932H187.197V38.6096H206.246V7.79932Z" fill="white"/>
<path d="M39.0002 35.1005L54.5991 19.4988L39.0002 3.8999V15.5991L23.4014 27.301H39.0002V35.1005Z" fill="white"/>
<path d="M15.5989 3.8999L0 19.4988L15.5989 35.1005V23.4013L31.2006 11.6993H15.5989V3.8999Z" fill="white"/>
</g>
<defs>
<clipPath id="clip0_2032_310">
<rect width="206.247" height="39" fill="white"/>
</clipPath>
</defs>
</svg>
