<svg width="97" height="70" viewBox="0 0 97 70" fill="none" xmlns="http://www.w3.org/2000/svg">
<path fill-rule="evenodd" clip-rule="evenodd" d="M76.7362 16.3034L60.4215 0.00585938V11.9415L44.2227 23.8916L60.4215 23.9029V32.6009L76.7362 16.3034Z" fill="#4E529A"/>
<path fill-rule="evenodd" clip-rule="evenodd" d="M19.2256 16.2975L35.5403 32.595V20.7857L51.6205 8.82763L35.5403 8.81661V0L19.2256 16.2975Z" fill="#8C8DFC"/>
<path d="M12.5175 64.0396H0V60.445L7.16598 52.4569H0.184525V48.9238H12.3945V52.3341L5.01308 60.4757H12.5175V64.0396Z" fill="white" fill-opacity="0.9"/>
<path d="M29.6011 48.9242L23.5423 55.2839L29.7241 64.04H24.711L20.7128 58.2641L19.0212 60.046V64.04H14.9307V41.7964H19.0212V54.5466L24.2497 48.9242H29.6011Z" fill="white" fill-opacity="0.9"/>
<path d="M47.3913 47.4494L43.5776 48.617C43.4342 47.8386 43.0442 47.1321 42.409 46.4971C41.7738 45.8621 40.8399 45.5447 39.6098 45.5447C38.606 45.5447 37.7858 45.8212 37.1494 46.3742C36.5142 46.9068 36.1966 47.5519 36.1966 48.3097C36.1966 49.6411 36.9859 50.4604 38.5645 50.7675L41.6091 51.3513C43.5361 51.72 45.0329 52.4881 46.0995 53.6556C47.1661 54.823 47.6994 56.1953 47.6994 57.7725C47.6994 59.5749 46.9812 61.152 45.546 62.5039C44.131 63.8352 42.2241 64.5008 39.8254 64.5008C38.4519 64.5008 37.2111 64.296 36.1041 63.8864C34.9968 63.4767 34.1048 62.9339 33.4283 62.2581C32.7517 61.5617 32.2185 60.8345 31.8289 60.0767C31.4599 59.2983 31.2344 58.4995 31.1523 57.6803L35.0891 56.6357C35.1916 57.8032 35.6431 58.776 36.4419 59.5544C37.262 60.3327 38.4009 60.7219 39.8563 60.7219C40.9632 60.7219 41.8248 60.4761 42.4398 59.9845C43.0751 59.4929 43.3927 58.8477 43.3927 58.049C43.3927 57.414 43.1568 56.8713 42.6851 56.4206C42.2348 55.9495 41.5889 55.6321 40.7487 55.4682L37.7029 54.8537C35.9394 54.4851 34.5457 53.758 33.5205 52.6724C32.4953 51.5868 31.9828 50.2351 31.9828 48.617C31.9828 46.6917 32.7209 45.0736 34.1972 43.7627C35.6941 42.4519 37.4884 41.7964 39.5789 41.7964C40.8304 41.7964 41.948 41.9705 42.9317 42.3187C43.9153 42.6669 44.7058 43.1379 45.2995 43.7319C45.8945 44.3055 46.3555 44.8995 46.6838 45.5139C47.012 46.1284 47.2479 46.7736 47.3913 47.4494Z" fill="white" fill-opacity="0.9"/>
<path d="M54.5898 69.9999H50.2535L53.8207 62.1348L47.3926 48.9238H51.9754L56.0049 57.7721L59.7262 48.9238H64.0934L54.5898 69.9999Z" fill="white" fill-opacity="0.9"/>
<path d="M69.7414 55.3454V64.0401H65.6504V48.9243H69.6182V50.7984C70.0484 50.0611 70.6635 49.4978 71.4634 49.1086C72.2634 48.7195 73.1037 48.5249 73.9854 48.5249C75.769 48.5249 77.1224 49.0882 78.0456 50.2147C78.989 51.3207 79.4607 52.7544 79.4607 54.5159V64.0401H75.3696V55.2225C75.3696 54.3214 75.1338 53.5942 74.6621 53.0412C74.2106 52.4882 73.5137 52.2117 72.5703 52.2117C71.7099 52.2117 71.0226 52.5087 70.5106 53.1027C69.9974 53.6966 69.7414 54.4442 69.7414 55.3454Z" fill="white" fill-opacity="0.9"/>
<path d="M89.4852 52.2424C88.3984 52.2424 87.4859 52.6213 86.7487 53.3792C86.0104 54.1369 85.6407 55.1713 85.6407 56.4822C85.6407 57.793 86.0104 58.8376 86.7487 59.6159C87.5072 60.3738 88.4292 60.7527 89.516 60.7527C90.4795 60.7527 91.2487 60.5069 91.8235 60.0153C92.3971 59.5033 92.787 58.899 92.992 58.2026L96.59 59.4009C96.2215 60.7937 95.4215 61.9918 94.1913 62.9955C92.9612 63.9991 91.4027 64.5009 89.516 64.5009C87.2607 64.5009 85.3645 63.7431 83.8262 62.2274C82.3093 60.6913 81.5508 58.7761 81.5508 56.4822C81.5508 54.1676 82.2986 52.2526 83.7954 50.7369C85.3135 49.2213 87.1789 48.4634 89.3928 48.4634C91.321 48.4634 92.8995 48.9653 94.1297 49.9688C95.3599 50.952 96.1492 52.1502 96.4976 53.5634L92.8379 54.7924C92.3461 53.0924 91.2285 52.2424 89.4852 52.2424Z" fill="white" fill-opacity="0.9"/>
</svg>
