<svg width="73" height="622" viewBox="0 0 73 622" fill="none" xmlns="http://www.w3.org/2000/svg">
<path d="M36 33L36 500" stroke="#16DBBE" stroke-width="2"/>
<rect width="27.9927" height="27.9928" transform="matrix(0.86601 0.500028 3.18351e-05 1 36.2432 0.830078)" fill="url(#paint0_linear_1586_2)"/>
<rect width="27.9928" height="27.9928" transform="matrix(0.86601 -0.500028 -3.18351e-05 1 12.001 14.8276)" fill="url(#paint1_linear_1586_2)"/>
<rect width="27.9928" height="27.9928" transform="matrix(0.866041 0.499973 -0.866041 0.499972 36.2432 28.8218)" fill="url(#paint2_linear_1586_2)"/>
<rect width="27.9927" height="27.9928" transform="matrix(0.86601 0.500028 3.18351e-05 1 12 14.8223)" fill="url(#paint3_linear_1586_2)"/>
<rect width="27.9928" height="27.9928" transform="matrix(0.86601 -0.500028 -3.18351e-05 1 36.2432 28.8198)" fill="url(#paint4_linear_1586_2)"/>
<rect width="27.9928" height="27.9928" transform="matrix(0.866041 -0.499972 0.866041 0.499973 12 14.8257)" fill="url(#paint5_linear_1586_2)"/>
<rect width="27.9927" height="27.9928" transform="matrix(-3.18827e-05 1 -0.86601 0.500028 60.4834 151.996)" fill="url(#paint6_linear_1586_2)"/>
<rect width="27.9928" height="27.9928" transform="matrix(0.866041 0.499973 -0.866041 0.499972 36.2402 138)" fill="url(#paint7_linear_1586_2)"/>
<rect width="27.9928" height="27.9928" transform="matrix(3.16504e-05 1 -0.866009 -0.500028 36.2422 165.991)" fill="url(#paint8_linear_1586_2)"/>
<rect width="27.9927" height="27.9928" transform="matrix(-3.18827e-05 1 -0.86601 0.500028 36.2451 137.997)" fill="url(#paint9_linear_1586_2)"/>
<rect width="27.9928" height="27.9928" transform="matrix(0.866041 0.499973 -0.866041 0.499972 36.2441 165.991)" fill="url(#paint10_linear_1586_2)"/>
<rect width="27.9928" height="27.9928" transform="matrix(0.866009 0.500028 3.16762e-05 1 36.2422 137.999)" fill="url(#paint11_linear_1586_2)"/>
<rect width="27.9927" height="27.9928" transform="matrix(-0.866041 0.499972 -0.866041 -0.499972 60.4834 316.987)" fill="url(#paint12_linear_1586_2)"/>
<rect width="27.9928" height="27.9928" transform="matrix(3.17755e-05 1 -0.866009 -0.500028 60.4834 288.995)" fill="url(#paint13_linear_1586_2)"/>
<rect width="27.9928" height="27.9928" transform="matrix(-0.86601 0.500027 3.20157e-05 -1 36.2422 302.992)" fill="url(#paint14_linear_1586_2)"/>
<rect width="27.9927" height="27.9928" transform="matrix(-0.866041 0.499972 -0.866041 -0.499972 60.4873 288.997)" fill="url(#paint15_linear_1586_2)"/>
<rect width="27.9928" height="27.9928" transform="matrix(3.17755e-05 1 -0.866009 -0.500028 36.2441 302.992)" fill="url(#paint16_linear_1586_2)"/>
<rect width="27.9928" height="27.9928" transform="matrix(-3.19899e-05 1 -0.86601 0.500027 60.4844 288.995)" fill="url(#paint17_linear_1586_2)"/>
<rect width="27.9927" height="27.9928" transform="matrix(0.86601 0.500028 3.18351e-05 1 36.2432 465)" fill="url(#paint18_linear_1586_2)"/>
<rect width="27.9928" height="27.9928" transform="matrix(0.86601 -0.500028 -3.18351e-05 1 12.001 478.998)" fill="url(#paint19_linear_1586_2)"/>
<rect width="27.9928" height="27.9928" transform="matrix(0.866041 0.499973 -0.866041 0.499972 36.2432 492.992)" fill="url(#paint20_linear_1586_2)"/>
<rect width="27.9927" height="27.9928" transform="matrix(0.86601 0.500028 3.18351e-05 1 12 478.992)" fill="url(#paint21_linear_1586_2)"/>
<rect width="27.9928" height="27.9928" transform="matrix(0.86601 -0.500028 -3.18351e-05 1 36.2432 492.99)" fill="url(#paint22_linear_1586_2)"/>
<rect width="27.9928" height="27.9928" transform="matrix(0.866041 -0.499972 0.866041 0.499973 12 478.996)" fill="url(#paint23_linear_1586_2)"/>
<defs>
<linearGradient id="paint0_linear_1586_2" x1="-2.15482e-07" y1="13.8355" x2="27.9927" y2="13.8355" gradientUnits="userSpaceOnUse">
<stop stop-color="#16DBBE"/>
<stop offset="1" stop-color="#E54DE5"/>
</linearGradient>
<linearGradient id="paint1_linear_1586_2" x1="-2.15482e-07" y1="13.8355" x2="27.9927" y2="13.8355" gradientUnits="userSpaceOnUse">
<stop stop-color="#FFC800"/>
<stop offset="1" stop-color="#16DBBE"/>
</linearGradient>
<linearGradient id="paint2_linear_1586_2" x1="-2.15482e-07" y1="13.8355" x2="27.9927" y2="13.8355" gradientUnits="userSpaceOnUse">
<stop stop-color="#E54DE5"/>
<stop offset="1" stop-color="#FFC800"/>
</linearGradient>
<linearGradient id="paint3_linear_1586_2" x1="-2.15482e-07" y1="13.8355" x2="27.9927" y2="13.8355" gradientUnits="userSpaceOnUse">
<stop stop-color="#FFC800"/>
<stop offset="1" stop-color="#16DBBE"/>
</linearGradient>
<linearGradient id="paint4_linear_1586_2" x1="-2.15482e-07" y1="13.8355" x2="27.9927" y2="13.8355" gradientUnits="userSpaceOnUse">
<stop stop-color="#E54DE5"/>
<stop offset="1" stop-color="#FFC800"/>
</linearGradient>
<linearGradient id="paint5_linear_1586_2" x1="-2.15482e-07" y1="13.8355" x2="27.9927" y2="13.8355" gradientUnits="userSpaceOnUse">
<stop stop-color="#16DBBE"/>
<stop offset="1" stop-color="#E54DE5"/>
</linearGradient>
<linearGradient id="paint6_linear_1586_2" x1="-2.15482e-07" y1="13.8355" x2="27.9927" y2="13.8355" gradientUnits="userSpaceOnUse">
<stop stop-color="#16DBBE"/>
<stop offset="1" stop-color="#E54DE5"/>
</linearGradient>
<linearGradient id="paint7_linear_1586_2" x1="-2.15482e-07" y1="13.8355" x2="27.9927" y2="13.8355" gradientUnits="userSpaceOnUse">
<stop stop-color="#FFC800"/>
<stop offset="1" stop-color="#16DBBE"/>
</linearGradient>
<linearGradient id="paint8_linear_1586_2" x1="-2.15482e-07" y1="13.8355" x2="27.9927" y2="13.8355" gradientUnits="userSpaceOnUse">
<stop stop-color="#E54DE5"/>
<stop offset="1" stop-color="#FFC800"/>
</linearGradient>
<linearGradient id="paint9_linear_1586_2" x1="-2.15482e-07" y1="13.8355" x2="27.9927" y2="13.8355" gradientUnits="userSpaceOnUse">
<stop stop-color="#FFC800"/>
<stop offset="1" stop-color="#16DBBE"/>
</linearGradient>
<linearGradient id="paint10_linear_1586_2" x1="-2.15482e-07" y1="13.8355" x2="27.9927" y2="13.8355" gradientUnits="userSpaceOnUse">
<stop stop-color="#E54DE5"/>
<stop offset="1" stop-color="#FFC800"/>
</linearGradient>
<linearGradient id="paint11_linear_1586_2" x1="-2.15482e-07" y1="13.8355" x2="27.9927" y2="13.8355" gradientUnits="userSpaceOnUse">
<stop stop-color="#16DBBE"/>
<stop offset="1" stop-color="#E54DE5"/>
</linearGradient>
<linearGradient id="paint12_linear_1586_2" x1="-2.15482e-07" y1="13.8355" x2="27.9927" y2="13.8355" gradientUnits="userSpaceOnUse">
<stop stop-color="#16DBBE"/>
<stop offset="1" stop-color="#E54DE5"/>
</linearGradient>
<linearGradient id="paint13_linear_1586_2" x1="-2.15482e-07" y1="13.8355" x2="27.9927" y2="13.8355" gradientUnits="userSpaceOnUse">
<stop stop-color="#FFC800"/>
<stop offset="1" stop-color="#16DBBE"/>
</linearGradient>
<linearGradient id="paint14_linear_1586_2" x1="-2.15482e-07" y1="13.8355" x2="27.9927" y2="13.8355" gradientUnits="userSpaceOnUse">
<stop stop-color="#E54DE5"/>
<stop offset="1" stop-color="#FFC800"/>
</linearGradient>
<linearGradient id="paint15_linear_1586_2" x1="-2.15482e-07" y1="13.8355" x2="27.9927" y2="13.8355" gradientUnits="userSpaceOnUse">
<stop stop-color="#FFC800"/>
<stop offset="1" stop-color="#16DBBE"/>
</linearGradient>
<linearGradient id="paint16_linear_1586_2" x1="-2.15482e-07" y1="13.8355" x2="27.9927" y2="13.8355" gradientUnits="userSpaceOnUse">
<stop stop-color="#E54DE5"/>
<stop offset="1" stop-color="#FFC800"/>
</linearGradient>
<linearGradient id="paint17_linear_1586_2" x1="-2.15482e-07" y1="13.8355" x2="27.9927" y2="13.8355" gradientUnits="userSpaceOnUse">
<stop stop-color="#16DBBE"/>
<stop offset="1" stop-color="#E54DE5"/>
</linearGradient>
<linearGradient id="paint18_linear_1586_2" x1="-2.15482e-07" y1="13.8355" x2="27.9927" y2="13.8355" gradientUnits="userSpaceOnUse">
<stop stop-color="#16DBBE"/>
<stop offset="1" stop-color="#E54DE5"/>
</linearGradient>
<linearGradient id="paint19_linear_1586_2" x1="-2.15482e-07" y1="13.8355" x2="27.9927" y2="13.8355" gradientUnits="userSpaceOnUse">
<stop stop-color="#FFC800"/>
<stop offset="1" stop-color="#16DBBE"/>
</linearGradient>
<linearGradient id="paint20_linear_1586_2" x1="-2.15482e-07" y1="13.8355" x2="27.9927" y2="13.8355" gradientUnits="userSpaceOnUse">
<stop stop-color="#E54DE5"/>
<stop offset="1" stop-color="#FFC800"/>
</linearGradient>
<linearGradient id="paint21_linear_1586_2" x1="-2.15482e-07" y1="13.8355" x2="27.9927" y2="13.8355" gradientUnits="userSpaceOnUse">
<stop stop-color="#FFC800"/>
<stop offset="1" stop-color="#16DBBE"/>
</linearGradient>
<linearGradient id="paint22_linear_1586_2" x1="-2.15482e-07" y1="13.8355" x2="27.9927" y2="13.8355" gradientUnits="userSpaceOnUse">
<stop stop-color="#E54DE5"/>
<stop offset="1" stop-color="#FFC800"/>
</linearGradient>
<linearGradient id="paint23_linear_1586_2" x1="-2.15482e-07" y1="13.8355" x2="27.9927" y2="13.8355" gradientUnits="userSpaceOnUse">
<stop stop-color="#16DBBE"/>
<stop offset="1" stop-color="#E54DE5"/>
</linearGradient>
</defs>
</svg>
