<svg width="500" height="500" viewBox="0 0 500 500" fill="none" xmlns="http://www.w3.org/2000/svg">
<rect width="500" height="500" fill="white"/>
<g clip-path="url(#clip0_250_8)">
<path d="M292.75 450C264.207 450 243.373 443.125 230.249 429.375C218.092 417.735 211.036 401.756 210.626 384.93C210.478 379.819 211.663 374.756 214.063 370.241C216.303 366.34 219.537 363.102 223.437 360.86C227.97 358.599 232.966 357.423 238.031 357.423C243.096 357.423 248.092 358.599 252.625 360.86C256.517 363.094 259.737 366.334 261.945 370.241C264.415 374.734 265.644 379.805 265.506 384.93C265.761 391.052 264.005 397.088 260.507 402.118C257.59 406.223 253.422 409.273 248.627 410.811C253.317 416.781 259.952 420.918 267.377 422.5C275.684 424.912 284.288 426.153 292.938 426.186C304.391 426.286 315.609 422.932 325.127 416.561C335.001 409.585 342.364 399.614 346.126 388.124C350.895 374.45 353.222 360.043 353.001 345.563C353.386 330.466 350.839 315.439 345.501 301.312C341.486 290.013 333.865 280.35 323.814 273.812C314.471 267.899 303.625 264.797 292.569 264.875C282.935 265.691 273.646 268.845 265.506 274.063L245.438 284.124V274.063L335.625 153.076H210.626V278.625C210.273 287.685 212.669 296.64 217.501 304.313C219.839 307.656 223 310.339 226.679 312.102C230.358 313.864 234.43 314.647 238.5 314.374C246.021 314.222 253.294 311.659 259.249 307.062C265.998 302.116 271.871 296.074 276.625 289.186C277.052 287.979 277.841 286.932 278.884 286.188C279.722 285.465 280.791 285.065 281.898 285.063C284.069 285.262 286.124 286.135 287.773 287.562C289.862 289.896 290.999 292.929 290.96 296.062C290.718 298.167 290.343 300.254 289.835 302.311C285.394 313.059 277.951 322.3 268.396 328.928C259.522 334.933 249.04 338.117 238.325 338.063C211.261 338.063 192.512 332.729 182.078 322.063C176.715 316.167 172.582 309.261 169.921 301.749C167.259 294.236 166.123 286.268 166.578 278.311V153.076H103V129.749H166.874V76.5612L152.25 61.9272V50H194.686L210.626 58.2511V129.749L375.748 129.247L392.188 145.746L290.937 247.489C297.054 245.029 303.496 243.471 310.061 242.864C323.054 243.433 335.732 247.052 347.068 253.427C360.195 259.667 371.257 269.539 378.945 281.874C385.833 292.316 390.708 303.954 393.32 316.187C395.468 325.837 396.619 335.681 396.758 345.566C396.825 364.43 392.548 383.056 384.258 400.001C376.396 416.41 363.165 429.641 346.756 437.503C329.96 445.78 311.475 450.057 292.75 450Z" fill="#2C7DF7"/>
</g>
<defs>
<clipPath id="clip0_250_8">
<rect width="293.753" height="400" fill="white" transform="translate(103 50)"/>
</clipPath>
</defs>
</svg>
