<svg width="61" height="61" viewBox="0 0 61 61" fill="none" xmlns="http://www.w3.org/2000/svg">
<path d="M48.6753 13.8251C45.3503 12.2751 41.7503 11.1501 38.0003 10.5001C37.9674 10.4991 37.9347 10.5052 37.9045 10.5182C37.8742 10.5312 37.8472 10.5506 37.8253 10.5751C37.3753 11.4001 36.8503 12.4751 36.5003 13.3001C32.5228 12.7001 28.4778 12.7001 24.5003 13.3001C24.1503 12.4501 23.6253 11.4001 23.1503 10.5751C23.1253 10.5251 23.0503 10.5001 22.9753 10.5001C19.2253 11.1501 15.6503 12.2751 12.3003 13.8251C12.2753 13.8251 12.2503 13.8501 12.2253 13.8751C5.42529 24.0501 3.55029 33.9501 4.47529 43.7501C4.47529 43.8001 4.50029 43.8501 4.55029 43.8751C9.05029 47.1751 13.3753 49.1751 17.6503 50.5001C17.7253 50.5251 17.8003 50.5001 17.8253 50.4501C18.8253 49.0751 19.7253 47.6251 20.5003 46.1001C20.5503 46.0001 20.5003 45.9001 20.4003 45.8751C18.9753 45.3251 17.6253 44.6751 16.3003 43.9251C16.2003 43.8751 16.2003 43.7251 16.2753 43.6501C16.5503 43.4501 16.8253 43.2251 17.1003 43.0251C17.1503 42.9751 17.2253 42.9751 17.2753 43.0001C25.8753 46.9251 35.1503 46.9251 43.6503 43.0001C43.7003 42.9751 43.7753 42.9751 43.8253 43.0251C44.1003 43.2501 44.3753 43.4501 44.6503 43.6751C44.7503 43.7501 44.7503 43.9001 44.6253 43.9501C43.3253 44.7251 41.9503 45.3501 40.5253 45.9001C40.4253 45.9251 40.4003 46.0501 40.4253 46.1251C41.2253 47.6501 42.1253 49.1001 43.1003 50.4751C43.1753 50.5001 43.2503 50.5251 43.3253 50.5001C47.6253 49.1751 51.9503 47.1751 56.4503 43.8751C56.5003 43.8501 56.5253 43.8001 56.5253 43.7501C57.6253 32.4251 54.7003 22.6001 48.7753 13.8751C48.7503 13.8501 48.7253 13.8251 48.6753 13.8251ZM21.8003 37.7751C19.2253 37.7751 17.0753 35.4001 17.0753 32.4751C17.0753 29.5501 19.1753 27.1751 21.8003 27.1751C24.4503 27.1751 26.5503 29.5751 26.5253 32.4751C26.5253 35.4001 24.4253 37.7751 21.8003 37.7751ZM39.2253 37.7751C36.6503 37.7751 34.5003 35.4001 34.5003 32.4751C34.5003 29.5501 36.6003 27.1751 39.2253 27.1751C41.8753 27.1751 43.9753 29.5751 43.9503 32.4751C43.9503 35.4001 41.8753 37.7751 39.2253 37.7751Z" fill="url(#paint0_linear_768_1404)"/>
<defs>
<linearGradient id="paint0_linear_768_1404" x1="9.5" y1="13" x2="53" y2="45.5" gradientUnits="userSpaceOnUse">
<stop stop-color="#E54DE5"/>
<stop offset="0.50521" stop-color="#E5CA16"/>
<stop offset="1" stop-color="#16DBBE"/>
</linearGradient>
</defs>
</svg>
