<svg width="60" height="61" viewBox="0 0 60 61" fill="none" xmlns="http://www.w3.org/2000/svg">
<path d="M32.5695 5.50259C34.3938 5.49559 36.2182 5.51392 38.042 5.55759L38.527 5.57509C39.087 5.59509 39.6395 5.62009 40.307 5.65009C42.967 5.77509 44.782 6.19509 46.3745 6.81259C48.0245 7.44759 49.4145 8.30759 50.8045 9.69759C52.0754 10.9466 53.0591 12.4575 53.687 14.1251C54.3045 15.7176 54.7245 17.5351 54.8495 20.1951C54.8795 20.8601 54.9045 21.4151 54.9245 21.9751L54.9395 22.4601C54.9839 24.2831 55.0031 26.1066 54.997 27.9301L54.9995 29.7951V33.0701C55.0057 34.8944 54.9865 36.7188 54.942 38.5426L54.927 39.0276C54.907 39.5876 54.882 40.1401 54.852 40.8076C54.727 43.4676 54.302 45.2826 53.687 46.8751C53.0611 48.5445 52.0772 50.0566 50.8045 51.3051C49.5544 52.5759 48.0428 53.5595 46.3745 54.1876C44.782 54.8051 42.967 55.2251 40.307 55.3501C39.6395 55.3801 39.087 55.4051 38.527 55.4251L38.042 55.4401C36.2182 55.4845 34.3938 55.5037 32.5695 55.4976L30.7045 55.5001H27.432C25.6076 55.5063 23.7833 55.4871 21.9595 55.4426L21.4745 55.4276C20.881 55.4061 20.2877 55.3811 19.6945 55.3526C17.0345 55.2276 15.2195 54.8026 13.6245 54.1876C11.9562 53.561 10.4451 52.5771 9.19699 51.3051C7.9246 50.0558 6.94005 48.544 6.31199 46.8751C5.69449 45.2826 5.27449 43.4676 5.14949 40.8076C5.12165 40.2144 5.09665 39.621 5.07449 39.0276L5.06199 38.5426C5.0159 36.7188 4.99506 34.8945 4.99949 33.0701V27.9301C4.99251 26.1066 5.01085 24.2831 5.05449 22.4601L5.07199 21.9751C5.09199 21.4151 5.11699 20.8601 5.14699 20.1951C5.27199 17.5326 5.69199 15.7201 6.30949 14.1251C6.93792 12.4566 7.9244 10.9462 9.19949 9.70009C10.4467 8.42697 11.9569 7.44152 13.6245 6.81259C15.2195 6.19509 17.032 5.77509 19.6945 5.65009L21.4745 5.57509L21.9595 5.56259C23.7824 5.51652 25.606 5.49568 27.4295 5.50009L32.5695 5.50259ZM29.9995 18.0026C28.3433 17.9792 26.6989 18.2851 25.1619 18.9028C23.625 19.5204 22.2261 20.4373 21.0466 21.6002C19.8671 22.7632 18.9305 24.1489 18.2912 25.677C17.6519 27.2051 17.3227 28.8449 17.3227 30.5013C17.3227 32.1577 17.6519 33.7976 18.2912 35.3257C18.9305 36.8537 19.8671 38.2395 21.0466 39.4025C22.2261 40.5654 23.625 41.4823 25.1619 42.0999C26.6989 42.7175 28.3433 43.0235 29.9995 43.0001C33.3147 43.0001 36.4941 41.6831 38.8383 39.3389C41.1825 36.9947 42.4995 33.8153 42.4995 30.5001C42.4995 27.1849 41.1825 24.0055 38.8383 21.6613C36.4941 19.317 33.3147 18.0026 29.9995 18.0026ZM29.9995 23.0026C30.9958 22.9842 31.9857 23.1646 32.9115 23.5331C33.8373 23.9016 34.6803 24.4509 35.3914 25.1489C36.1025 25.847 36.6674 26.6797 37.0531 27.5984C37.4388 28.5172 37.6375 29.5036 37.6377 30.5001C37.6378 31.4965 37.4394 32.483 37.0541 33.4019C36.6687 34.3208 36.1041 35.1537 35.3932 35.8519C34.6823 36.5502 33.8395 37.0998 32.9138 37.4686C31.9881 37.8374 30.9983 38.0181 30.002 38.0001C28.0129 38.0001 26.1052 37.2099 24.6987 35.8034C23.2922 34.3969 22.502 32.4892 22.502 30.5001C22.502 28.511 23.2922 26.6033 24.6987 25.1968C26.1052 23.7903 28.0129 23.0001 30.002 23.0001L29.9995 23.0026ZM43.1245 14.2526C42.318 14.2849 41.5552 14.628 40.996 15.21C40.4368 15.7921 40.1245 16.5679 40.1245 17.3751C40.1245 18.1823 40.4368 18.9581 40.996 19.5402C41.5552 20.1222 42.318 20.4653 43.1245 20.4976C43.9533 20.4976 44.7481 20.1683 45.3342 19.5823C45.9203 18.9962 46.2495 18.2014 46.2495 17.3726C46.2495 16.5438 45.9203 15.7489 45.3342 15.1629C44.7481 14.5768 43.9533 14.2476 43.1245 14.2476V14.2526Z" fill="url(#paint0_linear_768_1446)"/>
<defs>
<linearGradient id="paint0_linear_768_1446" x1="9.99902" y1="5.5" x2="52.499" y2="53.5" gradientUnits="userSpaceOnUse">
<stop stop-color="#E54DE5"/>
<stop offset="0.526043" stop-color="#FCC803"/>
<stop offset="1" stop-color="#46FFC8"/>
</linearGradient>
</defs>
</svg>
