<svg width="60" height="61" viewBox="0 0 60 61" fill="none" xmlns="http://www.w3.org/2000/svg">
<path d="M26.8748 33.1C26.8748 31.675 25.6998 30.5 24.2748 30.5C22.8498 30.5 21.6748 31.675 21.6748 33.1C21.6748 33.7896 21.9487 34.4509 22.4363 34.9385C22.9239 35.4261 23.5852 35.7 24.2748 35.7C24.9644 35.7 25.6257 35.4261 26.1133 34.9385C26.6009 34.4509 26.8748 33.7896 26.8748 33.1ZM35.2248 39.025C34.0998 40.15 31.6998 40.55 29.9998 40.55C28.2998 40.55 25.8998 40.15 24.7748 39.025C24.714 38.9599 24.6404 38.908 24.5587 38.8725C24.477 38.837 24.3889 38.8187 24.2998 38.8187C24.2107 38.8187 24.1226 38.837 24.0409 38.8725C23.9592 38.908 23.8856 38.9599 23.8248 39.025C23.7597 39.0858 23.7078 39.1594 23.6723 39.2411C23.6368 39.3228 23.6185 39.4109 23.6185 39.5C23.6185 39.5891 23.6368 39.6772 23.6723 39.7589C23.7078 39.8406 23.7597 39.9142 23.8248 39.975C25.5998 41.75 28.9998 41.9 29.9998 41.9C30.9998 41.9 34.3998 41.75 36.1748 39.975C36.2399 39.9142 36.2918 39.8406 36.3273 39.7589C36.3628 39.6772 36.3811 39.5891 36.3811 39.5C36.3811 39.4109 36.3628 39.3228 36.3273 39.2411C36.2918 39.1594 36.2399 39.0858 36.1748 39.025C35.9248 38.775 35.4998 38.775 35.2248 39.025ZM35.7248 30.5C34.2998 30.5 33.1248 31.675 33.1248 33.1C33.1248 34.525 34.2998 35.7 35.7248 35.7C37.1498 35.7 38.3248 34.525 38.3248 33.1C38.3248 31.675 37.1748 30.5 35.7248 30.5Z" fill="url(#paint0_linear_768_1424)"/>
<path d="M30 5.5C16.2 5.5 5 16.7 5 30.5C5 44.3 16.2 55.5 30 55.5C43.8 55.5 55 44.3 55 30.5C55 16.7 43.8 5.5 30 5.5ZM44.5 33.825C44.55 34.175 44.575 34.55 44.575 34.925C44.575 40.525 38.05 45.075 30 45.075C21.95 45.075 15.425 40.525 15.425 34.925C15.425 34.55 15.45 34.175 15.5 33.825C14.225 33.25 13.35 31.975 13.35 30.5C13.3463 29.7831 13.5545 29.0811 13.9485 28.4822C14.3425 27.8832 14.9046 27.4141 15.5644 27.1336C16.2241 26.8531 16.9521 26.7739 17.6567 26.9058C18.3614 27.0377 19.0114 27.3749 19.525 27.875C22.05 26.05 25.55 24.9 29.425 24.775L31.275 16.05C31.3 15.875 31.4 15.725 31.55 15.65C31.7 15.55 31.875 15.525 32.05 15.55L38.1 16.85C38.3052 16.4339 38.618 16.0804 39.0059 15.8259C39.3938 15.5715 39.8427 15.4255 40.306 15.4031C40.7694 15.3806 41.2303 15.4825 41.641 15.6983C42.0517 15.914 42.3971 16.2357 42.6416 16.63C42.886 17.0242 43.0205 17.4767 43.0312 17.9405C43.0418 18.4043 42.9281 18.8624 42.702 19.2675C42.4758 19.6725 42.1454 20.0097 41.745 20.244C41.3447 20.4783 40.8889 20.6012 40.425 20.6C39.025 20.6 37.9 19.5 37.825 18.125L32.4 16.975L30.75 24.775C34.575 24.9 38 26.075 40.5 27.875C40.8832 27.509 41.3418 27.2312 41.8437 27.061C42.3455 26.8908 42.8784 26.8323 43.4053 26.8895C43.9321 26.9468 44.44 27.1185 44.8935 27.3926C45.3471 27.6667 45.7352 28.0365 46.0309 28.4763C46.3265 28.9161 46.5225 29.4151 46.6051 29.9386C46.6877 30.462 46.655 30.9972 46.5092 31.5066C46.3634 32.0161 46.108 32.4875 45.761 32.888C45.4139 33.2885 44.9836 33.6082 44.5 33.825Z" fill="url(#paint1_linear_768_1424)"/>
<defs>
<linearGradient id="paint0_linear_768_1424" x1="13.5" y1="12" x2="46.5" y2="50.5" gradientUnits="userSpaceOnUse">
<stop stop-color="#E960C4"/>
<stop offset="0.484376" stop-color="#FEC110"/>
<stop offset="1" stop-color="#46FFC8"/>
</linearGradient>
<linearGradient id="paint1_linear_768_1424" x1="11.5" y1="8" x2="49.5" y2="49.5" gradientUnits="userSpaceOnUse">
<stop stop-color="#E54DE5"/>
<stop offset="0.545802" stop-color="#FEC20D"/>
<stop offset="1" stop-color="#46FFC8"/>
</linearGradient>
</defs>
</svg>
