<svg width="61" height="61" viewBox="0 0 61 61" fill="none" xmlns="http://www.w3.org/2000/svg">
<path d="M30.5 5.5C16.7 5.5 5.5 16.7 5.5 30.5C5.5 44.3 16.7 55.5 30.5 55.5C44.3 55.5 55.5 44.3 55.5 30.5C55.5 16.7 44.3 5.5 30.5 5.5ZM42.1 22.5C41.725 26.45 40.1 36.05 39.275 40.475C38.925 42.35 38.225 42.975 37.575 43.05C36.125 43.175 35.025 42.1 33.625 41.175C31.425 39.725 30.175 38.825 28.05 37.425C25.575 35.8 27.175 34.9 28.6 33.45C28.975 33.075 35.375 27.25 35.5 26.725C35.5174 26.6455 35.5151 26.5629 35.4933 26.4845C35.4715 26.4061 35.4309 26.3342 35.375 26.275C35.225 26.15 35.025 26.2 34.85 26.225C34.625 26.275 31.125 28.6 24.3 33.2C23.3 33.875 22.4 34.225 21.6 34.2C20.7 34.175 19 33.7 17.725 33.275C16.15 32.775 14.925 32.5 15.025 31.625C15.075 31.175 15.7 30.725 16.875 30.25C24.175 27.075 29.025 24.975 31.45 23.975C38.4 21.075 39.825 20.575 40.775 20.575C40.975 20.575 41.45 20.625 41.75 20.875C42 21.075 42.075 21.35 42.1 21.55C42.075 21.7 42.125 22.15 42.1 22.5Z" fill="url(#paint0_linear_768_1413)"/>
<defs>
<linearGradient id="paint0_linear_768_1413" x1="30.5" y1="5.5" x2="30.5" y2="55.5" gradientUnits="userSpaceOnUse">
<stop stop-color="#E54DE5"/>
<stop offset="0.494793" stop-color="#FFC800"/>
<stop offset="1" stop-color="#16DBBE"/>
</linearGradient>
</defs>
</svg>
