<svg width="910" height="50" viewBox="0 0 910 50" fill="none" xmlns="http://www.w3.org/2000/svg">
<rect width="25.0013" height="25.0013" transform="matrix(0.86601 0.500028 3.18351e-05 1 584.614 0)" fill="url(#paint0_linear_792_123)"/>
<rect width="25.0013" height="25.0013" transform="matrix(0.86601 -0.500028 -3.18351e-05 1 562.963 12.502)" fill="url(#paint1_linear_792_123)"/>
<rect width="25.0013" height="25.0013" transform="matrix(0.866041 0.499972 -0.866041 0.499972 584.614 25)" fill="url(#paint2_linear_792_123)"/>
<rect width="25.0013" height="25.0013" transform="matrix(0.86601 0.500028 3.18351e-05 1 562.962 12.4971)" fill="url(#paint3_linear_792_123)"/>
<rect width="25.0013" height="25.0013" transform="matrix(0.86601 -0.500028 -3.18351e-05 1 584.614 24.999)" fill="url(#paint4_linear_792_123)"/>
<rect width="25.0013" height="25.0013" transform="matrix(0.866041 -0.499972 0.866041 0.499972 562.962 12.5)" fill="url(#paint5_linear_792_123)"/>
<rect width="25.0013" height="25.0013" transform="matrix(-0.866009 -0.500028 -3.17476e-05 -1 541.31 50.001)" fill="url(#paint6_linear_792_123)"/>
<rect width="25.0013" height="25.0013" transform="matrix(-0.86601 0.500028 3.19225e-05 -1 562.961 37.499)" fill="url(#paint7_linear_792_123)"/>
<rect width="25.0013" height="25.0013" transform="matrix(-0.866041 -0.499973 0.866041 -0.499972 541.31 25.001)" fill="url(#paint8_linear_792_123)"/>
<rect width="25.0013" height="25.0013" transform="matrix(-0.866009 -0.500028 -3.17476e-05 -1 562.962 37.5039)" fill="url(#paint9_linear_792_123)"/>
<rect width="25.0013" height="25.0013" transform="matrix(-0.86601 0.500028 3.19225e-05 -1 541.31 25.002)" fill="url(#paint10_linear_792_123)"/>
<rect width="25.0013" height="25.0013" transform="matrix(-0.866041 0.499972 -0.866041 -0.499973 562.962 37.501)" fill="url(#paint11_linear_792_123)"/>
<rect width="25.0013" height="25.0013" transform="matrix(-0.866009 -0.500028 -3.17476e-05 -1 368.091 50.001)" fill="url(#paint12_linear_792_123)"/>
<rect width="25.0013" height="25.0013" transform="matrix(-0.86601 0.500028 3.19225e-05 -1 389.742 37.499)" fill="url(#paint13_linear_792_123)"/>
<rect width="25.0013" height="25.0013" transform="matrix(-0.866041 -0.499973 0.866041 -0.499972 368.091 25.001)" fill="url(#paint14_linear_792_123)"/>
<rect width="25.0013" height="25.0013" transform="matrix(-0.866009 -0.500028 -3.17476e-05 -1 389.743 37.5039)" fill="url(#paint15_linear_792_123)"/>
<rect width="25.0013" height="25.0013" transform="matrix(-0.86601 0.500028 3.19225e-05 -1 368.091 25.002)" fill="url(#paint16_linear_792_123)"/>
<rect width="25.0013" height="25.0013" transform="matrix(-0.866041 0.499972 -0.866041 -0.499973 389.743 37.501)" fill="url(#paint17_linear_792_123)"/>
<rect width="25.0013" height="25.0013" transform="matrix(-0.866009 -0.500028 -3.17476e-05 -1 281.48 50.001)" fill="url(#paint18_linear_792_123)"/>
<rect width="25.0013" height="25.0013" transform="matrix(-0.86601 0.500028 3.19225e-05 -1 303.132 37.499)" fill="url(#paint19_linear_792_123)"/>
<rect width="25.0013" height="25.0013" transform="matrix(-0.866041 -0.499973 0.866041 -0.499972 281.48 25.001)" fill="url(#paint20_linear_792_123)"/>
<rect width="25.0013" height="25.0013" transform="matrix(-0.866009 -0.500028 -3.17476e-05 -1 303.133 37.5039)" fill="url(#paint21_linear_792_123)"/>
<rect width="25.0013" height="25.0013" transform="matrix(-0.86601 0.500028 3.19225e-05 -1 281.48 25.002)" fill="url(#paint22_linear_792_123)"/>
<rect width="25.0013" height="25.0013" transform="matrix(-0.866041 0.499972 -0.866041 -0.499973 303.133 37.501)" fill="url(#paint23_linear_792_123)"/>
<rect width="25.0013" height="25.0013" transform="matrix(-0.866009 -0.500028 -3.17476e-05 -1 194.871 50.001)" fill="url(#paint24_linear_792_123)"/>
<rect width="25.0013" height="25.0013" transform="matrix(-0.86601 0.500028 3.19225e-05 -1 216.522 37.499)" fill="url(#paint25_linear_792_123)"/>
<rect width="25.0013" height="25.0013" transform="matrix(-0.866041 -0.499973 0.866041 -0.499972 194.871 25.001)" fill="url(#paint26_linear_792_123)"/>
<rect width="25.0013" height="25.0013" transform="matrix(-0.866009 -0.500028 -3.17476e-05 -1 216.523 37.5039)" fill="url(#paint27_linear_792_123)"/>
<rect width="25.0013" height="25.0013" transform="matrix(-0.86601 0.500028 3.19225e-05 -1 194.871 25.002)" fill="url(#paint28_linear_792_123)"/>
<rect width="25.0013" height="25.0013" transform="matrix(-0.866041 0.499972 -0.866041 -0.499973 216.523 37.501)" fill="url(#paint29_linear_792_123)"/>
<rect width="25.0013" height="25.0013" transform="matrix(-0.866009 -0.500028 -3.17476e-05 -1 108.262 50.001)" fill="url(#paint30_linear_792_123)"/>
<rect width="25.0013" height="25.0013" transform="matrix(-0.86601 0.500028 3.19225e-05 -1 129.913 37.499)" fill="url(#paint31_linear_792_123)"/>
<rect width="25.0013" height="25.0013" transform="matrix(-0.866041 -0.499973 0.866041 -0.499972 108.262 25.001)" fill="url(#paint32_linear_792_123)"/>
<rect width="25.0013" height="25.0013" transform="matrix(-0.866009 -0.500028 -3.17476e-05 -1 129.914 37.5039)" fill="url(#paint33_linear_792_123)"/>
<rect width="25.0013" height="25.0013" transform="matrix(-0.86601 0.500028 3.19225e-05 -1 108.262 25.002)" fill="url(#paint34_linear_792_123)"/>
<rect width="25.0013" height="25.0013" transform="matrix(-0.866041 0.499972 -0.866041 -0.499973 129.914 37.501)" fill="url(#paint35_linear_792_123)"/>
<rect width="25.0013" height="25.0013" transform="matrix(-0.866009 -0.500028 -3.17476e-05 -1 21.6523 50.001)" fill="url(#paint36_linear_792_123)"/>
<rect width="25.0013" height="25.0013" transform="matrix(-0.86601 0.500028 3.19225e-05 -1 43.3037 37.499)" fill="url(#paint37_linear_792_123)"/>
<rect width="25.0013" height="25.0013" transform="matrix(-0.866041 -0.499973 0.866041 -0.499972 21.6523 25.001)" fill="url(#paint38_linear_792_123)"/>
<rect width="25.0013" height="25.0013" transform="matrix(-0.866009 -0.500028 -3.17476e-05 -1 43.3047 37.5039)" fill="url(#paint39_linear_792_123)"/>
<rect width="25.0013" height="25.0013" transform="matrix(-0.86601 0.500028 3.19225e-05 -1 21.6523 25.002)" fill="url(#paint40_linear_792_123)"/>
<rect width="25.0013" height="25.0013" transform="matrix(-0.866041 0.499972 -0.866041 -0.499973 43.3047 37.501)" fill="url(#paint41_linear_792_123)"/>
<rect width="25.0013" height="25.0013" transform="matrix(-0.866009 -0.500028 -3.17476e-05 -1 714.529 50.001)" fill="url(#paint42_linear_792_123)"/>
<rect width="25.0013" height="25.0013" transform="matrix(-0.86601 0.500028 3.19225e-05 -1 736.181 37.499)" fill="url(#paint43_linear_792_123)"/>
<rect width="25.0013" height="25.0013" transform="matrix(-0.866041 -0.499973 0.866041 -0.499972 714.529 25.001)" fill="url(#paint44_linear_792_123)"/>
<rect width="25.0013" height="25.0013" transform="matrix(-0.866009 -0.500028 -3.17476e-05 -1 736.182 37.5039)" fill="url(#paint45_linear_792_123)"/>
<rect width="25.0013" height="25.0013" transform="matrix(-0.86601 0.500028 3.19225e-05 -1 714.529 25.002)" fill="url(#paint46_linear_792_123)"/>
<rect width="25.0013" height="25.0013" transform="matrix(-0.866041 0.499972 -0.866041 -0.499973 736.182 37.501)" fill="url(#paint47_linear_792_123)"/>
<rect width="25.0013" height="25.0013" transform="matrix(-0.866009 -0.500028 -3.17476e-05 -1 801.139 50.001)" fill="url(#paint48_linear_792_123)"/>
<rect width="25.0013" height="25.0013" transform="matrix(-0.86601 0.500028 3.19225e-05 -1 822.79 37.499)" fill="url(#paint49_linear_792_123)"/>
<rect width="25.0013" height="25.0013" transform="matrix(-0.866041 -0.499973 0.866041 -0.499972 801.139 25.001)" fill="url(#paint50_linear_792_123)"/>
<rect width="25.0013" height="25.0013" transform="matrix(-0.866009 -0.500028 -3.17476e-05 -1 822.791 37.5039)" fill="url(#paint51_linear_792_123)"/>
<rect width="25.0013" height="25.0013" transform="matrix(-0.86601 0.500028 3.19225e-05 -1 801.139 25.002)" fill="url(#paint52_linear_792_123)"/>
<rect width="25.0013" height="25.0013" transform="matrix(-0.866041 0.499972 -0.866041 -0.499973 822.791 37.501)" fill="url(#paint53_linear_792_123)"/>
<rect width="25.0013" height="25.0013" transform="matrix(-0.866009 -0.500028 -3.17476e-05 -1 887.749 50.001)" fill="url(#paint54_linear_792_123)"/>
<rect width="25.0013" height="25.0013" transform="matrix(-0.86601 0.500028 3.19225e-05 -1 909.4 37.499)" fill="url(#paint55_linear_792_123)"/>
<rect width="25.0013" height="25.0013" transform="matrix(-0.866041 -0.499973 0.866041 -0.499972 887.749 25.001)" fill="url(#paint56_linear_792_123)"/>
<rect width="25.0013" height="25.0013" transform="matrix(-0.866009 -0.500028 -3.17476e-05 -1 909.401 37.5039)" fill="url(#paint57_linear_792_123)"/>
<rect width="25.0013" height="25.0013" transform="matrix(-0.86601 0.500028 3.19225e-05 -1 887.749 25.002)" fill="url(#paint58_linear_792_123)"/>
<rect width="25.0013" height="25.0013" transform="matrix(-0.866041 0.499972 -0.866041 -0.499973 909.401 37.501)" fill="url(#paint59_linear_792_123)"/>
<rect width="25.0013" height="25.0013" transform="matrix(-0.866009 -0.500028 -3.17476e-05 -1 454.7 50.001)" fill="url(#paint60_linear_792_123)"/>
<rect width="25.0013" height="25.0013" transform="matrix(-0.86601 0.500028 3.19225e-05 -1 476.352 37.499)" fill="url(#paint61_linear_792_123)"/>
<rect width="25.0013" height="25.0013" transform="matrix(-0.866041 -0.499973 0.866041 -0.499972 454.7 25.001)" fill="url(#paint62_linear_792_123)"/>
<rect width="25.0013" height="25.0013" transform="matrix(-0.866009 -0.500028 -3.17476e-05 -1 476.353 37.5039)" fill="url(#paint63_linear_792_123)"/>
<rect width="25.0013" height="25.0013" transform="matrix(-0.86601 0.500028 3.19225e-05 -1 454.7 25.002)" fill="url(#paint64_linear_792_123)"/>
<rect width="25.0013" height="25.0013" transform="matrix(-0.866041 0.499972 -0.866041 -0.499973 476.353 37.501)" fill="url(#paint65_linear_792_123)"/>
<rect width="25.0013" height="25.0013" transform="matrix(0.86601 0.500028 3.18351e-05 1 671.224 0)" fill="url(#paint66_linear_792_123)"/>
<rect width="25.0013" height="25.0013" transform="matrix(0.86601 -0.500028 -3.18351e-05 1 649.572 12.502)" fill="url(#paint67_linear_792_123)"/>
<rect width="25.0013" height="25.0013" transform="matrix(0.866041 0.499972 -0.866041 0.499972 671.224 25)" fill="url(#paint68_linear_792_123)"/>
<rect width="25.0013" height="25.0013" transform="matrix(0.86601 0.500028 3.18351e-05 1 649.571 12.4971)" fill="url(#paint69_linear_792_123)"/>
<rect width="25.0013" height="25.0013" transform="matrix(0.86601 -0.500028 -3.18351e-05 1 671.224 24.999)" fill="url(#paint70_linear_792_123)"/>
<rect width="25.0013" height="25.0013" transform="matrix(0.866041 -0.499972 0.866041 0.499972 649.571 12.5)" fill="url(#paint71_linear_792_123)"/>
<rect width="25.0013" height="25.0013" transform="matrix(0.86601 0.500028 3.18351e-05 1 757.834 0)" fill="url(#paint72_linear_792_123)"/>
<rect width="25.0013" height="25.0013" transform="matrix(0.86601 -0.500028 -3.18351e-05 1 736.183 12.502)" fill="url(#paint73_linear_792_123)"/>
<rect width="25.0013" height="25.0013" transform="matrix(0.866041 0.499972 -0.866041 0.499972 757.834 25)" fill="url(#paint74_linear_792_123)"/>
<rect width="25.0013" height="25.0013" transform="matrix(0.86601 0.500028 3.18351e-05 1 736.182 12.4971)" fill="url(#paint75_linear_792_123)"/>
<rect width="25.0013" height="25.0013" transform="matrix(0.86601 -0.500028 -3.18351e-05 1 757.834 24.999)" fill="url(#paint76_linear_792_123)"/>
<rect width="25.0013" height="25.0013" transform="matrix(0.866041 -0.499972 0.866041 0.499972 736.182 12.5)" fill="url(#paint77_linear_792_123)"/>
<rect width="25.0013" height="25.0013" transform="matrix(0.86601 0.500028 3.18351e-05 1 844.443 0)" fill="url(#paint78_linear_792_123)"/>
<rect width="25.0013" height="25.0013" transform="matrix(0.86601 -0.500028 -3.18351e-05 1 822.792 12.502)" fill="url(#paint79_linear_792_123)"/>
<rect width="25.0013" height="25.0013" transform="matrix(0.866041 0.499972 -0.866041 0.499972 844.443 25)" fill="url(#paint80_linear_792_123)"/>
<rect width="25.0013" height="25.0013" transform="matrix(0.86601 0.500028 3.18351e-05 1 822.791 12.4971)" fill="url(#paint81_linear_792_123)"/>
<rect width="25.0013" height="25.0013" transform="matrix(0.86601 -0.500028 -3.18351e-05 1 844.443 24.999)" fill="url(#paint82_linear_792_123)"/>
<rect width="25.0013" height="25.0013" transform="matrix(0.866041 -0.499972 0.866041 0.499972 822.791 12.5)" fill="url(#paint83_linear_792_123)"/>
<rect width="25.0013" height="25.0013" transform="matrix(0.86601 0.500028 3.18351e-05 1 411.396 0)" fill="url(#paint84_linear_792_123)"/>
<rect width="25.0013" height="25.0013" transform="matrix(0.86601 -0.500028 -3.18351e-05 1 389.744 12.502)" fill="url(#paint85_linear_792_123)"/>
<rect width="25.0013" height="25.0013" transform="matrix(0.866041 0.499972 -0.866041 0.499972 411.396 25)" fill="url(#paint86_linear_792_123)"/>
<rect width="25.0013" height="25.0013" transform="matrix(0.86601 0.500028 3.18351e-05 1 389.743 12.4971)" fill="url(#paint87_linear_792_123)"/>
<rect width="25.0013" height="25.0013" transform="matrix(0.86601 -0.500028 -3.18351e-05 1 411.396 24.999)" fill="url(#paint88_linear_792_123)"/>
<rect width="25.0013" height="25.0013" transform="matrix(0.866041 -0.499972 0.866041 0.499972 389.743 12.5)" fill="url(#paint89_linear_792_123)"/>
<rect width="25.0013" height="25.0013" transform="matrix(0.86601 0.500028 3.18351e-05 1 324.786 0)" fill="url(#paint90_linear_792_123)"/>
<rect width="25.0013" height="25.0013" transform="matrix(0.86601 -0.500028 -3.18351e-05 1 303.135 12.502)" fill="url(#paint91_linear_792_123)"/>
<rect width="25.0013" height="25.0013" transform="matrix(0.866041 0.499972 -0.866041 0.499972 324.786 25)" fill="url(#paint92_linear_792_123)"/>
<rect width="25.0013" height="25.0013" transform="matrix(0.86601 0.500028 3.18351e-05 1 303.134 12.4971)" fill="url(#paint93_linear_792_123)"/>
<rect width="25.0013" height="25.0013" transform="matrix(0.86601 -0.500028 -3.18351e-05 1 324.786 24.999)" fill="url(#paint94_linear_792_123)"/>
<rect width="25.0013" height="25.0013" transform="matrix(0.866041 -0.499972 0.866041 0.499972 303.134 12.5)" fill="url(#paint95_linear_792_123)"/>
<rect width="25.0013" height="25.0013" transform="matrix(0.86601 0.500028 3.18351e-05 1 238.176 0)" fill="url(#paint96_linear_792_123)"/>
<rect width="25.0013" height="25.0013" transform="matrix(0.86601 -0.500028 -3.18351e-05 1 216.524 12.502)" fill="url(#paint97_linear_792_123)"/>
<rect width="25.0013" height="25.0013" transform="matrix(0.866041 0.499972 -0.866041 0.499972 238.176 25)" fill="url(#paint98_linear_792_123)"/>
<rect width="25.0013" height="25.0013" transform="matrix(0.86601 0.500028 3.18351e-05 1 216.523 12.4971)" fill="url(#paint99_linear_792_123)"/>
<rect width="25.0013" height="25.0013" transform="matrix(0.86601 -0.500028 -3.18351e-05 1 238.176 24.999)" fill="url(#paint100_linear_792_123)"/>
<rect width="25.0013" height="25.0013" transform="matrix(0.866041 -0.499972 0.866041 0.499972 216.523 12.5)" fill="url(#paint101_linear_792_123)"/>
<rect width="25.0013" height="25.0013" transform="matrix(0.86601 0.500028 3.18351e-05 1 151.566 0)" fill="url(#paint102_linear_792_123)"/>
<rect width="25.0013" height="25.0013" transform="matrix(0.86601 -0.500028 -3.18351e-05 1 129.915 12.502)" fill="url(#paint103_linear_792_123)"/>
<rect width="25.0013" height="25.0013" transform="matrix(0.866041 0.499972 -0.866041 0.499972 151.566 25)" fill="url(#paint104_linear_792_123)"/>
<rect width="25.0013" height="25.0013" transform="matrix(0.86601 0.500028 3.18351e-05 1 129.914 12.4971)" fill="url(#paint105_linear_792_123)"/>
<rect width="25.0013" height="25.0013" transform="matrix(0.86601 -0.500028 -3.18351e-05 1 151.566 24.999)" fill="url(#paint106_linear_792_123)"/>
<rect width="25.0013" height="25.0013" transform="matrix(0.866041 -0.499972 0.866041 0.499972 129.914 12.5)" fill="url(#paint107_linear_792_123)"/>
<rect width="25.0013" height="25.0013" transform="matrix(0.86601 0.500028 3.18351e-05 1 64.957 0)" fill="url(#paint108_linear_792_123)"/>
<rect width="25.0013" height="25.0013" transform="matrix(0.86601 -0.500028 -3.18351e-05 1 43.3057 12.502)" fill="url(#paint109_linear_792_123)"/>
<rect width="25.0013" height="25.0013" transform="matrix(0.866041 0.499972 -0.866041 0.499972 64.957 25)" fill="url(#paint110_linear_792_123)"/>
<rect width="25.0013" height="25.0013" transform="matrix(0.86601 0.500028 3.18351e-05 1 43.3047 12.4971)" fill="url(#paint111_linear_792_123)"/>
<rect width="25.0013" height="25.0013" transform="matrix(0.86601 -0.500028 -3.18351e-05 1 64.957 24.999)" fill="url(#paint112_linear_792_123)"/>
<rect width="25.0013" height="25.0013" transform="matrix(0.866041 -0.499972 0.866041 0.499972 43.3047 12.5)" fill="url(#paint113_linear_792_123)"/>
<rect width="25.0013" height="25.0013" transform="matrix(-0.866009 -0.500028 -3.17476e-05 -1 627.919 50.001)" fill="url(#paint114_linear_792_123)"/>
<rect width="25.0013" height="25.0013" transform="matrix(-0.86601 0.500028 3.19225e-05 -1 649.57 37.499)" fill="url(#paint115_linear_792_123)"/>
<rect width="25.0013" height="25.0013" transform="matrix(-0.866041 -0.499973 0.866041 -0.499972 627.919 25.001)" fill="url(#paint116_linear_792_123)"/>
<rect width="25.0013" height="25.0013" transform="matrix(-0.866009 -0.500028 -3.17476e-05 -1 649.571 37.5039)" fill="url(#paint117_linear_792_123)"/>
<rect width="25.0013" height="25.0013" transform="matrix(-0.86601 0.500028 3.19225e-05 -1 627.919 25.002)" fill="url(#paint118_linear_792_123)"/>
<rect width="25.0013" height="25.0013" transform="matrix(-0.866041 0.499972 -0.866041 -0.499973 649.571 37.501)" fill="url(#paint119_linear_792_123)"/>
<rect width="25.0013" height="25.0013" transform="matrix(0.86601 0.500028 3.18351e-05 1 498.005 0)" fill="url(#paint120_linear_792_123)"/>
<rect width="25.0013" height="25.0013" transform="matrix(0.86601 -0.500028 -3.18351e-05 1 476.354 12.502)" fill="url(#paint121_linear_792_123)"/>
<rect width="25.0013" height="25.0013" transform="matrix(0.866041 0.499972 -0.866041 0.499972 498.005 25)" fill="url(#paint122_linear_792_123)"/>
<rect width="25.0013" height="25.0013" transform="matrix(0.86601 0.500028 3.18351e-05 1 476.353 12.4971)" fill="url(#paint123_linear_792_123)"/>
<rect width="25.0013" height="25.0013" transform="matrix(0.86601 -0.500028 -3.18351e-05 1 498.005 24.999)" fill="url(#paint124_linear_792_123)"/>
<rect width="25.0013" height="25.0013" transform="matrix(0.866041 -0.499972 0.866041 0.499972 476.353 12.5)" fill="url(#paint125_linear_792_123)"/>
<defs>
<linearGradient id="paint0_linear_792_123" x1="-1.92455e-07" y1="12.357" x2="25.0013" y2="12.357" gradientUnits="userSpaceOnUse">
<stop stopColor="#16DBBE"/>
<stop offset="1" stopColor="#E54DE5"/>
</linearGradient>
<linearGradient id="paint1_linear_792_123" x1="-1.92455e-07" y1="12.357" x2="25.0013" y2="12.357" gradientUnits="userSpaceOnUse">
<stop stopColor="#FFC800"/>
<stop offset="1" stopColor="#16DBBE"/>
</linearGradient>
<linearGradient id="paint2_linear_792_123" x1="-1.92455e-07" y1="12.357" x2="25.0013" y2="12.357" gradientUnits="userSpaceOnUse">
<stop stopColor="#E54DE5"/>
<stop offset="1" stopColor="#FFC800"/>
</linearGradient>
<linearGradient id="paint3_linear_792_123" x1="-1.92455e-07" y1="12.357" x2="25.0013" y2="12.357" gradientUnits="userSpaceOnUse">
<stop stopColor="#FFC800"/>
<stop offset="1" stopColor="#16DBBE"/>
</linearGradient>
<linearGradient id="paint4_linear_792_123" x1="-1.92455e-07" y1="12.357" x2="25.0013" y2="12.357" gradientUnits="userSpaceOnUse">
<stop stopColor="#E54DE5"/>
<stop offset="1" stopColor="#FFC800"/>
</linearGradient>
<linearGradient id="paint5_linear_792_123" x1="-1.92455e-07" y1="12.357" x2="25.0013" y2="12.357" gradientUnits="userSpaceOnUse">
<stop stopColor="#16DBBE"/>
<stop offset="1" stopColor="#E54DE5"/>
</linearGradient>
<linearGradient id="paint6_linear_792_123" x1="-1.92455e-07" y1="12.357" x2="25.0013" y2="12.357" gradientUnits="userSpaceOnUse">
<stop stopColor="#16DBBE"/>
<stop offset="1" stopColor="#E54DE5"/>
</linearGradient>
<linearGradient id="paint7_linear_792_123" x1="-1.92455e-07" y1="12.357" x2="25.0013" y2="12.357" gradientUnits="userSpaceOnUse">
<stop stopColor="#FFC800"/>
<stop offset="1" stopColor="#16DBBE"/>
</linearGradient>
<linearGradient id="paint8_linear_792_123" x1="-1.92455e-07" y1="12.357" x2="25.0013" y2="12.357" gradientUnits="userSpaceOnUse">
<stop stopColor="#E54DE5"/>
<stop offset="1" stopColor="#FFC800"/>
</linearGradient>
<linearGradient id="paint9_linear_792_123" x1="-1.92455e-07" y1="12.357" x2="25.0013" y2="12.357" gradientUnits="userSpaceOnUse">
<stop stopColor="#FFC800"/>
<stop offset="1" stopColor="#16DBBE"/>
</linearGradient>
<linearGradient id="paint10_linear_792_123" x1="-1.92455e-07" y1="12.357" x2="25.0013" y2="12.357" gradientUnits="userSpaceOnUse">
<stop stopColor="#E54DE5"/>
<stop offset="1" stopColor="#FFC800"/>
</linearGradient>
<linearGradient id="paint11_linear_792_123" x1="-1.92455e-07" y1="12.357" x2="25.0013" y2="12.357" gradientUnits="userSpaceOnUse">
<stop stopColor="#16DBBE"/>
<stop offset="1" stopColor="#E54DE5"/>
</linearGradient>
<linearGradient id="paint12_linear_792_123" x1="-1.92455e-07" y1="12.357" x2="25.0013" y2="12.357" gradientUnits="userSpaceOnUse">
<stop stopColor="#16DBBE"/>
<stop offset="1" stopColor="#E54DE5"/>
</linearGradient>
<linearGradient id="paint13_linear_792_123" x1="-1.92455e-07" y1="12.357" x2="25.0013" y2="12.357" gradientUnits="userSpaceOnUse">
<stop stopColor="#FFC800"/>
<stop offset="1" stopColor="#16DBBE"/>
</linearGradient>
<linearGradient id="paint14_linear_792_123" x1="-1.92455e-07" y1="12.357" x2="25.0013" y2="12.357" gradientUnits="userSpaceOnUse">
<stop stopColor="#E54DE5"/>
<stop offset="1" stopColor="#FFC800"/>
</linearGradient>
<linearGradient id="paint15_linear_792_123" x1="-1.92455e-07" y1="12.357" x2="25.0013" y2="12.357" gradientUnits="userSpaceOnUse">
<stop stopColor="#FFC800"/>
<stop offset="1" stopColor="#16DBBE"/>
</linearGradient>
<linearGradient id="paint16_linear_792_123" x1="-1.92455e-07" y1="12.357" x2="25.0013" y2="12.357" gradientUnits="userSpaceOnUse">
<stop stopColor="#E54DE5"/>
<stop offset="1" stopColor="#FFC800"/>
</linearGradient>
<linearGradient id="paint17_linear_792_123" x1="-1.92455e-07" y1="12.357" x2="25.0013" y2="12.357" gradientUnits="userSpaceOnUse">
<stop stopColor="#16DBBE"/>
<stop offset="1" stopColor="#E54DE5"/>
</linearGradient>
<linearGradient id="paint18_linear_792_123" x1="-1.92455e-07" y1="12.357" x2="25.0013" y2="12.357" gradientUnits="userSpaceOnUse">
<stop stopColor="#16DBBE"/>
<stop offset="1" stopColor="#E54DE5"/>
</linearGradient>
<linearGradient id="paint19_linear_792_123" x1="-1.92455e-07" y1="12.357" x2="25.0013" y2="12.357" gradientUnits="userSpaceOnUse">
<stop stopColor="#FFC800"/>
<stop offset="1" stopColor="#16DBBE"/>
</linearGradient>
<linearGradient id="paint20_linear_792_123" x1="-1.92455e-07" y1="12.357" x2="25.0013" y2="12.357" gradientUnits="userSpaceOnUse">
<stop stopColor="#E54DE5"/>
<stop offset="1" stopColor="#FFC800"/>
</linearGradient>
<linearGradient id="paint21_linear_792_123" x1="-1.92455e-07" y1="12.357" x2="25.0013" y2="12.357" gradientUnits="userSpaceOnUse">
<stop stopColor="#FFC800"/>
<stop offset="1" stopColor="#16DBBE"/>
</linearGradient>
<linearGradient id="paint22_linear_792_123" x1="-1.92455e-07" y1="12.357" x2="25.0013" y2="12.357" gradientUnits="userSpaceOnUse">
<stop stopColor="#E54DE5"/>
<stop offset="1" stopColor="#FFC800"/>
</linearGradient>
<linearGradient id="paint23_linear_792_123" x1="-1.92455e-07" y1="12.357" x2="25.0013" y2="12.357" gradientUnits="userSpaceOnUse">
<stop stopColor="#16DBBE"/>
<stop offset="1" stopColor="#E54DE5"/>
</linearGradient>
<linearGradient id="paint24_linear_792_123" x1="-1.92455e-07" y1="12.357" x2="25.0013" y2="12.357" gradientUnits="userSpaceOnUse">
<stop stopColor="#16DBBE"/>
<stop offset="1" stopColor="#E54DE5"/>
</linearGradient>
<linearGradient id="paint25_linear_792_123" x1="-1.92455e-07" y1="12.357" x2="25.0013" y2="12.357" gradientUnits="userSpaceOnUse">
<stop stopColor="#FFC800"/>
<stop offset="1" stopColor="#16DBBE"/>
</linearGradient>
<linearGradient id="paint26_linear_792_123" x1="-1.92455e-07" y1="12.357" x2="25.0013" y2="12.357" gradientUnits="userSpaceOnUse">
<stop stopColor="#E54DE5"/>
<stop offset="1" stopColor="#FFC800"/>
</linearGradient>
<linearGradient id="paint27_linear_792_123" x1="-1.92455e-07" y1="12.357" x2="25.0013" y2="12.357" gradientUnits="userSpaceOnUse">
<stop stopColor="#FFC800"/>
<stop offset="1" stopColor="#16DBBE"/>
</linearGradient>
<linearGradient id="paint28_linear_792_123" x1="-1.92455e-07" y1="12.357" x2="25.0013" y2="12.357" gradientUnits="userSpaceOnUse">
<stop stopColor="#E54DE5"/>
<stop offset="1" stopColor="#FFC800"/>
</linearGradient>
<linearGradient id="paint29_linear_792_123" x1="-1.92455e-07" y1="12.357" x2="25.0013" y2="12.357" gradientUnits="userSpaceOnUse">
<stop stopColor="#16DBBE"/>
<stop offset="1" stopColor="#E54DE5"/>
</linearGradient>
<linearGradient id="paint30_linear_792_123" x1="-1.92455e-07" y1="12.357" x2="25.0013" y2="12.357" gradientUnits="userSpaceOnUse">
<stop stopColor="#16DBBE"/>
<stop offset="1" stopColor="#E54DE5"/>
</linearGradient>
<linearGradient id="paint31_linear_792_123" x1="-1.92455e-07" y1="12.357" x2="25.0013" y2="12.357" gradientUnits="userSpaceOnUse">
<stop stopColor="#FFC800"/>
<stop offset="1" stopColor="#16DBBE"/>
</linearGradient>
<linearGradient id="paint32_linear_792_123" x1="-1.92455e-07" y1="12.357" x2="25.0013" y2="12.357" gradientUnits="userSpaceOnUse">
<stop stopColor="#E54DE5"/>
<stop offset="1" stopColor="#FFC800"/>
</linearGradient>
<linearGradient id="paint33_linear_792_123" x1="-1.92455e-07" y1="12.357" x2="25.0013" y2="12.357" gradientUnits="userSpaceOnUse">
<stop stopColor="#FFC800"/>
<stop offset="1" stopColor="#16DBBE"/>
</linearGradient>
<linearGradient id="paint34_linear_792_123" x1="-1.92455e-07" y1="12.357" x2="25.0013" y2="12.357" gradientUnits="userSpaceOnUse">
<stop stopColor="#E54DE5"/>
<stop offset="1" stopColor="#FFC800"/>
</linearGradient>
<linearGradient id="paint35_linear_792_123" x1="-1.92455e-07" y1="12.357" x2="25.0013" y2="12.357" gradientUnits="userSpaceOnUse">
<stop stopColor="#16DBBE"/>
<stop offset="1" stopColor="#E54DE5"/>
</linearGradient>
<linearGradient id="paint36_linear_792_123" x1="-1.92455e-07" y1="12.357" x2="25.0013" y2="12.357" gradientUnits="userSpaceOnUse">
<stop stopColor="#16DBBE"/>
<stop offset="1" stopColor="#E54DE5"/>
</linearGradient>
<linearGradient id="paint37_linear_792_123" x1="-1.92455e-07" y1="12.357" x2="25.0013" y2="12.357" gradientUnits="userSpaceOnUse">
<stop stopColor="#FFC800"/>
<stop offset="1" stopColor="#16DBBE"/>
</linearGradient>
<linearGradient id="paint38_linear_792_123" x1="-1.92455e-07" y1="12.357" x2="25.0013" y2="12.357" gradientUnits="userSpaceOnUse">
<stop stopColor="#E54DE5"/>
<stop offset="1" stopColor="#FFC800"/>
</linearGradient>
<linearGradient id="paint39_linear_792_123" x1="-1.92455e-07" y1="12.357" x2="25.0013" y2="12.357" gradientUnits="userSpaceOnUse">
<stop stopColor="#FFC800"/>
<stop offset="1" stopColor="#16DBBE"/>
</linearGradient>
<linearGradient id="paint40_linear_792_123" x1="-1.92455e-07" y1="12.357" x2="25.0013" y2="12.357" gradientUnits="userSpaceOnUse">
<stop stopColor="#E54DE5"/>
<stop offset="1" stopColor="#FFC800"/>
</linearGradient>
<linearGradient id="paint41_linear_792_123" x1="-1.92455e-07" y1="12.357" x2="25.0013" y2="12.357" gradientUnits="userSpaceOnUse">
<stop stopColor="#16DBBE"/>
<stop offset="1" stopColor="#E54DE5"/>
</linearGradient>
<linearGradient id="paint42_linear_792_123" x1="-1.92455e-07" y1="12.357" x2="25.0013" y2="12.357" gradientUnits="userSpaceOnUse">
<stop stopColor="#16DBBE"/>
<stop offset="1" stopColor="#E54DE5"/>
</linearGradient>
<linearGradient id="paint43_linear_792_123" x1="-1.92455e-07" y1="12.357" x2="25.0013" y2="12.357" gradientUnits="userSpaceOnUse">
<stop stopColor="#FFC800"/>
<stop offset="1" stopColor="#16DBBE"/>
</linearGradient>
<linearGradient id="paint44_linear_792_123" x1="-1.92455e-07" y1="12.357" x2="25.0013" y2="12.357" gradientUnits="userSpaceOnUse">
<stop stopColor="#E54DE5"/>
<stop offset="1" stopColor="#FFC800"/>
</linearGradient>
<linearGradient id="paint45_linear_792_123" x1="-1.92455e-07" y1="12.357" x2="25.0013" y2="12.357" gradientUnits="userSpaceOnUse">
<stop stopColor="#FFC800"/>
<stop offset="1" stopColor="#16DBBE"/>
</linearGradient>
<linearGradient id="paint46_linear_792_123" x1="-1.92455e-07" y1="12.357" x2="25.0013" y2="12.357" gradientUnits="userSpaceOnUse">
<stop stopColor="#E54DE5"/>
<stop offset="1" stopColor="#FFC800"/>
</linearGradient>
<linearGradient id="paint47_linear_792_123" x1="-1.92455e-07" y1="12.357" x2="25.0013" y2="12.357" gradientUnits="userSpaceOnUse">
<stop stopColor="#16DBBE"/>
<stop offset="1" stopColor="#E54DE5"/>
</linearGradient>
<linearGradient id="paint48_linear_792_123" x1="-1.92455e-07" y1="12.357" x2="25.0013" y2="12.357" gradientUnits="userSpaceOnUse">
<stop stopColor="#16DBBE"/>
<stop offset="1" stopColor="#E54DE5"/>
</linearGradient>
<linearGradient id="paint49_linear_792_123" x1="-1.92455e-07" y1="12.357" x2="25.0013" y2="12.357" gradientUnits="userSpaceOnUse">
<stop stopColor="#FFC800"/>
<stop offset="1" stopColor="#16DBBE"/>
</linearGradient>
<linearGradient id="paint50_linear_792_123" x1="-1.92455e-07" y1="12.357" x2="25.0013" y2="12.357" gradientUnits="userSpaceOnUse">
<stop stopColor="#E54DE5"/>
<stop offset="1" stopColor="#FFC800"/>
</linearGradient>
<linearGradient id="paint51_linear_792_123" x1="-1.92455e-07" y1="12.357" x2="25.0013" y2="12.357" gradientUnits="userSpaceOnUse">
<stop stopColor="#FFC800"/>
<stop offset="1" stopColor="#16DBBE"/>
</linearGradient>
<linearGradient id="paint52_linear_792_123" x1="-1.92455e-07" y1="12.357" x2="25.0013" y2="12.357" gradientUnits="userSpaceOnUse">
<stop stopColor="#E54DE5"/>
<stop offset="1" stopColor="#FFC800"/>
</linearGradient>
<linearGradient id="paint53_linear_792_123" x1="-1.92455e-07" y1="12.357" x2="25.0013" y2="12.357" gradientUnits="userSpaceOnUse">
<stop stopColor="#16DBBE"/>
<stop offset="1" stopColor="#E54DE5"/>
</linearGradient>
<linearGradient id="paint54_linear_792_123" x1="-1.92455e-07" y1="12.357" x2="25.0013" y2="12.357" gradientUnits="userSpaceOnUse">
<stop stopColor="#16DBBE"/>
<stop offset="1" stopColor="#E54DE5"/>
</linearGradient>
<linearGradient id="paint55_linear_792_123" x1="-1.92455e-07" y1="12.357" x2="25.0013" y2="12.357" gradientUnits="userSpaceOnUse">
<stop stopColor="#FFC800"/>
<stop offset="1" stopColor="#16DBBE"/>
</linearGradient>
<linearGradient id="paint56_linear_792_123" x1="-1.92455e-07" y1="12.357" x2="25.0013" y2="12.357" gradientUnits="userSpaceOnUse">
<stop stopColor="#E54DE5"/>
<stop offset="1" stopColor="#FFC800"/>
</linearGradient>
<linearGradient id="paint57_linear_792_123" x1="-1.92455e-07" y1="12.357" x2="25.0013" y2="12.357" gradientUnits="userSpaceOnUse">
<stop stopColor="#FFC800"/>
<stop offset="1" stopColor="#16DBBE"/>
</linearGradient>
<linearGradient id="paint58_linear_792_123" x1="-1.92455e-07" y1="12.357" x2="25.0013" y2="12.357" gradientUnits="userSpaceOnUse">
<stop stopColor="#E54DE5"/>
<stop offset="1" stopColor="#FFC800"/>
</linearGradient>
<linearGradient id="paint59_linear_792_123" x1="-1.92455e-07" y1="12.357" x2="25.0013" y2="12.357" gradientUnits="userSpaceOnUse">
<stop stopColor="#16DBBE"/>
<stop offset="1" stopColor="#E54DE5"/>
</linearGradient>
<linearGradient id="paint60_linear_792_123" x1="-1.92455e-07" y1="12.357" x2="25.0013" y2="12.357" gradientUnits="userSpaceOnUse">
<stop stopColor="#16DBBE"/>
<stop offset="1" stopColor="#E54DE5"/>
</linearGradient>
<linearGradient id="paint61_linear_792_123" x1="-1.92455e-07" y1="12.357" x2="25.0013" y2="12.357" gradientUnits="userSpaceOnUse">
<stop stopColor="#FFC800"/>
<stop offset="1" stopColor="#16DBBE"/>
</linearGradient>
<linearGradient id="paint62_linear_792_123" x1="-1.92455e-07" y1="12.357" x2="25.0013" y2="12.357" gradientUnits="userSpaceOnUse">
<stop stopColor="#E54DE5"/>
<stop offset="1" stopColor="#FFC800"/>
</linearGradient>
<linearGradient id="paint63_linear_792_123" x1="-1.92455e-07" y1="12.357" x2="25.0013" y2="12.357" gradientUnits="userSpaceOnUse">
<stop stopColor="#FFC800"/>
<stop offset="1" stopColor="#16DBBE"/>
</linearGradient>
<linearGradient id="paint64_linear_792_123" x1="-1.92455e-07" y1="12.357" x2="25.0013" y2="12.357" gradientUnits="userSpaceOnUse">
<stop stopColor="#E54DE5"/>
<stop offset="1" stopColor="#FFC800"/>
</linearGradient>
<linearGradient id="paint65_linear_792_123" x1="-1.92455e-07" y1="12.357" x2="25.0013" y2="12.357" gradientUnits="userSpaceOnUse">
<stop stopColor="#16DBBE"/>
<stop offset="1" stopColor="#E54DE5"/>
</linearGradient>
<linearGradient id="paint66_linear_792_123" x1="-1.92455e-07" y1="12.357" x2="25.0013" y2="12.357" gradientUnits="userSpaceOnUse">
<stop stopColor="#16DBBE"/>
<stop offset="1" stopColor="#E54DE5"/>
</linearGradient>
<linearGradient id="paint67_linear_792_123" x1="-1.92455e-07" y1="12.357" x2="25.0013" y2="12.357" gradientUnits="userSpaceOnUse">
<stop stopColor="#FFC800"/>
<stop offset="1" stopColor="#16DBBE"/>
</linearGradient>
<linearGradient id="paint68_linear_792_123" x1="-1.92455e-07" y1="12.357" x2="25.0013" y2="12.357" gradientUnits="userSpaceOnUse">
<stop stopColor="#E54DE5"/>
<stop offset="1" stopColor="#FFC800"/>
</linearGradient>
<linearGradient id="paint69_linear_792_123" x1="-1.92455e-07" y1="12.357" x2="25.0013" y2="12.357" gradientUnits="userSpaceOnUse">
<stop stopColor="#FFC800"/>
<stop offset="1" stopColor="#16DBBE"/>
</linearGradient>
<linearGradient id="paint70_linear_792_123" x1="-1.92455e-07" y1="12.357" x2="25.0013" y2="12.357" gradientUnits="userSpaceOnUse">
<stop stopColor="#E54DE5"/>
<stop offset="1" stopColor="#FFC800"/>
</linearGradient>
<linearGradient id="paint71_linear_792_123" x1="-1.92455e-07" y1="12.357" x2="25.0013" y2="12.357" gradientUnits="userSpaceOnUse">
<stop stopColor="#16DBBE"/>
<stop offset="1" stopColor="#E54DE5"/>
</linearGradient>
<linearGradient id="paint72_linear_792_123" x1="-1.92455e-07" y1="12.357" x2="25.0013" y2="12.357" gradientUnits="userSpaceOnUse">
<stop stopColor="#16DBBE"/>
<stop offset="1" stopColor="#E54DE5"/>
</linearGradient>
<linearGradient id="paint73_linear_792_123" x1="-1.92455e-07" y1="12.357" x2="25.0013" y2="12.357" gradientUnits="userSpaceOnUse">
<stop stopColor="#FFC800"/>
<stop offset="1" stopColor="#16DBBE"/>
</linearGradient>
<linearGradient id="paint74_linear_792_123" x1="-1.92455e-07" y1="12.357" x2="25.0013" y2="12.357" gradientUnits="userSpaceOnUse">
<stop stopColor="#E54DE5"/>
<stop offset="1" stopColor="#FFC800"/>
</linearGradient>
<linearGradient id="paint75_linear_792_123" x1="-1.92455e-07" y1="12.357" x2="25.0013" y2="12.357" gradientUnits="userSpaceOnUse">
<stop stopColor="#FFC800"/>
<stop offset="1" stopColor="#16DBBE"/>
</linearGradient>
<linearGradient id="paint76_linear_792_123" x1="-1.92455e-07" y1="12.357" x2="25.0013" y2="12.357" gradientUnits="userSpaceOnUse">
<stop stopColor="#E54DE5"/>
<stop offset="1" stopColor="#FFC800"/>
</linearGradient>
<linearGradient id="paint77_linear_792_123" x1="-1.92455e-07" y1="12.357" x2="25.0013" y2="12.357" gradientUnits="userSpaceOnUse">
<stop stopColor="#16DBBE"/>
<stop offset="1" stopColor="#E54DE5"/>
</linearGradient>
<linearGradient id="paint78_linear_792_123" x1="-1.92455e-07" y1="12.357" x2="25.0013" y2="12.357" gradientUnits="userSpaceOnUse">
<stop stopColor="#16DBBE"/>
<stop offset="1" stopColor="#E54DE5"/>
</linearGradient>
<linearGradient id="paint79_linear_792_123" x1="-1.92455e-07" y1="12.357" x2="25.0013" y2="12.357" gradientUnits="userSpaceOnUse">
<stop stopColor="#FFC800"/>
<stop offset="1" stopColor="#16DBBE"/>
</linearGradient>
<linearGradient id="paint80_linear_792_123" x1="-1.92455e-07" y1="12.357" x2="25.0013" y2="12.357" gradientUnits="userSpaceOnUse">
<stop stopColor="#E54DE5"/>
<stop offset="1" stopColor="#FFC800"/>
</linearGradient>
<linearGradient id="paint81_linear_792_123" x1="-1.92455e-07" y1="12.357" x2="25.0013" y2="12.357" gradientUnits="userSpaceOnUse">
<stop stopColor="#FFC800"/>
<stop offset="1" stopColor="#16DBBE"/>
</linearGradient>
<linearGradient id="paint82_linear_792_123" x1="-1.92455e-07" y1="12.357" x2="25.0013" y2="12.357" gradientUnits="userSpaceOnUse">
<stop stopColor="#E54DE5"/>
<stop offset="1" stopColor="#FFC800"/>
</linearGradient>
<linearGradient id="paint83_linear_792_123" x1="-1.92455e-07" y1="12.357" x2="25.0013" y2="12.357" gradientUnits="userSpaceOnUse">
<stop stopColor="#16DBBE"/>
<stop offset="1" stopColor="#E54DE5"/>
</linearGradient>
<linearGradient id="paint84_linear_792_123" x1="-1.92455e-07" y1="12.357" x2="25.0013" y2="12.357" gradientUnits="userSpaceOnUse">
<stop stopColor="#16DBBE"/>
<stop offset="1" stopColor="#E54DE5"/>
</linearGradient>
<linearGradient id="paint85_linear_792_123" x1="-1.92455e-07" y1="12.357" x2="25.0013" y2="12.357" gradientUnits="userSpaceOnUse">
<stop stopColor="#FFC800"/>
<stop offset="1" stopColor="#16DBBE"/>
</linearGradient>
<linearGradient id="paint86_linear_792_123" x1="-1.92455e-07" y1="12.357" x2="25.0013" y2="12.357" gradientUnits="userSpaceOnUse">
<stop stopColor="#E54DE5"/>
<stop offset="1" stopColor="#FFC800"/>
</linearGradient>
<linearGradient id="paint87_linear_792_123" x1="-1.92455e-07" y1="12.357" x2="25.0013" y2="12.357" gradientUnits="userSpaceOnUse">
<stop stopColor="#FFC800"/>
<stop offset="1" stopColor="#16DBBE"/>
</linearGradient>
<linearGradient id="paint88_linear_792_123" x1="-1.92455e-07" y1="12.357" x2="25.0013" y2="12.357" gradientUnits="userSpaceOnUse">
<stop stopColor="#E54DE5"/>
<stop offset="1" stopColor="#FFC800"/>
</linearGradient>
<linearGradient id="paint89_linear_792_123" x1="-1.92455e-07" y1="12.357" x2="25.0013" y2="12.357" gradientUnits="userSpaceOnUse">
<stop stopColor="#16DBBE"/>
<stop offset="1" stopColor="#E54DE5"/>
</linearGradient>
<linearGradient id="paint90_linear_792_123" x1="-1.92455e-07" y1="12.357" x2="25.0013" y2="12.357" gradientUnits="userSpaceOnUse">
<stop stopColor="#16DBBE"/>
<stop offset="1" stopColor="#E54DE5"/>
</linearGradient>
<linearGradient id="paint91_linear_792_123" x1="-1.92455e-07" y1="12.357" x2="25.0013" y2="12.357" gradientUnits="userSpaceOnUse">
<stop stopColor="#FFC800"/>
<stop offset="1" stopColor="#16DBBE"/>
</linearGradient>
<linearGradient id="paint92_linear_792_123" x1="-1.92455e-07" y1="12.357" x2="25.0013" y2="12.357" gradientUnits="userSpaceOnUse">
<stop stopColor="#E54DE5"/>
<stop offset="1" stopColor="#FFC800"/>
</linearGradient>
<linearGradient id="paint93_linear_792_123" x1="-1.92455e-07" y1="12.357" x2="25.0013" y2="12.357" gradientUnits="userSpaceOnUse">
<stop stopColor="#FFC800"/>
<stop offset="1" stopColor="#16DBBE"/>
</linearGradient>
<linearGradient id="paint94_linear_792_123" x1="-1.92455e-07" y1="12.357" x2="25.0013" y2="12.357" gradientUnits="userSpaceOnUse">
<stop stopColor="#E54DE5"/>
<stop offset="1" stopColor="#FFC800"/>
</linearGradient>
<linearGradient id="paint95_linear_792_123" x1="-1.92455e-07" y1="12.357" x2="25.0013" y2="12.357" gradientUnits="userSpaceOnUse">
<stop stopColor="#16DBBE"/>
<stop offset="1" stopColor="#E54DE5"/>
</linearGradient>
<linearGradient id="paint96_linear_792_123" x1="-1.92455e-07" y1="12.357" x2="25.0013" y2="12.357" gradientUnits="userSpaceOnUse">
<stop stopColor="#16DBBE"/>
<stop offset="1" stopColor="#E54DE5"/>
</linearGradient>
<linearGradient id="paint97_linear_792_123" x1="-1.92455e-07" y1="12.357" x2="25.0013" y2="12.357" gradientUnits="userSpaceOnUse">
<stop stopColor="#FFC800"/>
<stop offset="1" stopColor="#16DBBE"/>
</linearGradient>
<linearGradient id="paint98_linear_792_123" x1="-1.92455e-07" y1="12.357" x2="25.0013" y2="12.357" gradientUnits="userSpaceOnUse">
<stop stopColor="#E54DE5"/>
<stop offset="1" stopColor="#FFC800"/>
</linearGradient>
<linearGradient id="paint99_linear_792_123" x1="-1.92455e-07" y1="12.357" x2="25.0013" y2="12.357" gradientUnits="userSpaceOnUse">
<stop stopColor="#FFC800"/>
<stop offset="1" stopColor="#16DBBE"/>
</linearGradient>
<linearGradient id="paint100_linear_792_123" x1="-1.92455e-07" y1="12.357" x2="25.0013" y2="12.357" gradientUnits="userSpaceOnUse">
<stop stopColor="#E54DE5"/>
<stop offset="1" stopColor="#FFC800"/>
</linearGradient>
<linearGradient id="paint101_linear_792_123" x1="-1.92455e-07" y1="12.357" x2="25.0013" y2="12.357" gradientUnits="userSpaceOnUse">
<stop stopColor="#16DBBE"/>
<stop offset="1" stopColor="#E54DE5"/>
</linearGradient>
<linearGradient id="paint102_linear_792_123" x1="-1.92455e-07" y1="12.357" x2="25.0013" y2="12.357" gradientUnits="userSpaceOnUse">
<stop stopColor="#16DBBE"/>
<stop offset="1" stopColor="#E54DE5"/>
</linearGradient>
<linearGradient id="paint103_linear_792_123" x1="-1.92455e-07" y1="12.357" x2="25.0013" y2="12.357" gradientUnits="userSpaceOnUse">
<stop stopColor="#FFC800"/>
<stop offset="1" stopColor="#16DBBE"/>
</linearGradient>
<linearGradient id="paint104_linear_792_123" x1="-1.92455e-07" y1="12.357" x2="25.0013" y2="12.357" gradientUnits="userSpaceOnUse">
<stop stopColor="#E54DE5"/>
<stop offset="1" stopColor="#FFC800"/>
</linearGradient>
<linearGradient id="paint105_linear_792_123" x1="-1.92455e-07" y1="12.357" x2="25.0013" y2="12.357" gradientUnits="userSpaceOnUse">
<stop stopColor="#FFC800"/>
<stop offset="1" stopColor="#16DBBE"/>
</linearGradient>
<linearGradient id="paint106_linear_792_123" x1="-1.92455e-07" y1="12.357" x2="25.0013" y2="12.357" gradientUnits="userSpaceOnUse">
<stop stopColor="#E54DE5"/>
<stop offset="1" stopColor="#FFC800"/>
</linearGradient>
<linearGradient id="paint107_linear_792_123" x1="-1.92455e-07" y1="12.357" x2="25.0013" y2="12.357" gradientUnits="userSpaceOnUse">
<stop stopColor="#16DBBE"/>
<stop offset="1" stopColor="#E54DE5"/>
</linearGradient>
<linearGradient id="paint108_linear_792_123" x1="-1.92455e-07" y1="12.357" x2="25.0013" y2="12.357" gradientUnits="userSpaceOnUse">
<stop stopColor="#16DBBE"/>
<stop offset="1" stopColor="#E54DE5"/>
</linearGradient>
<linearGradient id="paint109_linear_792_123" x1="-1.92455e-07" y1="12.357" x2="25.0013" y2="12.357" gradientUnits="userSpaceOnUse">
<stop stopColor="#FFC800"/>
<stop offset="1" stopColor="#16DBBE"/>
</linearGradient>
<linearGradient id="paint110_linear_792_123" x1="-1.92455e-07" y1="12.357" x2="25.0013" y2="12.357" gradientUnits="userSpaceOnUse">
<stop stopColor="#E54DE5"/>
<stop offset="1" stopColor="#FFC800"/>
</linearGradient>
<linearGradient id="paint111_linear_792_123" x1="-1.92455e-07" y1="12.357" x2="25.0013" y2="12.357" gradientUnits="userSpaceOnUse">
<stop stopColor="#FFC800"/>
<stop offset="1" stopColor="#16DBBE"/>
</linearGradient>
<linearGradient id="paint112_linear_792_123" x1="-1.92455e-07" y1="12.357" x2="25.0013" y2="12.357" gradientUnits="userSpaceOnUse">
<stop stopColor="#E54DE5"/>
<stop offset="1" stopColor="#FFC800"/>
</linearGradient>
<linearGradient id="paint113_linear_792_123" x1="-1.92455e-07" y1="12.357" x2="25.0013" y2="12.357" gradientUnits="userSpaceOnUse">
<stop stopColor="#16DBBE"/>
<stop offset="1" stopColor="#E54DE5"/>
</linearGradient>
<linearGradient id="paint114_linear_792_123" x1="-1.92455e-07" y1="12.357" x2="25.0013" y2="12.357" gradientUnits="userSpaceOnUse">
<stop stopColor="#16DBBE"/>
<stop offset="1" stopColor="#E54DE5"/>
</linearGradient>
<linearGradient id="paint115_linear_792_123" x1="-1.92455e-07" y1="12.357" x2="25.0013" y2="12.357" gradientUnits="userSpaceOnUse">
<stop stopColor="#FFC800"/>
<stop offset="1" stopColor="#16DBBE"/>
</linearGradient>
<linearGradient id="paint116_linear_792_123" x1="-1.92455e-07" y1="12.357" x2="25.0013" y2="12.357" gradientUnits="userSpaceOnUse">
<stop stopColor="#E54DE5"/>
<stop offset="1" stopColor="#FFC800"/>
</linearGradient>
<linearGradient id="paint117_linear_792_123" x1="-1.92455e-07" y1="12.357" x2="25.0013" y2="12.357" gradientUnits="userSpaceOnUse">
<stop stopColor="#FFC800"/>
<stop offset="1" stopColor="#16DBBE"/>
</linearGradient>
<linearGradient id="paint118_linear_792_123" x1="-1.92455e-07" y1="12.357" x2="25.0013" y2="12.357" gradientUnits="userSpaceOnUse">
<stop stopColor="#E54DE5"/>
<stop offset="1" stopColor="#FFC800"/>
</linearGradient>
<linearGradient id="paint119_linear_792_123" x1="-1.92455e-07" y1="12.357" x2="25.0013" y2="12.357" gradientUnits="userSpaceOnUse">
<stop stopColor="#16DBBE"/>
<stop offset="1" stopColor="#E54DE5"/>
</linearGradient>
<linearGradient id="paint120_linear_792_123" x1="-1.92455e-07" y1="12.357" x2="25.0013" y2="12.357" gradientUnits="userSpaceOnUse">
<stop stopColor="#16DBBE"/>
<stop offset="1" stopColor="#E54DE5"/>
</linearGradient>
<linearGradient id="paint121_linear_792_123" x1="-1.92455e-07" y1="12.357" x2="25.0013" y2="12.357" gradientUnits="userSpaceOnUse">
<stop stopColor="#FFC800"/>
<stop offset="1" stopColor="#16DBBE"/>
</linearGradient>
<linearGradient id="paint122_linear_792_123" x1="-1.92455e-07" y1="12.357" x2="25.0013" y2="12.357" gradientUnits="userSpaceOnUse">
<stop stopColor="#E54DE5"/>
<stop offset="1" stopColor="#FFC800"/>
</linearGradient>
<linearGradient id="paint123_linear_792_123" x1="-1.92455e-07" y1="12.357" x2="25.0013" y2="12.357" gradientUnits="userSpaceOnUse">
<stop stopColor="#FFC800"/>
<stop offset="1" stopColor="#16DBBE"/>
</linearGradient>
<linearGradient id="paint124_linear_792_123" x1="-1.92455e-07" y1="12.357" x2="25.0013" y2="12.357" gradientUnits="userSpaceOnUse">
<stop stopColor="#E54DE5"/>
<stop offset="1" stopColor="#FFC800"/>
</linearGradient>
<linearGradient id="paint125_linear_792_123" x1="-1.92455e-07" y1="12.357" x2="25.0013" y2="12.357" gradientUnits="userSpaceOnUse">
<stop stopColor="#16DBBE"/>
<stop offset="1" stopColor="#E54DE5"/>
</linearGradient>
</defs>
</svg>
