<svg width="20" height="17" viewBox="0 0 20 17" fill="none" xmlns="http://www.w3.org/2000/svg">
<path d="M19.9889 1.90635C19.2556 2.22965 18.4667 2.45262 17.6333 2.55295C18.4778 2.05128 19.1333 1.23746 19.4444 0.289855C18.6556 0.758083 17.7778 1.10368 16.8333 1.28205C16.0889 0.490524 15.0222 0 13.8444 0C11.5778 0 9.74444 1.82832 9.74444 4.08027C9.74444 4.40357 9.77778 4.70457 9.85556 5.01672C6.44444 4.8495 3.42222 3.22185 1.4 0.746934C1.04444 1.34894 0.844444 2.05128 0.844444 2.79822C0.844444 4.21405 1.56667 5.46265 2.66667 6.19844C1.98889 6.17614 1.35556 5.98662 0.811111 5.68562V5.73021C0.811111 7.7146 2.22222 9.3534 4.1 9.73244C3.75556 9.82163 3.4 9.87737 3.02222 9.87737C2.75556 9.87737 2.5 9.84392 2.24444 9.79933C2.76667 11.4158 4.27778 12.5975 6.07778 12.631C4.67778 13.7235 2.9 14.3813 0.977778 14.3813C0.644444 14.3813 0.322222 14.359 0 14.3255C1.82222 15.485 3.97778 16.1538 6.28889 16.1538C13.8333 16.1538 17.9667 9.93311 17.9667 4.53735C17.9667 4.35897 17.9667 4.1806 17.9556 4.01338C18.7667 3.44482 19.4556 2.72018 20 1.89521" fill="#213645"/>
</svg>
