<svg width="228" height="41" viewBox="0 0 228 41" fill="none" xmlns="http://www.w3.org/2000/svg">
<path d="M2.39094 2.12935C3.01152 2.09578 3.66493 2.06831 4.31505 2.02254C6.3311 1.8791 8.34715 1.70515 10.3665 1.58918C11.207 1.54035 12.0542 1.59833 12.898 1.62885C13.7156 1.65632 14.5332 1.7082 15.3541 1.75703C15.6726 1.77534 15.9911 1.81806 16.3818 1.85469V3.59421L17.8364 2.19649C18.6441 2.59627 18.5095 3.25546 18.562 3.85667L19.1596 3.66441C19.2285 3.98485 19.3468 4.25035 19.3336 4.50976C19.2877 5.49854 19.1826 6.48427 19.13 7.47306C19.1136 7.82097 19.199 8.17192 19.222 8.52288C19.2483 8.93793 19.4288 9.38959 18.9002 9.79854C19.7835 9.79854 20.67 9.81074 21.5532 9.79854C23.4347 9.76802 23.5824 9.87178 23.4872 11.6388C23.3723 13.8452 23.1556 16.0486 23.0636 18.2581C23.021 19.2927 23.1917 20.3334 23.2147 21.374C23.3099 25.3597 23.5759 29.3484 23.0571 33.328C23.0505 33.3737 23.0801 33.4256 23.1129 33.5538C23.323 33.6545 23.5726 33.8223 23.8517 33.8986C25.4212 34.335 26.9874 34.7959 28.6685 34.5029C29.3646 34.3808 29.8243 34.1153 29.867 33.4622C29.9622 32.0981 29.9491 30.7248 29.9753 29.3545C29.9885 28.7472 29.995 28.1399 29.9885 27.5326C29.972 25.8815 29.9556 24.2305 29.9162 22.5795C29.8867 21.3344 29.8046 20.0892 29.7816 18.8471C29.7422 16.6865 29.7356 14.5288 29.7061 12.3682C29.7028 12.0904 29.647 11.8127 29.5944 11.5381C29.45 10.766 29.7291 10.3845 30.5631 10.2594C31.535 10.1129 32.5069 9.9847 33.4788 9.83821C33.6364 9.81379 33.7874 9.7436 34.0206 9.66731V3.09982C33.6955 4.05504 33.9779 5.08044 33.5083 6.02345C32.9534 5.08044 33.157 4.07335 33.134 2.99301C28.4058 2.78549 23.6514 3.3165 18.8542 2.54439C19.0381 2.40706 19.2023 2.19649 19.4124 2.15071C19.8327 2.05611 20.276 2.01948 20.7127 2.01643C23.937 2.00728 27.1647 1.99507 30.389 2.02254C31.778 2.03474 33.1669 2.14156 34.6904 2.21175C34.871 2.90756 35.045 3.58506 35.2486 4.36937C35.9709 3.64304 36.6637 2.95028 37.3861 2.22701C38.7487 2.08357 40.1508 1.84858 41.5594 1.81196C42.9614 1.77534 44.3667 1.93708 45.8673 2.01643C45.736 2.50777 45.5718 2.88314 45.5422 3.26767C45.47 4.22899 45.4273 5.19641 45.4273 6.16078C45.4273 7.43339 45.5094 8.70294 45.4963 9.97554C45.4864 10.9063 45.3781 11.8371 45.3091 12.8442L47.3613 12.9755C47.3613 12.6428 47.3613 12.3956 47.3613 12.1515C47.3252 9.78633 47.2529 7.42423 47.2857 5.06213C47.2923 4.51891 47.5878 3.93297 47.8965 3.45078C48.2544 2.8923 48.76 2.41011 49.2296 1.91877C49.3642 1.77839 49.594 1.67158 49.7976 1.64106C51.2817 1.43049 52.7724 1.23822 54.2598 1.05511C54.4109 1.0368 54.575 1.10699 54.7786 1.14667L54.8738 1.76924L49.9289 2.58712C50.5528 6.24013 50.5397 9.88704 49.8337 13.4271C48.8388 14.1382 45.6309 14.0863 44.6458 13.3753C44.5112 9.92061 44.1238 6.40798 44.59 2.816L43.8348 2.42537L38.0723 2.98691L37.941 3.61253L38.532 3.3928C38.9096 4.07335 38.8472 5.28492 38.3416 6.15163L37.9607 5.3368V8.32451L38.5747 8.4771C38.5747 8.78228 38.578 9.12714 38.5747 9.46894C38.5517 11.3733 38.5288 13.2776 38.5058 15.1819C38.4992 15.6122 38.4762 16.0456 38.4959 16.4728C38.555 17.7668 38.6338 19.0577 38.7028 20.3517C38.7455 21.1757 38.8341 22.0058 38.4467 22.8572C37.9312 22.6039 37.9049 22.2163 37.9016 21.8532C37.8918 20.9895 37.9476 20.1228 37.9213 19.2591C37.8885 18.2093 37.8031 17.1595 37.6422 16.128C37.4321 16.7658 37.2022 17.3975 37.0184 18.0415C36.9593 18.252 36.9625 18.5175 37.0479 18.7159C37.6389 20.0618 37.7112 21.4839 37.767 22.8999C37.9115 26.5316 38.0132 30.1632 38.1315 33.7979C38.1315 33.8956 38.1676 33.9932 38.184 34.0756C39.7699 34.9088 43.3193 34.7501 44.7411 33.7369C44.7411 33.0747 44.8232 32.3361 44.7247 31.6159C44.4915 29.9466 44.4357 28.2894 44.5769 26.6018C44.6655 25.555 44.4653 24.4808 44.3109 23.4279C44.1665 22.4452 44.3766 22.1095 45.3945 21.8013C46.3992 21.4992 47.3941 21.3527 48.4547 21.49C49.049 21.5663 49.4528 21.783 49.5579 22.3292C49.6958 23.0251 49.86 23.73 49.8764 24.435C49.9322 26.8978 49.9552 29.3606 49.9289 31.8234C49.9224 32.5497 49.6203 33.2761 49.9848 34.0116C51.436 34.625 52.8545 34.2984 54.2697 33.862C54.8115 33.6972 55.3532 33.5172 55.9081 33.4073C57.1493 33.1601 57.4349 32.8763 57.4152 31.7166C57.3693 29.3026 57.3726 26.8856 57.2346 24.4747C57.0606 21.4564 56.706 18.4474 56.5418 15.4291C56.4072 12.9449 56.44 10.4516 56.4006 7.9644C56.3842 7.04886 56.3711 6.13637 56.3645 5.22083C56.358 4.20763 56.3645 3.19443 56.3645 2.1263L55.3795 1.94014C55.5831 1.22601 56.2004 0.975766 57.3463 1.16498C57.3561 1.36335 57.3758 1.58308 57.3791 1.79975C57.4908 6.62771 57.5531 11.4557 57.7206 16.2806C57.8552 20.193 58.1606 24.0993 58.2952 28.0117C58.351 29.6566 58.223 31.3107 58.0785 32.9556C57.9275 34.6494 56.2036 36.276 54.7097 36.4744C54.5291 36.4988 54.3419 36.572 54.1843 36.6636C52.7429 37.4937 51.1438 37.5913 49.5185 37.5303C48.1427 37.4784 47.532 36.9382 47.381 35.6778C47.2267 34.39 47.0986 33.0991 46.9935 31.8051C46.9574 31.3534 47.0296 30.8926 47.0461 30.4379C47.069 29.7268 47.1872 29.0035 47.0789 28.3108C46.8129 26.556 46.8589 24.8134 47.0953 23.0647C47.1249 22.845 47.1249 22.6192 47.1446 22.3445L46.2941 22.2652L45.3222 22.8511C45.3222 25.1125 45.3222 27.2671 45.3222 29.4216C45.3222 31.0208 45.3354 32.6199 45.3025 34.2191C45.2631 36.1326 44.6721 36.8284 42.6331 37.1336C40.5152 37.4509 38.3744 37.3746 36.2533 37.1061C35.8691 37.0573 35.5178 36.807 35.1829 36.6636C35.1501 36.4896 35.1074 36.3889 35.1172 36.2913C35.2322 34.6616 35.0319 33.0594 34.848 31.4389C34.6181 29.4277 34.7265 27.38 34.7331 25.3475C34.7396 23.0342 34.8677 20.7179 34.8152 18.4077C34.7725 16.4789 34.5361 14.5563 34.408 12.6276C34.3686 12.0264 34.4014 11.4221 34.3259 10.7599C33.3409 11.9501 32.1687 12.8442 30.4547 13.064C30.4547 13.6835 30.4547 14.2328 30.4547 14.7821C30.4481 16.4301 30.3693 18.0842 30.4449 19.7291C30.5138 21.2214 30.7469 22.7046 30.9078 24.1908C30.9505 24.5937 31.0425 24.9996 31.0359 25.4024C30.9866 27.9171 30.921 30.4348 30.852 32.9495C30.829 33.8284 30.5105 34.5822 29.7521 35.156C29.5288 35.3238 29.3909 35.5863 29.2333 35.7816C27.8444 36.7246 26.3274 37.0634 24.6561 36.7704C23.4215 36.5537 22.187 36.3523 20.7882 36.1173C20.7094 35.7572 20.5551 35.3544 20.5387 34.9485C20.4763 33.2211 20.4598 31.4938 20.4106 29.7665C20.3909 29.1592 20.2891 28.5519 20.2793 27.9415C20.2694 27.3769 20.3285 26.8123 20.3548 26.2447L20.6503 26.2386L20.8342 28.2345C21.33 25.5214 20.0954 22.9732 20.7422 20.3944C20.0428 17.837 20.5485 15.246 20.5157 12.533H16.4409C16.3358 11.8768 16.2537 11.3427 16.1519 10.708C15.9615 10.8758 15.7875 10.9674 15.7218 11.1017C15.4066 11.7517 14.7959 11.9806 14.1228 12.1667C12.8915 12.5085 11.6733 12.8778 10.4518 13.2501C10.2877 13.299 10.1498 13.418 10.0086 13.6072C12.0181 13.9002 14.0571 13.5339 16.1224 13.8574C16.5098 16.6498 16.1224 19.369 16.1257 22.0759L15.2588 22.5093C14.9075 23.434 13.9422 23.669 13.0228 23.8979C12.1363 24.1207 11.2136 24.2183 10.1925 24.3923L10.0546 25.6069H16.9597C17.0516 25.8602 17.1468 26.0006 17.1468 26.141C17.1238 28.5519 17.0877 30.9659 17.0549 33.3768C17.045 34.1092 16.5919 34.6189 16.1519 35.1896C14.9174 36.7948 13.1344 37.161 11.207 37.2343C9.37816 37.3045 7.54927 37.393 5.72038 37.3472C4.28222 37.3106 2.8375 37.1336 1.41247 36.9199C0.624441 36.8009 0.322362 36.3584 0.322362 35.6107C0.322362 34.9546 0.427433 34.2954 0.437283 33.6392C0.447134 33.0075 0.407732 32.3758 0.374897 31.7441C0.250126 29.1622 0.0367005 26.5774 0.00714936 23.9894C-0.0289687 20.8644 0.082669 17.7393 0.138488 14.6143C0.18774 11.9714 0.220575 9.32856 0.328929 6.68875C0.371614 5.64503 0.768913 4.65929 1.3271 3.74681C1.63903 3.24021 1.98051 2.75192 2.38766 2.12935H2.39094ZM16.129 33.9231C16.2866 31.3687 16.5 28.9608 16.1913 26.4889C15.7251 26.4675 15.3475 26.4461 14.9699 26.4339C13.4431 26.3759 11.913 26.3332 10.3862 26.26C9.53248 26.2203 9.24682 25.9548 9.22383 25.1827C9.19757 24.3801 9.05966 23.5835 9.3092 22.7748C9.50293 22.1492 9.69665 21.8623 10.373 21.8135C11.7882 21.7128 13.2067 21.6395 14.6218 21.551C14.855 21.5358 15.0848 21.49 15.3836 21.4503C15.3114 19.1859 15.7645 16.9916 15.3147 14.7333C15.0257 14.7089 14.7598 14.6845 14.4971 14.6662C13.0261 14.5624 11.5551 14.4892 10.0907 14.3488C9.26652 14.2694 9.06623 14.0222 9.03011 13.2532C9.00056 12.594 8.99071 11.9317 9.02354 11.2695C9.03668 10.9857 9.18443 10.711 9.27309 10.4272C11.299 10.2777 13.2231 10.1342 15.1636 9.9908C15.2457 7.5341 15.3278 5.14148 15.4099 2.7153C13.975 2.30025 12.4646 2.24837 10.928 2.35823C8.56057 2.52914 6.18991 2.66647 3.81925 2.816C3.52702 2.83432 3.23479 2.84957 2.84735 2.87094C2.84735 3.30429 2.8375 3.67661 2.84735 4.04893C2.89988 6.05092 2.9557 8.05595 3.0148 10.0579C3.02794 10.5401 3.07062 11.0223 3.0739 11.5045C3.10017 14.0405 3.38255 16.5857 2.75213 19.0974C2.70944 19.2622 2.74227 19.4453 2.75213 19.6223C2.8375 20.7362 2.96555 21.8471 3.00167 22.961C3.0542 24.5815 3.03122 26.205 3.05092 27.8286C3.06077 28.7686 3.08704 29.7085 3.11002 30.6454C3.13629 31.683 3.15928 32.7237 3.20853 33.7613C3.21838 33.9444 3.33987 34.1214 3.39568 34.2618C7.63135 34.1489 11.7751 34.0421 16.1224 33.9261L16.129 33.9231ZM18.7295 5.0957L18.5981 5.07434V8.26653H18.7295V5.0957ZM16.1552 8.87994L16.2078 8.85858L16.1848 8.43743H16.1552V8.87994ZM16.1585 7.19535L16.1946 7.18619L16.1585 6.84744V7.19229V7.19535Z" fill="#92BCD8"/>
<path d="M99.9001 32.089C98.6129 32.4735 97.2602 32.3514 95.9304 32.4064C94.5644 32.4644 93.2018 32.5406 91.8326 32.6475C92.0986 32.6475 92.3678 32.6383 92.6338 32.6475C94.7089 32.736 96.7808 32.8397 98.8559 32.9099C99.6998 32.9374 100.55 32.8855 101.397 32.8886C102.297 32.8886 103.197 32.9191 104.096 32.9252C104.451 32.9282 104.819 32.9649 105.154 32.8886C107.12 32.4399 109.11 32.5223 111.107 32.5529C113.894 32.5956 116.682 32.6139 119.466 32.5406C122.855 32.4521 126.24 32.15 129.629 32.4918C131.29 32.6597 132.896 32.3179 134.518 32.1409C138.011 31.7594 141.498 31.912 144.998 32.092C147.855 32.2385 150.702 32.6932 153.588 32.4003C154.718 32.2874 155.88 32.4155 157.022 32.4796C159.613 32.6261 162.204 32.8062 164.794 32.9618C165.037 32.9771 165.287 32.9435 165.527 32.9099C167.953 32.5681 170.383 32.2355 172.806 31.8662C173.657 31.738 174.491 31.5183 175.226 31.3627L176.293 29.3363C174.944 29.4339 173.742 29.5224 172.543 29.6109L172.442 29.7391L173.056 29.7788C172.987 29.9069 172.921 30.0351 172.852 30.1602C172.205 30.2823 171.565 30.4532 170.912 30.5173C169.851 30.6211 168.781 30.618 167.723 30.7218C165.353 30.9537 163.123 30.3983 160.9 29.7635C160.677 29.6994 160.411 29.6811 160.181 29.7269C157.193 30.3037 154.176 30.4685 151.125 30.4013C148.584 30.3464 146.036 30.3708 143.495 30.4227C141.639 30.4593 139.784 30.7004 137.936 30.6699C134.931 30.6211 131.93 30.4166 128.926 30.2945C127.041 30.2182 125.153 30.1908 123.268 30.1145C122.589 30.087 121.889 30.0656 121.239 29.9008C119.696 29.5102 118.146 29.6414 116.593 29.7238C116.304 29.7391 116.012 29.7238 115.723 29.7238L115.68 29.5133C116.015 29.4583 116.347 29.3729 116.685 29.3546C122.073 29.0799 127.455 29.2813 132.836 29.5468C136.222 29.7147 139.604 29.7513 143.002 29.5438C146.079 29.3546 149.182 29.5285 152.271 29.4644C154.481 29.4187 156.688 29.2264 158.897 29.1348C159.764 29.0982 160.634 29.1654 161.501 29.1654C162.237 29.1654 162.975 29.147 163.711 29.1257C166.39 29.0463 169.07 28.9822 171.746 28.8663C173.056 28.8083 174.356 28.6313 175.666 28.5489C176.195 28.5153 176.733 28.5977 177.367 28.6343C177.331 28.9945 177.367 29.26 177.272 29.4644C176.937 30.1602 176.559 30.8377 176.182 31.5122C176.109 31.6373 175.958 31.7289 175.83 31.8204C175.328 32.1653 174.776 32.4583 174.326 32.8519C173.443 33.6271 172.438 34.0452 171.24 34.2863C169.519 34.6311 167.812 34.9668 166.052 34.9058C164.197 34.8417 162.345 34.6922 160.487 34.6281C158.086 34.5457 155.686 34.4297 153.286 34.4724C149.625 34.5365 145.964 34.7471 142.303 34.8448C139.377 34.9241 136.452 34.9333 133.523 34.9577C130.463 34.9851 127.393 34.8875 124.339 35.0279C117.499 35.3483 110.667 34.979 103.83 34.976C98.9676 34.976 94.108 35.0309 89.2452 35.0614C83.463 36.0533 77.5824 35.6688 71.7608 36.1143C69.9647 36.2516 68.126 36.1296 66.3628 36.4225C64.4912 36.7338 62.6163 36.746 60.748 36.9108C60.5445 36.9291 60.3475 37.039 60.1111 37.1184L59.5332 36.6087C59.8878 35.3208 59.2771 33.917 59.9567 32.6292C60.4 31.7899 60.9418 30.9934 61.4441 30.1694C64.5864 30.0687 67.6597 29.8947 70.7363 29.8917C73.7998 29.8917 76.8699 29.6323 79.93 29.849L79.9563 30.0382C79.8283 30.0962 79.7002 30.1938 79.5656 30.203C76.2952 30.4044 73.0479 30.8683 69.7513 30.7614C67.8436 30.7004 65.9228 30.8194 64.0118 30.9049C63.3978 30.9323 62.7904 31.1124 62.1698 31.2223C62.2781 32.205 62.3799 33.1083 62.4916 34.0971L63.2041 34.1978V33.3372C63.4832 33.2609 63.7294 33.1388 63.979 33.1296C67.1738 33.0228 70.3719 32.9404 73.5667 32.8275C75.0672 32.7756 76.5645 32.6536 78.065 32.5864C78.9384 32.5468 79.8151 32.5437 80.6885 32.5437C80.8593 32.5437 81.03 32.6353 81.2007 32.6841L81.227 32.8702C80.9184 32.9587 80.6097 33.1083 80.2978 33.1235C77.9501 33.2456 75.6024 33.3372 73.2548 33.4409C71.1041 33.5386 68.9534 33.6393 66.8093 33.8529C67.1902 33.8529 67.5711 33.8834 67.9454 33.8468C69.0158 33.74 70.0632 33.8133 71.1238 33.9903C71.6721 34.0818 72.2599 33.9811 72.8279 33.9384C73.6455 33.8773 74.4598 33.7064 75.2708 33.7339C77.937 33.8255 80.5605 33.4562 83.1971 33.2212C84.4744 33.1083 85.7648 33.1449 87.0453 33.0869C87.6002 33.0625 88.1486 32.9679 88.7002 32.9038L88.6903 32.7482C88.2306 32.7177 87.771 32.6871 87.308 32.6566L87.262 32.4338C87.4295 32.3575 87.5904 32.2385 87.7644 32.2172C88.3062 32.15 88.8512 32.0951 89.3963 32.0768C92.6206 31.9669 95.845 31.8631 99.0661 31.7685C99.3353 31.7594 99.6111 31.8235 99.8837 31.854V32.0859L99.9001 32.089ZM169.628 29.8062L169.647 29.8825H171.214V29.8062H169.624H169.628ZM65.844 33.9994V33.9567H65.1774V33.9994H65.844Z" fill="#92BCD8"/>
<path d="M114.065 14.1108C114.042 14.2726 114.016 14.4313 113.986 14.6327C113.329 14.1078 110.716 6.24326 110.913 5.32772C111.504 5.84958 111.497 6.55454 111.799 7.10692L111.954 7.06114C111.402 5.42538 110.85 3.78961 110.246 1.9921C107.945 1.97073 105.548 2.03177 103.18 2.32779C103.715 5.15682 103.827 7.92786 103.801 10.7874C103.272 10.412 102.881 8.85255 102.711 6.78953C102.514 8.89528 102.826 24.6762 103.108 25.7229C104.966 25.8999 106.805 25.3872 108.749 25.4727C108.775 25.1126 108.808 24.844 108.808 24.5724C108.818 21.8777 108.808 19.1829 108.831 16.4882C108.834 15.9327 108.9 15.3712 108.992 14.8219C109.028 14.6052 109.205 14.4099 109.317 14.2054L109.576 14.1902C110.062 15.3437 110.535 16.5004 111.038 17.6509C111.56 18.8503 112.154 20.0252 112.627 21.2398C113.09 22.427 113.434 23.6538 113.891 25.0363C116.675 24.9142 119.581 25.3079 122.494 24.6853C122.5 21.7922 121.765 18.9845 122.618 16.1921C123.186 19.0608 123.071 21.9631 123.137 24.8623C122.247 25.6009 121.417 26.3363 120.523 27.0016C120.159 27.2732 119.676 27.5113 119.22 27.5632C116.859 27.8317 114.492 28.0362 112.124 28.259C112.046 28.2651 111.963 28.2346 111.793 28.2071C110.811 26.8185 110.676 25.0454 109.708 23.4799C109.613 24.313 109.527 25.0363 109.438 25.8175C108.519 26.4126 107.557 26.9955 106.648 27.6395C106.001 28.0972 105.301 28.1094 104.553 28.0667C103.63 28.0148 102.704 28.0179 101.781 27.9721C101.466 27.9569 101.158 27.8561 100.8 27.786C100.764 27.4258 100.704 27.1298 100.708 26.8338C100.76 22.5124 100.767 18.188 100.911 13.8667C100.97 12.0508 100.432 10.3052 100.465 8.50465C100.481 7.54028 100.422 6.57285 100.356 5.60848C100.268 4.30841 100.852 3.24028 101.676 2.26371C101.85 2.05618 102.126 1.86697 102.392 1.79678C104.927 1.12233 107.524 1.13454 110.128 1.2383C110.414 1.25051 110.689 1.38784 110.9 1.44887L112.811 6.68272L113.04 6.69798C112.384 4.67463 113.628 3.31963 114.955 1.80899H122.382C122.434 2.8405 122.487 3.81707 122.536 4.77534C122.888 4.12225 123.206 3.43255 123.623 2.80082C123.784 2.55363 124.139 2.3461 124.447 2.26676C125.738 1.93106 127.038 1.63503 128.345 1.35732C128.873 1.2444 129.425 1.19252 129.967 1.15895C130.86 1.10402 131.74 1.13149 132.482 2.15689C133.04 4.33893 133.67 6.79869 134.298 9.25539L134.399 9.2615C134.475 8.80372 134.531 8.3429 134.633 7.89123C134.833 7.00011 134.958 6.07846 135.306 5.23922C135.624 4.47321 136.186 3.79571 136.662 3.09074C136.849 2.81303 137.112 2.58109 137.325 2.31559C137.66 1.90054 138.077 1.72964 138.651 1.69607C140.973 1.56789 143.291 1.4153 145.616 1.69607C145.964 1.7388 146.322 1.70217 146.755 1.70217C146.955 2.32169 146.748 2.9351 146.588 3.52715C145.892 6.08457 145.143 8.62977 144.45 11.1872C143.744 13.7965 143.084 16.418 142.395 19.0334C142.244 19.598 142.037 20.1503 141.869 20.7119C141.57 21.7129 141.19 22.7016 141.012 23.7209C140.773 25.0973 139.817 25.8267 138.668 26.553C137.125 27.5265 135.489 27.7585 133.687 27.6212C131.976 27.4899 130.256 27.4869 128.525 27.4289C126.595 20.3395 124.654 13.2075 122.71 6.07846L122.477 6.10898V14.3336L122.218 14.3855C122.126 14.0772 121.965 13.769 121.952 13.4547C121.87 11.7548 121.827 10.0519 121.761 8.35206C121.689 6.3989 121.607 4.4488 121.525 2.40409C119.509 2.22708 117.486 2.4163 115.431 2.49259C115.431 3.53326 115.457 4.49458 115.428 5.45284C115.342 8.16895 115.237 10.8851 115.122 13.6012C115.112 13.8362 114.984 14.065 114.889 14.3733L114.052 14.123L114.078 13.8697H114.029C114.042 13.9491 114.052 14.0284 114.065 14.1078V14.1108ZM100.829 4.47932L100.783 4.48847L100.806 4.46406L100.826 4.43049V4.47932H100.829ZM125.209 5.13851L125.239 4.87605H125.199L125.216 5.12325C125.255 5.17513 125.298 5.22701 125.261 5.18428C125.307 5.2209 125.258 5.18123 125.209 5.13851ZM112.4 9.26455L112.433 9.00209H112.403V9.24929C112.518 9.54836 112.633 9.84439 112.752 10.1435L113.73 13.2349L113.914 13.18C113.661 12.1302 113.32 11.1048 112.738 10.1587C112.781 9.80777 112.814 9.46291 112.4 9.2615V9.26455ZM127.081 11.297L127.064 11.2726C127.524 13.4638 127.977 15.655 128.453 17.8432C128.545 18.2613 128.683 18.6794 128.86 19.0761C129.244 19.9367 129.74 20.7576 130.062 21.6366C130.472 22.7566 130.758 23.9193 131.099 25.079C133.953 25.8236 136.826 25.4605 139.637 25.0149C140.017 24.2367 140.375 23.5806 140.664 22.897C141.055 21.9814 141.472 21.0628 141.741 20.1137C142.109 18.8167 142.29 17.4739 142.657 16.1769C143.298 13.9277 143.357 11.5442 144.437 9.39272C144.516 9.23708 144.535 9.04787 144.542 8.87392C144.618 7.06114 144.943 5.29415 145.612 3.58209C145.757 3.21587 145.809 2.82219 145.928 2.35221C143.36 1.97989 140.93 2.39799 138.412 2.36442C138.33 3.10906 138.287 3.76214 138.179 4.40607C137.499 8.44056 136.481 12.4262 136.133 16.5126C136.107 16.833 136.021 17.126 135.388 17.1687C134.534 14.7883 134.051 12.3194 133.572 9.84744C133.083 7.3297 132.59 4.81502 132.094 2.26676C129.461 1.32375 127.169 2.52921 124.716 2.88627C124.782 3.23418 124.825 3.47527 124.867 3.695L125.511 3.81097C125.787 4.83027 126.059 5.83127 126.329 6.8231L125.889 7.12218C126.145 8.09571 126.378 9.0082 126.631 9.91763C126.759 10.3815 126.926 10.8332 127.074 11.294L127.081 11.297ZM112.223 8.35206C112.229 8.29712 112.233 8.2544 112.223 8.35206C112.2 8.2544 112.213 8.30018 112.223 8.35206ZM125.701 6.34092L125.665 6.35007L125.688 6.39585L125.701 6.33787V6.34092Z" fill="#92BCD8"/>
<path d="M182.702 15.7527C183.865 17.477 184.528 19.3538 185.191 21.2307C185.428 21.9051 185.595 22.607 185.868 23.2693C186.275 24.2581 185.996 25.0027 185.08 25.5673C184.397 25.6527 183.72 25.7443 183.044 25.8236C181.448 26.0098 180.105 25.4239 178.848 24.6029C177.485 23.7148 176.474 22.5155 175.489 21.2978C175.41 21.2032 175.328 21.1117 175.249 21.017C175.167 22.2378 175.21 23.4493 174.976 24.6151C174.717 25.9366 173.197 26.3058 172.3 27.2519C169.733 27.4808 167.135 27.6151 164.463 27.0749V25.0271L164.302 24.9752C164.197 25.0912 164.046 25.1919 163.99 25.3292C163.56 26.3699 162.591 26.7697 161.554 26.8979C157.531 27.4014 153.483 27.4441 149.434 27.3923C148.456 27.3801 147.474 27.3923 146.43 27.3923C145.957 26.7056 146.079 25.8908 146.033 25.1248C145.983 24.3222 146.062 23.5134 146.072 22.7077C146.102 20.2694 146.115 17.831 146.164 15.3926C146.18 14.5838 146.331 13.7782 146.338 12.9694C146.341 12.4171 146.138 11.8677 146.134 11.3154C146.125 10.0244 146.21 8.73353 146.2 7.44262C146.19 6.13645 146.657 5.02864 147.55 4.0368C148.039 3.49358 148.453 2.89238 148.942 2.26371C153.243 1.57705 157.571 1.13149 162.043 1.13454C162.706 3.28606 163.862 5.23311 163.694 7.27782C162.063 9.76504 159.629 10.412 156.865 10.4517V12.179C157.676 12.2462 158.51 12.3225 159.344 12.3774C159.997 12.4201 160.654 12.4415 161.311 12.4689C161.833 12.4934 162.214 12.71 162.345 13.1892C162.535 13.8758 162.729 14.5686 162.834 15.2705C162.874 15.536 162.739 15.887 162.558 16.1097C162.049 16.7354 161.478 17.3152 160.959 17.8798C159.547 18.1606 158.218 18.423 156.852 18.6946V19.2104C159.452 19.0547 162.026 18.8991 164.666 18.7373C164.689 18.3589 164.758 18.0568 164.716 17.7669C164.249 14.5869 164.079 11.3917 164.065 8.18726C164.065 7.65319 164.082 7.11913 164.111 6.58811C164.194 5.18123 164.84 4.00323 165.835 2.97172C166.16 2.63297 166.489 2.29117 166.883 1.87918C168.62 1.76016 170.416 1.59536 172.215 1.52212C174.156 1.44277 176.099 1.43667 178.04 1.42141C180.772 1.40004 182.998 2.48344 184.945 4.17414C185.211 4.40607 185.52 4.59834 185.828 4.77839C187.532 7.03978 187.496 9.45986 186.462 11.941C186.019 13.003 185.618 14.1169 184.535 14.8005C183.976 15.1545 183.353 15.42 182.706 15.7527H182.702ZM164.006 22.6009L164.029 22.6223C163.845 21.7678 164.049 20.9591 164.361 20.1595C164.561 20.0374 164.752 19.9214 165.008 19.7658C164.443 19.4423 163.924 19.6132 163.432 19.6437C161.334 19.7658 159.235 19.9276 157.137 20.0344C156.169 20.0832 155.975 19.8726 155.942 18.9937C155.932 18.7129 155.926 18.4352 155.916 18.1545C155.876 16.888 155.982 16.8635 157.269 16.4821C158.464 16.125 159.84 16.183 160.808 15.2491C160.907 15.1545 161.114 15.1606 161.275 15.1179C161.452 15.2339 161.616 15.3468 161.81 15.475C162.253 14.9226 161.836 14.4648 161.728 14.0071C161.504 13.064 161.452 13.0763 160.411 13.0213C159.052 12.9481 157.699 12.826 156.303 12.7253C156.159 12.353 155.972 12.0783 155.959 11.7975C155.926 10.9339 155.919 10.0672 155.978 9.20656C156.034 8.35816 156.326 8.11707 157.249 7.995C157.814 7.92175 158.378 7.85766 158.881 7.79663C159.577 6.79258 161.055 6.27378 161.911 6.78038C161.58 7.01231 161.284 7.21984 160.989 7.42736L161.028 7.52197C161.616 7.36937 162.207 7.21373 162.745 7.07335C163.071 5.45894 162.42 2.99614 161.37 1.86697C157.433 1.93411 153.45 2.22708 149.523 2.82219C149.349 8.26966 148.558 13.5859 149.221 18.9296C149.191 18.2216 149.162 17.5105 149.198 16.8025C149.234 16.1372 149.017 15.4292 149.451 14.709C149.819 15.359 149.93 21.8349 149.569 22.6376C149.451 22.2256 149.375 21.954 149.293 21.6701C149.188 22.2225 149.083 22.7627 148.994 23.2205C149.191 23.8766 149.365 24.4564 149.572 25.137C150.104 25.0698 150.748 25.14 151.188 24.8959C151.844 24.5327 152.33 24.5083 152.783 24.9905C156.113 25.1217 159.36 24.9997 162.571 24.4137C162.9 24.3527 163.238 24.1848 163.501 23.9834C164.476 23.2388 164.985 22.2805 164.906 21.0354C164.798 21.3741 164.752 21.6854 164.601 21.9478C164.459 22.195 164.21 22.3873 164.01 22.6009H164.006ZM183.921 24.7799L183.898 24.7616C184.16 24.8593 184.423 24.96 184.738 25.079C184.965 24.7341 185.142 24.4595 185.326 24.1787C185.05 23.4097 184.791 22.6803 184.482 21.8227C184.344 22.4422 184.807 22.9397 184.285 23.3975C183.878 21.9021 182.939 20.5166 183.359 18.6366C182.807 17.6875 182.157 16.5706 181.442 15.3437C181.829 15.185 182.174 15.0111 182.545 14.8951C183.648 14.5503 184.521 13.9613 185.103 13C185.904 11.6694 186.216 10.1953 186.6 8.74574C186.669 8.48328 186.682 8.172 186.603 7.91565C186.308 6.94823 185.963 5.99301 185.651 5.07747C185.083 4.73262 184.584 4.42438 184.081 4.12225C182 2.86796 179.803 2.03177 177.239 2.19657C175.413 2.31559 173.578 2.28507 171.749 2.3339C170.334 2.37052 168.918 2.43155 167.382 2.48344C167.648 2.67265 167.802 2.78251 167.93 2.87407C167.93 4.57087 167.937 6.21884 167.92 7.86987C167.92 8.03772 167.795 8.20252 167.727 8.36732L167.543 8.35206L167.27 7.4945L167.099 7.51586C167.168 10.6134 167.244 13.711 167.296 16.8056C167.316 17.8462 167.434 18.9144 167.227 19.9214C167.034 20.8706 167.047 21.7708 167.188 22.6986C167.3 23.4432 167.431 24.1879 167.556 24.9569C169.769 25.253 171.874 25.256 173.936 24.9111C174.444 23.9987 174.678 22.5796 174.54 21.6732C174.382 20.6173 174.297 19.5522 174.116 18.5024C173.89 17.1809 174.142 16.9581 175.627 16.5614C175.889 16.4912 176.165 16.4241 176.431 16.4332C176.73 16.4454 177.022 16.5462 177.265 16.598C177.222 16.9887 177.117 17.2725 177.18 17.5166C177.321 18.0568 177.459 18.6214 177.754 19.0944C178.477 20.2541 179.274 21.3741 180.069 22.4941C180.982 23.782 182.4 24.3527 183.914 24.7799H183.921ZM146.574 24.316L146.446 24.3069C146.44 24.4107 146.433 24.5144 146.427 24.6212L146.555 24.6273C146.561 24.5236 146.568 24.4198 146.574 24.316ZM146.867 26.431L146.827 26.4798L146.88 26.492L146.863 26.431H146.867Z" fill="#92BCD8"/>
<path d="M218.988 20.7363C219.231 20.7485 219.477 20.7821 219.72 20.776C221.638 20.7241 223.217 21.4626 224.639 22.5796C225.223 23.0404 225.378 23.6081 225.125 24.3222C225.075 24.31 224.984 24.31 224.98 24.2886C224.734 23.3486 223.752 23.2144 223.046 22.8115C222.376 22.4301 221.621 22.1676 220.879 21.9143C220.538 21.7983 220.14 21.7861 219.769 21.7892C218.932 21.7983 218.069 21.7373 217.258 21.896C215.399 22.2622 213.787 23.1106 212.473 24.4015C212.221 24.6487 212.05 24.9692 211.725 25.4117C213.406 25.5948 214.903 25.7565 216.249 25.903C216.87 25.4788 217.32 25.0302 217.875 24.8257C218.433 24.6213 219.103 24.5663 219.707 24.6121C220.571 24.6762 221.175 25.375 221.342 26.2997C221.46 26.9498 221.158 27.5144 220.331 27.8745C219.549 28.2163 218.709 28.4452 217.799 28.7595C217.845 29.1654 217.898 29.6293 217.963 30.2152L220.058 30.0382C220.219 29.852 220.38 29.6689 220.577 29.4401C220.919 29.7391 221.224 30.0077 221.664 30.3922C221.743 30.85 221.95 31.4512 221.923 32.0402C221.884 32.9985 221.267 33.7553 220.39 34.1642C218.889 34.8662 216.9 35.0126 215.76 33.2792C215.616 33.0595 215.544 32.5559 215.002 32.8581C215.146 33.1053 215.291 33.3464 215.455 33.6271C214.971 33.6617 214.55 33.4664 214.191 33.0412C213.899 33.2823 213.61 33.5142 213.324 33.7492L213.445 33.9109C213.084 34.0574 212.726 34.2009 212.368 34.3474C212.142 34.0544 211.974 33.8377 211.81 33.621C211.541 34.1581 211.837 34.5244 212.102 34.8265C213.386 36.2761 215.031 37.2374 216.959 37.7837C217.083 37.8203 217.231 37.8173 217.366 37.802C219.021 37.6158 220.676 37.4419 222.324 37.2222C222.83 37.155 223.309 36.9414 223.808 36.8193C224.117 36.743 224.438 36.7125 224.928 36.6362C225.125 36.4348 225.433 36.1205 225.742 35.8092L225.607 35.7695C225.63 35.4094 225.601 35.0371 225.686 34.6892C225.906 33.8041 225.936 32.9405 225.66 32.0555C225.575 31.7747 225.693 31.439 225.795 31.1277C225.486 30.0748 224.169 30.1053 223.526 29.4553C224.087 27.9782 224.619 26.5744 225.151 25.1706L225.345 25.2102C225.624 26.6446 225.21 27.9569 224.205 29.2386C225.469 29.4553 226.221 30.1237 226.799 31.0361C228.228 33.3036 227.535 35.1256 225.591 36.7186C225.013 37.1947 224.268 37.506 223.568 37.8386C222.084 38.5466 220.548 39.1326 218.909 39.4866C217.632 39.7613 216.364 39.8345 215.087 39.5843C213.508 39.273 211.938 38.922 210.51 38.1804C210.346 38.095 210.169 38.037 209.784 37.8081C209.371 38.2811 208.954 38.7481 208.546 39.2241C207.978 39.8925 207.181 40.0451 206.343 40.042C204.511 40.0329 202.679 39.984 200.847 39.9566C199.152 39.9291 197.458 39.9138 195.764 39.8742C195.229 39.862 194.697 39.7887 194.07 39.7338C193.951 38.8488 193.843 38.0492 193.745 37.2466C193.722 37.0696 193.771 36.8804 193.722 36.7156C193.252 35.2324 194.142 34.2589 195.14 33.2945C196.719 31.7686 198.575 30.5601 200.381 29.2905C201.067 28.8083 201.188 28.2865 200.82 27.4625C200.206 27.9386 199.589 28.4177 198.969 28.8938C198.532 29.2295 198.046 29.4034 197.462 29.379C196.204 29.3271 194.946 29.3088 193.689 29.2783C193.016 29.263 192.635 28.9243 192.484 28.3322C191.975 26.3272 192.306 24.4961 194.073 23.1472C194.831 22.5674 195.803 22.1645 196.746 21.8655C199.366 21.0384 202.081 20.7882 204.836 20.9652C205.769 21.0262 206.567 21.4169 207.282 21.9509C208.527 22.8848 209.249 24.1787 209.555 25.5582C209.834 26.8063 209.466 28.1034 208.655 29.1837C208.018 30.0352 207.259 30.8103 206.547 31.6129C206.314 31.8784 206.054 32.1256 205.782 32.4095C207.141 32.562 208.395 32.6994 209.683 32.8428C209.83 33.4318 209.942 33.8896 210.086 34.4694C210.359 34.0483 210.572 33.7095 210.806 33.3494C212.188 32.4613 213.895 32.4705 215.406 31.9578C216.463 32.5559 216.877 33.9476 218.426 33.8347C218.903 33.4349 219.287 32.9771 219.159 32.2996C216.683 31.7625 216.286 31.5244 216.328 30.261C216.351 29.5713 216.542 28.8449 216.844 28.2163C217.212 27.4503 218.213 27.7371 218.863 27.4289C219.129 26.4493 218.863 25.9701 217.796 25.6375C217.609 25.8115 217.303 25.9824 217.179 26.2326C216.703 27.197 215.635 27.5693 214.893 28.2621C214.742 28.4024 214.302 28.375 214.043 28.2926C213.459 28.1064 212.907 27.8379 212.362 27.5693L210.182 26.9528C209.781 25.5612 210.283 24.4687 211.222 23.547C212.217 22.5704 213.465 21.954 214.88 21.6152C215.708 21.4169 216.515 21.13 217.428 20.8523C216.476 20.6081 215.629 20.4159 214.805 20.1717C213.196 19.6926 211.945 18.8411 211.357 17.2847C210.615 15.3163 209.853 13.3357 209.824 11.233C209.788 8.75797 210.507 6.49658 212.326 4.57394C213.459 3.37763 214.772 2.39495 216.364 1.93718C218.18 1.41837 220.104 1.27189 221.999 1.75712C224.025 2.27898 225.335 3.55769 226.09 5.31858C226.533 6.35314 226.858 7.43653 227.164 8.51382C227.883 11.056 227.338 13.5005 226.399 15.9022C225.975 16.9887 225.446 18.0049 224.379 18.7007C223.086 19.5461 221.68 20.1259 220.111 20.3457C219.72 20.4006 219.336 20.4769 218.948 20.544C218.962 20.6051 218.975 20.6692 218.988 20.7302V20.7363ZM194.822 24.8288C195.232 24.9722 195.288 25.2774 195.268 25.6345C195.252 26.0037 195.265 26.373 195.265 26.785C196.779 26.8582 198.184 26.9223 199.592 26.9895C199.75 26.7819 199.855 26.6019 200.003 26.4584C200.413 26.0617 200.788 25.5948 201.28 25.314C202.436 24.6548 203.707 25.3415 203.812 26.5988C203.874 27.3465 203.628 27.9416 203.007 28.4146C202.206 29.025 201.421 29.6598 200.607 30.2549C199.425 31.1155 198.207 31.9303 197.038 32.8031C196.562 33.1572 195.994 33.499 196.056 34.2131C197.035 34.8509 196.309 35.6871 196.309 36.4073C196.999 37.1092 197.872 36.7644 198.637 36.8163C198.808 37.0268 198.952 37.2008 199.064 37.3381C201.467 37.5273 203.802 37.7104 206.104 37.8905C206.297 37.6067 206.429 37.4205 206.586 37.1916C207.2 36.9841 207.837 36.7644 208.478 36.5477C208.819 36.8773 208.556 37.1001 208.3 37.2893C208.11 37.4297 207.873 37.5151 207.657 37.625L207.703 37.7379C208.143 37.686 208.586 37.6311 209.141 37.564V35.0004L209.233 35.0645L208.468 36.563C208.149 35.562 208.018 34.5732 208.747 33.5569C207.535 33.5569 206.396 33.5508 205.256 33.5569C204.738 33.56 204.166 33.8041 203.697 33.1572C203.9 32.9283 204.104 32.678 204.327 32.4491C205.447 31.3108 206.672 30.2457 207.676 29.025C209.354 26.9864 208.793 24.6731 207.161 22.9855C206.819 22.6315 206.419 22.3232 205.982 21.9387C205.933 21.9326 205.802 21.896 205.667 21.8929C203.7 21.8838 201.733 21.838 199.767 21.899C199.084 21.9204 198.41 22.1981 197.731 22.3599C197.78 22.4301 197.829 22.4972 197.875 22.5674C197.711 22.7871 197.596 23.0648 197.376 23.2113C196.549 23.7759 195.685 24.2978 194.835 24.8349C194.835 24.8745 194.831 24.9142 194.835 24.8532C194.845 24.9081 194.835 24.8623 194.828 24.8196L194.822 24.8288ZM212.28 6.88416C212.086 7.7997 211.833 8.60843 211.761 9.42936C211.58 11.4802 211.387 13.5371 212.565 15.4506C213.951 17.6998 215.681 19.4637 218.738 19.4423C219.687 19.4362 220.699 19.4881 221.569 19.2104C222.439 18.9327 223.243 18.3467 223.949 17.7669C225.657 16.3692 226.008 14.3397 226.481 12.4323C226.724 11.4436 226.53 10.3571 226.504 9.31645C226.494 9.00516 226.376 8.69693 226.31 8.3887L226.159 8.36428C226.034 8.57181 225.909 8.78238 225.785 8.9899L225.489 8.88919C224.947 7.3755 224.947 5.67564 223.805 4.36337C223.644 4.17721 223.693 3.8293 223.641 3.54243C222.347 1.83647 217.432 1.58012 215.632 2.87103C215.337 3.30134 215.074 3.68281 214.838 4.02462L213.987 4.0887C214.089 4.4122 214.171 4.66244 214.27 4.97678C213.83 5.6909 213.373 6.42944 212.904 7.18629C212.687 7.08253 212.575 7.02759 212.276 6.88721L212.28 6.88416ZM226.241 34.9791C227 34.2192 227.019 32.6841 226.192 31.8784C226.763 33.0137 226.72 33.9964 226.241 34.9791ZM195.495 35.9312C195.074 36.505 195.528 36.8804 195.816 37.2923L195.495 35.9312Z" fill="#92BCD8"/>
<path d="M98.6326 1.00336V7.86992C97.3948 8.77021 96.0059 9.71627 94.108 9.66439C93.5695 9.64913 93.0278 9.75899 92.4926 9.95431C94.2361 10.3236 96.0157 10.1405 97.907 10.3144C97.9234 11.529 98.0318 12.6674 97.9267 13.7874C97.8446 14.6632 95.2769 16.6408 94.3116 16.7385C93.7731 16.7934 93.2313 16.8361 92.6534 16.885V18.8534C93.9012 18.8534 95.0635 18.8442 96.2291 18.8564C96.9318 18.8625 97.641 18.8717 98.3371 18.9419C98.7508 18.9846 99.0267 19.2684 99.0595 19.6713C99.2171 21.6702 99.2499 23.6661 99.0234 25.4636C97.618 26.904 95.868 26.9864 94.2065 27.0963C91.1825 27.2947 88.1485 27.3527 85.1179 27.4351C84.3332 27.4564 83.5484 27.3465 82.7472 27.2947C82.6717 27.0627 82.5798 26.8979 82.5732 26.7301C82.524 25.6894 82.4813 24.6518 82.455 23.6111C82.4419 23.0313 82.4156 22.4637 82.8031 21.9265C82.9738 21.6916 82.9771 21.2643 82.8884 20.9652C82.3368 19.07 82.5272 17.1291 82.3959 15.2065C82.2547 13.1557 82.061 11.1079 81.9067 9.05708C81.7983 7.58916 81.7031 6.12124 81.6276 4.65027C81.5947 4.01855 81.9526 3.54246 82.4649 3.15488C82.9278 2.80088 83.3809 2.43161 83.8341 2.06844C84.297 1.69917 84.783 1.40925 85.4298 1.38179C87.1208 1.31465 88.8151 1.26276 90.4995 1.11628C92.8143 0.911807 95.1193 0.618834 97.444 0.994206C97.7592 1.04609 98.0876 1.00031 98.6359 1.00031L98.6326 1.00336ZM91.9081 10.9645C91.78 10.0947 91.6454 9.35005 91.5666 8.60236C91.5174 8.15374 91.8227 7.86687 92.2758 7.80278C93.0278 7.69902 93.7928 7.5678 94.5414 7.60747C95.7038 7.67156 96.807 7.50981 97.8085 7.26872V1.84261C96.3375 1.4123 93.7337 1.37263 92.3546 1.69917C91.9869 1.78768 91.6027 1.83956 91.2219 1.86092C89.833 1.93111 88.4375 1.97078 87.0486 2.04098C86.5166 2.06844 85.988 2.15694 85.4298 2.22103C85.4068 2.58115 85.3773 2.83139 85.3773 3.08164C85.3773 4.65332 85.4068 6.225 85.3871 7.79668C85.3609 10.1588 85.2919 12.5209 85.2624 14.883C85.2525 15.7955 85.3379 16.708 85.3149 17.6204C85.2788 19.067 85.1245 20.5136 85.1343 21.9601C85.1409 23.0099 85.328 24.0567 85.4298 25.0485H96.4656L97.1255 24.368C97.6148 24.4199 97.6279 25.195 98.2485 24.7311V23.7637L97.7297 23.5196C97.6378 22.9977 97.5557 22.5216 97.4736 22.0456C97.3422 21.2704 97.4342 21.127 98.2944 20.7913C98.278 20.483 98.2583 20.1626 98.2353 19.7414C97.71 19.7414 97.2536 19.7323 96.7972 19.7414C95.405 19.7781 94.0128 19.8361 92.6206 19.8605C92.2988 19.8666 91.9738 19.7628 91.6421 19.7079C91.6421 18.6581 91.6323 17.7486 91.6454 16.8392C91.652 16.4089 91.6717 15.9725 91.7538 15.5513C91.7997 15.3194 91.9377 15.0539 92.1215 14.8982C92.8702 14.2726 93.737 13.9094 94.7778 13.8667C95.6118 13.8332 96.436 13.6561 97.339 13.531C97.247 12.707 97.1649 11.9868 97.0796 11.2055C95.3754 11.1231 93.7239 11.0469 91.9081 10.9584V10.9645Z" fill="#92BCD8"/>
<path d="M62.6687 1.9433C62.5374 3.35018 62.5603 4.66856 62.2714 5.92285C61.6147 8.75187 61.6804 11.6114 61.6081 14.4679C61.5655 16.1433 61.5096 17.8218 61.4604 19.4973C61.4505 19.7994 61.4604 20.1015 61.4604 20.4037L61.618 20.425C61.6443 20.2267 61.6771 20.0252 61.6935 19.8269C61.8248 18.3376 61.9595 16.8514 62.0711 15.3621C62.1039 14.9379 62.0514 14.5106 62.0645 14.0834C62.1007 12.7131 62.1433 11.3429 62.1992 9.9726C62.2057 9.79864 62.3174 9.63079 62.3798 9.45989L62.5899 9.4782C62.6227 9.68573 62.695 9.89325 62.6884 10.0977C62.6063 12.7101 62.4815 15.3224 62.4323 17.9348C62.3896 20.1412 62.4454 22.3507 62.4257 24.5572C62.4257 24.9112 62.2517 25.2621 62.1269 25.7321C62.6162 25.7321 63.2006 25.7352 63.7818 25.7321C63.946 25.7321 64.1069 25.6894 64.271 25.6894C68.4476 25.726 72.3484 24.5602 76.2196 23.2876C77.927 22.7261 78.912 21.5359 79.4341 19.9642C79.5391 19.6499 79.7132 19.3569 79.8543 19.0548L80.1663 19.0731C80.2385 19.302 80.3928 19.54 80.3633 19.7597C80.3042 20.1839 80.2221 20.6356 80.012 21.0079C79.4209 22.0608 78.7774 23.0862 78.1207 24.1055C77.8022 24.5999 77.4935 25.1584 77.024 25.5032C76.3706 25.9824 75.5891 26.3364 74.8208 26.6568C74.1772 26.9223 73.4844 27.1451 72.7883 27.2428C69.2488 27.7341 65.719 28.3902 62.1072 28.0729C61.8084 28.0454 61.5063 28.0637 61.2043 28.0729C60.1601 28.1156 59.9237 28.0118 59.2933 27.2397C59.2933 26.9895 59.3163 26.7636 59.29 26.5408C58.7351 21.8319 58.607 17.1108 58.7515 12.3774C58.7778 11.4771 58.4232 10.5738 58.3969 9.66741C58.3378 7.68984 58.3805 5.70922 58.3805 3.70419C59.2276 3.02363 60.0846 2.31562 60.9679 1.63812C61.2076 1.45501 61.5195 1.278 61.8183 1.24138C64.8686 0.887371 67.9157 0.673745 70.9496 1.38176C72.2367 1.68084 73.4549 2.10504 74.545 2.81611C75.6843 3.5577 76.8959 4.2291 77.9171 5.09581C79.4242 6.37146 80.4519 7.92789 80.4848 9.93597C80.4979 10.8729 80.6588 11.8098 80.7901 12.7406C81.0594 14.6449 80.4815 16.4638 80.2418 18.3193L80.0579 18.3437C80.012 18.1789 79.9233 18.0172 79.9266 17.8524C79.9627 15.5147 80.0185 13.18 80.0579 10.8424C80.0776 9.71014 79.526 8.72746 78.9908 7.76614C77.6249 5.32164 75.2115 3.95749 72.7128 2.72151C71.36 2.05011 69.8628 1.867 68.3458 1.85479C66.7862 1.84259 65.2265 1.8609 63.6669 1.8731C63.3451 1.8731 63.0266 1.91888 62.6687 1.94635V1.9433Z" fill="#92BCD8"/>
<path d="M205.614 13.6134C206.757 13.415 207.9 13.2197 209.157 13.003C209.331 13.4882 209.535 13.9002 209.62 14.3305C209.847 15.4536 210.014 16.5858 210.215 17.715C210.451 19.0242 209.41 20.2846 207.975 20.3395C203.743 20.5043 199.51 20.6478 195.278 20.7882C194.989 20.7973 194.697 20.7241 194.355 20.6844C194.254 20.306 194.112 19.9703 194.076 19.6285C193.961 18.542 193.833 17.4495 193.817 16.36C193.81 15.9144 193.994 15.4078 194.254 15.0263C195.16 13.6836 196.542 12.7772 197.918 11.9105C199.438 10.9491 200.647 9.73452 201.684 8.3551C202.416 7.38157 202.15 6.28598 201.057 5.50166C200.56 5.74174 200.314 6.68576 200.318 8.33374C199.619 8.91968 198.864 9.57582 198.082 10.1984C197.934 10.3174 197.672 10.3998 197.481 10.3784C196.158 10.2167 194.835 10.0397 193.518 9.83523C192.95 9.74672 192.737 9.3683 192.73 8.83423C192.71 7.05503 193.301 5.50471 194.562 4.15582C195.951 2.66959 197.563 1.51295 199.606 0.893437C200.752 0.545531 201.911 0.411251 203.083 0.606567C205.04 0.93311 206.882 1.54652 208.432 2.76725C209.259 3.41728 209.817 4.24432 209.935 5.227C210.123 6.77732 210.014 8.31848 209.354 9.78945C208.826 10.9644 207.752 11.6938 206.78 12.5025C206.379 12.8352 205.946 13.1342 205.529 13.4486L205.611 13.6225L205.614 13.6134ZM196.043 18.8014L196.06 18.7831C197.077 18.8381 198.095 18.8899 199.113 18.9449L199.123 18.7953C199.274 18.6214 199.425 18.4444 199.698 18.1331C200.305 18.1331 201.011 18.1667 201.714 18.127C203.319 18.0324 204.922 17.9011 206.524 17.7791C207.187 17.7272 207.85 17.6631 208.507 17.6021C208.625 17.9347 208.691 18.1148 208.77 18.3376L209.555 18.2338C209.19 16.7811 209.187 15.3346 208.734 14.0131C206.586 14.3214 204.62 14.7822 202.541 14.9134C202.554 14.6083 202.584 14.3305 202.748 14.2207C204.094 13.3112 205.46 12.4293 206.833 11.5534C207.634 11.0407 208.494 10.4883 208.707 9.60634C209.016 8.33374 209.065 7.0062 209.226 5.70003L208.934 5.72139C208.717 5.14155 208.504 4.56171 208.287 3.98186L208.428 3.90557C207.516 2.95341 206.544 2.0989 205.076 1.98293C204.705 1.74794 204.327 1.49159 203.91 1.39088C201.146 0.740846 198.831 1.6808 196.857 3.06022C196.47 4.20159 195.803 4.88825 194.94 5.49861C194.72 6.27682 194.48 7.0886 194.447 8.01635C195.386 7.89733 196.165 7.78136 196.953 7.70507C197.754 7.62877 198.562 7.59215 199.369 7.53722C199.448 6.90855 199.464 6.37143 199.593 5.85872C199.773 5.15376 200.216 4.58612 201.021 4.43658C203.04 4.06426 204.741 5.70308 204.199 7.52806C204.061 7.99499 203.753 8.48328 203.375 8.81287C202.223 9.81692 201.027 10.7843 199.786 11.6938C198.44 12.6826 197.025 13.592 195.623 14.5442V15.3498L196.027 14.6754L196.257 14.6845C196.348 14.9195 196.509 15.1545 196.519 15.3926C196.559 16.3051 196.545 17.2206 196.555 18.1361C196.559 18.4779 196.454 18.7373 196.04 18.7953L196.043 18.8014ZM202.272 18.7038V18.7434H203.234V18.7038H202.272ZM200.978 18.7618L200.952 18.716H200.607V18.7618H200.978ZM207.703 18.4444L207.673 18.3498L207.315 18.3833L207.322 18.4444H207.703Z" fill="#92BCD8"/>
<path d="M68.9141 8.01333C69.7087 7.26563 70.1914 7.39076 70.9925 7.87599C71.8528 8.39785 72.6047 9.16386 73.1957 9.95732C74.4237 11.6114 74.3745 13.4852 73.9411 15.3712C73.8951 15.5696 73.8196 15.7619 73.7802 15.9602C73.7441 16.1342 73.7375 16.3112 73.6554 16.4638C73.2745 17.1901 72.8707 17.9042 72.5193 18.6428C72.0005 19.7292 70.8743 19.9001 69.8433 20.1442C69.3409 20.2633 69.0487 19.8391 69.0356 19.3844C68.9502 16.1677 68.878 12.9542 68.8189 9.7376C68.809 9.15775 68.8813 8.57486 68.9141 8.01333ZM69.817 18.3895C71.797 16.3448 71.7149 12.3621 69.817 10.7966V18.3895Z" fill="#92BCD8"/>
<path d="M177.229 33.978C177.452 33.035 177.649 32.2049 177.863 31.3046C178.49 30.5966 179.137 29.8092 179.856 29.0829C180.105 28.8327 180.509 28.6465 180.877 28.5763C183.973 27.9873 187.089 28.4817 190.195 28.4878C190.533 28.4878 190.872 28.6038 191.325 28.6862C191.223 29.0249 191.193 29.2965 191.065 29.5254C190.655 30.2701 190.231 31.0116 189.765 31.7258C189.578 32.0126 189.302 32.3117 188.987 32.4521C187.789 32.9953 186.603 33.682 185.326 33.9353C182.982 34.3991 180.578 34.6494 178.171 34.2405C177.856 34.1855 177.551 34.0695 177.226 33.978H177.229ZM190.048 29.3362C187.017 29.5498 184.127 28.7319 181.235 29.6109C180.831 30.4165 180.417 31.2375 179.954 32.1591C183.126 32.9617 186.019 31.918 188.994 31.3565C189.319 30.737 189.634 30.1266 190.048 29.3362Z" fill="#92BCD8"/>
<path d="M94.6301 29.8489C95.1488 29.7452 95.4837 29.6322 95.8252 29.617C97.9792 29.5254 100.136 29.4339 102.29 29.385C104.937 29.3271 107.587 29.3026 110.236 29.2813C110.863 29.2752 111.491 29.324 112.114 29.382C112.394 29.4095 112.666 29.5285 112.939 29.6078L112.926 29.8123C112.512 29.8459 112.095 29.9283 111.684 29.9069C109.934 29.8123 108.201 29.9008 106.464 30.1083C105.653 30.206 104.832 30.2243 104.011 30.2457C101.499 30.3036 98.9839 30.3555 96.4721 30.386C95.8909 30.3921 95.2802 30.4043 94.6301 29.8489Z" fill="#92BCD8"/>
<path d="M93.7665 29.8795C93.1755 30.261 83.5155 30.4532 82.0183 30.2396C81.8574 30.2152 81.7063 30.1114 81.552 30.0443V29.8368C82.0314 29.733 82.5108 29.5499 82.9934 29.5438C85.0423 29.5163 87.0945 29.5194 89.1434 29.556C90.4535 29.5804 91.7636 29.6781 93.0737 29.7544C93.3068 29.7666 93.5334 29.8337 93.7632 29.8764L93.7665 29.8795Z" fill="#92BCD8"/>
<path d="M56.2333 32.4399C55.8393 32.2018 55.9542 31.915 56.2103 31.683C56.716 31.2253 56.6634 30.7126 56.5485 30.1327C56.4106 29.4369 56.3515 28.7258 56.3088 28.0178C56.1808 25.8633 56.0724 23.7087 55.9706 21.5572C55.9444 21.0445 55.9673 20.5287 55.9673 20.0129L56.2399 19.9611C56.3154 20.1442 56.4435 20.3273 56.4632 20.5165C56.6536 22.5887 56.8473 24.6639 56.9984 26.7391C57.1034 28.207 57.156 29.6811 57.2019 31.152C57.2249 31.915 56.9984 32.1835 56.2366 32.446L56.2333 32.4399Z" fill="#92BCD8"/>
<path d="M79.086 9.875C79.4045 10.3023 79.9364 15.2675 79.8215 16.8331C79.7985 17.1505 79.6639 17.4618 79.5818 17.7761L79.352 17.7578C79.3191 17.5778 79.26 17.3946 79.2535 17.2146C79.2075 16.2533 79.2042 15.2889 79.1254 14.3276C79.0794 13.7783 78.9809 13.2198 78.8036 12.6949C78.495 11.7732 78.7412 10.8913 78.9054 10.0001C78.9153 9.9513 79.0236 9.91773 79.086 9.87805V9.875Z" fill="#92BCD8"/>
<path d="M121.577 22.6284C121.105 21.9418 120.786 15.6764 121.18 14.8433C121.837 15.829 122.142 21.8655 121.577 22.6284Z" fill="#92BCD8"/>
<path d="M121.784 24.0719C121.022 24.8104 117.562 24.841 116.688 24.0719H121.784Z" fill="#92BCD8"/>
<path d="M24.5051 33.2517L24.1899 33.0625L24.2556 32.9404L24.6102 33.0747L24.5051 33.2517Z" fill="#92BCD8"/>
<path d="M24.0914 32.4051L24.1045 32.2418C24.1472 32.2325 24.1899 32.2202 24.1899 32.2202C24.2096 32.2818 24.2293 32.3465 24.2457 32.4081H24.0914V32.4051Z" fill="#92BCD8"/>
<path d="M25.2274 33.2029C25.2833 33.2303 25.3522 33.2487 25.3916 33.2883C25.4146 33.3097 25.3916 33.3707 25.3818 33.5142L25.1585 33.267L25.2242 33.2029H25.2274Z" fill="#92BCD8"/>
<path d="M3.93742 3.31958C3.99981 3.56372 4.1213 3.81092 4.1213 4.05507C4.13443 7.3266 4.13115 10.5981 4.1213 13.8697C4.1213 14.0986 4.06548 14.3305 4.03593 14.5594L3.77982 14.5655C3.73385 14.2359 3.62878 13.9063 3.65176 13.5797C3.84548 10.6103 3.71086 7.64399 3.46132 4.68374C3.39565 3.89332 3.40222 3.7804 3.93414 3.31653L3.93742 3.31958Z" fill="#92BCD8"/>
<path d="M13.3149 33.6942C13.5415 32.8885 14.5364 33.2151 15.0749 32.5131C15.1011 32.0615 15.1701 31.387 15.1767 30.7095C15.1865 29.8215 15.1274 28.9303 15.1438 28.0422C15.1504 27.7706 15.3047 27.5021 15.3901 27.2335L15.656 27.2152C15.7545 27.438 15.9483 27.6669 15.9351 27.8866C15.8432 29.4064 15.7578 30.9293 15.5707 32.4399C15.4656 33.2822 14.4083 33.8285 13.3149 33.6942Z" fill="#92BCD8"/>
<path d="M3.92104 16.2074C4.25267 16.9276 4.01954 17.5532 3.92104 18.2491C3.353 17.7547 3.35957 16.9673 3.92104 16.2074Z" fill="#92BCD8"/>
<path d="M142.49 13.8575C142.49 14.1108 142.552 14.3764 142.48 14.6113C141.991 16.2196 141.472 17.8188 140.97 19.424C140.865 19.7628 140.746 20.1076 140.707 20.4586C140.566 21.8167 139.883 22.9672 139.114 24.0811C138.717 24.6579 138.359 24.7494 137.765 24.4595C138.175 24.0506 138.596 23.666 138.97 23.2449C139.19 22.9977 139.4 22.7047 139.492 22.4026C139.857 21.1819 140.132 19.9398 140.52 18.7282C141.012 17.1779 141.574 15.6459 142.112 14.1078C142.148 14.0071 142.25 13.9247 142.319 13.8331L142.49 13.8606V13.8575Z" fill="#92BCD8"/>
<path d="M127.08 11.297C127.067 10.7233 126.65 10.1648 126.939 9.50867C127.448 10.0397 128.085 12.2828 127.822 12.9358C127.53 12.2919 127.297 11.7792 127.064 11.2696L127.08 11.294V11.297Z" fill="#92BCD8"/>
<path d="M135.466 24.2673C136.054 23.8308 136.511 23.8278 137.046 24.2551C136.507 24.548 136.015 24.5419 135.466 24.2673Z" fill="#92BCD8"/>
<path d="M179.432 10.0489L179.81 10.1008C179.79 10.9675 179.219 11.5473 178.772 12.1913H177.938C177.019 13.2807 175.804 13.5798 174.379 13.0549C173.873 12.2401 173.909 8.4589 174.415 7.5403C176.359 6.79871 178.266 7.48842 179.626 9.4019L179.435 10.0672L179.442 10.0977L179.435 10.0458L179.432 10.0489ZM174.802 12.469C175.4 12.7406 175.699 12.353 175.912 11.9868C176.658 10.7081 176.244 9.35307 174.802 8.4589V12.469Z" fill="#92BCD8"/>
<path d="M173.61 7.92786C173.719 8.33375 173.844 8.62062 173.86 8.91054C174.021 11.6022 173.89 13.0213 173.459 13.4913C172.941 12.7406 172.951 8.70912 173.61 7.92786Z" fill="#92BCD8"/>
<path d="M167.552 15.2888C167.083 13.6866 167.369 12.0905 167.713 10.4913C168.272 12.0844 168.111 13.6835 167.891 15.2857L167.556 15.2918L167.552 15.2888Z" fill="#92BCD8"/>
<path d="M167.776 19.189C167.254 18.5908 167.267 17.4922 167.759 16.9001C168.242 17.3488 168.268 18.4444 167.776 19.189Z" fill="#92BCD8"/>
<path d="M179.11 7.88208C179.892 8.28492 180.197 8.86171 179.944 9.60635C179.586 9.02651 179.265 8.5016 178.94 7.97669L179.11 7.88208Z" fill="#92BCD8"/>
<path d="M183.924 24.7769C183.871 24.6609 183.806 24.548 183.77 24.4259C183.75 24.3588 183.776 24.2794 183.786 24.1055L184.544 23.9559C184.682 24.5785 184.236 24.6212 183.901 24.7555L183.924 24.7738V24.7769Z" fill="#92BCD8"/>
<path d="M162.03 5.70609C161.419 5.00722 161.265 4.05506 161.695 3.62781C162.22 4.20155 162.368 5.11709 162.03 5.70609Z" fill="#92BCD8"/>
<path d="M164.01 22.5979C163.898 23.3883 163.76 23.5348 162.959 23.7027C162.801 23.0191 163.061 22.7596 164.033 22.6193L164.01 22.5979Z" fill="#92BCD8"/>
<path d="M221.017 7.18617L221.707 7.86978L221.894 7.75076C222.061 8.17191 222.225 8.59306 222.383 8.98979C222.239 9.27361 222.124 9.49639 222.009 9.72222C222.501 11.4068 221.759 12.8747 221.086 14.3396C220.761 15.0446 220.147 15.4474 219.293 15.4688C218.499 15.4871 218.029 15.188 217.743 14.4922C217.363 13.5706 216.929 12.6642 216.611 11.7242C216.043 10.0518 216.509 8.52592 217.53 7.10988C217.711 6.85658 217.904 6.61243 218.101 6.35303C218.827 6.03564 218.896 6.0387 220.134 6.45374C220.295 6.36219 220.475 6.25843 220.761 6.09668C221.011 6.3805 221.25 6.65211 221.559 7.00612L221.004 7.19533L221.024 7.18007L221.017 7.18617ZM218.203 14.3213C219.533 12.948 219.464 8.63883 218.193 7.60122C216.703 9.86261 217.678 12.0935 218.203 14.3213Z" fill="#92BCD8"/>
<path d="M222.527 13.4699C222.166 12.5025 222.268 11.651 222.321 10.769C223.184 11.0559 223.315 12.5177 222.527 13.4699Z" fill="#92BCD8"/>
<path d="M225.755 12.6246C225.821 11.5412 225.469 10.6012 225.663 9.5636C226.251 10.0427 226.31 11.8463 225.755 12.6246Z" fill="#92BCD8"/>
<path d="M86.3392 14.947C86.4115 15.0447 86.5428 15.1393 86.5461 15.2369C86.556 17.6448 86.556 20.0496 86.5395 22.4575C86.5395 22.6376 86.3918 22.8146 86.3064 23.0038C85.6891 22.9061 85.6629 22.4972 85.6727 22.131C85.7154 20.9164 85.8008 19.7017 85.8566 18.4902C85.896 17.7089 85.8993 16.9246 85.9485 16.1433C85.9748 15.7435 86.0667 15.3468 86.1291 14.947H86.336H86.3392Z" fill="#92BCD8"/>
<path d="M85.9814 4.69287C86.0635 7.38151 86.1455 10.0702 86.2309 12.7588L86.0569 12.8107C85.9682 12.6855 85.8369 12.5665 85.7942 12.4292C85.6957 12.0874 85.5808 11.7364 85.5742 11.3885C85.5381 9.36213 85.525 7.33268 85.5217 5.30628C85.5217 5.09876 85.6366 4.88819 85.699 4.68066L85.9847 4.69897L85.9814 4.69287Z" fill="#92BCD8"/>
</svg>
