<svg width="207" height="95" viewBox="0 0 207 95" fill="none" xmlns="http://www.w3.org/2000/svg">
<path d="M0.00366211 50.612C6.64864 54.2305 13.1155 57.751 19.7641 61.3729C20.1203 60.0417 20.1022 58.8795 19.9459 57.7341C19.9059 57.447 19.4588 57.153 19.128 56.9672C17.6158 56.1158 16.0817 55.2981 14.5514 54.4737C10.6327 52.3587 6.71044 50.2471 2.79179 48.1354C1.69399 47.5442 1.56676 47.2468 2.21017 46.2231C3.81325 43.6756 5.45269 41.1484 7.09576 38.6246C8.69157 36.175 10.3274 33.7424 11.9268 31.2929C14.5332 27.2926 17.1214 23.2822 19.7241 19.2785C23.0975 14.0855 26.4745 8.89253 29.8552 3.69956C30.5349 2.65219 31.2111 1.60143 31.9126 0.567566C32.0435 0.371604 32.2871 0.239838 32.5706 -4.57764e-05C33.9483 2.12174 35.2824 4.15906 36.6056 6.20314C40.0189 11.4738 43.4287 16.7479 46.8348 22.0219C51.5713 29.3603 56.3042 36.6987 61.0444 44.0371C61.5569 44.8311 62.0986 45.6116 62.6111 46.4056C63.1019 47.1725 63.08 47.3516 62.2549 47.8212C59.8557 49.1794 57.4347 50.5106 55.0174 51.8452C53.8869 52.4702 52.7382 53.0682 51.6077 53.6933C49.5829 54.8116 47.5763 55.9637 45.537 57.0584C45.0536 57.3152 44.6937 57.6024 44.7155 58.1125C44.7591 59.1126 44.8718 60.1059 44.9699 61.302C47.4854 60.3424 49.4775 58.8694 51.684 57.7612C53.876 56.6631 55.9807 55.4063 58.129 54.2305C60.2992 53.0412 62.4803 51.8621 64.9376 50.5241C64.6759 51.0884 64.5923 51.4093 64.3996 51.6627C53.8214 65.7956 43.2324 79.925 32.6397 94.0545C31.4582 93.2538 0.676157 52.2844 0.00366211 50.612ZM32.3234 51.7506C26.3182 51.7573 23.1375 55.9367 22.8649 60.6263C22.6213 64.8293 27.1034 69.2654 32.3234 69.3026C37.2017 69.3364 41.8619 65.576 41.662 60.481C41.4875 55.9739 38.5067 52.0006 32.3234 51.7539V51.7506ZM8.18629 43.3614C8.84424 43.1181 9.34225 42.9593 9.81845 42.7533C11.3416 42.0978 12.8429 41.4052 14.3696 40.7632C18.2919 39.1145 22.2214 37.4893 26.1437 35.8406C26.4563 35.7088 26.9216 35.479 26.9543 35.2527C27.0743 34.3844 27.1506 33.4823 27.0307 32.6207C26.9689 32.195 26.4891 31.7794 26.1146 31.4416C25.1659 30.5868 24.268 29.7185 23.6355 28.6136C22.7013 26.9784 22.5559 25.2789 22.7304 23.4714C22.9884 20.8124 24.3189 18.7446 26.609 17.2411C27.5905 16.5992 28.7828 16.2242 29.8915 15.7579C30.3786 15.5518 30.6803 15.3592 30.6767 14.7511C30.6622 12.707 30.7458 10.6596 30.7821 8.6121C30.7821 8.55805 30.6622 8.50399 30.5786 8.42966C30.4659 8.46007 30.2732 8.45331 30.2259 8.53102C22.9012 19.8765 15.591 31.222 8.29171 42.5776C8.19356 42.7296 8.23718 42.956 8.18629 43.3648V43.3614ZM56.5369 43.2871L56.8277 43.0134C49.4157 31.4922 42.0073 19.9745 34.5263 8.34519C34.3663 8.62562 34.2536 8.73036 34.2536 8.83847C34.2391 10.8184 34.2391 12.8016 34.2246 14.7815C34.2209 15.4843 34.7044 15.6397 35.326 15.8289C39.7208 17.1634 42.2436 20.2008 42.3309 24.4714C42.3854 27.2081 41.2185 29.6509 38.7975 31.4112C38.1977 31.847 37.7288 32.3166 37.7906 33.0903C37.8197 33.4688 37.8233 33.8505 37.7906 34.2289C37.7215 35.1513 38.1432 35.6784 39.0738 36.0635C44.043 38.111 48.9867 40.2193 53.9414 42.2938C54.792 42.6519 55.6681 42.9593 56.5332 43.2871H56.5369ZM7.45927 46.9259L7.38657 47.2874C7.57559 47.4023 7.75735 47.5239 7.95364 47.6286C12.0213 49.845 16.0817 52.0715 20.1567 54.2677C21.2618 54.8623 21.3345 54.8555 22.0869 53.8318C23.1847 52.3351 24.5988 51.183 26.271 50.2944C26.838 49.9903 27.1325 49.6085 27.1288 48.9835C27.1143 45.9461 27.1434 42.9087 27.1107 39.8746C27.0998 38.8881 26.838 38.7732 25.8638 39.182C20.9055 41.2498 15.9436 43.3175 10.989 45.3953C9.80755 45.892 8.63704 46.4157 7.45927 46.9259ZM57.5838 47.0036C56.4569 46.5272 55.4899 46.115 54.523 45.7062C49.4484 43.5641 44.3738 41.4187 39.2992 39.28C38.165 38.8002 37.8342 38.932 37.8233 40.003C37.7906 42.9999 37.7906 45.9967 37.8524 48.9936C37.8597 49.4396 38.1323 50.0477 38.4995 50.2876C40.1898 51.3891 41.7129 52.629 42.8907 54.2102C43.3051 54.7677 43.7485 54.8218 44.3883 54.467C48.5105 52.1763 52.6546 49.9126 56.784 47.6354C57.0058 47.5138 57.1875 47.3212 57.5838 47.007V47.0036ZM25.7148 24.3295C25.6021 27.5696 28.4157 30.2084 31.8654 30.4043C35.2206 30.5969 38.7612 28.4515 38.8484 24.6302C38.9357 20.8631 36.0603 18.4608 33.1667 18.3156C28.9028 18.0993 25.9474 20.4813 25.7184 24.3295H25.7148ZM36.1403 71.5224C34.0101 71.9717 31.9672 72.1238 29.8806 71.8095C28.6665 71.6237 28.5029 71.8501 28.4993 73.0732C28.4884 76.3572 28.4884 79.6446 28.5065 82.9286C28.5065 83.3408 28.5138 83.8274 28.7392 84.1483C29.7461 85.5944 30.8003 87.0168 31.8981 88.402C32.3379 88.9561 32.5997 88.8987 33.0322 88.3277C33.9701 87.0877 34.937 85.8647 35.8058 84.5842C36.1003 84.1517 36.2675 83.5672 36.2711 83.0537C36.3002 79.5162 36.2711 75.9788 36.2566 72.4447C36.2566 72.1677 36.1875 71.8906 36.1403 71.5257V71.5224ZM34.7589 41.0065C34.7589 40.6686 34.7589 40.3341 34.7589 39.9963C34.7698 38.2293 34.7807 36.4622 34.7953 34.6952C34.7989 34.1749 34.8389 33.6174 34.0501 33.5904C33.1013 33.56 32.1489 33.5667 31.2002 33.5802C30.7058 33.587 30.4768 33.8708 30.455 34.3134C30.4404 34.6074 30.4331 34.9013 30.4331 35.1952C30.4331 39.1077 30.4259 43.0202 30.4259 46.936C30.4259 47.2299 30.4368 47.5239 30.4477 47.8178C30.4695 48.4057 30.7967 48.6186 31.4255 48.5645C32.1017 48.5071 32.7814 48.5003 33.4576 48.5071C34.6899 48.5172 34.748 48.4902 34.7553 47.311C34.7698 45.2061 34.7589 43.1046 34.7553 40.9997L34.7589 41.0065ZM19.3097 71.4278C19.8841 70.6372 20.3784 69.779 21.0509 69.0661C22.1633 67.8869 22.036 66.7956 21.0073 65.701C20.5965 65.2651 20.1567 64.8158 19.6369 64.5117C16.6088 62.748 13.5517 61.0216 10.4982 59.2917C10.2728 59.1633 9.9893 59.1261 9.58944 59.0045C11.1016 61.552 18.3064 70.7926 19.3061 71.4278H19.3097ZM55.1046 59.2816C54.5012 59.5113 54.1704 59.5991 53.8832 59.7579C50.8843 61.4033 47.8671 63.0285 44.9118 64.7448C44.2175 65.1503 43.7158 65.8631 43.1706 66.4679C42.7053 66.9882 42.7743 67.5592 43.156 68.1099C43.7667 68.9951 44.3701 69.8871 44.9954 70.7622C45.5407 71.5224 45.7878 71.5393 46.3731 70.7926C49.1212 67.2923 51.8512 63.7819 54.5775 60.2681C54.7447 60.0553 54.8356 59.7917 55.101 59.2849L55.1046 59.2816ZM39.6191 79.05C39.819 79.0094 39.9426 79.0229 39.9789 78.9756C40.9859 77.6343 41.9892 76.293 42.9852 74.9449C43.3087 74.5057 43.2069 74.0699 42.9379 73.6408C42.3236 72.6576 41.7274 71.6676 41.1022 70.6912C40.855 70.3094 40.546 69.9648 40.2625 69.5965C39.3864 69.9614 39.47 70.5932 39.4664 71.1608C39.4518 73.4752 39.4591 75.793 39.4737 78.1073C39.4737 78.4215 39.5718 78.7324 39.6227 79.0533L39.6191 79.05ZM24.926 79.3811C25.1295 78.9925 25.2386 78.8844 25.2386 78.7729C25.2531 76.1579 25.2677 73.5428 25.2386 70.9277C25.2386 70.654 24.9296 70.3838 24.766 70.1135C24.4788 70.279 24.079 70.3804 23.9227 70.6169C23.1484 71.8062 22.4214 73.0191 21.7271 74.2523C21.6071 74.4652 21.618 74.8672 21.7561 75.0632C22.7449 76.4653 23.7845 77.8337 24.9296 79.3811H24.926Z" fill="white"/>
<path d="M152.056 33.9214C152.056 37.888 152.056 41.8579 152.056 45.8244C152.056 46.1623 152.056 46.5001 152.038 46.838C152.013 47.3887 151.722 47.7029 151.108 47.7063C149.654 47.713 148.2 47.7502 146.749 47.7063C145.924 47.6826 145.775 47.4732 145.768 46.5001C145.75 43.9661 145.764 41.4355 145.768 38.9016C145.768 38.4387 145.786 37.9724 145.76 37.5096C145.706 36.4926 145.575 36.3473 144.459 36.3304C142.598 36.3034 140.733 36.3203 138.872 36.3237C137.465 36.3237 136.055 36.3135 134.648 36.3405C133.394 36.3642 133.241 36.4993 133.234 37.6785C133.216 40.378 133.23 43.0809 133.227 45.7838C133.227 46.1217 133.216 46.4596 133.212 46.7974C133.208 47.4191 132.87 47.7266 132.201 47.7232C130.795 47.7232 129.384 47.7198 127.977 47.7232C127.294 47.7232 126.985 47.3988 126.974 46.7873C126.967 46.4089 126.949 46.0271 126.949 45.6487C126.949 37.7967 126.952 29.9482 126.956 22.0962C126.956 21.9273 126.956 21.7583 126.956 21.5894C126.996 20.3326 127.13 20.1907 128.439 20.1704C129.573 20.1535 130.711 20.1535 131.845 20.1907C132.979 20.2278 133.194 20.417 133.205 21.4847C133.23 24.1437 133.216 26.8026 133.219 29.4616C133.219 31.4145 133.325 31.5091 135.462 31.5057C138.232 31.5023 141.002 31.5091 143.776 31.4922C145.764 31.4787 145.76 31.4652 145.76 29.6813C145.76 26.9783 145.76 24.2788 145.771 21.5759C145.775 20.2447 145.819 20.194 147.185 20.1704C148.276 20.1535 149.366 20.1602 150.457 20.1839C151.889 20.2143 152.035 20.3427 152.046 21.6367C152.064 23.4105 152.046 25.1809 152.046 26.9547C152.046 29.2758 152.046 31.5969 152.046 33.9181H152.053L152.056 33.9214Z" fill="white"/>
<path d="M74.9014 33.8843C74.9014 29.8739 74.8977 25.8634 74.9014 21.853C74.9014 20.2414 74.9559 20.1839 76.6317 20.1805C82.128 20.1738 87.6279 20.1772 93.1242 20.1805C93.3968 20.1805 93.6694 20.1873 93.9421 20.2008C94.5746 20.2346 94.9708 20.5049 94.9745 21.1401C94.9745 22.1537 94.9817 23.1673 94.9708 24.1808C94.9635 24.7349 94.6328 25.039 94.0439 25.0762C93.6367 25.1032 93.226 25.11 92.8188 25.11C89.4564 25.1167 86.0939 25.11 82.7314 25.1235C81.2628 25.1302 81.1683 25.2248 81.1538 26.5493C81.1429 27.7318 81.1465 28.9143 81.1538 30.0968C81.1647 31.3706 81.2701 31.4922 82.6151 31.5024C85.5232 31.5226 88.4313 31.5091 91.3393 31.5125C93.0527 31.5125 93.9118 32.2907 93.9166 33.8471C93.9166 34.31 93.9457 34.7763 93.9057 35.2391C93.8403 36.0601 93.6295 36.2696 92.7207 36.2966C91.5393 36.3338 90.3579 36.3102 89.1764 36.3102C86.9518 36.3102 84.7234 36.2966 82.4988 36.3203C81.2992 36.3338 81.1792 36.4656 81.161 37.5805C81.1392 38.8881 81.1465 40.199 81.1501 41.5065C81.1538 42.8174 81.2083 42.8884 82.586 42.9019C84.9924 42.9222 87.4025 42.912 89.809 42.912C91.1249 42.912 92.4444 42.8951 93.7603 42.9188C94.829 42.9391 94.9526 43.0506 94.989 44.0033C95.0181 44.8885 95.0253 45.7771 94.989 46.6623C94.9526 47.5408 94.8036 47.6523 93.8403 47.7131C93.5677 47.73 93.295 47.7232 93.0224 47.7232C87.6606 47.7232 82.2988 47.7232 76.937 47.7232C76.7553 47.7232 76.5735 47.7232 76.3918 47.7232C75.0686 47.6894 74.9159 47.5745 74.9087 46.3042C74.8868 42.9695 74.8977 39.6347 74.8977 36.2966C74.8977 35.4959 74.8977 34.6918 74.8977 33.8911L74.9014 33.8843Z" fill="white"/>
<path d="M114.062 36.3946C114.062 39.6854 114.062 42.9762 114.062 46.267C114.062 47.6185 113.968 47.7063 112.528 47.7165C111.347 47.7266 110.165 47.7435 108.988 47.7097C108.039 47.6827 107.908 47.5408 107.835 46.6589C107.803 46.24 107.817 45.8143 107.817 45.3953C107.817 39.3611 107.824 33.3302 107.828 27.296C107.828 26.9176 107.832 26.5358 107.806 26.1574C107.744 25.2722 107.661 25.1471 106.668 25.0931C105.629 25.0357 104.586 25.1066 103.542 25.11C102.361 25.11 101.179 25.137 100.002 25.083C99.0893 25.0424 98.8857 24.8329 98.8494 23.9984C98.8094 23.0287 98.853 22.0591 98.8239 21.0894C98.8021 20.4171 99.1729 20.1941 99.8236 20.2008C100.278 20.2042 100.732 20.1772 101.187 20.1772C107.814 20.1772 114.444 20.1772 121.074 20.1772C121.347 20.1772 121.62 20.1839 121.892 20.1941C122.561 20.2177 122.877 20.5657 122.885 21.1637C122.896 22.1334 122.925 23.1064 122.874 24.0727C122.83 24.914 122.667 25.0424 121.674 25.0593C119.679 25.0965 117.679 25.1032 115.684 25.11C114.077 25.1134 114.073 25.1032 114.073 26.654C114.073 29.9009 114.073 33.1511 114.073 36.398L114.062 36.3946Z" fill="white"/>
<path d="M132.409 61.7851C132.409 62.1939 132.409 62.6027 132.409 63.0149C132.409 65.8428 132.42 68.6674 132.402 71.4953C132.391 72.8839 130.966 73.59 129.693 72.8231C129.432 72.6643 129.243 72.3028 129.166 72.0021C129.065 71.6 129.094 71.1642 129.094 70.7419C129.094 66.3969 129.101 62.052 129.108 57.7037C129.112 55.8725 129.494 55.5887 131.46 55.8488C132.18 55.9434 132.562 56.3826 132.921 56.8759C134.252 58.6835 135.579 60.4978 136.913 62.302C137.912 63.6535 138.923 65.0015 139.941 66.3462C140.108 66.5692 140.344 66.7483 140.77 67.1639C140.81 66.4476 140.853 66.0084 140.853 65.5658C140.857 62.8662 140.846 60.1667 140.861 57.4638C140.861 56.9334 140.679 56.1833 141.351 56.0144C142.1 55.8252 142.98 55.8387 143.732 56.0211C144.019 56.0921 144.238 56.8556 144.27 57.3185C144.354 58.4098 144.31 59.5079 144.31 60.6026C144.303 64.1468 144.296 67.6909 144.278 71.2351C144.274 71.8805 144.503 72.6373 143.54 72.9414C142.511 73.2657 141.304 73.0022 140.711 72.2386C139.835 71.1101 139.021 69.9411 138.167 68.7991C136.487 66.5523 134.797 64.3089 133.118 62.0621C133.012 61.9202 132.951 61.7547 132.871 61.5959L132.409 61.7885V61.7851Z" fill="white"/>
<path d="M159.657 63.9475C160.61 63.9475 161.562 63.9373 162.515 63.9508C163.027 63.9576 163.394 64.1705 163.434 64.6908C163.601 66.924 163.463 69.0999 161.697 70.85C160.344 72.188 158.632 72.8975 156.673 73.0698C154.321 73.2759 152.155 72.8198 150.308 71.3906C148.821 70.2419 147.985 68.735 147.618 66.9882C147.512 66.495 147.36 66.0084 147.262 65.5152C146.749 62.917 148.061 58.8052 150.73 57.055C151.944 56.2577 153.256 55.7407 154.779 55.7813C155.597 55.8016 156.415 55.7576 157.229 55.8083C159.912 55.9806 162.58 58.2274 163.096 60.4269C163.227 60.981 163.129 61.2074 162.565 61.3324C161.082 61.6567 160.101 61.3729 159.33 60.1769C157.793 57.7848 153.907 57.9132 152.078 59.9911C150.94 61.2851 150.646 62.8156 150.686 64.3799C150.711 65.4476 150.929 66.576 151.369 67.5592C152.362 69.7824 154.412 70.5763 156.993 70.1169C158.44 69.8601 159.392 69.1844 159.915 67.9545C160.373 66.8734 160.072 66.4713 158.832 66.4477C158.287 66.4375 157.742 66.4645 157.2 66.4308C156.222 66.3733 156.019 66.0828 156.099 64.9611C156.168 64.0319 156.353 63.8731 157.338 63.8799C158.109 63.8866 158.879 63.8799 159.65 63.8799V63.9441L159.657 63.9475Z" fill="white"/>
<path d="M92.2991 64.282C92.2991 61.9609 92.2918 59.6397 92.3063 57.3152C92.3063 56.8287 92.1427 56.126 92.7825 55.9942C93.5459 55.8354 94.3929 55.9063 95.1744 56.0246C95.3634 56.055 95.5561 56.653 95.5706 56.9976C95.6252 58.0923 95.5961 59.1904 95.5997 60.2884C95.5997 60.7513 95.5888 61.2176 95.6106 61.6804C95.6615 62.7751 95.8106 62.9373 96.9702 62.9508C98.8786 62.9711 100.787 62.9677 102.695 62.9407C103.899 62.9238 104.033 62.7988 104.051 61.6973C104.077 60.2614 104.051 58.8255 104.062 57.3929C104.077 55.9705 104.204 55.859 105.68 55.8455C107.319 55.832 107.494 55.9638 107.497 57.4808C107.512 61.8696 107.505 66.2619 107.497 70.6507C107.497 71.0731 107.472 71.4954 107.41 71.9143C107.276 72.8401 107.127 72.9516 106.102 73.0023C104.251 73.0969 104.055 72.9279 104.051 71.2251C104.051 69.7486 104.07 68.2688 104.04 66.7923C104.022 65.7247 103.841 65.549 102.67 65.5321C100.852 65.5051 99.0349 65.5017 97.2174 65.5321C95.9051 65.5524 95.647 65.8091 95.6215 67.0626C95.5925 68.5391 95.6215 70.0189 95.6034 71.4954C95.5961 71.9887 95.727 72.6779 95.109 72.8198C94.3965 72.9854 93.575 72.9685 92.8625 72.7995C92.5862 72.7353 92.3499 72.0427 92.3281 71.6272C92.2627 70.2791 92.3063 68.9276 92.3063 67.5762C92.3063 66.4781 92.3063 65.38 92.3063 64.282H92.2991Z" fill="white"/>
<path d="M166.724 64.3596C166.724 61.954 166.71 59.5518 166.731 57.1462C166.742 55.9569 166.862 55.8725 168.149 55.8353C168.284 55.8319 168.422 55.8286 168.556 55.8319C169.803 55.8488 170.003 56.0009 170.025 57.1293C170.054 58.5619 170.032 59.9978 170.039 61.4303C170.047 62.8832 170.112 62.944 171.642 62.9507C173.456 62.9575 175.274 62.9676 177.088 62.9473C178.24 62.9338 178.418 62.748 178.415 61.6736C178.407 60.16 178.382 58.643 178.371 57.1293C178.364 56.1056 178.6 55.886 179.712 55.8387C179.894 55.8319 180.076 55.8353 180.258 55.8387C181.57 55.8691 181.726 55.9907 181.733 57.2543C181.748 61.2175 181.741 65.184 181.737 69.1472C181.737 69.9918 181.755 70.8365 181.715 71.6778C181.661 72.8028 181.381 73.0157 180.087 73.0191C178.724 73.0225 178.295 72.7555 178.255 71.6811C178.2 70.1236 178.247 68.5593 178.226 66.9983C178.207 65.6367 178.102 65.5219 176.684 65.5354C174.823 65.5489 172.966 65.5996 171.108 65.6638C170.097 65.6976 170.047 65.7449 170.032 66.7044C170.007 68.2653 170.039 69.8263 170.021 71.3872C170.007 72.8637 168.647 73.6171 167.255 72.8738C166.953 72.7116 166.746 72.1913 166.728 71.823C166.662 70.5594 166.702 69.2924 166.702 68.0288C166.702 66.8058 166.702 65.5827 166.702 64.3596H166.71H166.724Z" fill="white"/>
<path d="M199.164 73.0091C197.557 73.0193 197.525 72.9889 197.088 71.6002C196.885 70.9549 196.634 70.3231 196.419 69.6812C196.201 69.0325 195.74 68.7216 195.005 68.7216C193.417 68.725 191.828 68.7352 190.24 68.7081C189.458 68.6946 189.109 69.0967 188.877 69.7116C188.564 70.5427 188.193 71.357 187.895 72.1949C187.67 72.8199 187.234 73.0564 186.557 73.0125C186.288 72.9956 186.012 73.026 185.739 73.0159C184.489 72.9787 184.224 72.6037 184.642 71.4955C186.474 66.6573 188.306 61.8225 190.134 56.9842C190.516 55.974 190.643 55.8761 191.763 55.8321C192.079 55.822 192.399 55.8254 192.715 55.8254C194.638 55.8186 194.744 55.9098 195.351 57.5417C196.387 60.3223 197.455 63.0962 198.506 65.8734C199.258 67.8567 200.015 69.8366 200.749 71.8232C201.08 72.7152 200.898 72.9314 199.84 73.0058C199.615 73.0226 199.386 73.0058 199.16 73.0058L199.164 73.0091ZM190.327 65.6673C191.388 66.1032 193.639 66.1572 194.962 65.789C194.347 64.049 193.74 62.3056 193.104 60.5757C193.028 60.373 192.777 60.2277 192.606 60.0554C192.446 60.2311 192.239 60.3832 192.141 60.5825C191.977 60.9237 191.886 61.2954 191.759 61.6501C191.283 62.9948 190.803 64.3362 190.327 65.6673Z" fill="white"/>
<path d="M118.33 55.8185C118.555 55.8185 118.784 55.8118 119.01 55.8185C120.202 55.8557 120.424 55.9841 120.809 57.001C121.5 58.8289 122.158 60.6635 122.848 62.4913C123.99 65.5118 125.149 68.5256 126.291 71.5427C126.753 72.7692 126.611 72.9584 125.259 73.0124C123.452 73.0834 123.343 73.0192 122.703 71.4245C122.452 70.796 122.198 70.1642 121.961 69.529C121.758 68.9885 121.384 68.7047 120.747 68.708C119.112 68.7182 117.476 68.7148 115.84 68.7114C115.157 68.7114 114.76 68.9986 114.568 69.6236C114.331 70.3872 113.99 71.1238 113.728 71.884C113.452 72.6914 112.903 72.9753 111.987 72.9584C109.882 72.9178 109.795 72.7996 110.5 70.9751C111.74 67.7654 112.914 64.532 114.128 61.3156C114.684 59.8459 115.338 58.4066 115.836 56.92C116.116 56.0787 116.592 55.7307 117.505 55.8287C117.774 55.8557 118.05 55.832 118.323 55.832V55.8118L118.33 55.8185ZM118.446 59.8763L118.05 59.8932C117.41 61.623 116.756 63.3461 116.142 65.0828C115.942 65.6504 116.254 65.9646 116.887 65.9916C117.832 66.0322 118.781 66.0592 119.726 66.0997C120.34 66.1268 120.562 65.8261 120.424 65.3125C120.249 64.6638 120.039 64.0252 119.806 63.3934C119.366 62.2143 118.901 61.0487 118.446 59.8763Z" fill="white"/>
<path d="M82.7823 55.805C84.5272 55.6496 86.1411 56.0854 87.5625 57.2747C88.3913 57.9707 88.7366 58.8491 89.1001 59.7512C89.2855 60.2141 89.0238 60.5249 88.5512 60.5689C87.8787 60.6297 87.1881 60.6432 86.5156 60.5722C86.2866 60.5486 86.0357 60.2513 85.8903 60.0249C84.7271 58.2579 82.0117 57.7071 80.1796 58.8762C78.9364 59.6701 78.8055 61.025 80.0342 61.8156C80.8303 62.3257 81.8226 62.596 82.7532 62.8967C83.6075 63.1738 84.5272 63.2718 85.3632 63.5826C86.192 63.8901 87.0063 64.2921 87.7261 64.7786C90.2525 66.4882 89.7544 70.5392 87.2062 71.9312C86.0575 72.5596 84.8761 73.0529 83.513 73.0495C82.0226 73.0428 80.5467 73.1205 79.089 72.59C77.3551 71.9582 76.1991 70.8771 75.5884 69.2891C75.2395 68.3836 75.334 67.7518 76.7044 67.7518C77.7731 67.7518 78.5729 67.8532 79.1072 68.9208C79.7615 70.2351 81.699 70.8163 83.4839 70.3737C84.1237 70.2149 84.7816 69.9412 85.3051 69.5662C86.3956 68.7823 86.2866 67.1741 85.0724 66.5862C84.08 66.1064 82.9786 65.8193 81.9135 65.4679C80.7212 65.0726 79.4889 64.7719 78.3293 64.309C75.9156 63.3461 75.3812 60.508 76.3991 58.714C77.446 56.8625 79.1218 55.9604 81.3137 55.805C81.7645 55.7746 82.2225 55.8016 82.7823 55.8016V55.805Z" fill="white"/>
<path d="M206.849 64.5759C206.849 66.897 206.856 69.2182 206.849 71.5393C206.841 72.8874 206.703 73.0056 205.307 73.0124C203.679 73.0191 203.541 72.9043 203.537 71.3501C203.53 66.6673 203.537 61.9811 203.555 57.2983C203.555 56.8186 203.355 56.0921 204.01 55.9807C204.817 55.8421 205.7 55.9401 206.514 56.1023C206.703 56.1394 206.827 56.8422 206.83 57.2375C206.859 59.6836 206.845 62.1332 206.845 64.5793H206.852L206.849 64.5759Z" fill="white"/>
</svg>
