<svg width="186" height="49" viewBox="0 0 186 49" fill="none" xmlns="http://www.w3.org/2000/svg">
<path d="M24.7401 48.9921C27.8738 48.9921 30.4141 46.4533 30.4141 43.3216C30.4141 40.1898 27.8738 37.651 24.7401 37.651C21.6064 37.651 19.066 40.1898 19.066 43.3216C19.066 46.4533 21.6064 48.9921 24.7401 48.9921Z" fill="white"/>
<path d="M24.7401 48.9921C27.8738 48.9921 30.4141 46.4533 30.4141 43.3216C30.4141 40.1898 27.8738 37.651 24.7401 37.651C21.6064 37.651 19.066 40.1898 19.066 43.3216C19.066 46.4533 21.6064 48.9921 24.7401 48.9921Z" fill="white"/>
<path d="M1.66512 47.3359C2.19203 47.8639 2.81812 48.2828 3.50744 48.5683C4.19676 48.8539 4.93573 49.0006 5.68193 49C8.81488 49 11.356 46.4526 11.356 43.3295C11.356 41.7679 10.7168 40.3483 9.69085 39.3151C6.70784 36.334 6.70784 31.4915 9.69085 28.5104C10.4123 27.7884 11.2691 27.2157 12.2123 26.825C13.1554 26.4342 14.1664 26.2331 15.1873 26.2331C16.2083 26.2331 17.2192 26.4342 18.1624 26.825C19.1055 27.2157 19.9623 27.7884 20.6838 28.5104C21.2107 29.0384 21.8368 29.4572 22.5261 29.7428C23.2154 30.0284 23.9544 30.1751 24.7006 30.1745C27.8336 30.1745 30.3747 27.6271 30.3747 24.5039C30.3747 21.3808 27.8257 18.8334 24.7006 18.8334C23.1381 18.8334 21.7176 19.4722 20.6838 20.4975C19.2248 21.952 17.2481 22.7689 15.1873 22.7689C13.1265 22.7689 11.1498 21.952 9.69085 20.4975C9.16394 19.9695 8.53785 19.5506 7.84853 19.265C7.15921 18.9795 6.42024 18.8328 5.67404 18.8334C2.54109 18.8334 0 21.3808 0 24.5039C0 26.0655 0.639216 27.4851 1.66512 28.5183C4.64813 31.4994 4.64813 36.3419 1.66512 39.323" fill="white"/>
<path d="M1.66512 28.5104C2.19203 29.0384 2.81812 29.4573 3.50744 29.7428C4.19676 30.0284 4.93573 30.1751 5.68193 30.1745C8.81488 30.1745 11.356 27.6271 11.356 24.5039C11.356 22.9424 10.7168 21.5228 9.69085 20.4896C6.70784 17.5085 6.70784 12.666 9.69085 9.68485C12.6739 6.70369 17.6456 6.64848 20.6838 9.68485C21.2107 10.2129 21.8368 10.6317 22.5261 10.9173C23.2154 11.2029 23.9544 11.3496 24.7006 11.3489C27.8336 11.3489 30.3747 8.80155 30.3747 5.67842C30.3747 2.55529 27.8257 0.00789074 24.7006 0.00789074C23.1381 0.00789074 21.7176 0.646713 20.6838 1.67198C19.2248 3.12652 17.2481 3.94338 15.1873 3.94338C13.1265 3.94338 11.1498 3.12652 9.69085 1.67198C9.16394 1.14394 8.53785 0.725103 7.84853 0.439531C7.15921 0.153959 6.42024 0.00727235 5.67404 0.00789074C2.54109 0.00789074 0 2.55529 0 5.67842C0 7.23999 0.639216 8.65959 1.66512 9.69274C4.64813 12.6739 4.64813 17.5163 1.66512 20.4975M20.7233 47.3359C21.2502 47.864 21.8763 48.2828 22.5656 48.5684C23.2549 48.8539 23.9939 49.0006 24.7401 49C27.873 49 30.4141 46.4526 30.4141 43.3295C30.4141 41.7679 29.7749 40.3483 28.749 39.3151C25.766 36.334 25.766 31.4915 28.749 28.5104C29.4705 27.7885 30.3273 27.2157 31.2704 26.825C32.2135 26.4342 33.2245 26.2331 34.2455 26.2331C35.2664 26.2331 36.2774 26.4342 37.2205 26.825C38.1637 27.2157 39.0205 27.7885 39.7419 28.5104C40.2689 29.0384 40.8949 29.4573 41.5843 29.7428C42.2736 30.0284 43.0126 30.1751 43.7588 30.1745C46.8917 30.1745 49.4328 27.6271 49.4328 24.5039C49.4328 21.3808 46.8838 18.8334 43.7588 18.8334C42.1962 18.8334 40.7757 19.4722 39.7419 20.4975C38.283 21.952 36.3063 22.7689 34.2455 22.7689C32.1847 22.7689 30.208 21.952 28.749 20.4975C28.2221 19.9695 27.596 19.5506 26.9067 19.2651C26.2174 18.9795 25.4784 18.8328 24.7322 18.8334C21.5992 18.8334 19.0581 21.3808 19.0581 24.5039C19.0581 26.0655 19.6974 27.4851 20.7233 28.5183C23.7063 31.4994 23.7063 36.3419 20.7233 39.323" fill="white"/>
<path d="M20.7232 28.5104C23.7062 31.4915 23.7062 36.334 20.7232 39.3151C20.1949 39.8417 19.7758 40.4674 19.49 41.1563C19.2043 41.8452 19.0575 42.5837 19.0581 43.3295C19.0581 46.4605 21.6071 49 24.7321 49C26.2947 49 27.7152 48.3612 28.749 47.3359C30.2079 45.8814 32.1846 45.0645 34.2454 45.0645C36.3062 45.0645 38.2829 45.8814 39.7419 47.3359C40.2688 47.8639 40.8949 48.2828 41.5842 48.5683C42.2736 48.8539 43.0125 49.0006 43.7587 49C46.8917 49 49.4328 46.4526 49.4328 43.3295C49.4328 40.1984 46.8838 37.6589 43.7587 37.6589C42.1962 37.6589 40.7757 38.2977 39.7419 39.323C38.2829 40.7776 36.3062 41.5944 34.2454 41.5944C32.1846 41.5944 30.2079 40.7776 28.749 39.323C25.7659 36.3418 25.7659 31.4994 28.749 28.5183C29.2773 27.9917 29.6964 27.366 29.9822 26.6771C30.2679 25.9882 30.4147 25.2497 30.4141 24.5039C30.4141 21.3729 27.8651 18.8334 24.74 18.8334C23.1775 18.8334 21.757 19.4722 20.7232 20.4975" fill="white"/>
<path d="M43.8298 40.7899C42.433 40.7899 41.2966 41.9256 41.2966 43.3216C41.2966 44.7175 42.433 45.8532 43.8298 45.8532C45.2266 45.8532 46.363 44.7175 46.363 43.3216C46.363 41.9256 45.2266 40.7899 43.8298 40.7899Z" fill="#00F839"/>
<path d="M5.67406 3.1389C4.27725 3.1389 3.14087 4.27458 3.14087 5.67053C3.14087 7.06647 4.27725 8.20215 5.67406 8.20215C7.07087 8.20215 8.20726 7.06647 8.20726 5.67053C8.20726 4.27458 7.07087 3.1389 5.67406 3.1389Z" fill="#00F8F2"/>
<path d="M5.67404 48.9921C8.80772 48.9921 11.3481 46.4533 11.3481 43.3216C11.3481 40.1898 8.80772 37.651 5.67404 37.651C2.54035 37.651 0 40.1898 0 43.3216C0 46.4533 2.54035 48.9921 5.67404 48.9921Z" fill="white"/>
<path d="M5.67406 46.3027C7.32153 46.3027 8.65707 44.968 8.65707 43.3216C8.65707 41.6751 7.32153 40.3404 5.67406 40.3404C4.02658 40.3404 2.69104 41.6751 2.69104 43.3216C2.69104 44.968 4.02658 46.3027 5.67406 46.3027Z" fill="#00F839"/>
<path d="M5.67404 48.9921C8.80772 48.9921 11.3481 46.4533 11.3481 43.3216C11.3481 40.1898 8.80772 37.651 5.67404 37.651C2.54035 37.651 0 40.1898 0 43.3216C0 46.4533 2.54035 48.9921 5.67404 48.9921Z" fill="white"/>
<path d="M5.67406 45.8532C7.07311 45.8532 8.20726 44.7198 8.20726 43.3216C8.20726 41.9234 7.07311 40.7899 5.67406 40.7899C4.27502 40.7899 3.14087 41.9234 3.14087 43.3216C3.14087 44.7198 4.27502 45.8532 5.67406 45.8532Z" fill="#00F8F2"/>
<path d="M24.74 26.8778C26.139 26.8778 27.2732 25.7444 27.2732 24.3462C27.2732 22.948 26.139 21.8146 24.74 21.8146C23.3409 21.8146 22.2068 22.948 22.2068 24.3462C22.2068 25.7444 23.3409 26.8778 24.74 26.8778Z" fill="#00F839"/>
<path d="M43.8298 11.3411C46.9635 11.3411 49.5038 8.80227 49.5038 5.67053C49.5038 2.53878 46.9635 0 43.8298 0C40.6961 0 38.1558 2.53878 38.1558 5.67053C38.1558 8.80227 40.6961 11.3411 43.8298 11.3411Z" fill="white"/>
<path d="M43.8298 8.20215C45.2289 8.20215 46.363 7.06871 46.363 5.67053C46.363 4.27235 45.2289 3.1389 43.8298 3.1389C42.4308 3.1389 41.2966 4.27235 41.2966 5.67053C41.2966 7.06871 42.4308 8.20215 43.8298 8.20215Z" fill="#00F839"/>
<path d="M64.3005 5.21309V19.1331H66.668V13.8411H71.8528V11.6486H66.668V7.38981H73.7231V5.21309H64.3005ZM84.3294 15.5999V8.73844H81.9066V13.9358C81.9066 15.0636 81.733 15.868 81.3937 16.3491C81.0465 16.8302 80.5414 17.0668 79.8548 17.0668C79.3261 17.0668 78.9078 16.9012 78.608 16.5778C78.3081 16.2545 78.1581 15.797 78.1581 15.1976V8.73055H75.7354V15.592C75.7354 16.775 76.0195 17.6898 76.5877 18.3444C77.1559 18.9911 77.953 19.3224 78.9789 19.3224C79.6733 19.3224 80.2573 19.1331 80.7308 18.7545C81.2043 18.376 81.52 17.8318 81.6857 17.1299H81.9382L82.0881 19.2277L85.7656 19.1331V17.1693L84.3372 16.9564V15.5999H84.3294ZM92.9469 8.54127C92.1341 8.54127 91.5265 8.71478 91.1161 9.0539C90.7057 9.40092 90.4611 9.92144 90.3822 10.6155H90.1139L89.9008 8.73055H87.7227V19.1252H90.1454V13.6755C90.1454 11.7512 90.8715 10.7969 92.3235 10.7969C92.8444 10.7969 93.2547 10.9704 93.5388 11.3095C93.8229 11.6486 93.9728 12.1297 93.9728 12.7606V19.1331H96.3956V12.3663C96.3956 11.1518 96.0957 10.2132 95.4959 9.54288C94.8962 8.87251 94.0439 8.54127 92.9469 8.54127ZM105.747 10.6234H105.51C105.408 9.9451 105.139 9.42458 104.705 9.07756C104.271 8.72266 103.672 8.54916 102.914 8.54916C101.588 8.54916 100.57 9.01447 99.86 9.95299C99.1497 10.8836 98.7946 12.2322 98.7946 13.991C98.7946 15.7497 99.1497 17.0431 99.86 17.958C100.57 18.8728 101.588 19.3303 102.906 19.3303C103.656 19.3303 104.263 19.1568 104.721 18.8019C105.179 18.447 105.455 17.9343 105.542 17.2561H105.755L106.055 19.2356L108.162 19.141V4.44019H105.739V10.6391L105.747 10.6234ZM105.226 16.3806C104.879 16.8775 104.311 17.122 103.53 17.122C102.748 17.122 102.212 16.8538 101.825 16.3254C101.438 15.797 101.249 15.0162 101.249 13.9831C101.249 12.9499 101.446 12.1376 101.841 11.5776C102.235 11.0177 102.796 10.7417 103.537 10.7417C104.279 10.7417 104.824 10.994 105.195 11.4909C105.566 11.9877 105.755 12.7606 105.755 13.7859V14.0698C105.755 15.103 105.581 15.868 105.234 16.3649L105.226 16.3806ZM116.196 7.23996C116.661 7.23996 117.04 7.09012 117.34 6.79042C117.64 6.49073 117.79 6.10428 117.79 5.64686C117.79 5.18943 117.64 4.80298 117.34 4.50328C117.04 4.20359 116.653 4.05374 116.196 4.05374C115.738 4.05374 115.351 4.20359 115.051 4.50328C114.751 4.80298 114.601 5.18943 114.601 5.64686C114.601 6.10428 114.751 6.49073 115.051 6.79042C115.351 7.09012 115.738 7.23996 116.196 7.23996ZM117.498 10.9388V8.73844H111.776V10.9388H115.083V16.9327H111.192V19.1331H120.623V16.9327H117.498V10.9388ZM128.254 8.54127C127.441 8.54127 126.833 8.71478 126.423 9.0539C126.013 9.40092 125.768 9.92144 125.689 10.6155H125.421L125.208 8.73055H123.03V19.1252H125.452V13.6755C125.452 11.7512 126.178 10.7969 127.63 10.7969C128.151 10.7969 128.562 10.9704 128.846 11.3095C129.13 11.6486 129.28 12.1297 129.28 12.7606V19.1331H131.702V12.3663C131.702 11.1518 131.403 10.2132 130.803 9.54288C130.203 8.87251 129.351 8.54127 128.254 8.54127ZM141.086 10.6234H140.92C140.817 9.9451 140.541 9.42458 140.091 9.07756C139.641 8.72266 139.018 8.54916 138.221 8.54916C136.895 8.54916 135.877 9.01447 135.167 9.95299C134.457 10.8836 134.101 12.2322 134.101 13.991C134.101 15.7497 134.457 17.0431 135.167 17.958C135.877 18.8728 136.895 19.3303 138.213 19.3303C138.963 19.3303 139.57 19.1568 140.028 18.8019C140.486 18.447 140.762 17.9343 140.849 17.2561H141.054V18.5337C141.054 19.5195 140.825 20.2688 140.383 20.7735C139.941 21.2783 139.239 21.5464 138.276 21.5859L134.938 21.6805L135.033 23.8257L138.071 23.731C139.949 23.6679 141.314 23.1947 142.175 22.3114C143.035 21.436 143.461 20.0716 143.461 18.2182V8.74632H141.235L141.07 10.6312L141.086 10.6234ZM140.541 16.3806C140.194 16.8775 139.626 17.122 138.844 17.122C138.063 17.122 137.526 16.8538 137.14 16.3254C136.753 15.797 136.564 15.0162 136.564 13.9831C136.564 12.9499 136.761 12.1376 137.156 11.5776C137.55 11.0256 138.11 10.7417 138.852 10.7417C139.594 10.7417 140.139 10.994 140.509 11.4909C140.88 11.9877 141.07 12.7606 141.07 13.7859V14.0698C141.07 15.103 140.896 15.868 140.549 16.3649L140.541 16.3806ZM160.807 17.0195C160.451 17.0589 160.12 17.0747 159.812 17.0747C158.873 17.0747 158.21 16.8933 157.8 16.5226C157.397 16.1598 157.192 15.5683 157.192 14.7718V10.9388H161.848V8.74632H157.192V5.60742H154.777V8.74632H152.236V10.9388H154.777V14.9689C154.777 16.4911 155.156 17.6031 155.914 18.2892C156.671 18.9832 157.902 19.3303 159.615 19.3303C160.088 19.3303 160.53 19.3145 160.956 19.2751C161.383 19.2356 161.809 19.1804 162.243 19.1015L162.006 16.8854C161.556 16.9406 161.154 16.9879 160.799 17.0273L160.807 17.0195ZM170.19 8.54127C169.377 8.54127 168.769 8.71478 168.359 9.0539C167.948 9.40092 167.704 9.92144 167.625 10.6155H167.388V4.41653H164.965V19.1173H167.388V13.5651C167.388 11.6802 168.114 10.7338 169.566 10.7338C170.087 10.7338 170.497 10.8994 170.781 11.2306C171.066 11.5619 171.216 12.0351 171.216 12.6502V19.1173H173.638V12.3505C173.638 11.136 173.338 10.1975 172.739 9.5271C172.139 8.85674 171.287 8.5255 170.19 8.5255V8.54127ZM185.633 13.5966C185.633 11.9562 185.239 10.7022 184.442 9.84257C183.645 8.98292 182.524 8.54916 181.072 8.54916C179.62 8.54916 178.405 9.02236 177.576 9.96088C176.748 10.8994 176.337 12.2244 176.337 13.92C176.337 15.6156 176.826 17.0037 177.797 17.9343C178.768 18.8649 180.149 19.3303 181.94 19.3303C182.351 19.3303 182.824 19.3145 183.361 19.2829C183.897 19.2514 184.481 19.1725 185.128 19.0542L184.876 16.8223C184.418 16.909 183.968 16.9721 183.526 17.0195C183.084 17.0668 182.635 17.0904 182.177 17.0904C181.056 17.0904 180.196 16.8144 179.589 16.2544C179.218 15.9074 178.957 15.4737 178.815 14.9374H185.586C185.626 14.5194 185.641 14.0698 185.641 13.5966H185.633ZM178.705 13.1944C178.776 12.5083 178.981 11.9562 179.312 11.5382C179.738 11.0019 180.33 10.7338 181.096 10.7338C181.798 10.7338 182.343 10.9467 182.737 11.3726C183.132 11.7985 183.329 12.4057 183.329 13.1944H178.713H178.705ZM74.2913 29.0309H73.8888C72.713 29.0309 71.7265 29.646 70.9295 30.8685C70.1324 32.0909 69.58 33.8654 69.2722 36.192C68.925 38.7473 68.9645 40.648 69.3906 41.8862C69.8167 43.1244 70.6375 43.7474 71.8607 43.7474H72.2158L77.5189 39.0154L76.7613 44.4336C76.3036 44.5125 75.838 44.5755 75.3566 44.6308C74.8752 44.686 74.4018 44.7333 73.9283 44.7806C73.4548 44.8279 73.0049 44.8595 72.5709 44.8831C72.1369 44.9068 71.7502 44.9147 71.403 44.9147C70.0535 44.9147 68.8619 44.7175 67.836 44.3232C66.8101 43.9288 65.9657 43.361 65.3186 42.6196C64.6636 41.8704 64.2137 40.9713 63.9612 39.9145C63.7087 38.8577 63.6771 37.6668 63.8665 36.3497C64.0559 35.0484 64.4268 33.8733 64.9871 32.8165C65.5474 31.7676 66.2577 30.8685 67.1178 30.135C67.978 29.3937 68.9881 28.8337 70.1324 28.4394C71.2767 28.0451 72.5236 27.8479 73.8809 27.8479C74.2597 27.8479 74.6701 27.8637 75.1041 27.8952C75.546 27.9267 75.988 27.9662 76.4378 28.0214C76.8876 28.0766 77.3295 28.1476 77.7714 28.2343C78.2134 28.3211 78.6158 28.4078 78.9946 28.5025L78.2371 33.826L74.2755 29.023L74.2913 29.0309ZM79.476 38.5186C79.6181 37.5643 79.9101 36.6889 80.3441 35.8923C80.786 35.1036 81.3384 34.4175 82.0171 33.8575C82.6958 33.2897 83.4692 32.8559 84.353 32.5483C85.229 32.2408 86.1839 32.0909 87.2019 32.0909C88.2199 32.0909 89.1274 32.2487 89.9245 32.5641C90.7136 32.8796 91.3765 33.3212 91.8895 33.8812C92.4103 34.449 92.7733 35.1194 92.9943 35.9081C93.2153 36.6967 93.2547 37.5643 93.1127 38.5186C92.9808 39.4384 92.6869 40.3275 92.2446 41.1448C91.8207 41.9227 91.253 42.6132 90.5716 43.1796C89.8929 43.7474 89.1195 44.1812 88.2357 44.4888C87.3597 44.7964 86.4048 44.9462 85.3868 44.9462C84.3688 44.9462 83.4613 44.7964 82.6642 44.4888C81.8672 44.1812 81.2122 43.7474 80.6992 43.1796C80.1784 42.6118 79.8154 41.9414 79.5944 41.1527C79.3734 40.3719 79.334 39.4886 79.476 38.5186ZM87.0125 33.5026C86.2391 33.5026 85.5841 33.9364 85.0475 34.8118C84.503 35.6794 84.1242 36.9333 83.9032 38.5659C83.6822 40.1827 83.7138 41.413 83.9979 42.2647C84.282 43.1165 84.8107 43.5345 85.5999 43.5345C86.3891 43.5345 87.0677 43.1007 87.6044 42.2411C88.141 41.3814 88.5119 40.1117 88.7328 38.4476C88.938 36.8466 88.8907 35.6242 88.6066 34.7724C88.3146 33.9285 87.7859 33.5026 87.0125 33.5026ZM108.312 35.8134C108.343 36.1447 108.336 36.4917 108.288 36.8466C108.288 36.9412 108.28 37.0674 108.257 37.2252C108.233 37.3829 108.193 37.6589 108.138 38.0454L107.901 39.7173C107.799 40.4429 107.657 41.4209 107.467 42.6591L108.667 44.6623H102.804C103.056 43.0613 103.253 41.8152 103.395 40.9319C103.537 40.0486 103.64 39.3861 103.711 38.9681C103.782 38.5422 103.822 38.2899 103.837 38.2031C103.853 38.1163 103.861 38.0611 103.861 38.0296C104.035 36.7756 104.035 35.8923 103.861 35.3797C103.687 34.867 103.301 34.6147 102.709 34.6147C102.346 34.6147 101.967 34.7014 101.565 34.8828C101.162 35.0642 100.752 35.3323 100.326 35.6951L99.3391 42.667L100.539 44.6702H93.3257L95.0224 42.6433L96.0562 35.0879L94.9751 33.132L100.862 31.9332L100.554 33.9601C101.636 33.0689 102.804 32.5483 104.042 32.4064C104.169 32.3906 104.295 32.3827 104.429 32.3827H104.816C106.639 32.3827 107.736 33.0768 108.115 34.4569C108.896 33.7156 109.669 33.1872 110.435 32.8559C111.192 32.5247 112.029 32.367 112.944 32.3827C114.152 32.3985 115.035 32.6982 115.58 33.2897C116.132 33.8812 116.401 34.8591 116.401 36.2235C116.401 36.3813 116.393 36.5627 116.377 36.7677C116.361 36.9728 116.33 37.2961 116.282 37.7457C116.235 38.1952 116.156 38.8025 116.046 39.5833C115.935 40.3641 115.785 41.3893 115.596 42.6827L116.795 44.686H110.908L111.895 38.3766C111.989 37.6668 112.045 37.0753 112.068 36.6021C112.092 36.121 112.06 35.7425 111.974 35.4507C111.887 35.1588 111.753 34.9538 111.563 34.8276C111.374 34.7014 111.129 34.6383 110.829 34.6383C110.04 34.6383 109.196 35.0405 108.288 35.8371L108.312 35.8134ZM132.507 35.8134C132.539 36.1447 132.531 36.4917 132.484 36.8466C132.484 36.9412 132.476 37.0674 132.452 37.2252C132.428 37.3829 132.389 37.6589 132.334 38.0454L132.097 39.7173C131.994 40.4429 131.852 41.4209 131.663 42.6591L132.863 44.6623H126.999C127.252 43.0613 127.449 41.8152 127.591 40.9319C127.733 40.0486 127.836 39.3861 127.907 38.9681C127.978 38.5422 128.017 38.2899 128.033 38.2031C128.049 38.1163 128.057 38.0611 128.057 38.0296C128.23 36.7756 128.23 35.8923 128.057 35.3797C127.883 34.867 127.496 34.6147 126.904 34.6147C126.541 34.6147 126.163 34.7014 125.76 34.8828C125.358 35.0642 124.947 35.3323 124.521 35.6951L123.535 42.667L124.734 44.6702H117.521L119.218 42.6433L120.252 35.0879L119.171 33.132L125.058 31.9332L124.75 33.9601C125.831 33.0689 126.999 32.5483 128.238 32.4064C128.364 32.3906 128.491 32.3827 128.625 32.3827H129.011C130.834 32.3827 131.931 33.0768 132.31 34.4569C133.091 33.7156 133.865 33.1872 134.63 32.8559C135.388 32.5247 136.224 32.367 137.14 32.3827C138.347 32.3985 139.231 32.6982 139.776 33.2897C140.328 33.8812 140.596 34.8591 140.596 36.2235C140.596 36.3813 140.588 36.5627 140.573 36.7677C140.557 36.9728 140.525 37.2961 140.478 37.7457C140.431 38.1952 140.352 38.8025 140.241 39.5833C140.131 40.3641 139.981 41.3893 139.791 42.6827L140.991 44.686H135.104L136.09 38.3766C136.185 37.6668 136.24 37.0753 136.264 36.6021C136.287 36.121 136.256 35.7425 136.169 35.4507C136.082 35.1588 135.948 34.9538 135.759 34.8276C135.569 34.7014 135.325 34.6383 135.025 34.6383C134.236 34.6383 133.391 35.0405 132.484 35.8371L132.507 35.8134ZM142.916 38.5186C143.058 37.5643 143.35 36.6889 143.784 35.8923C144.226 35.1036 144.779 34.4175 145.457 33.8575C146.136 33.2897 146.91 32.8559 147.793 32.5483C148.669 32.2408 149.624 32.0909 150.642 32.0909C151.66 32.0909 152.568 32.2487 153.365 32.5641C154.154 32.8796 154.817 33.3212 155.33 33.8812C155.851 34.449 156.214 35.1194 156.435 35.9081C156.656 36.6967 156.695 37.5643 156.553 38.5186C156.421 39.4384 156.127 40.3275 155.685 41.1448C155.261 41.9227 154.693 42.6132 154.012 43.1796C153.333 43.7474 152.56 44.1812 151.676 44.4888C150.8 44.7964 149.845 44.9462 148.827 44.9462C147.809 44.9462 146.902 44.7964 146.105 44.4888C145.308 44.1812 144.653 43.7474 144.14 43.1796C143.619 42.6118 143.256 41.9414 143.035 41.1527C142.814 40.3719 142.774 39.4886 142.916 38.5186ZM150.453 33.5026C149.679 33.5026 149.024 33.9364 148.488 34.8118C147.943 35.6794 147.564 36.9333 147.344 38.5659C147.123 40.1827 147.154 41.413 147.438 42.2647C147.722 43.1165 148.251 43.5345 149.04 43.5345C149.829 43.5345 150.508 43.1007 151.045 42.2411C151.581 41.3814 151.952 40.1117 152.173 38.4476C152.378 36.8466 152.331 35.6242 152.047 34.7724C151.755 33.9285 151.226 33.5026 150.453 33.5026ZM168.272 32.3748C169.014 32.3748 169.621 32.4853 170.111 32.7061C170.6 32.9269 170.971 33.2739 171.231 33.7392C171.492 34.2124 171.65 34.8197 171.705 35.5611C171.76 36.3103 171.713 37.2173 171.579 38.282L170.916 42.6591L172.115 44.6623H166.275L167.286 37.998C167.459 36.7441 167.459 35.8608 167.293 35.3639C167.128 34.8591 166.749 34.6068 166.149 34.6068C165.376 34.6068 164.579 34.9696 163.75 35.6872L162.764 42.6591L163.963 44.6623H156.774L158.471 42.6354L159.504 35.08L158.423 33.1241L164.287 31.9253L163.979 33.9522C164.658 33.4001 165.336 32.9979 166.015 32.7376C166.702 32.4774 167.451 32.3591 168.264 32.3748H168.272ZM184.994 37.2015L181.388 33.8339C181.293 33.8023 181.198 33.7866 181.104 33.7866H180.772C179.723 33.7866 179.154 34.102 179.076 34.7251C179.044 34.9774 179.076 35.1983 179.194 35.3954C179.304 35.5926 179.47 35.774 179.691 35.9475C179.912 36.121 180.172 36.2866 180.472 36.4444C180.772 36.6021 181.088 36.7598 181.411 36.9176C181.853 37.1384 182.295 37.3671 182.745 37.6116C183.195 37.8561 183.59 38.14 183.937 38.4712C184.284 38.8025 184.552 39.1889 184.734 39.6227C184.923 40.0644 184.971 40.577 184.876 41.1764C184.765 41.9651 184.473 42.596 184.008 43.085C183.534 43.5739 182.974 43.9525 182.327 44.2285C181.672 44.5046 180.977 44.6938 180.243 44.7964C179.502 44.8989 178.831 44.9462 178.215 44.9462C177.6 44.9462 176.921 44.9068 176.116 44.8437C175.296 44.7717 174.479 44.6585 173.67 44.5046L174.333 39.883L177.939 43.2821C178.065 43.2821 178.184 43.2821 178.302 43.2742C178.421 43.2664 178.539 43.2585 178.665 43.2348C179.123 43.1559 179.494 43.0298 179.786 42.8563C180.078 42.6827 180.236 42.4619 180.267 42.1938C180.301 42.0014 180.259 41.8033 180.149 41.6417C180.038 41.4761 179.88 41.3183 179.675 41.1606C179.47 41.0029 179.233 40.853 178.957 40.7111C178.681 40.5691 178.389 40.4193 178.073 40.2615C177.616 40.0407 177.158 39.8041 176.684 39.5517C176.228 39.3117 175.804 39.0149 175.422 38.6684C175.051 38.3293 174.767 37.935 174.562 37.4854C174.356 37.0359 174.301 36.5075 174.396 35.8923C174.569 34.662 175.248 33.7235 176.432 33.061C177.616 32.3985 179.194 32.0673 181.159 32.0673C181.917 32.0673 182.674 32.1225 183.447 32.225C184.213 32.3275 184.947 32.4774 185.641 32.6667L185.002 37.2015H184.994Z" fill="white"/>
</svg>
