<svg width="187" height="49" viewBox="0 0 187 49" fill="none" xmlns="http://www.w3.org/2000/svg">
<path d="M24.9212 48.9921C28.0778 48.9921 30.6367 46.4533 30.6367 43.3215C30.6367 40.1898 28.0778 37.651 24.9212 37.651C21.7645 37.651 19.2056 40.1898 19.2056 43.3215C19.2056 46.4533 21.7645 48.9921 24.9212 48.9921Z" fill="#92BCD8"/>
<path d="M24.9212 48.9921C28.0778 48.9921 30.6367 46.4533 30.6367 43.3215C30.6367 40.1898 28.0778 37.651 24.9212 37.651C21.7645 37.651 19.2056 40.1898 19.2056 43.3215C19.2056 46.4533 21.7645 48.9921 24.9212 48.9921Z" fill="#92BCD8"/>
<path d="M1.67731 47.3359C2.20808 47.8639 2.83875 48.2827 3.53311 48.5683C4.22748 48.8539 4.97186 49.0006 5.72352 49C8.8794 49 11.4391 46.4526 11.4391 43.3294C11.4391 41.7679 10.7952 40.3483 9.76178 39.3151C6.75693 36.3339 6.75693 31.4915 9.76178 28.5103C10.4885 27.7884 11.3516 27.2157 12.3017 26.8249C13.2517 26.4342 14.27 26.2331 15.2985 26.2331C16.3269 26.2331 17.3453 26.4342 18.2953 26.8249C19.2453 27.2157 20.1084 27.7884 20.8352 28.5103C21.366 29.0384 21.9966 29.4572 22.691 29.7428C23.3854 30.0284 24.1297 30.175 24.8814 30.1744C28.0373 30.1744 30.597 27.627 30.597 24.5039C30.597 21.3808 28.0293 18.8334 24.8814 18.8334C23.3074 18.8334 21.8766 19.4722 20.8352 20.4975C19.3655 21.952 17.3744 22.7689 15.2985 22.7689C13.2226 22.7689 11.2314 21.952 9.76178 20.4975C9.23101 19.9694 8.60034 19.5506 7.90597 19.265C7.21161 18.9794 6.46723 18.8328 5.71557 18.8334C2.55968 18.8334 0 21.3808 0 24.5039C0 26.0655 0.643895 27.4851 1.67731 28.5182C4.68215 31.4994 4.68215 36.3418 1.67731 39.323" fill="#92BCD8"/>
<path d="M1.67731 28.5104C2.20808 29.0385 2.83875 29.4573 3.53311 29.7429C4.22748 30.0285 4.97186 30.1751 5.72352 30.1745C8.8794 30.1745 11.4391 27.6271 11.4391 24.504C11.4391 22.9424 10.7952 21.5228 9.76178 20.4897C6.75693 17.5085 6.75693 12.6661 9.76178 9.6849C12.7666 6.70373 17.7747 6.64853 20.8352 9.6849C21.366 10.2129 21.9966 10.6318 22.691 10.9174C23.3854 11.2029 24.1297 11.3496 24.8814 11.349C28.0373 11.349 30.597 8.8016 30.597 5.67847C30.597 2.55534 28.0293 0.00793652 24.8814 0.00793652C23.3074 0.00793652 21.8766 0.646759 20.8352 1.67203C19.3655 3.12657 17.3744 3.94342 15.2985 3.94342C13.2226 3.94342 11.2314 3.12657 9.76178 1.67203C9.23101 1.14398 8.60034 0.725149 7.90597 0.439577C7.21161 0.154004 6.46723 0.00731813 5.71557 0.00793652C2.55968 0.00793652 0 2.55534 0 5.67847C0 7.24003 0.643895 8.65963 1.67731 9.69279C4.68215 12.674 4.68215 17.5164 1.67731 20.4976M20.8749 47.336C21.4057 47.864 22.0364 48.2828 22.7307 48.5684C23.4251 48.854 24.1695 49.0007 24.9211 49C28.077 49 30.6367 46.4526 30.6367 43.3295C30.6367 41.768 29.9928 40.3483 28.9594 39.3152C25.9546 36.334 25.9546 31.4916 28.9594 28.5104C29.6862 27.7885 30.5493 27.2158 31.4993 26.825C32.4493 26.4343 33.4677 26.2332 34.4961 26.2332C35.5246 26.2332 36.5429 26.4343 37.4929 26.825C38.443 27.2158 39.306 27.7885 40.0328 28.5104C40.5636 29.0385 41.1943 29.4573 41.8886 29.7429C42.583 30.0285 43.3274 30.1751 44.079 30.1745C47.2349 30.1745 49.7946 27.6271 49.7946 24.504C49.7946 21.3809 47.227 18.8335 44.079 18.8335C42.5051 18.8335 41.0742 19.4723 40.0328 20.4976C38.5632 21.9521 36.572 22.7689 34.4961 22.7689C32.4202 22.7689 30.4291 21.9521 28.9594 20.4976C28.4286 19.9695 27.798 19.5507 27.1036 19.2651C26.4092 18.9795 25.6649 18.8328 24.9132 18.8335C21.7573 18.8335 19.1976 21.3809 19.1976 24.504C19.1976 26.0656 19.8415 27.4852 20.8749 28.5183C23.8798 31.4995 23.8798 36.3419 20.8749 39.3231" fill="#92BCD8"/>
<path d="M20.8749 28.5103C23.8798 31.4915 23.8798 36.3339 20.8749 39.3151C20.3427 39.8417 19.9205 40.4674 19.6327 41.1563C19.3449 41.8452 19.197 42.5837 19.1976 43.3294C19.1976 46.4604 21.7653 49 24.9132 49C26.4872 49 27.918 48.3611 28.9594 47.3359C30.4291 45.8813 32.4202 45.0645 34.4961 45.0645C36.572 45.0645 38.5632 45.8813 40.0328 47.3359C40.5636 47.8639 41.1943 48.2827 41.8886 48.5683C42.583 48.8539 43.3274 49.0006 44.079 49C47.2349 49 49.7946 46.4526 49.7946 43.3294C49.7946 40.1984 47.227 37.6589 44.079 37.6589C42.5051 37.6589 41.0742 38.2977 40.0328 39.323C38.5632 40.7775 36.572 41.5944 34.4961 41.5944C32.4202 41.5944 30.4291 40.7775 28.9594 39.323C25.9546 36.3418 25.9546 31.4994 28.9594 28.5182C29.4916 27.9916 29.9138 27.3659 30.2016 26.677C30.4895 25.9882 30.6373 25.2496 30.6367 24.5039C30.6367 21.3729 28.0691 18.8334 24.9212 18.8334C23.3472 18.8334 21.9163 19.4722 20.8749 20.4975" fill="#92BCD8"/>
<path d="M5.71557 48.9921C8.87219 48.9921 11.4311 46.4533 11.4311 43.3215C11.4311 40.1898 8.87219 37.651 5.71557 37.651C2.55895 37.651 0 40.1898 0 43.3215C0 46.4533 2.55895 48.9921 5.71557 48.9921Z" fill="#92BCD8"/>
<path d="M5.71557 48.9921C8.87219 48.9921 11.4311 46.4533 11.4311 43.3215C11.4311 40.1898 8.87219 37.651 5.71557 37.651C2.55895 37.651 0 40.1898 0 43.3215C0 46.4533 2.55895 48.9921 5.71557 48.9921Z" fill="#92BCD8"/>
<path d="M44.1506 11.3411C47.3072 11.3411 49.8661 8.80227 49.8661 5.67053C49.8661 2.53878 47.3072 0 44.1506 0C40.9939 0 38.435 2.53878 38.435 5.67053C38.435 8.80227 40.9939 11.3411 44.1506 11.3411Z" fill="#92BCD8"/>
<path d="M64.7711 5.21306V19.1331H67.1559V13.8411H72.3786V11.6486H67.1559V7.38978H74.2626V5.21306H64.7711ZM84.9465 15.5998V8.73841H82.5061V13.9357C82.5061 15.0635 82.3312 15.868 81.9894 16.3491C81.6396 16.8301 81.1308 17.0667 80.4392 17.0667C79.9066 17.0667 79.4853 16.9011 79.1832 16.5778C78.8812 16.2544 78.7301 15.797 78.7301 15.1976V8.73052H76.2897V15.5919C76.2897 16.7749 76.5759 17.6898 77.1482 18.3444C77.7206 18.9911 78.5234 19.3223 79.5568 19.3223C80.2564 19.3223 80.8446 19.1331 81.3216 18.7545C81.7986 18.3759 82.1165 17.8318 82.2835 17.1298H82.5378L82.6889 19.2277L86.3933 19.1331V17.1693L84.9545 16.9563V15.5998H84.9465ZM93.6272 8.54124C92.8084 8.54124 92.1963 8.71475 91.7829 9.05387C91.3696 9.40089 91.1231 9.92141 91.0436 10.6154H90.7734L90.5587 8.73052H88.3647V19.1252H90.8052V13.6755C90.8052 11.7511 91.5365 10.7968 92.9992 10.7968C93.5238 10.7968 93.9372 10.9703 94.2234 11.3095C94.5095 11.6486 94.6606 12.1297 94.6606 12.7606V19.1331H97.101V12.3663C97.101 11.1517 96.799 10.2132 96.1948 9.54285C95.5907 8.87248 94.7321 8.54124 93.6272 8.54124ZM106.521 10.6233H106.283C106.179 9.94507 105.909 9.42455 105.472 9.07753C105.034 8.72263 104.43 8.54913 103.667 8.54913C102.332 8.54913 101.306 9.01444 100.591 9.95296C99.8753 10.8836 99.5176 12.2322 99.5176 13.9909C99.5176 15.7497 99.8753 17.0431 100.591 17.9579C101.306 18.8728 102.332 19.3302 103.659 19.3302C104.414 19.3302 105.027 19.1567 105.488 18.8018C105.949 18.4469 106.227 17.9343 106.314 17.256H106.529L106.831 19.2356L108.953 19.141V4.44016H106.513V10.6391L106.521 10.6233ZM105.996 16.3806C105.647 16.8775 105.074 17.122 104.287 17.122C103.5 17.122 102.96 16.8538 102.57 16.3254C102.181 15.797 101.99 15.0162 101.99 13.9831C101.99 12.9499 102.189 12.1376 102.586 11.5776C102.984 11.0177 103.548 10.7416 104.295 10.7416C105.042 10.7416 105.591 10.994 105.965 11.4909C106.338 11.9877 106.529 12.7606 106.529 13.7859V14.0698C106.529 15.103 106.354 15.868 106.004 16.3648L105.996 16.3806ZM117.046 7.23993C117.515 7.23993 117.896 7.09009 118.199 6.79039C118.501 6.4907 118.652 6.10425 118.652 5.64683C118.652 5.1894 118.501 4.80295 118.199 4.50325C117.896 4.20356 117.507 4.05371 117.046 4.05371C116.585 4.05371 116.195 4.20356 115.893 4.50325C115.591 4.80295 115.44 5.1894 115.44 5.64683C115.44 6.10425 115.591 6.4907 115.893 6.79039C116.195 7.09009 116.585 7.23993 117.046 7.23993ZM118.358 10.9388V8.73841H112.594V10.9388H115.925V16.9327H112.006V19.1331H121.505V16.9327H118.358V10.9388ZM129.192 8.54124C128.374 8.54124 127.762 8.71475 127.348 9.05387C126.935 9.40089 126.688 9.92141 126.609 10.6154H126.339L126.124 8.73052H123.93V19.1252H126.37V13.6755C126.37 11.7511 127.102 10.7968 128.564 10.7968C129.089 10.7968 129.502 10.9703 129.789 11.3095C130.075 11.6486 130.226 12.1297 130.226 12.7606V19.1331H132.666V12.3663C132.666 11.1517 132.364 10.2132 131.76 9.54285C131.156 8.87248 130.297 8.54124 129.192 8.54124ZM142.118 10.6233H141.951C141.848 9.94507 141.57 9.42455 141.116 9.07753C140.663 8.72263 140.035 8.54913 139.232 8.54913C137.897 8.54913 136.872 9.01444 136.156 9.95296C135.441 10.8836 135.083 12.2322 135.083 13.9909C135.083 15.7497 135.441 17.0431 136.156 17.9579C136.872 18.8728 137.897 19.3302 139.225 19.3302C139.98 19.3302 140.592 19.1567 141.053 18.8018C141.514 18.4469 141.792 17.9343 141.88 17.256H142.086V18.5337C142.086 19.5195 141.856 20.2687 141.411 20.7735C140.965 21.2782 140.258 21.5464 139.288 21.5858L135.926 21.6805L136.021 23.8256L139.081 23.731C140.973 23.6679 142.349 23.1947 143.215 22.3114C144.082 21.436 144.511 20.0716 144.511 18.2182V8.74629H142.269L142.102 10.6312L142.118 10.6233ZM141.57 16.3806C141.22 16.8775 140.647 17.122 139.86 17.122C139.073 17.122 138.533 16.8538 138.143 16.3254C137.754 15.797 137.563 15.0162 137.563 13.9831C137.563 12.9499 137.762 12.1376 138.159 11.5776C138.557 11.0255 139.121 10.7416 139.868 10.7416C140.616 10.7416 141.164 10.994 141.538 11.4909C141.911 11.9877 142.102 12.7606 142.102 13.7859V14.0698C142.102 15.103 141.927 15.868 141.578 16.3648L141.57 16.3806ZM161.983 17.0194C161.626 17.0589 161.292 17.0746 160.982 17.0746C160.036 17.0746 159.368 16.8932 158.955 16.5226C158.549 16.1598 158.343 15.5683 158.343 14.7717V10.9388H163.033V8.74629H158.343V5.60739H155.91V8.74629H153.35V10.9388H155.91V14.9689C155.91 16.491 156.292 17.603 157.055 18.2892C157.818 18.9832 159.058 19.3302 160.783 19.3302C161.26 19.3302 161.705 19.3145 162.134 19.275C162.564 19.2356 162.993 19.1804 163.43 19.1015L163.192 16.8854C162.739 16.9406 162.333 16.9879 161.975 17.0273L161.983 17.0194ZM171.435 8.54124C170.616 8.54124 170.004 8.71475 169.591 9.05387C169.178 9.40089 168.931 9.92141 168.852 10.6154H168.613V4.4165H166.173V19.1173H168.613V13.5651C168.613 11.6801 169.345 10.7337 170.807 10.7337C171.332 10.7337 171.745 10.8994 172.031 11.2306C172.318 11.5618 172.469 12.035 172.469 12.6502V19.1173H174.909V12.3505C174.909 11.136 174.607 10.1974 174.003 9.52707C173.399 8.85671 172.54 8.52547 171.435 8.52547V8.54124ZM186.992 13.5966C186.992 11.9562 186.595 10.7022 185.792 9.84254C184.989 8.98289 183.86 8.54913 182.397 8.54913C180.935 8.54913 179.71 9.02233 178.876 9.96084C178.041 10.8994 177.628 12.2243 177.628 13.92C177.628 15.6156 178.121 17.0037 179.098 17.9343C180.076 18.8649 181.467 19.3302 183.272 19.3302C183.685 19.3302 184.162 19.3145 184.703 19.2829C185.243 19.2514 185.831 19.1725 186.483 19.0542L186.229 16.8223C185.768 16.909 185.315 16.9721 184.87 17.0194C184.424 17.0667 183.971 17.0904 183.51 17.0904C182.381 17.0904 181.515 16.8144 180.903 16.2544C180.529 15.9074 180.267 15.4736 180.124 14.9373H186.944C186.984 14.5193 187 14.0698 187 13.5966H186.992ZM180.013 13.1944C180.084 12.5082 180.291 11.9562 180.625 11.5382C181.054 11.0019 181.65 10.7337 182.421 10.7337C183.129 10.7337 183.677 10.9467 184.075 11.3726C184.472 11.7984 184.671 12.4057 184.671 13.1944H180.02H180.013ZM74.835 29.0309H74.4295C73.2451 29.0309 72.2514 29.646 71.4485 30.8685C70.6457 32.0909 70.0892 33.8654 69.7792 36.192C69.4294 38.7473 69.4692 40.6479 69.8984 41.8862C70.3277 43.1244 71.1544 43.7474 72.3866 43.7474H72.7443L78.0862 39.0154L77.3231 44.4336C76.862 44.5124 76.393 44.5755 75.9081 44.6307C75.4232 44.6859 74.9462 44.7332 74.4693 44.7806C73.9923 44.8279 73.5392 44.8594 73.102 44.8831C72.6648 44.9068 72.2753 44.9146 71.9255 44.9146C70.5662 44.9146 69.3658 44.7175 68.3324 44.3231C67.299 43.9288 66.4484 43.361 65.7966 42.6196C65.1368 41.8704 64.6837 40.9713 64.4293 39.9145C64.1749 38.8577 64.1431 37.6668 64.3339 36.3497C64.5247 35.0484 64.8983 33.8733 65.4627 32.8165C66.0271 31.7675 66.7425 30.8685 67.609 30.135C68.4755 29.3936 69.493 28.8337 70.6457 28.4394C71.7983 28.045 73.0543 27.8479 74.4216 27.8479C74.8032 27.8479 75.2165 27.8636 75.6537 27.8952C76.0989 27.9267 76.5441 27.9662 76.9972 28.0214C77.4503 28.0766 77.8954 28.1475 78.3406 28.2343C78.7858 28.3211 79.1912 28.4078 79.5728 28.5024L78.8096 33.826L74.8191 29.023L74.835 29.0309ZM80.0577 38.5185C80.2007 37.5643 80.4949 36.6888 80.9321 35.8923C81.3773 35.1036 81.9337 34.4175 82.6173 33.8575C83.301 33.2897 84.08 32.8559 84.9704 32.5483C85.8527 32.2407 86.8146 32.0909 87.8401 32.0909C88.8655 32.0909 89.7797 32.2486 90.5826 32.5641C91.3775 32.8796 92.0452 33.3212 92.562 33.8812C93.0866 34.449 93.4523 35.1194 93.6749 35.908C93.8974 36.6967 93.9372 37.5643 93.7941 38.5185C93.6612 39.4383 93.3652 40.3275 92.9197 41.1448C92.4927 41.9227 91.9208 42.6131 91.2344 43.1796C90.5508 43.7474 89.7717 44.1812 88.8814 44.4888C87.999 44.7963 87.0372 44.9462 86.0117 44.9462C84.9862 44.9462 84.0721 44.7963 83.2692 44.4888C82.4663 44.1812 81.8065 43.7474 81.2898 43.1796C80.7652 42.6117 80.3995 41.9414 80.1769 41.1527C79.9543 40.3719 79.9146 39.4886 80.0577 38.5185ZM87.6493 33.5026C86.8702 33.5026 86.2104 33.9364 85.6699 34.8118C85.1214 35.6793 84.7398 36.9333 84.5172 38.5659C84.2947 40.1826 84.3264 41.413 84.6126 42.2647C84.8988 43.1165 85.4314 43.5345 86.2263 43.5345C87.0213 43.5345 87.7049 43.1007 88.2455 42.2411C88.786 41.3814 89.1596 40.1117 89.3822 38.4476C89.5889 36.8466 89.5412 35.6241 89.255 34.7724C88.9609 33.9285 88.4283 33.5026 87.6493 33.5026ZM109.105 35.8134C109.136 36.1446 109.128 36.4917 109.081 36.8466C109.081 36.9412 109.073 37.0674 109.049 37.2251C109.025 37.3829 108.985 37.6589 108.93 38.0453L108.691 39.7173C108.588 40.4429 108.445 41.4208 108.254 42.6591L109.462 44.6623H103.556C103.81 43.0613 104.009 41.8152 104.152 40.9319C104.295 40.0486 104.399 39.3861 104.47 38.9681C104.542 38.5422 104.581 38.2898 104.597 38.2031C104.613 38.1163 104.621 38.0611 104.621 38.0296C104.796 36.7756 104.796 35.8923 104.621 35.3796C104.446 34.867 104.057 34.6146 103.46 34.6146C103.095 34.6146 102.713 34.7014 102.308 34.8828C101.902 35.0642 101.489 35.3323 101.06 35.6951L100.066 42.6669L101.274 44.6702H94.0087L95.7178 42.6433L96.7592 35.0878L95.6701 33.1319L101.6 31.9332L101.29 33.96C102.379 33.0688 103.556 32.5483 104.804 32.4064C104.931 32.3906 105.058 32.3827 105.193 32.3827H105.583C107.419 32.3827 108.524 33.0767 108.906 34.4569C109.693 33.7155 110.472 33.1871 111.243 32.8559C112.006 32.5247 112.849 32.3669 113.771 32.3827C114.987 32.3985 115.877 32.6982 116.426 33.2897C116.982 33.8812 117.253 34.8591 117.253 36.2235C117.253 36.3812 117.245 36.5626 117.229 36.7677C117.213 36.9728 117.181 37.2961 117.133 37.7456C117.086 38.1952 117.006 38.8025 116.895 39.5832C116.784 40.364 116.633 41.3893 116.442 42.6827L117.65 44.6859H111.72L112.714 38.3766C112.809 37.6668 112.865 37.0753 112.888 36.6021C112.912 36.121 112.88 35.7424 112.793 35.4506C112.706 35.1588 112.57 34.9538 112.38 34.8276C112.189 34.7014 111.942 34.6383 111.64 34.6383C110.845 34.6383 109.995 35.0405 109.081 35.8371L109.105 35.8134ZM133.477 35.8134C133.509 36.1446 133.501 36.4917 133.453 36.8466C133.453 36.9412 133.445 37.0674 133.422 37.2251C133.398 37.3829 133.358 37.6589 133.302 38.0453L133.064 39.7173C132.96 40.4429 132.817 41.4208 132.627 42.6591L133.835 44.6623H127.929C128.183 43.0613 128.382 41.8152 128.525 40.9319C128.668 40.0486 128.771 39.3861 128.843 38.9681C128.914 38.5422 128.954 38.2898 128.97 38.2031C128.986 38.1163 128.994 38.0611 128.994 38.0296C129.169 36.7756 129.169 35.8923 128.994 35.3796C128.819 34.867 128.429 34.6146 127.833 34.6146C127.467 34.6146 127.086 34.7014 126.68 34.8828C126.275 35.0642 125.862 35.3323 125.432 35.6951L124.439 42.6669L125.647 44.6702H118.381L120.09 42.6433L121.132 35.0878L120.043 33.1319L125.973 31.9332L125.663 33.96C126.752 33.0688 127.929 32.5483 129.177 32.4064C129.304 32.3906 129.431 32.3827 129.566 32.3827H129.956C131.792 32.3827 132.897 33.0767 133.278 34.4569C134.065 33.7155 134.844 33.1871 135.616 32.8559C136.379 32.5247 137.221 32.3669 138.143 32.3827C139.36 32.3985 140.25 32.6982 140.798 33.2897C141.355 33.8812 141.625 34.8591 141.625 36.2235C141.625 36.3812 141.617 36.5626 141.601 36.7677C141.585 36.9728 141.554 37.2961 141.506 37.7456C141.458 38.1952 141.379 38.8025 141.267 39.5832C141.156 40.364 141.005 41.3893 140.814 42.6827L142.023 44.6859H136.092L137.086 38.3766C137.182 37.6668 137.237 37.0753 137.261 36.6021C137.285 36.121 137.253 35.7424 137.166 35.4506C137.078 35.1588 136.943 34.9538 136.752 34.8276C136.561 34.7014 136.315 34.6383 136.013 34.6383C135.218 34.6383 134.367 35.0405 133.453 35.8371L133.477 35.8134ZM143.962 38.5185C144.105 37.5643 144.4 36.6888 144.837 35.8923C145.282 35.1036 145.838 34.4175 146.522 33.8575C147.206 33.2897 147.985 32.8559 148.875 32.5483C149.757 32.2407 150.719 32.0909 151.745 32.0909C152.77 32.0909 153.684 32.2486 154.487 32.5641C155.282 32.8796 155.95 33.3212 156.467 33.8812C156.991 34.449 157.357 35.1194 157.58 35.908C157.802 36.6967 157.842 37.5643 157.699 38.5185C157.566 39.4383 157.27 40.3275 156.824 41.1448C156.397 41.9227 155.825 42.6131 155.139 43.1796C154.455 43.7474 153.676 44.1812 152.786 44.4888C151.904 44.7963 150.942 44.9462 149.916 44.9462C148.891 44.9462 147.977 44.7963 147.174 44.4888C146.371 44.1812 145.711 43.7474 145.194 43.1796C144.67 42.6117 144.304 41.9414 144.082 41.1527C143.859 40.3719 143.819 39.4886 143.962 38.5185ZM151.554 33.5026C150.775 33.5026 150.115 33.9364 149.575 34.8118C149.026 35.6793 148.644 36.9333 148.422 38.5659C148.199 40.1826 148.231 41.413 148.517 42.2647C148.803 43.1165 149.336 43.5345 150.131 43.5345C150.926 43.5345 151.61 43.1007 152.15 42.2411C152.691 41.3814 153.064 40.1117 153.287 38.4476C153.494 36.8466 153.446 35.6241 153.16 34.7724C152.866 33.9285 152.333 33.5026 151.554 33.5026ZM169.504 32.3748C170.251 32.3748 170.863 32.4852 171.356 32.7061C171.849 32.9269 172.222 33.2739 172.485 33.7392C172.747 34.2124 172.906 34.8197 172.961 35.561C173.017 36.3103 172.969 37.2172 172.834 38.2819L172.167 42.6591L173.375 44.6623H167.492L168.51 37.998C168.685 36.744 168.685 35.8607 168.518 35.3639C168.351 34.8591 167.969 34.6067 167.365 34.6067C166.586 34.6067 165.783 34.9695 164.949 35.6872L163.955 42.6591L165.163 44.6623H157.921L159.63 42.6354L160.672 35.0799L159.583 33.124L165.489 31.9253L165.179 33.9522C165.863 33.4001 166.546 32.9979 167.23 32.7376C167.922 32.4773 168.677 32.359 169.496 32.3748H169.504ZM186.348 37.2015L182.715 33.8338C182.62 33.8023 182.525 33.7865 182.429 33.7865H182.095C181.038 33.7865 180.466 34.102 180.386 34.725C180.354 34.9774 180.386 35.1982 180.505 35.3954C180.617 35.5926 180.784 35.774 181.006 35.9475C181.229 36.121 181.491 36.2866 181.793 36.4443C182.095 36.6021 182.413 36.7598 182.739 36.9175C183.184 37.1384 183.629 37.3671 184.083 37.6116C184.536 37.8561 184.933 38.14 185.283 38.4712C185.633 38.8025 185.903 39.1889 186.086 39.6227C186.277 40.0643 186.324 40.577 186.229 41.1764C186.118 41.965 185.823 42.596 185.354 43.0849C184.878 43.5739 184.313 43.9525 183.661 44.2285C183.001 44.5045 182.302 44.6938 181.563 44.7963C180.815 44.8989 180.14 44.9462 179.52 44.9462C178.9 44.9462 178.216 44.9068 177.405 44.8437C176.579 44.7716 175.756 44.6585 174.941 44.5045L175.609 39.8829L179.241 43.2821C179.369 43.2821 179.488 43.2821 179.607 43.2742C179.726 43.2663 179.846 43.2584 179.973 43.2348C180.434 43.1559 180.807 43.0297 181.102 42.8562C181.396 42.6827 181.555 42.4619 181.586 42.1937C181.621 42.0013 181.578 41.8032 181.467 41.6417C181.356 41.4761 181.197 41.3183 180.99 41.1606C180.784 41.0028 180.545 40.853 180.267 40.711C179.989 40.5691 179.695 40.4192 179.377 40.2615C178.916 40.0407 178.454 39.8041 177.978 39.5517C177.518 39.3117 177.09 39.0149 176.706 38.6684C176.332 38.3293 176.046 37.9349 175.839 37.4854C175.632 37.0358 175.577 36.5074 175.672 35.8923C175.847 34.662 176.531 33.7234 177.723 33.061C178.916 32.3985 180.505 32.0672 182.485 32.0672C183.248 32.0672 184.011 32.1224 184.79 32.225C185.561 32.3275 186.3 32.4773 187 32.6666L186.356 37.2015H186.348Z" fill="#92BCD8"/>
</svg>
