<svg width="229" height="38" viewBox="0 0 229 38" fill="none" xmlns="http://www.w3.org/2000/svg">
<path d="M70.3505 37.2906V9.04247H61.7647V0.758301H88.5649V9.04443H79.9792V37.2926H70.3526L70.3505 37.2906Z" fill="#92BCD8"/>
<path d="M0 19.1705C0 7.83202 9.31478 0.0794678 21.0757 0.0794678C28.1529 0.0794678 34.5538 2.74343 38.6644 8.46171L30.1819 12.5793C27.8917 9.67207 24.9251 8.12234 21.179 8.12234C14.5695 8.12234 9.93843 12.9186 9.93843 19.2176C9.93843 25.5165 14.9867 30.2167 20.8671 30.2167C25.7068 30.2167 29.1938 27.5037 29.8174 23.9178V23.8687H21.5961V16.9891H40.5902V18.5389C40.5902 30.458 32.9399 37.9202 20.7639 37.9202C9.26211 37.9202 0 30.2167 0 19.1705Z" fill="#92BCD8"/>
<path d="M47.1932 37.2906V0.758301H56.8198V37.2906H47.1932Z" fill="#92BCD8"/>
<path d="M173.416 37.2906V0.758301H183.042V37.2906H173.416Z" fill="#92BCD8"/>
<path d="M218.866 0.758301H228.287V37.2906H220.48L200.81 14.2762L200.966 37.2906H191.495V0.758301H199.51L219.18 23.6275L218.869 0.758301H218.866Z" fill="#92BCD8"/>
<path d="M111.889 29.6362C105.905 29.6362 100.857 25.2754 100.857 19.0255C100.857 13.115 105.697 8.41479 111.994 8.41479C115.096 8.41479 117.803 9.50744 119.773 11.3161C120.723 8.49129 122.202 5.84891 124.168 3.48705C120.725 1.34686 116.537 0.128662 112.045 0.128662C100.492 0.128662 90.9164 8.17154 90.9164 18.9765C90.9164 30.315 100.543 37.9204 111.889 37.9204C116.419 37.9204 120.639 36.7394 124.101 34.6405C122.158 32.2806 120.694 29.6225 119.756 26.7624C117.757 28.5632 115.009 29.6362 111.889 29.6362Z" fill="#92BCD8"/>
<path d="M146.396 0.128662C139.146 0.128662 132.676 3.29677 128.86 8.32651C126.597 11.3122 125.268 14.9531 125.268 18.9765C125.268 22.9999 126.593 26.8722 128.839 29.854C132.646 34.9092 139.104 37.9204 146.24 37.9204C157.845 37.9204 167.421 30.1678 167.421 19.0726C167.421 7.97733 157.898 0.128662 146.396 0.128662ZM146.24 29.6362C140.257 29.6362 135.208 25.2754 135.208 19.0255C135.208 13.115 140.048 8.41479 146.346 8.41479C152.643 8.41479 157.483 13.0659 157.483 19.0745C157.483 25.0832 152.643 29.6362 146.242 29.6362H146.24Z" fill="#92BCD8"/>
</svg>
