<svg width="229" height="38" viewBox="0 0 229 38" fill="none" xmlns="http://www.w3.org/2000/svg">
<path d="M70.3504 37.2906V9.04247H61.7646V0.758308H88.5649V9.04444H79.9791V37.2926H70.3525L70.3504 37.2906Z" fill="white"/>
<path d="M0 19.1705C0 7.83202 9.31478 0.0794678 21.0757 0.0794678C28.1529 0.0794678 34.5538 2.74343 38.6644 8.46172L30.1819 12.5793C27.8917 9.67207 24.9251 8.12235 21.179 8.12235C14.5695 8.12235 9.93843 12.9186 9.93843 19.2176C9.93843 25.5165 14.9867 30.2167 20.8671 30.2167C25.7068 30.2167 29.1938 27.5037 29.8174 23.9178V23.8687H21.5961V16.9891H40.5902V18.5389C40.5902 30.458 32.9399 37.9202 20.7639 37.9202C9.26211 37.9202 0 30.2167 0 19.1705Z" fill="white"/>
<path d="M47.1932 37.2906V0.758308H56.8198V37.2906H47.1932Z" fill="white"/>
<path d="M173.416 37.2906V0.758308H183.042V37.2906H173.416Z" fill="white"/>
<path d="M218.866 0.758308H228.287V37.2906H220.48L200.81 14.2762L200.966 37.2906H191.495V0.758308H199.51L219.18 23.6275L218.869 0.758308H218.866Z" fill="white"/>
<path d="M111.889 29.6363C105.905 29.6363 100.857 25.2755 100.857 19.0256C100.857 13.115 105.697 8.41484 111.994 8.41484C115.096 8.41484 117.803 9.5075 119.773 11.3162C120.723 8.49135 122.202 5.84897 124.168 3.48711C120.725 1.34692 116.537 0.128716 112.045 0.128716C100.492 0.128716 90.9164 8.17159 90.9164 18.9765C90.9164 30.315 100.543 37.9204 111.889 37.9204C116.419 37.9204 120.639 36.7395 124.101 34.6405C122.158 32.2806 120.694 29.6225 119.756 26.7624C117.757 28.5632 115.009 29.6363 111.889 29.6363Z" fill="white"/>
<path d="M146.396 0.128716C139.146 0.128716 132.676 3.29683 128.86 8.32657C126.597 11.3122 125.268 14.9531 125.268 18.9765C125.268 22.9999 126.593 26.8723 128.839 29.854C132.646 34.9093 139.104 37.9204 146.24 37.9204C157.845 37.9204 167.421 30.1679 167.421 19.0726C167.421 7.97739 157.898 0.128716 146.396 0.128716ZM146.24 29.6363C140.257 29.6363 135.208 25.2755 135.208 19.0256C135.208 13.115 140.048 8.41484 146.346 8.41484C152.643 8.41484 157.483 13.066 157.483 19.0746C157.483 25.0832 152.643 29.6363 146.242 29.6363H146.24Z" fill="white"/>
</svg>
