<svg width="185" height="41" viewBox="0 0 185 41" fill="none" xmlns="http://www.w3.org/2000/svg">
<path d="M76.6721 24.3881L89.1216 39.8675H98.6122L83.5071 21.496C82.6712 20.5045 82.3679 19.7264 82.3679 18.9551C82.3679 18.177 82.9005 17.5435 83.8844 16.4831L98.3089 1.49947H88.7443L76.4428 14.2934C74.5417 16.2697 73.7132 17.6881 73.7132 19.0309C73.7132 20.7248 74.7784 22.1433 76.6721 24.4707V24.3881ZM142.418 20.711C142.418 9.54216 150.918 0.714478 163.523 0.714478C176.128 0.714478 184.93 9.05326 184.93 20.711C184.93 32.3688 175.898 40.5699 163.597 40.5699C150.385 40.5699 142.418 32.0865 142.418 20.711ZM176.734 20.6422C176.734 12.7992 171.497 7.00127 163.604 7.00127C155.63 7.00127 150.622 12.6546 150.622 20.6422C150.622 28.554 156.015 34.3519 163.604 34.3519C171.645 34.3519 176.734 28.4852 176.734 20.6422ZM119.413 39.7918H104.611V33.4292H120.856C125.56 33.4292 127.913 32.2999 127.913 29.3321C127.913 26.6467 126.011 25.7997 120.93 24.5258L116.07 23.3277C107.038 20.9934 104.005 18.3079 104.005 12.0211C104.005 5.65853 108.103 1.49258 117.971 1.49258H132.78V7.92398H117.904C113.732 7.92398 111.676 8.77094 111.676 11.5253C111.676 14.0662 113.577 15.3401 118.355 16.4693L123.363 17.6675C131.789 19.6437 135.739 22.4738 135.739 28.6918C135.739 35.9013 131.411 39.9295 119.339 39.9295L119.413 39.7918ZM46.5358 40.6387C35.8321 40.6387 29.3817 35.4124 29.3817 25.0904V1.49258H37.2006V24.6704C37.2006 30.2548 39.1016 34.3519 46.4619 34.3519C53.8221 34.3519 55.7232 30.5372 55.7232 24.6704V1.49258H63.542V25.0973C63.542 35.2746 57.0917 40.7145 46.3879 40.7145L46.5358 40.6387ZM7.89282 1.49258H0V32.5134C0 37.6709 2.35231 39.7918 7.05694 39.7918H22.3174V33.505H10.8517C8.57337 33.505 7.89282 32.8715 7.89282 30.8195V1.49258Z" fill="white"/>
</svg>
