<svg width="173" height="40" viewBox="0 0 173 40" fill="none" xmlns="http://www.w3.org/2000/svg">
<g clip-path="url(#clip0_732_749)">
<path d="M71.3732 23.7172L82.9623 39.2206H91.797L77.7358 20.8206C76.9577 19.8275 76.6754 19.0482 76.6754 18.2758C76.6754 17.4965 77.1712 16.862 78.087 15.7999L91.5147 0.793043H82.6111L71.1597 13.6068C69.39 15.5861 68.6188 17.0068 68.6188 18.3517C68.6188 20.0482 69.6104 21.4689 71.3732 23.7999V23.7172ZM132.576 20.0344C132.576 8.84822 140.488 0.00683594 152.222 0.00683594C163.955 0.00683594 172.15 8.35856 172.15 20.0344C172.15 31.7103 163.742 39.9241 152.29 39.9241C139.992 39.9241 132.576 31.4275 132.576 20.0344ZM164.52 19.9655C164.52 12.1103 159.645 6.30339 152.297 6.30339C144.874 6.30339 140.212 11.9655 140.212 19.9655C140.212 27.8896 145.232 33.6965 152.297 33.6965C159.782 33.6965 164.52 27.8206 164.52 19.9655ZM111.16 39.1448H97.3815V32.7724H112.503C116.883 32.7724 119.072 31.6413 119.072 28.6689C119.072 25.9793 117.303 25.131 112.572 23.8551L108.048 22.6551C99.6402 20.3172 96.8169 17.6275 96.8169 11.331C96.8169 4.95856 100.632 0.786146 109.818 0.786146H123.603V7.22753H109.756C105.872 7.22753 103.958 8.0758 103.958 10.8344C103.958 13.3792 105.727 14.6551 110.176 15.7861L114.838 16.9861C122.681 18.9655 126.358 21.7999 126.358 28.0275C126.358 35.2482 122.329 39.2827 111.092 39.2827L111.16 39.1448ZM43.3197 39.993C33.3557 39.993 27.3511 34.7586 27.3511 24.4206V0.786146H34.6296V23.9999C34.6296 29.593 36.3993 33.6965 43.2508 33.6965C50.1024 33.6965 51.8721 29.8758 51.8721 23.9999V0.786146H59.1506V24.4275C59.1506 34.6206 53.146 40.0689 43.182 40.0689L43.3197 39.993ZM7.34734 0.786146H0V31.8551C0 37.0206 2.18974 39.1448 6.56923 39.1448H20.775V32.8482H10.1017C7.98085 32.8482 7.34734 32.2137 7.34734 30.1586V0.786146Z" fill="#FE005B"/>
</g>
<defs>
<clipPath id="clip0_732_749">
<rect width="172.15" height="40" fill="white"/>
</clipPath>
</defs>
</svg>
