<svg width="294" height="22" viewBox="0 0 294 22" fill="none" xmlns="http://www.w3.org/2000/svg">
<path d="M90.3657 11.3686C90.3657 14.5556 90.3657 17.741 90.3657 20.928C90.3657 21.3557 90.3601 21.3627 89.9392 21.3627C88.2257 21.3662 86.5102 21.3662 84.7967 21.3627C84.3851 21.3627 84.3795 21.3557 84.3795 20.9193C84.3776 19.1528 84.3795 17.3863 84.3795 15.618C84.3795 14.0253 84.3795 12.4309 84.3758 10.8383C84.3758 10.76 84.3328 10.6818 84.3084 10.6053C84.243 10.6522 84.1625 10.6888 84.112 10.7479C83.6368 11.3164 83.1598 11.885 82.6959 12.4622C82.2338 13.036 81.798 13.6254 81.3284 14.1923C81.1114 14.4548 80.7429 14.6269 80.8046 15.0355C80.2883 15.0807 80.2603 15.578 79.9647 15.8319C79.7496 16.0144 79.6523 16.3726 79.4166 16.463C79.1247 16.576 78.745 16.4943 78.4027 16.496C77.9032 16.496 77.3981 16.4491 76.908 16.5082C76.3318 16.5778 75.9502 16.3326 75.6602 15.9466C75.1944 15.3259 74.708 14.7278 74.1375 14.187C73.7652 13.8323 73.5744 13.3559 73.2358 12.963C72.8467 12.5144 72.4277 12.078 72.0816 11.5929C71.902 11.339 71.6906 11.1043 71.4886 10.8661C71.4568 10.8279 71.4025 10.807 71.3576 10.7792C71.3333 10.8279 71.2884 10.8748 71.2865 10.9252C71.2791 11.1565 71.2828 11.3877 71.2828 11.6207C71.2828 14.7208 71.2828 17.8192 71.2828 20.9193C71.2828 21.3627 71.2772 21.3662 70.7777 21.3679C69.0941 21.3696 67.4123 21.3696 65.7287 21.3679C65.3041 21.3679 65.2985 21.3609 65.2985 20.9367C65.2985 17.6923 65.2985 14.4478 65.2985 11.2052C65.2985 7.96246 65.2985 4.89016 65.2985 1.73267C65.2985 1.2041 65.3022 1.20062 65.9008 1.20062C67.3338 1.19889 68.7686 1.19889 70.2015 1.20062C70.4597 1.20062 70.7777 1.12412 70.7889 1.52229C72.0666 2.91325 73.1947 4.41202 74.3638 5.87949C75.0597 6.75058 75.8248 7.57473 76.5338 8.43539C76.9267 8.9118 77.2933 9.41254 77.6319 9.92546C77.7423 10.0906 77.7797 10.0506 77.8583 9.9498C77.9967 9.77419 78.1146 9.5812 78.2586 9.4108C78.7375 8.84051 79.2332 8.28064 79.7084 7.70861C80.0713 7.27219 80.3856 6.79926 80.7766 6.38545C81.1526 5.98729 81.4425 5.54218 81.7699 5.1162C82.2582 4.48157 82.853 3.91823 83.3357 3.28012C83.7959 2.67157 84.4431 2.19517 84.7574 1.48403C84.8565 1.25974 85.081 1.19193 85.3598 1.19367C86.918 1.20758 88.4763 1.20932 90.0346 1.19367C90.3582 1.19019 90.3676 1.32407 90.3676 1.55532C90.362 4.82757 90.3639 8.10156 90.3639 11.3738L90.3657 11.3686Z" fill="#92BCD8"/>
<path d="M259.673 21.7123C258.924 21.7123 258.174 21.6828 257.43 21.7193C256.244 21.7767 255.157 21.4098 254.053 21.1038C252.366 20.6361 251.045 19.6676 249.902 18.461C249.488 18.0245 248.781 16.458 248.615 15.8268C248.491 15.3591 248.45 14.8966 248.426 14.4185C248.407 14.062 248.566 14.0551 248.86 14.0568C250.48 14.0672 252.102 14.0603 253.722 14.0638C254.225 14.0638 254.225 14.0725 254.427 14.6028C254.867 15.759 256.167 16.6179 257.461 16.87C258.537 17.0804 259.607 17.0543 260.66 16.9848C261.571 16.9239 262.499 16.7692 263.358 16.3432C263.902 16.0737 264.102 15.6616 264.31 15.2131C264.402 15.0131 264.052 14.3454 263.824 14.2376C262.952 13.8256 262.05 13.5961 261.051 13.5091C259.454 13.37 257.852 13.457 256.266 13.3352C255.419 13.2692 254.526 13.2535 253.711 13.0049C251.823 12.4276 249.982 11.7513 249.187 9.8161C248.869 9.70308 249.109 9.37621 248.931 9.22146C248.705 9.02499 248.864 8.78505 248.815 8.56945C248.75 8.27561 248.637 7.98002 248.637 7.68618C248.634 6.86725 248.839 5.30937 249.561 4.39481C249.977 3.86798 250.241 3.23161 250.942 2.9256C251.206 2.81085 251.419 2.59177 251.649 2.41268C252.36 1.85977 253.247 1.64591 254.09 1.38684C255.067 1.08779 256.09 0.941734 257.119 0.809592C257.817 0.720918 258.505 0.689621 259.197 0.679189C261.19 0.647892 260.984 0.642676 264.31 1.37119C265.707 1.67721 266.865 2.24229 267.694 3.00906C268.749 3.98795 269.415 5.13724 269.608 6.53864C269.651 6.85508 269.771 7.18022 269.761 7.51231C269.752 7.85136 269.722 7.8531 269.243 7.80615C269.028 7.78529 268.807 7.80268 268.588 7.80268C267.092 7.80268 265.595 7.7992 264.1 7.80615C263.878 7.80615 263.773 7.77486 263.771 7.52796C263.767 7.02026 263.517 6.63948 263.01 6.40649C262.827 6.3213 262.682 6.16829 262.505 6.06745C262.284 5.94052 262.037 5.72492 261.82 5.74231C261.317 5.7823 260.888 5.52323 260.402 5.5354C259.56 5.55627 258.715 5.48846 257.879 5.55453C256.945 5.62755 256.036 5.79621 255.248 6.38041C254.992 6.56993 254.878 6.76293 254.811 6.99418C254.749 7.20978 254.768 7.45841 254.807 7.68444C254.833 7.83571 254.919 8.03914 255.046 8.10174C255.609 8.38341 256.223 8.67377 256.848 8.64595C258.268 8.58336 259.661 8.93805 261.072 8.83199C261.846 8.77288 262.581 8.9624 263.33 9.04064C264.013 9.11192 264.735 9.16061 265.35 9.524C266.517 9.58659 267.473 10.1864 268.326 10.7898C269.312 11.487 270.019 12.4798 270.141 13.7178C270.162 13.9299 270.283 14.1298 270.315 14.342C270.347 14.5402 270.321 14.7471 270.322 14.9488C270.334 16.072 269.993 17.1308 269.355 18.0471C268.951 18.6279 268.59 19.3286 267.808 19.6224C267.464 20.118 266.834 20.2484 266.36 20.5822C265.76 21.0047 264.985 21.1247 264.278 21.3524C263.517 21.5976 262.737 21.7628 261.912 21.7176C261.167 21.6758 260.417 21.7089 259.669 21.7089L259.673 21.7123Z" fill="#92BCD8"/>
<path d="M113.188 21.7123C112.533 21.7123 111.877 21.6827 111.224 21.7192C110.006 21.787 108.885 21.4289 107.759 21.095C106.224 20.6395 104.892 19.8466 103.893 18.6869C103.114 17.7845 102.437 16.7796 102.334 15.5572C102.325 15.4547 102.233 15.3573 102.224 15.2547C102.19 14.8878 102.173 14.5192 102.151 14.1524C102.48 14.1228 102.808 14.0689 103.137 14.0672C104.57 14.0585 106.005 14.0689 107.438 14.0585C107.808 14.055 108.038 14.1141 108.182 14.5053C108.281 14.7766 108.392 15.0878 108.543 15.3138C108.807 15.7085 109.224 16.0458 109.649 16.3084C110.156 16.6213 110.76 16.7326 111.362 16.8735C112.343 17.1012 113.319 17.0456 114.282 16.9917C115.203 16.9413 116.155 16.8335 116.982 16.3605C117.182 16.2458 117.397 16.1397 117.562 15.9884C118.241 15.3608 118.125 14.7748 117.375 14.1889C116.785 13.7281 116.069 13.6064 115.412 13.5803C114.559 13.5456 113.731 13.3334 112.874 13.3613C112.002 13.3891 111.128 13.3769 110.257 13.3647C109.656 13.356 109.08 13.1717 108.465 13.1717C107.892 13.1717 107.352 12.8362 106.749 12.8466C105.745 12.3493 104.62 12.0468 103.833 11.2018C103.055 10.3655 102.592 9.42135 102.523 8.31379C102.512 8.12427 102.6 7.9191 102.392 7.75219C102.325 7.69829 102.316 7.53137 102.346 7.43227C102.647 6.42034 102.529 5.3093 103.251 4.38605C103.429 4.15828 103.706 3.98615 103.797 3.73577C103.898 3.46279 104.027 3.29762 104.33 3.25763C104.355 3.25415 104.379 3.22111 104.396 3.19851C104.903 2.48912 105.765 2.21788 106.495 1.81102C107.075 1.48936 107.791 1.35722 108.463 1.20769C109.299 1.02165 110.165 0.945145 111.009 0.809525C112.086 0.635655 113.154 0.637393 114.209 0.703464C115.584 0.7904 116.982 0.91037 118.295 1.37287C119.689 1.86318 121 2.47869 121.997 3.55668C122.527 4.13046 123.136 5.34755 123.29 6.18561C123.37 6.62203 123.563 7.04106 123.484 7.50355C123.428 7.84608 123.432 7.85477 122.966 7.80609C122.751 7.78348 122.53 7.80261 122.311 7.80261C120.908 7.80261 119.505 7.77305 118.106 7.82174C117.702 7.83565 117.616 7.59918 117.56 7.41314C117.255 6.39252 116.393 5.94915 115.429 5.74572C114.769 5.60662 114.077 5.46405 113.362 5.52838C112.683 5.58923 111.976 5.45188 111.312 5.56315C110.367 5.71964 109.379 5.85178 108.712 6.64985C108.334 7.10191 108.509 7.85477 109.009 8.20425C109.469 8.52417 110.032 8.42507 110.489 8.67196C111.998 8.54504 113.484 8.87539 114.991 8.85975C116.509 8.8441 117.996 9.13272 119.449 9.54306C120.491 9.8369 121.455 10.3011 122.27 10.9601C123.136 11.6608 123.6 12.5893 123.879 13.6395C124.059 14.3228 124.115 15.0043 124.01 15.6546C123.849 16.6683 123.475 17.6298 122.774 18.4783C122.328 19.0173 121.859 19.5024 121.247 19.8692C120.637 20.2344 120.067 20.6447 119.35 20.8603C118.832 21.0168 118.359 21.2985 117.801 21.3698C117.696 21.3837 117.609 21.5141 117.502 21.5315C117.032 21.6027 116.559 21.6914 116.084 21.7036C115.119 21.7297 114.151 21.7105 113.186 21.7105L113.188 21.7123Z" fill="#92BCD8"/>
<path d="M136.994 21.7121C136.246 21.7121 135.498 21.7226 134.751 21.7104C133.047 21.6808 131.455 21.2827 129.951 20.5246C128.357 19.7213 127.097 18.6503 126.423 17.0559C126.058 16.1935 125.69 15.3259 125.72 14.3713C125.725 14.18 125.725 14.0549 126.008 14.0566C127.721 14.0688 129.437 14.0688 131.15 14.0566C131.438 14.0549 131.605 14.1592 131.712 14.3904C131.79 14.5626 131.882 14.7312 131.959 14.9033C132.617 16.3621 133.786 16.6125 134.89 16.8629C135.866 17.0854 136.843 17.0507 137.808 16.995C138.76 16.9394 139.729 16.8524 140.603 16.3517C140.927 16.1674 141.224 15.9587 141.409 15.6979C141.525 15.5328 141.806 15.2598 141.606 15.0164C141.348 14.7034 141.402 14.2287 140.863 14.041C140.261 13.8306 139.64 13.5819 139.03 13.5715C138.203 13.5576 137.406 13.3489 136.583 13.3629C135.773 13.375 134.961 13.3872 134.153 13.3594C133.493 13.335 132.834 13.2394 132.174 13.1959C131.553 13.1542 130.999 12.8273 130.365 12.8447C129.639 12.3944 128.692 12.3405 128.075 11.6659C127.781 11.346 127.385 11.1199 127.085 10.76C126.418 9.95325 126.103 9.08389 126.1 8.08935C126.1 7.65468 126.1 7.22 126.1 6.78532C126.094 5.603 126.571 4.62758 127.383 3.70955C128.554 2.38639 130.148 1.77436 131.79 1.2371C132.157 1.11713 132.598 1.09801 133.004 1.02324C133.595 0.913703 134.226 0.938045 134.787 0.811119C135.648 0.614645 136.501 0.628555 137.335 0.696364C138.742 0.812858 140.195 0.762435 141.52 1.35707C142.281 1.27188 142.859 1.74654 143.471 2.01083C144.064 2.26816 144.661 2.63676 145.128 3.13403C145.852 3.90428 146.49 4.718 146.765 5.72123C146.933 6.33673 147.141 6.96093 147.04 7.60947C147.016 7.77117 146.997 8.13282 146.591 7.8355C146.455 7.73639 146.172 7.8042 145.957 7.8042C144.586 7.8042 143.214 7.79899 141.843 7.80594C141.493 7.80594 141.295 7.83028 141.196 7.35909C141.05 6.66361 139.763 5.84816 138.989 5.71428C137.619 5.47607 136.227 5.45869 134.862 5.57692C133.921 5.65864 132.922 5.85859 132.271 6.66883C132.007 6.99744 132.033 7.87375 132.361 8.14499C132.744 7.72248 132.589 8.31712 132.763 8.33451C132.991 8.35711 133.21 8.44231 133.435 8.49969C133.659 8.55706 133.887 8.68051 134.104 8.66313C135.522 8.55533 136.914 8.87873 138.328 8.86134C138.828 8.85612 139.329 8.76397 139.857 8.98479C140.292 9.16735 140.846 9.06651 141.357 9.16735C142.371 9.3673 143.433 9.57595 144.329 10.0628C146.196 11.0765 146.161 11.0591 147.156 12.6604C147.452 13.1368 147.511 13.6602 147.581 14.1418C147.775 15.5154 147.497 16.8524 146.668 18.0295C146.234 18.6451 145.79 19.2432 145.081 19.6883C144.447 20.0847 143.854 20.5559 143.153 20.8341C141.879 21.3366 140.581 21.7834 139.151 21.7208C138.437 21.6895 137.718 21.7156 137.002 21.7156L136.994 21.7121Z" fill="#92BCD8"/>
<path d="M205.787 11.3305V20.5387C205.787 20.7125 205.778 20.8864 205.789 21.0603C205.802 21.2602 205.772 21.3715 205.497 21.3698C203.909 21.3576 202.319 21.3559 200.731 21.3715C200.473 21.375 200.323 21.2707 200.19 21.1124C200.026 20.9177 199.897 20.6986 199.723 20.5126C198.804 19.532 197.835 18.5878 196.963 17.5724C196.361 16.87 195.687 16.2267 195.1 15.5138C194.457 14.7331 193.766 13.9889 193.061 13.2535C192.359 12.5197 191.75 11.7112 191.005 11.0071C190.734 10.7515 190.517 10.4437 190.272 10.1638C190.24 10.129 190.186 10.1116 190.141 10.0856C190.118 10.1342 190.077 10.1829 190.075 10.2333C190.068 10.4646 190.072 10.6958 190.072 10.9288C190.072 14.2306 190.072 17.5307 190.072 20.8325C190.072 21.3611 190.068 21.3645 189.469 21.3645C187.881 21.3663 186.291 21.3663 184.703 21.3645C184.28 21.3645 184.274 21.3576 184.274 20.9316C184.274 16.9361 184.274 12.9388 184.274 8.94322C184.274 6.51077 184.274 4.07831 184.274 1.64586C184.274 1.20423 184.28 1.19901 184.781 1.19901C185.997 1.19554 187.215 1.25465 188.425 1.17815C189.239 1.12599 189.66 1.52763 190.073 2.03707C190.18 2.16921 190.266 2.31526 190.384 2.43697C191.018 3.09247 191.692 3.7184 192.29 4.39997C193.08 5.29541 193.907 6.15781 194.728 7.02716C195.508 7.85131 196.288 8.67894 197.044 9.52221C197.781 10.3464 198.488 11.1879 199.298 11.9529C199.481 12.1268 199.608 12.3528 199.766 12.551C199.801 12.5962 199.852 12.6293 199.897 12.6693C199.926 12.6223 199.981 12.5771 199.983 12.5302C199.992 12.2989 199.986 12.0677 199.986 11.8347V2.01794C199.986 1.84407 199.996 1.6702 199.984 1.49633C199.969 1.2929 200.011 1.18858 200.28 1.19032C202.025 1.20249 203.769 1.19901 205.514 1.1938C205.705 1.1938 205.8 1.23553 205.789 1.42852C205.778 1.63021 205.787 1.83364 205.787 2.03707V11.3305Z" fill="#92BCD8"/>
<path d="M283.204 21.7126C282.488 21.7126 281.765 21.6639 281.055 21.7248C280.069 21.81 279.163 21.4953 278.239 21.3006C277.835 21.2154 277.382 21.191 277.01 20.9076C276.707 20.6764 276.282 20.5859 275.936 20.3964C275.656 20.2434 275.422 19.8974 275.149 19.88C274.649 19.847 274.586 19.454 274.318 19.2419C274.036 19.0159 273.721 18.7899 273.533 18.5012C273.035 17.7466 272.567 16.9694 272.268 16.1227C272.159 15.8149 272.058 15.4967 272.021 15.1768C271.98 14.8343 272.019 14.4848 272.021 14.1388C272.384 14.1127 272.747 14.0675 273.11 14.0658C274.513 14.0571 275.916 14.0588 277.319 14.064C277.828 14.064 277.837 14.071 277.996 14.5422C278.394 15.7245 279.384 16.3609 280.518 16.8147C280.939 16.9833 281.449 16.992 281.923 17.0112C282.669 17.0407 283.423 17.0651 284.166 17.0077C285.097 16.9347 285.989 16.6912 286.867 16.3626C287.479 16.1331 287.69 15.6706 287.886 15.1925C287.954 15.0308 287.83 14.7595 287.714 14.5857C287.578 14.384 287.381 14.1823 287.159 14.0745C286.562 13.7859 285.903 13.6155 285.245 13.5563C283.531 13.4016 281.807 13.4033 280.087 13.3373C278.84 13.2903 277.575 13.1165 276.367 12.6922C275.639 12.4384 275.014 12.0906 274.371 11.6977C273.654 11.2578 273.22 10.6649 272.827 10.0233C272.539 9.5521 272.39 9.0131 272.386 8.45671C272.382 7.79079 272.356 7.12312 272.391 6.4572C272.442 5.53742 272.788 4.70632 273.411 3.98476C273.779 3.55703 274.142 3.15018 274.633 2.8007C275.558 2.13999 276.578 1.70357 277.657 1.38713C278.668 1.09154 279.721 0.948971 280.781 0.811613C281.825 0.677732 282.86 0.644697 283.889 0.695119C285.333 0.766406 286.79 0.900287 288.159 1.38017C289.368 1.80442 290.558 2.28951 291.461 3.19886C292.045 3.7848 292.539 4.4316 292.849 5.18273C292.954 5.4331 293.061 5.68869 293.109 5.9495C293.207 6.46763 293.261 6.99272 293.336 7.51607C293.367 7.73863 293.278 7.81861 293.029 7.80991C292.561 7.79253 292.094 7.8047 291.626 7.8047C290.41 7.8047 289.194 7.77862 287.98 7.82035C287.606 7.83252 287.462 7.64474 287.43 7.42914C287.336 6.82233 286.841 6.49719 286.405 6.18248C286.059 5.93211 285.555 5.87125 285.123 5.71825C284.48 5.49048 283.808 5.54959 283.142 5.54612C282.519 5.54264 281.887 5.48874 281.273 5.56003C280.497 5.65044 279.12 5.9721 278.574 6.64324C278.2 7.10226 278.35 7.86208 278.858 8.19765C279.315 8.49844 279.863 8.46367 280.332 8.67579C281.749 8.5506 283.144 8.87574 284.557 8.85488C286.414 8.8288 288.208 9.20436 289.963 9.73293C290.421 9.87202 290.833 10.1659 291.246 10.418C292.314 11.07 292.857 11.562 293.379 12.6279C293.577 13.0313 293.732 13.4329 293.715 13.8919C293.687 14.5857 293.71 15.2829 293.708 15.9784C293.704 16.9277 293.237 17.7066 292.649 18.4386C292.473 18.6577 292.142 18.7864 292.208 19.1411C292.215 19.1811 292.163 19.2645 292.122 19.275C291.53 19.4262 291.143 19.8748 290.653 20.1704C289.688 20.7494 288.651 21.1336 287.563 21.431C287.054 21.5701 286.556 21.7352 286.008 21.7248C285.073 21.7057 284.137 21.7196 283.202 21.7196L283.204 21.7126Z" fill="#92BCD8"/>
<path d="M42.2888 11.2314V2.10839C42.2888 2.02145 42.2888 1.93452 42.2888 1.84758C42.2926 1.19904 42.2926 1.19731 42.951 1.19557C43.9799 1.19557 45.0069 1.19557 46.0358 1.19557H53.2342C53.5766 1.19557 53.9227 1.16949 54.2612 1.20252C54.5867 1.23382 54.9029 1.12602 55.249 1.29467C55.5184 1.42682 55.928 1.28772 56.2386 1.37987C57.4227 1.73283 58.648 2.00928 59.6301 2.78822C59.7854 2.91167 59.9949 2.97774 60.1352 3.11162C60.3148 3.28549 60.6497 3.26637 60.6665 3.67844C60.6777 3.97228 61.0799 4.26265 61.3268 4.53736C61.8057 5.07115 62.3183 6.49515 62.3146 7.20281C62.3146 7.35755 62.4062 7.5123 62.4455 7.67052C62.4717 7.77832 62.5185 7.90003 62.4885 7.9974C62.2753 8.71548 62.3501 9.49268 62.0602 10.1777C61.7777 10.8489 61.4035 11.5113 60.9359 12.0851C60.4645 12.6641 59.8621 13.1614 59.1699 13.5421C58.6181 13.8464 58.0756 14.1542 57.4208 14.2359C57.1964 14.2637 57.1982 14.4219 57.3161 14.5402C57.6827 14.914 58.0475 15.2861 58.3842 15.6894C59.2822 16.764 60.2587 17.7811 61.0893 18.9078C61.4466 19.3929 61.9142 19.8102 62.337 20.2536C62.4081 20.3266 62.4942 20.3509 62.5054 20.49C62.5278 20.7804 63.1358 20.9438 62.8197 21.2724C62.6737 21.4237 62.2435 21.3576 61.9404 21.3576C60.1651 21.3628 58.388 21.3611 56.6127 21.3611C56.0833 21.3611 56.0889 21.3542 55.7166 20.8882C54.9721 19.958 54.1827 19.0538 53.4812 18.0976C52.7666 17.1221 51.8967 16.251 51.2588 15.2217C50.9969 14.7992 50.5517 14.5541 49.9792 14.5784C49.607 14.5941 49.231 14.5749 48.8568 14.5836C48.4079 14.5941 48.2806 14.7123 48.2788 15.1504C48.2732 16.7431 48.2769 18.3358 48.2769 19.9284C48.2769 20.3057 48.2694 20.6813 48.2806 21.0586C48.2863 21.2568 48.2657 21.3715 47.9907 21.3698C46.1836 21.3576 44.3765 21.3611 42.5694 21.3663C42.3805 21.3663 42.2795 21.3316 42.2907 21.1351C42.3019 20.9334 42.2926 20.73 42.2926 20.5265V11.2314H42.2888ZM51.4926 10.063C52.3326 10.063 53.1725 10.0508 54.0106 10.0682C54.4726 10.0769 54.8636 9.98126 55.2733 9.75175C56.2554 9.2058 56.6819 8.38165 56.3078 7.44622C56.1694 7.09848 55.9991 6.66381 55.6961 6.48993C55.1947 6.20131 54.6466 5.8953 54.0106 5.89356C52.2072 5.88834 50.4039 5.89877 48.6024 5.88486C48.2825 5.88313 48.2676 6.01179 48.2694 6.24478C48.2788 7.40102 48.2956 8.55726 48.2619 9.71176C48.2507 10.0717 48.406 10.0752 48.6959 10.0699C49.6275 10.0578 50.561 10.0647 51.4945 10.0647L51.4926 10.063Z" fill="#92BCD8"/>
<path d="M170.298 21.7123C169.591 21.7123 169.03 21.7088 168.469 21.7123C167.418 21.7192 166.456 21.4289 165.489 21.0585C164.705 20.7577 163.949 20.4587 163.244 20.0066C162.324 19.4172 161.502 18.7721 160.808 17.9341C159.972 16.9239 159.342 15.8563 158.975 14.6357C158.85 14.2167 158.745 13.7959 158.631 13.3769C158.322 12.2468 158.45 11.1027 158.483 9.97079C158.511 8.99711 158.805 8.04777 159.202 7.128C159.821 5.69009 160.734 4.4556 161.963 3.41238C162.993 2.53781 164.239 1.98838 165.453 1.38678C166.43 1.3381 167.29 0.767803 168.295 0.844306C169.025 0.531339 169.803 0.663481 170.553 0.684345C171.615 0.713903 172.663 0.859955 173.696 1.16249C175.415 1.66672 175.695 1.738 177.083 2.58301C178.752 3.59842 179.656 4.52341 180.507 5.92829C181.01 6.76113 181.229 7.67917 181.596 8.55026C181.74 8.89105 181.803 9.30138 181.824 9.67173C181.88 10.6819 181.973 11.7147 181.814 12.7075C181.534 14.4601 180.946 16.1328 179.811 17.6141C178.702 19.059 177.229 20.0536 175.557 20.8395C174.827 21.182 174.031 21.3315 173.254 21.5454C172.227 21.827 171.185 21.6462 170.298 21.7105V21.7123ZM169.99 16.8439C170.549 16.8439 170.955 16.8613 171.357 16.8369C171.554 16.8248 171.741 16.7257 171.933 16.6718C173.512 16.2319 174.584 15.2217 175.271 13.8951C175.66 13.1422 175.763 12.2746 175.854 11.4296C175.909 10.9479 175.71 10.4889 175.69 10.0247C175.667 9.50829 175.452 9.07014 175.286 8.60938C175.194 8.35726 175.044 8.12428 174.912 7.88608C174.768 7.62875 174.425 7.55224 174.32 7.2045C174.251 6.97151 173.834 6.82894 173.576 6.64116C173.503 6.58726 173.454 6.49337 173.376 6.46207C172.573 6.15432 171.847 5.63445 170.905 5.70921C170.74 5.72138 170.568 5.63097 170.396 5.60315C170.22 5.57359 169.971 5.48318 169.874 5.55621C169.466 5.86222 168.903 5.55621 168.523 5.89004C167.083 6.06565 166.194 6.9976 165.395 7.96953C164.789 8.70675 164.585 9.64217 164.456 10.5498C164.32 11.5008 164.539 12.4398 164.819 13.3543C165.09 14.2341 166.069 15.632 166.802 15.9572C167.852 16.4231 168.866 17.0891 169.988 16.8422L169.99 16.8439Z" fill="#92BCD8"/>
<path d="M228.797 11.2435V1.85452C228.797 1.71021 228.806 1.56416 228.795 1.41984C228.78 1.21815 228.894 1.1799 229.077 1.19207C229.233 1.2025 229.39 1.19381 229.545 1.19381H246.007C246.162 1.19381 246.32 1.2025 246.475 1.19207C246.66 1.17816 246.759 1.21815 246.759 1.41984C246.754 2.84037 246.759 4.25915 246.748 5.67968C246.748 5.75096 246.628 5.87094 246.552 5.87963C246.338 5.90745 246.116 5.89006 245.899 5.89006C242.283 5.89006 238.665 5.89006 235.049 5.89006C234.501 5.89006 234.598 5.89354 234.598 6.30387C234.596 7.08629 234.618 7.86871 234.587 8.65113C234.573 8.97453 234.676 9.03017 235.002 9.02843C237.372 9.01452 239.74 9.02147 242.11 9.02147C243.358 9.02147 244.604 9.03017 245.852 9.01452C246.153 9.01104 246.202 9.11363 246.2 9.36226C246.189 10.6959 246.176 12.0294 246.207 13.3613C246.217 13.7212 246.063 13.7212 245.773 13.7212C242.687 13.7142 239.6 13.716 236.513 13.716C235.984 13.716 235.453 13.7212 234.923 13.7125C234.71 13.709 234.579 13.7264 234.59 13.9837C234.63 14.8722 234.645 15.7624 234.669 16.6509C235.571 16.6579 236.47 16.6701 237.372 16.6701C240.333 16.6718 243.297 16.6701 246.258 16.6701C246.778 16.6701 246.759 16.5988 246.757 17.1273C246.754 18.4314 246.748 19.7354 246.763 21.0394C246.767 21.3089 246.675 21.3715 246.396 21.3698C243.465 21.3611 240.535 21.3646 237.604 21.3646C234.83 21.3646 232.054 21.3646 229.279 21.3646C228.802 21.3646 228.797 21.3593 228.797 20.8934C228.797 17.6768 228.797 14.4602 228.797 11.2435Z" fill="#92BCD8"/>
<path d="M21.7113 11.254C21.7113 8.03734 21.7113 4.82247 21.7113 1.60586C21.7113 1.20248 21.7188 1.19727 22.1659 1.19727C27.8397 1.19727 33.5135 1.19727 39.1873 1.19727C39.6644 1.19727 39.6681 1.20248 39.67 1.66846C39.6719 2.94293 39.6737 4.2174 39.67 5.49361C39.67 5.88656 39.6625 5.89178 39.2042 5.89178C35.5264 5.89178 31.8467 5.89178 28.169 5.89178C27.518 5.89178 27.5142 5.89352 27.5124 6.46207C27.5105 7.15756 27.5086 7.85304 27.5124 8.54852C27.5142 9.0145 27.518 9.01971 27.9931 9.01971C29.8956 9.02145 31.7962 9.01971 33.6987 9.01971C35.3824 9.01971 37.066 9.02493 38.7496 9.0145C39.0227 9.01276 39.1219 9.0684 39.1181 9.34311C39.1032 10.675 39.0994 12.0086 39.12 13.3421C39.1256 13.6534 39.0452 13.7264 38.7084 13.7247C36.5272 13.709 34.3441 13.716 32.1629 13.716C30.7281 13.716 29.2951 13.7229 27.8603 13.709C27.5666 13.7055 27.4993 13.7942 27.5049 14.0515C27.5217 14.8044 27.5367 15.559 27.4993 16.3101C27.4824 16.6561 27.6227 16.6787 27.9258 16.677C30.4512 16.6666 32.9766 16.6718 35.5002 16.6718C36.6544 16.6718 37.8068 16.6683 38.961 16.6718C39.5802 16.6752 39.6662 16.7483 39.6681 17.2942C39.6737 18.5409 39.6625 19.7858 39.6756 21.0324C39.6793 21.2915 39.6064 21.3732 39.3183 21.3715C37.1371 21.3611 34.954 21.3663 32.7727 21.3663C29.2502 21.3663 25.7277 21.3663 22.2052 21.3663C21.6459 21.3663 21.7113 21.3958 21.7113 20.9038C21.7113 17.6872 21.7113 14.4723 21.7113 11.2557V11.254Z" fill="#92BCD8"/>
<path d="M0.0112672 11.1671C0.0112672 7.95221 0.0112672 4.73734 0.0112672 1.52247C0.0112672 1.16777 0.0150085 1.17125 0.477069 1.19385C0.69407 1.20428 0.912941 1.19559 1.13181 1.19559H10.2945C10.8239 1.19559 11.357 1.16603 11.8827 1.20428C12.3878 1.24079 12.8779 1.36772 13.3942 1.39206C13.9049 1.4164 14.4306 1.56593 14.9057 1.75545C15.8411 2.12927 16.7502 2.57091 17.5415 3.16902C17.9306 3.46286 18.2636 3.85929 18.5143 4.26441C18.8435 4.79645 19.1859 5.33719 19.3879 5.92314C19.5394 6.36303 19.6068 6.8377 19.6404 7.30019C19.6816 7.87745 19.646 8.45817 19.6517 9.03716C19.661 10.1256 19.1728 11.4366 18.4544 12.4885C17.8221 13.4135 16.9373 14.0933 15.9252 14.5558C15.0011 14.9766 14.0265 15.3243 12.9658 15.4756C10.9006 15.7694 8.83719 15.5347 6.77569 15.6251C6.55869 15.6338 6.33795 15.639 6.12095 15.6234C5.88524 15.606 5.7917 15.6738 5.80293 15.9085C5.82164 16.3137 5.80854 16.7188 5.80854 17.1256C5.80854 18.4297 5.80106 19.732 5.81415 21.036C5.81789 21.3003 5.73745 21.3733 5.45311 21.3716C3.76949 21.3594 2.08773 21.3542 0.404112 21.375C0.0561638 21.3785 -0.00182769 21.2881 4.30039e-05 20.9873C0.0150085 18.873 0.00752577 16.7588 0.00752577 14.6445V11.1688L0.0112672 11.1671ZM5.81041 8.4547C5.81041 9.15018 5.81041 9.84566 5.81041 10.5411C5.81228 11.1027 5.81415 11.1045 6.3791 11.1062C7.78212 11.108 9.18514 11.0975 10.5863 11.1132C10.9847 11.1167 11.3495 11.0488 11.7255 10.9393C13.0182 10.5655 13.8001 9.59181 13.6692 8.49816C13.6449 8.29821 13.6505 8.09131 13.6692 7.88962C13.6991 7.55926 13.5308 7.30019 13.3306 7.06373C13.1585 6.8603 12.9359 6.69512 12.7413 6.5056C12.3316 6.1057 11.7798 5.9214 11.2392 5.90575C9.52561 5.8588 7.81205 5.89532 6.09663 5.88141C5.81789 5.87967 5.8048 5.99616 5.80667 6.19264C5.81415 6.9455 5.80854 7.69836 5.80854 8.45296L5.81041 8.4547Z" fill="#92BCD8"/>
<path d="M209.155 11.2765C209.155 8.06164 209.155 4.84677 209.155 1.63189C209.155 1.20243 209.16 1.19722 209.579 1.19548C211.354 1.192 213.132 1.192 214.907 1.19548C215.32 1.19548 215.326 1.20243 215.326 1.63711C215.326 6.06734 215.326 10.4993 215.326 14.9295C215.326 15.2199 215.326 15.5085 215.326 15.7989C215.326 16.4926 215.326 16.4944 216.035 16.4944C219.4 16.4944 222.766 16.4944 226.131 16.4944C226.35 16.4944 226.567 16.5031 226.786 16.4926C226.999 16.4822 227.122 16.5065 227.119 16.7639C227.106 18.2122 227.109 19.6606 227.115 21.1072C227.115 21.2828 227.076 21.3784 226.864 21.3645C226.709 21.3541 226.554 21.3628 226.397 21.3628H209.85C209.819 21.3628 209.789 21.3628 209.757 21.3628C209.156 21.3575 209.153 21.3575 209.153 20.8325C209.153 19.2694 209.153 17.7045 209.153 16.1414V11.2765H209.155Z" fill="#92BCD8"/>
<path d="M156.214 11.28C156.214 14.4653 156.214 17.6524 156.214 20.8377C156.214 21.3593 156.21 21.3628 155.7 21.3645C154.048 21.3662 152.396 21.3662 150.746 21.3645C150.235 21.3645 150.232 21.3593 150.23 20.8377C150.23 17.1012 150.23 13.3664 150.23 9.62996C150.23 6.99408 150.23 4.3582 150.23 1.72406C150.23 1.20244 150.233 1.19897 150.744 1.19723C152.396 1.19549 154.048 1.19549 155.698 1.19723C156.208 1.19723 156.212 1.20244 156.214 1.72406C156.214 4.90937 156.214 8.09642 156.214 11.2817V11.28Z" fill="#92BCD8"/>
<path d="M93.7329 11.2818C93.7329 8.09645 93.7329 4.9094 93.7329 1.72409C93.7329 1.20073 93.7366 1.19552 94.2455 1.19552C95.8973 1.19378 97.5491 1.19378 99.1991 1.19552C99.7135 1.19552 99.7173 1.20073 99.7173 1.71887C99.7173 5.57011 99.7173 9.42309 99.7173 13.2743C99.7173 15.7937 99.7173 18.3131 99.7173 20.8325C99.7173 21.3558 99.7135 21.3611 99.2047 21.3611C97.5529 21.3628 95.901 21.3628 94.2511 21.3611C93.7366 21.3611 93.7329 21.3558 93.7329 20.8377C93.7329 17.6524 93.7329 14.4653 93.7329 11.28V11.2818Z" fill="#92BCD8"/>
<path d="M103.247 3.17134C103.225 3.20821 103.202 3.24682 103.18 3.28368C103.159 3.26437 103.118 3.2398 103.122 3.22576C103.131 3.18363 103.159 3.14677 103.18 3.10815L103.247 3.17134Z" fill="#92BCD8"/>
<path d="M278.959 7.34407L279.027 7.28088C279.047 7.3195 279.075 7.35812 279.085 7.39849C279.088 7.41253 279.047 7.4371 279.027 7.45641L278.959 7.34407Z" fill="#92BCD8"/>
<path d="M291.626 10.1753C291.602 10.1981 291.581 10.2175 291.559 10.2385C291.538 10.1999 291.51 10.1613 291.501 10.1209C291.497 10.1069 291.538 10.0823 291.559 10.063C291.581 10.1016 291.603 10.1385 291.626 10.1753Z" fill="#92BCD8"/>
<path d="M263.498 14.4097C263.519 14.4483 263.547 14.4869 263.556 14.5273C263.56 14.5413 263.519 14.5659 263.498 14.5852C263.478 14.5466 263.449 14.508 263.44 14.4676C263.436 14.4536 263.478 14.429 263.498 14.4097Z" fill="#92BCD8"/>
<path d="M116.529 16.0868L116.462 16.15C116.441 16.1114 116.413 16.0728 116.404 16.0324C116.4 16.0184 116.441 15.9938 116.462 15.9745L116.529 16.0868Z" fill="#92BCD8"/>
<path d="M180.331 17.2933C180.308 17.3144 180.279 17.3513 180.271 17.3477C180.23 17.3267 180.196 17.2968 180.159 17.2705C180.187 17.2442 180.215 17.2179 180.243 17.1915L180.331 17.2933Z" fill="#92BCD8"/>
<path d="M62.6007 20.1614C62.6231 20.1824 62.6624 20.2105 62.6587 20.2175C62.6362 20.2562 62.6044 20.2878 62.5764 20.3229C62.5483 20.2965 62.5202 20.2702 62.4922 20.2439C62.5277 20.2158 62.5651 20.1877 62.6007 20.1614Z" fill="#92BCD8"/>
<path d="M174.36 7.53394C174.322 7.56027 174.287 7.58836 174.249 7.61469C174.238 7.57783 174.206 7.51639 174.218 7.50761C174.257 7.47953 174.311 7.47075 174.36 7.45496C174.36 7.48129 174.36 7.50761 174.36 7.53394Z" fill="#92BCD8"/>
</svg>
