<svg width="294" height="22" viewBox="0 0 294 22" fill="none" xmlns="http://www.w3.org/2000/svg">
<path d="M90.3657 11.3687C90.3657 14.5557 90.3657 17.741 90.3657 20.9281C90.3657 21.3558 90.3601 21.3627 89.9392 21.3627C88.2257 21.3662 86.5102 21.3662 84.7967 21.3627C84.3851 21.3627 84.3795 21.3558 84.3795 20.9194C84.3776 19.1528 84.3795 17.3863 84.3795 15.6181C84.3795 14.0254 84.3795 12.431 84.3758 10.8383C84.3758 10.7601 84.3327 10.6819 84.3084 10.6054C84.243 10.6523 84.1625 10.6888 84.112 10.7479C83.6368 11.3165 83.1598 11.885 82.6959 12.4623C82.2338 13.0361 81.798 13.6255 81.3284 14.1923C81.1114 14.4549 80.7429 14.627 80.8046 15.0356C80.2883 15.0808 80.2603 15.5781 79.9647 15.8319C79.7496 16.0145 79.6523 16.3727 79.4166 16.4631C79.1247 16.5761 78.745 16.4944 78.4027 16.4961C77.9032 16.4961 77.3981 16.4492 76.908 16.5083C76.3318 16.5778 75.9502 16.3327 75.6602 15.9467C75.1944 15.326 74.708 14.7278 74.1375 14.1871C73.7652 13.8324 73.5744 13.356 73.2358 12.963C72.8467 12.5145 72.4277 12.078 72.0816 11.5929C71.902 11.3391 71.6906 11.1044 71.4886 10.8662C71.4568 10.8279 71.4025 10.807 71.3576 10.7792C71.3333 10.8279 71.2884 10.8749 71.2865 10.9253C71.2791 11.1565 71.2828 11.3878 71.2828 11.6208C71.2828 14.7209 71.2828 17.8193 71.2828 20.9194C71.2828 21.3627 71.2772 21.3662 70.7777 21.368C69.0941 21.3697 67.4123 21.3697 65.7287 21.368C65.3041 21.368 65.2985 21.361 65.2985 20.9368C65.2985 17.6923 65.2985 14.4479 65.2985 11.2052C65.2985 7.96252 65.2985 4.89022 65.2985 1.73273C65.2985 1.20416 65.3022 1.20069 65.9008 1.20069C67.3338 1.19895 68.7686 1.19895 70.2015 1.20069C70.4597 1.20069 70.7777 1.12418 70.7889 1.52235C72.0666 2.91331 73.1947 4.41208 74.3638 5.87955C75.0597 6.75064 75.8248 7.57479 76.5338 8.43545C76.9267 8.91186 77.2933 9.4126 77.6319 9.92552C77.7423 10.0907 77.7797 10.0507 77.8583 9.94987C77.9967 9.77426 78.1146 9.58126 78.2586 9.41087C78.7375 8.84057 79.2332 8.28071 79.7084 7.70867C80.0713 7.27225 80.3856 6.79933 80.7766 6.38551C81.1526 5.98735 81.4425 5.54224 81.7699 5.11626C82.2582 4.48163 82.853 3.91829 83.3357 3.28018C83.7959 2.67163 84.4431 2.19523 84.7574 1.48409C84.8565 1.2598 85.081 1.19199 85.3598 1.19373C86.918 1.20764 88.4763 1.20938 90.0346 1.19373C90.3582 1.19025 90.3676 1.32413 90.3676 1.55538C90.362 4.82763 90.3639 8.10162 90.3639 11.3739L90.3657 11.3687Z" fill="#fff1e2"/>
<path d="M259.673 21.7123C258.924 21.7123 258.174 21.6828 257.43 21.7193C256.244 21.7766 255.157 21.4098 254.053 21.1038C252.366 20.6361 251.045 19.6676 249.902 18.4609C249.488 18.0245 248.781 16.4579 248.615 15.8268C248.491 15.3591 248.45 14.8966 248.426 14.4184C248.407 14.062 248.566 14.055 248.86 14.0568C250.48 14.0672 252.102 14.0603 253.722 14.0637C254.225 14.0637 254.225 14.0724 254.427 14.6027C254.867 15.759 256.167 16.6179 257.461 16.87C258.537 17.0804 259.607 17.0543 260.66 16.9848C261.571 16.9239 262.499 16.7692 263.358 16.3432C263.902 16.0737 264.102 15.6616 264.31 15.213C264.402 15.0131 264.052 14.3454 263.824 14.2376C262.952 13.8255 262.05 13.596 261.051 13.5091C259.454 13.37 257.852 13.4569 256.266 13.3352C255.419 13.2691 254.526 13.2535 253.711 13.0049C251.823 12.4276 249.982 11.7513 249.187 9.81607C248.869 9.70305 249.109 9.37618 248.931 9.22143C248.705 9.02496 248.864 8.78502 248.815 8.56942C248.75 8.27558 248.637 7.97999 248.637 7.68615C248.634 6.86722 248.839 5.30934 249.561 4.39478C249.977 3.86795 250.241 3.23158 250.942 2.92557C251.206 2.81081 251.419 2.59174 251.649 2.41265C252.36 1.85974 253.247 1.64588 254.09 1.38681C255.067 1.08775 256.09 0.941703 257.119 0.809561C257.817 0.720887 258.505 0.68959 259.197 0.679158C261.19 0.647861 260.984 0.642645 264.31 1.37116C265.707 1.67718 266.865 2.24226 267.694 3.00903C268.749 3.98792 269.415 5.13721 269.608 6.53861C269.651 6.85505 269.771 7.18019 269.761 7.51228C269.752 7.85133 269.722 7.85307 269.243 7.80612C269.028 7.78526 268.807 7.80265 268.588 7.80265C267.092 7.80265 265.595 7.79917 264.1 7.80612C263.878 7.80612 263.773 7.77483 263.771 7.52793C263.767 7.02023 263.517 6.63945 263.01 6.40646C262.827 6.32127 262.682 6.16826 262.505 6.06742C262.284 5.94049 262.037 5.72489 261.82 5.74228C261.317 5.78227 260.888 5.5232 260.402 5.53537C259.56 5.55624 258.715 5.48843 257.879 5.5545C256.945 5.62752 256.036 5.79618 255.248 6.38038C254.992 6.5699 254.878 6.7629 254.811 6.99415C254.749 7.20975 254.768 7.45838 254.807 7.68441C254.833 7.83568 254.919 8.03911 255.046 8.1017C255.609 8.38338 256.223 8.67374 256.848 8.64592C258.268 8.58333 259.661 8.93802 261.072 8.83196C261.846 8.77285 262.581 8.96236 263.33 9.04061C264.013 9.11189 264.735 9.16058 265.35 9.52397C266.517 9.58656 267.473 10.1864 268.326 10.7897C269.312 11.487 270.019 12.4798 270.141 13.7177C270.162 13.9299 270.283 14.1298 270.315 14.3419C270.347 14.5401 270.321 14.747 270.322 14.9487C270.334 16.0719 269.993 17.1308 269.355 18.0471C268.951 18.6278 268.59 19.3285 267.808 19.6224C267.464 20.1179 266.834 20.2483 266.36 20.5822C265.76 21.0047 264.985 21.1246 264.278 21.3524C263.517 21.5976 262.737 21.7627 261.912 21.7175C261.167 21.6758 260.417 21.7088 259.669 21.7088L259.673 21.7123Z" fill="#fff1e2"/>
<path d="M113.188 21.7122C112.533 21.7122 111.877 21.6827 111.224 21.7192C110.006 21.787 108.885 21.4288 107.759 21.095C106.224 20.6395 104.892 19.8466 103.893 18.6869C103.114 17.7845 102.437 16.7795 102.334 15.5572C102.325 15.4546 102.233 15.3573 102.224 15.2547C102.19 14.8878 102.173 14.5192 102.151 14.1523C102.48 14.1228 102.808 14.0689 103.137 14.0671C104.57 14.0585 106.005 14.0689 107.438 14.0585C107.808 14.055 108.038 14.1141 108.182 14.5053C108.281 14.7765 108.392 15.0878 108.543 15.3138C108.807 15.7085 109.224 16.0458 109.649 16.3083C110.156 16.6213 110.76 16.7326 111.362 16.8734C112.343 17.1012 113.319 17.0456 114.282 16.9917C115.203 16.9412 116.155 16.8334 116.982 16.3605C117.182 16.2457 117.397 16.1397 117.562 15.9884C118.241 15.3607 118.125 14.7748 117.375 14.1889C116.785 13.7281 116.069 13.6064 115.412 13.5803C114.559 13.5455 113.731 13.3334 112.874 13.3612C112.002 13.389 111.128 13.3769 110.257 13.3647C109.656 13.356 109.08 13.1717 108.465 13.1717C107.892 13.1717 107.352 12.8361 106.749 12.8466C105.745 12.3493 104.62 12.0468 103.833 11.2018C103.055 10.3654 102.592 9.42132 102.523 8.31376C102.512 8.12424 102.6 7.91907 102.392 7.75216C102.325 7.69826 102.316 7.53134 102.346 7.43223C102.647 6.42031 102.529 5.30927 103.251 4.38602C103.429 4.15825 103.706 3.98612 103.797 3.73574C103.898 3.46276 104.027 3.29759 104.33 3.2576C104.355 3.25412 104.379 3.22108 104.396 3.19848C104.903 2.48909 105.765 2.21785 106.495 1.81099C107.075 1.48933 107.791 1.35719 108.463 1.20766C109.299 1.02162 110.165 0.945114 111.009 0.809495C112.086 0.635624 113.154 0.637363 114.209 0.703434C115.584 0.790369 116.982 0.91034 118.295 1.37284C119.689 1.86315 121 2.47865 121.997 3.55665C122.527 4.13043 123.136 5.34752 123.29 6.18558C123.37 6.622 123.563 7.04103 123.484 7.50352C123.428 7.84605 123.432 7.85474 122.966 7.80606C122.751 7.78345 122.53 7.80258 122.311 7.80258C120.908 7.80258 119.505 7.77302 118.106 7.82171C117.702 7.83562 117.616 7.59915 117.56 7.41311C117.255 6.39249 116.393 5.94912 115.429 5.74569C114.769 5.60659 114.077 5.46402 113.362 5.52835C112.683 5.5892 111.976 5.45185 111.312 5.56312C110.367 5.71961 109.379 5.85175 108.712 6.64982C108.334 7.10188 108.509 7.85474 109.009 8.20422C109.469 8.52414 110.032 8.42504 110.489 8.67193C111.998 8.54501 113.484 8.87536 114.991 8.85971C116.509 8.84407 117.996 9.13269 119.449 9.54303C120.491 9.83687 121.455 10.3011 122.27 10.9601C123.136 11.6608 123.6 12.5892 123.879 13.6394C124.059 14.3227 124.115 15.0043 124.01 15.6546C123.849 16.6683 123.475 17.6298 122.774 18.4782C122.328 19.0172 121.859 19.5023 121.247 19.8692C120.637 20.2343 120.067 20.6447 119.35 20.8603C118.832 21.0168 118.359 21.2984 117.801 21.3697C117.696 21.3836 117.609 21.514 117.502 21.5314C117.032 21.6027 116.559 21.6914 116.084 21.7036C115.119 21.7296 114.151 21.7105 113.186 21.7105L113.188 21.7122Z" fill="#fff1e2"/>
<path d="M136.994 21.7121C136.246 21.7121 135.498 21.7225 134.751 21.7104C133.047 21.6808 131.455 21.2827 129.951 20.5246C128.357 19.7213 127.097 18.6503 126.423 17.0559C126.058 16.1935 125.69 15.3258 125.72 14.3713C125.725 14.18 125.725 14.0548 126.008 14.0566C127.721 14.0688 129.437 14.0688 131.15 14.0566C131.438 14.0548 131.605 14.1592 131.712 14.3904C131.79 14.5625 131.882 14.7312 131.958 14.9033C132.617 16.3621 133.786 16.6125 134.89 16.8629C135.866 17.0854 136.843 17.0506 137.808 16.995C138.76 16.9394 139.729 16.8524 140.603 16.3517C140.927 16.1674 141.224 15.9587 141.409 15.6979C141.525 15.5327 141.806 15.2598 141.606 15.0164C141.347 14.7034 141.402 14.2287 140.863 14.0409C140.261 13.8306 139.64 13.5819 139.03 13.5715C138.203 13.5576 137.406 13.3489 136.583 13.3628C135.773 13.375 134.961 13.3872 134.153 13.3594C133.492 13.335 132.834 13.2394 132.174 13.1959C131.553 13.1542 130.999 12.8273 130.365 12.8447C129.639 12.3944 128.692 12.3405 128.075 11.6659C127.781 11.3459 127.385 11.1199 127.085 10.76C126.417 9.95323 126.103 9.08388 126.099 8.08934C126.099 7.65466 126.099 7.21998 126.099 6.78531C126.094 5.60298 126.571 4.62757 127.383 3.70953C128.554 2.38637 130.148 1.77435 131.79 1.23709C132.157 1.11712 132.598 1.09799 133.004 1.02323C133.595 0.913688 134.226 0.93803 134.787 0.811104C135.647 0.61463 136.501 0.628539 137.335 0.696349C138.742 0.812842 140.195 0.76242 141.52 1.35706C142.281 1.27186 142.859 1.74653 143.471 2.01081C144.064 2.26814 144.66 2.63675 145.128 3.13402C145.852 3.90427 146.49 4.71798 146.765 5.72122C146.933 6.33672 147.141 6.96091 147.04 7.60945C147.016 7.77115 146.997 8.1328 146.591 7.83548C146.454 7.73638 146.172 7.80419 145.957 7.80419C144.586 7.80419 143.214 7.79897 141.843 7.80593C141.493 7.80593 141.295 7.83027 141.196 7.35908C141.05 6.6636 139.763 5.84814 138.989 5.71426C137.619 5.47606 136.227 5.45867 134.862 5.5769C133.921 5.65862 132.922 5.85857 132.271 6.66881C132.007 6.99743 132.033 7.87374 132.361 8.14498C132.744 7.72247 132.589 8.31711 132.763 8.33449C132.991 8.3571 133.21 8.44229 133.434 8.49967C133.659 8.55705 133.887 8.6805 134.104 8.66311C135.522 8.55531 136.914 8.87871 138.328 8.86132C138.828 8.85611 139.329 8.76396 139.857 8.98477C140.292 9.16734 140.846 9.06649 141.357 9.16734C142.371 9.36729 143.433 9.57593 144.329 10.0628C146.196 11.0764 146.161 11.0591 147.156 12.6604C147.452 13.1368 147.511 13.6602 147.581 14.1418C147.775 15.5154 147.496 16.8524 146.668 18.0295C146.234 18.645 145.79 19.2432 145.081 19.6883C144.447 20.0847 143.854 20.5559 143.153 20.8341C141.879 21.3366 140.58 21.7834 139.151 21.7208C138.437 21.6895 137.718 21.7156 137.002 21.7156L136.994 21.7121Z" fill="#fff1e2"/>
<path d="M205.787 11.3305V20.5387C205.787 20.7125 205.778 20.8864 205.789 21.0603C205.802 21.2602 205.772 21.3715 205.497 21.3698C203.909 21.3576 202.319 21.3559 200.731 21.3715C200.473 21.375 200.323 21.2707 200.19 21.1124C200.026 20.9177 199.897 20.6986 199.723 20.5126C198.804 19.532 197.835 18.5878 196.963 17.5724C196.361 16.87 195.688 16.2267 195.1 15.5138C194.457 14.7331 193.766 13.9889 193.061 13.2535C192.36 12.5197 191.75 11.7112 191.005 11.0071C190.734 10.7515 190.517 10.4437 190.272 10.1638C190.24 10.129 190.186 10.1116 190.141 10.0856C190.118 10.1342 190.077 10.1829 190.075 10.2333C190.068 10.4646 190.072 10.6958 190.072 10.9288C190.072 14.2306 190.072 17.5307 190.072 20.8325C190.072 21.3611 190.068 21.3646 189.469 21.3646C187.881 21.3663 186.291 21.3663 184.703 21.3646C184.28 21.3646 184.274 21.3576 184.274 20.9316C184.274 16.9361 184.274 12.9388 184.274 8.94322C184.274 6.51077 184.274 4.07831 184.274 1.64586C184.274 1.20423 184.28 1.19901 184.781 1.19901C185.997 1.19554 187.215 1.25465 188.425 1.17815C189.239 1.12599 189.66 1.52763 190.074 2.03707C190.18 2.16921 190.266 2.31526 190.384 2.43697C191.018 3.09247 191.692 3.7184 192.29 4.39997C193.08 5.29541 193.907 6.15781 194.728 7.02716C195.508 7.85131 196.288 8.67894 197.044 9.52221C197.781 10.3464 198.488 11.1879 199.298 11.9529C199.481 12.1268 199.608 12.3528 199.766 12.551C199.801 12.5962 199.852 12.6293 199.897 12.6693C199.927 12.6223 199.981 12.5771 199.983 12.5302C199.992 12.2989 199.986 12.0677 199.986 11.8347V2.01794C199.986 1.84407 199.996 1.6702 199.984 1.49633C199.97 1.2929 200.011 1.18858 200.28 1.19032C202.025 1.20249 203.769 1.19901 205.514 1.1938C205.705 1.1938 205.8 1.23553 205.789 1.42852C205.778 1.63021 205.787 1.83364 205.787 2.03707V11.3305Z" fill="#fff1e2"/>
<path d="M283.204 21.7127C282.488 21.7127 281.765 21.664 281.055 21.7248C280.069 21.81 279.163 21.4953 278.239 21.3006C277.835 21.2154 277.382 21.1911 277.01 20.9077C276.707 20.6764 276.282 20.586 275.936 20.3965C275.656 20.2435 275.422 19.8975 275.149 19.8801C274.649 19.847 274.586 19.4541 274.318 19.242C274.036 19.0159 273.722 18.7899 273.533 18.5013C273.035 17.7467 272.567 16.9695 272.268 16.1227C272.159 15.815 272.058 15.4968 272.021 15.1769C271.98 14.8343 272.019 14.4849 272.021 14.1389C272.384 14.1128 272.747 14.0676 273.11 14.0658C274.513 14.0571 275.916 14.0589 277.319 14.0641C277.828 14.0641 277.837 14.071 277.996 14.5422C278.394 15.7246 279.384 16.3609 280.518 16.8147C280.939 16.9834 281.449 16.9921 281.923 17.0112C282.669 17.0408 283.423 17.0651 284.166 17.0077C285.097 16.9347 285.989 16.6913 286.867 16.3627C287.479 16.1332 287.69 15.6707 287.886 15.1925C287.954 15.0308 287.83 14.7596 287.714 14.5857C287.578 14.384 287.381 14.1823 287.159 14.0745C286.562 13.7859 285.903 13.6155 285.245 13.5564C283.531 13.4016 281.807 13.4034 280.087 13.3373C278.84 13.2904 277.575 13.1165 276.367 12.6923C275.639 12.4384 275.014 12.0907 274.371 11.6977C273.654 11.2578 273.22 10.6649 272.827 10.0233C272.539 9.55215 272.39 9.01315 272.386 8.45676C272.382 7.79083 272.356 7.12317 272.391 6.45724C272.442 5.53747 272.788 4.70637 273.411 3.9848C273.779 3.55708 274.142 3.15022 274.633 2.80074C275.559 2.14003 276.578 1.70362 277.657 1.38717C278.668 1.09159 279.721 0.949016 280.781 0.811658C281.825 0.677778 282.86 0.644742 283.889 0.695165C285.333 0.766452 286.79 0.900333 288.159 1.38022C289.368 1.80446 290.558 2.28956 291.461 3.19891C292.045 3.78485 292.539 4.43165 292.849 5.18277C292.954 5.43315 293.061 5.68874 293.109 5.94954C293.207 6.46768 293.261 6.99277 293.336 7.51612C293.368 7.73867 293.278 7.81865 293.029 7.80996C292.561 7.79257 292.094 7.80474 291.626 7.80474C290.41 7.80474 289.194 7.77866 287.98 7.82039C287.606 7.83256 287.462 7.64478 287.43 7.42918C287.336 6.82237 286.841 6.49724 286.405 6.18253C286.059 5.93215 285.555 5.8713 285.123 5.71829C284.48 5.49052 283.808 5.54964 283.142 5.54616C282.519 5.54268 281.887 5.48878 281.273 5.56007C280.497 5.65048 279.12 5.97215 278.574 6.64329C278.2 7.10231 278.35 7.86212 278.858 8.19769C279.315 8.49849 279.863 8.46371 280.333 8.67584C281.749 8.55065 283.144 8.87579 284.557 8.85492C286.414 8.82884 288.208 9.2044 289.963 9.73297C290.421 9.87207 290.833 10.1659 291.246 10.418C292.314 11.07 292.857 11.5621 293.379 12.6279C293.577 13.0313 293.732 13.4329 293.715 13.892C293.687 14.5857 293.71 15.2829 293.708 15.9784C293.704 16.9277 293.237 17.7067 292.649 18.4387C292.473 18.6578 292.142 18.7864 292.208 19.1411C292.215 19.1811 292.163 19.2646 292.122 19.275C291.53 19.4263 291.143 19.8749 290.653 20.1704C289.688 20.7494 288.651 21.1337 287.563 21.431C287.054 21.5701 286.556 21.7353 286.008 21.7248C285.073 21.7057 284.138 21.7196 283.202 21.7196L283.204 21.7127Z" fill="#fff1e2"/>
<path d="M42.2888 11.2314V2.10836C42.2888 2.02142 42.2888 1.93449 42.2888 1.84755C42.2926 1.19901 42.2926 1.19728 42.951 1.19554C43.9799 1.19554 45.0069 1.19554 46.0358 1.19554H53.2342C53.5766 1.19554 53.9227 1.16946 54.2612 1.20249C54.5867 1.23379 54.9029 1.12599 55.249 1.29464C55.5184 1.42678 55.928 1.28769 56.2386 1.37984C57.4227 1.7328 58.648 2.00925 59.6301 2.78819C59.7854 2.91164 59.9949 2.97771 60.1352 3.11159C60.3148 3.28546 60.6497 3.26634 60.6665 3.67841C60.6777 3.97225 61.0799 4.26262 61.3268 4.53733C61.8057 5.07112 62.3183 6.49512 62.3146 7.20277C62.3146 7.35752 62.4062 7.51226 62.4455 7.67049C62.4717 7.77829 62.5185 7.9 62.4885 7.99736C62.2753 8.71545 62.3501 9.49265 62.0602 10.1777C61.7777 10.8488 61.4035 11.5113 60.9359 12.0851C60.4645 12.6641 59.8621 13.1613 59.1699 13.5421C58.6181 13.8464 58.0756 14.1541 57.4208 14.2359C57.1964 14.2637 57.1982 14.4219 57.3161 14.5401C57.6827 14.9139 58.0475 15.286 58.3842 15.6894C59.2822 16.7639 60.2587 17.7811 61.0893 18.9078C61.4466 19.3929 61.9142 19.8101 62.337 20.2535C62.4081 20.3265 62.4942 20.3509 62.5054 20.49C62.5278 20.7803 63.1358 20.9438 62.8197 21.2724C62.6737 21.4237 62.2435 21.3576 61.9404 21.3576C60.1651 21.3628 58.388 21.3611 56.6127 21.3611C56.0833 21.3611 56.0889 21.3541 55.7166 20.8881C54.9721 19.9579 54.1827 19.0538 53.4812 18.0975C52.7666 17.1221 51.8967 16.251 51.2588 15.2217C50.9969 14.7992 50.5517 14.554 49.9792 14.5784C49.607 14.594 49.231 14.5749 48.8568 14.5836C48.4079 14.594 48.2806 14.7123 48.2788 15.1504C48.2732 16.7431 48.2769 18.3357 48.2769 19.9284C48.2769 20.3057 48.2694 20.6812 48.2806 21.0585C48.2863 21.2568 48.2657 21.3715 47.9907 21.3698C46.1836 21.3576 44.3765 21.3611 42.5694 21.3663C42.3805 21.3663 42.2795 21.3315 42.2907 21.135C42.3019 20.9334 42.2926 20.7299 42.2926 20.5265V11.2314H42.2888ZM51.4926 10.063C52.3326 10.063 53.1725 10.0508 54.0106 10.0682C54.4726 10.0769 54.8636 9.98123 55.2733 9.75172C56.2554 9.20577 56.6819 8.38162 56.3078 7.44619C56.1694 7.09845 55.9991 6.66377 55.6961 6.4899C55.1947 6.20128 54.6466 5.89527 54.0106 5.89353C52.2072 5.88831 50.4039 5.89874 48.6024 5.88483C48.2825 5.88309 48.2676 6.01176 48.2694 6.24475C48.2788 7.40099 48.2956 8.55723 48.2619 9.71173C48.2507 10.0716 48.406 10.0751 48.6959 10.0699C49.6275 10.0577 50.561 10.0647 51.4945 10.0647L51.4926 10.063Z" fill="#fff1e2"/>
<path d="M170.298 21.7123C169.591 21.7123 169.03 21.7088 168.469 21.7123C167.418 21.7192 166.456 21.4289 165.489 21.0585C164.705 20.7577 163.949 20.4587 163.244 20.0066C162.324 19.4172 161.502 18.7721 160.808 17.9341C159.972 16.9239 159.342 15.8563 158.975 14.6357C158.85 14.2167 158.745 13.7959 158.631 13.3769C158.322 12.2468 158.45 11.1027 158.483 9.97079C158.511 8.99711 158.805 8.04777 159.202 7.128C159.821 5.69009 160.734 4.4556 161.963 3.41238C162.993 2.53781 164.239 1.98838 165.453 1.38678C166.43 1.3381 167.29 0.767803 168.295 0.844306C169.025 0.531339 169.803 0.663481 170.553 0.684345C171.615 0.713903 172.663 0.859955 173.696 1.16249C175.415 1.66672 175.695 1.738 177.083 2.58301C178.752 3.59842 179.656 4.52341 180.507 5.92829C181.01 6.76113 181.229 7.67917 181.596 8.55026C181.74 8.89105 181.803 9.30138 181.824 9.67173C181.88 10.6819 181.973 11.7147 181.814 12.7075C181.534 14.4601 180.946 16.1328 179.811 17.6141C178.702 19.059 177.229 20.0536 175.557 20.8395C174.827 21.182 174.031 21.3315 173.254 21.5454C172.227 21.827 171.185 21.6462 170.298 21.7105V21.7123ZM169.99 16.8439C170.549 16.8439 170.955 16.8613 171.357 16.8369C171.554 16.8248 171.741 16.7257 171.933 16.6718C173.512 16.2319 174.584 15.2217 175.271 13.8951C175.66 13.1422 175.763 12.2746 175.854 11.4296C175.909 10.9479 175.71 10.4889 175.69 10.0247C175.667 9.50829 175.452 9.07014 175.286 8.60938C175.194 8.35727 175.044 8.12428 174.912 7.88608C174.768 7.62875 174.425 7.55224 174.32 7.2045C174.251 6.97151 173.834 6.82894 173.576 6.64116C173.503 6.58726 173.454 6.49337 173.376 6.46207C172.573 6.15432 171.847 5.63445 170.905 5.70921C170.74 5.72138 170.568 5.63097 170.396 5.60315C170.22 5.57359 169.971 5.48318 169.874 5.55621C169.466 5.86222 168.903 5.55621 168.523 5.89004C167.083 6.06565 166.194 6.9976 165.395 7.96953C164.789 8.70675 164.585 9.64217 164.456 10.5498C164.32 11.5008 164.539 12.4398 164.819 13.3543C165.09 14.2341 166.069 15.632 166.802 15.9572C167.852 16.4231 168.866 17.0891 169.988 16.8422L169.99 16.8439Z" fill="#fff1e2"/>
<path d="M228.797 11.2436V1.85455C228.797 1.71024 228.806 1.56419 228.795 1.41987C228.78 1.21818 228.894 1.17993 229.077 1.1921C229.233 1.20253 229.39 1.19384 229.545 1.19384H246.007C246.162 1.19384 246.32 1.20253 246.475 1.1921C246.66 1.17819 246.759 1.21818 246.759 1.41987C246.754 2.8404 246.759 4.25918 246.748 5.67971C246.748 5.75099 246.628 5.87097 246.551 5.87966C246.338 5.90748 246.116 5.89009 245.899 5.89009C242.283 5.89009 238.665 5.89009 235.049 5.89009C234.5 5.89009 234.598 5.89357 234.598 6.3039C234.596 7.08632 234.618 7.86874 234.587 8.65116C234.573 8.97456 234.676 9.0302 235.002 9.02846C237.372 9.01455 239.74 9.0215 242.11 9.0215C243.358 9.0215 244.604 9.0302 245.852 9.01455C246.153 9.01107 246.202 9.11366 246.2 9.36229C246.189 10.6959 246.175 12.0295 246.207 13.3613C246.217 13.7212 246.063 13.7212 245.773 13.7212C242.687 13.7143 239.6 13.716 236.513 13.716C235.984 13.716 235.453 13.7212 234.923 13.7125C234.71 13.7091 234.579 13.7264 234.59 13.9838C234.63 14.8723 234.645 15.7625 234.669 16.651C235.571 16.6579 236.47 16.6701 237.372 16.6701C240.333 16.6718 243.296 16.6701 246.258 16.6701C246.778 16.6701 246.759 16.5988 246.757 17.1274C246.754 18.4314 246.748 19.7354 246.763 21.0395C246.767 21.309 246.675 21.3715 246.396 21.3698C243.465 21.3611 240.535 21.3646 237.604 21.3646C234.83 21.3646 232.054 21.3646 229.279 21.3646C228.802 21.3646 228.797 21.3594 228.797 20.8934C228.797 17.6768 228.797 14.4602 228.797 11.2436Z" fill="#fff1e2"/>
<path d="M21.7113 11.254C21.7113 8.03736 21.7113 4.82249 21.7113 1.60588C21.7113 1.2025 21.7188 1.19728 22.1659 1.19728C27.8397 1.19728 33.5135 1.19728 39.1873 1.19728C39.6644 1.19728 39.6681 1.2025 39.67 1.66847C39.6718 2.94294 39.6737 4.21742 39.67 5.49363C39.67 5.88658 39.6625 5.89179 39.2042 5.89179C35.5264 5.89179 31.8467 5.89179 28.169 5.89179C27.518 5.89179 27.5142 5.89353 27.5124 6.46209C27.5105 7.15757 27.5086 7.85306 27.5124 8.54854C27.5142 9.01451 27.518 9.01973 27.9931 9.01973C29.8956 9.02147 31.7962 9.01973 33.6987 9.01973C35.3824 9.01973 37.066 9.02495 38.7496 9.01451C39.0227 9.01278 39.1219 9.06841 39.1181 9.34313C39.1032 10.675 39.0994 12.0086 39.12 13.3422C39.1256 13.6534 39.0452 13.7264 38.7084 13.7247C36.5272 13.709 34.3441 13.716 32.1629 13.716C30.7281 13.716 29.2951 13.7229 27.8603 13.709C27.5666 13.7055 27.4993 13.7942 27.5049 14.0516C27.5217 14.8044 27.5367 15.559 27.4993 16.3101C27.4824 16.6561 27.6227 16.6787 27.9258 16.677C30.4512 16.6666 32.9766 16.6718 35.5002 16.6718C36.6544 16.6718 37.8068 16.6683 38.961 16.6718C39.5802 16.6753 39.6662 16.7483 39.6681 17.2942C39.6737 18.5409 39.6625 19.7858 39.6756 21.0325C39.6793 21.2915 39.6064 21.3733 39.3183 21.3715C37.1371 21.3611 34.954 21.3663 32.7727 21.3663C29.2502 21.3663 25.7277 21.3663 22.2052 21.3663C21.6459 21.3663 21.7113 21.3959 21.7113 20.9038C21.7113 17.6872 21.7113 14.4723 21.7113 11.2557V11.254Z" fill="#fff1e2"/>
<path d="M0.0112672 11.1671C0.0112672 7.95218 0.0112672 4.73731 0.0112672 1.52243C0.0112672 1.16774 0.0150085 1.17122 0.477069 1.19382C0.69407 1.20425 0.912941 1.19556 1.13181 1.19556H10.2945C10.8239 1.19556 11.357 1.166 11.8827 1.20425C12.3878 1.24076 12.8779 1.36769 13.3942 1.39203C13.9049 1.41637 14.4306 1.5659 14.9057 1.75542C15.8411 2.12924 16.7502 2.57088 17.5415 3.16899C17.9306 3.46283 18.2636 3.85926 18.5143 4.26438C18.8435 4.79642 19.1859 5.33716 19.3879 5.92311C19.5394 6.363 19.6068 6.83767 19.6404 7.30016C19.6816 7.87741 19.646 8.45814 19.6517 9.03713C19.661 10.1256 19.1728 11.4366 18.4544 12.4885C17.8221 13.4135 16.9373 14.0933 15.9252 14.5558C15.0011 14.9766 14.0265 15.3243 12.9658 15.4756C10.9006 15.7694 8.83719 15.5347 6.77569 15.6251C6.55869 15.6338 6.33795 15.639 6.12095 15.6234C5.88524 15.606 5.7917 15.6738 5.80293 15.9085C5.82164 16.3136 5.80854 16.7187 5.80854 17.1256C5.80854 18.4296 5.80106 19.7319 5.81415 21.036C5.81789 21.3002 5.73745 21.3733 5.45311 21.3715C3.76949 21.3594 2.08774 21.3541 0.404112 21.375C0.0561638 21.3785 -0.00182769 21.2881 4.30039e-05 20.9873C0.0150085 18.873 0.00752577 16.7587 0.00752577 14.6445V11.1688L0.0112672 11.1671ZM5.81041 8.45467C5.81041 9.15015 5.81041 9.84563 5.81041 10.5411C5.81228 11.1027 5.81415 11.1045 6.3791 11.1062C7.78212 11.1079 9.18514 11.0975 10.5863 11.1132C10.9847 11.1166 11.3495 11.0488 11.7255 10.9393C13.0182 10.5655 13.8001 9.59178 13.6692 8.49813C13.6449 8.29818 13.6505 8.09128 13.6692 7.88959C13.6991 7.55923 13.5308 7.30016 13.3306 7.0637C13.1585 6.86027 12.9359 6.69509 12.7413 6.50557C12.3316 6.10567 11.7798 5.92137 11.2392 5.90572C9.52561 5.85877 7.81205 5.89529 6.09663 5.88138C5.81789 5.87964 5.8048 5.99613 5.80667 6.19261C5.81415 6.94547 5.80854 7.69833 5.80854 8.45293L5.81041 8.45467Z" fill="#fff1e2"/>
<path d="M209.154 11.2765C209.154 8.06167 209.154 4.8468 209.154 1.63193C209.154 1.20246 209.16 1.19725 209.579 1.19551C211.354 1.19203 213.132 1.19203 214.907 1.19551C215.32 1.19551 215.326 1.20246 215.326 1.63714C215.326 6.06737 215.326 10.4993 215.326 14.9296C215.326 15.2199 215.326 15.5086 215.326 15.7989C215.326 16.4927 215.326 16.4944 216.035 16.4944C219.4 16.4944 222.766 16.4944 226.131 16.4944C226.35 16.4944 226.567 16.5031 226.786 16.4927C226.999 16.4822 227.122 16.5066 227.119 16.7639C227.106 18.2122 227.109 19.6606 227.115 21.1072C227.115 21.2828 227.076 21.3784 226.864 21.3645C226.709 21.3541 226.554 21.3628 226.397 21.3628H209.85C209.819 21.3628 209.789 21.3628 209.757 21.3628C209.156 21.3576 209.153 21.3576 209.153 20.8325C209.153 19.2694 209.153 17.7045 209.153 16.1414V11.2765H209.154Z" fill="#fff1e2"/>
<path d="M156.214 11.28C156.214 14.4654 156.214 17.6524 156.214 20.8377C156.214 21.3593 156.21 21.3628 155.7 21.3645C154.048 21.3663 152.396 21.3663 150.746 21.3645C150.235 21.3645 150.232 21.3593 150.23 20.8377C150.23 17.1012 150.23 13.3665 150.23 9.63001C150.23 6.99413 150.23 4.35824 150.23 1.7241C150.23 1.20249 150.233 1.19901 150.744 1.19727C152.396 1.19553 154.048 1.19553 155.698 1.19727C156.208 1.19727 156.212 1.20249 156.214 1.7241C156.214 4.90941 156.214 8.09647 156.214 11.2818V11.28Z" fill="#fff1e2"/>
<path d="M93.7329 11.2818C93.7329 8.09645 93.7329 4.9094 93.7329 1.72409C93.7329 1.20073 93.7366 1.19552 94.2455 1.19552C95.8973 1.19378 97.5491 1.19378 99.1991 1.19552C99.7135 1.19552 99.7173 1.20073 99.7173 1.71887C99.7173 5.57011 99.7173 9.42309 99.7173 13.2743C99.7173 15.7937 99.7173 18.3131 99.7173 20.8325C99.7173 21.3558 99.7135 21.3611 99.2047 21.3611C97.5529 21.3628 95.901 21.3628 94.2511 21.3611C93.7366 21.3611 93.7329 21.3558 93.7329 20.8377C93.7329 17.6524 93.7329 14.4653 93.7329 11.28V11.2818Z" fill="#fff1e2"/>
<path d="M103.247 3.17131C103.225 3.20817 103.202 3.24679 103.18 3.28365C103.159 3.26434 103.118 3.23977 103.122 3.22573C103.131 3.1836 103.159 3.14674 103.18 3.10812L103.247 3.17131Z" fill="#fff1e2"/>
<path d="M278.959 7.34409L279.027 7.2809C279.047 7.31952 279.075 7.35813 279.085 7.3985C279.088 7.41254 279.047 7.43712 279.027 7.45643L278.959 7.34409Z" fill="#fff1e2"/>
<path d="M291.626 10.1753C291.602 10.1981 291.581 10.2174 291.558 10.2385C291.538 10.1999 291.51 10.1612 291.5 10.1209C291.497 10.1068 291.538 10.0823 291.558 10.0629C291.581 10.1016 291.603 10.1384 291.626 10.1753Z" fill="#fff1e2"/>
<path d="M263.498 14.4097C263.519 14.4483 263.547 14.4869 263.556 14.5273C263.56 14.5413 263.519 14.5659 263.498 14.5852C263.478 14.5466 263.45 14.5079 263.44 14.4676C263.436 14.4535 263.478 14.429 263.498 14.4097Z" fill="#fff1e2"/>
<path d="M116.529 16.0869L116.462 16.15C116.441 16.1114 116.413 16.0728 116.404 16.0324C116.4 16.0184 116.441 15.9938 116.462 15.9745L116.529 16.0869Z" fill="#fff1e2"/>
<path d="M180.331 17.2934C180.308 17.3144 180.279 17.3513 180.271 17.3478C180.23 17.3267 180.196 17.2969 180.159 17.2706C180.187 17.2442 180.215 17.2179 180.243 17.1916L180.331 17.2934Z" fill="#fff1e2"/>
<path d="M62.6007 20.1614C62.6231 20.1824 62.6624 20.2105 62.6587 20.2175C62.6362 20.2561 62.6044 20.2877 62.5764 20.3228C62.5483 20.2965 62.5202 20.2702 62.4922 20.2439C62.5277 20.2158 62.5651 20.1877 62.6007 20.1614Z" fill="#fff1e2"/>
<path d="M174.36 7.53391C174.322 7.56024 174.287 7.58833 174.249 7.61466C174.238 7.57779 174.206 7.51636 174.218 7.50758C174.257 7.4795 174.311 7.47072 174.36 7.45493C174.36 7.48125 174.36 7.50758 174.36 7.53391Z" fill="#fff1e2"/>
</svg>
