<svg width="287" height="40" viewBox="0 0 287 40" fill="none" xmlns="http://www.w3.org/2000/svg">
<path d="M31.5615 39.7286C31.1973 39.6218 30.8303 39.5178 30.4688 39.4027C29.1296 38.981 28.2095 38.0006 27.3112 37.0065C26.5444 36.1575 25.8022 35.2839 25.0354 34.4322C24.1783 33.4819 23.3457 32.5042 22.4338 31.6114C20.2648 29.4863 16.9757 29.1357 14.4343 30.6557C12.3995 31.8716 10.3949 33.1396 8.36832 34.3692C6.69777 35.3852 4.91221 35.5851 3.08009 34.9142C1.60946 34.3747 0.678335 33.2929 0.19908 31.7922C-0.540342 29.4753 0.867298 26.6765 2.97876 25.5126C3.69901 25.1155 4.40283 24.6882 5.11213 24.2747C6.76624 23.3107 7.85073 21.8976 8.2889 20.0436C8.82841 17.7569 8.22591 15.7495 6.65943 14.0077C5.53661 12.7589 4.37818 11.5348 3.34025 10.2202C1.40133 7.75823 1.64232 4.1022 3.87428 1.88941C5.35312 0.427002 7.14691 -0.208353 9.2611 0.0600296C11.2028 0.306503 12.6844 1.26501 13.8948 2.74659C14.9437 4.03374 16.0282 5.29349 17.0962 6.5642C17.9562 7.58844 18.7942 8.62911 19.6787 9.62869C21.2699 11.428 23.2553 12.2194 25.6735 11.9373C27.0182 11.7812 28.1164 11.0966 29.2447 10.4503C29.8745 10.0888 30.4935 9.70537 31.1343 9.36305C33.0568 8.33608 35.4284 8.40454 37.0059 9.78206C37.8932 10.5571 38.3998 11.5265 38.4518 12.7233C38.5422 14.78 37.5673 16.2506 35.9351 17.3762C33.9386 18.7537 32.8569 20.6543 32.8459 23.0752C32.8377 24.7868 33.5525 26.252 34.6726 27.5364C35.4887 28.473 36.302 29.4123 37.0606 30.3928C39.7198 33.8434 37.8493 38.7181 33.8373 39.6109C33.7277 39.6355 33.6237 39.6876 33.5196 39.7259H31.567L31.5615 39.7286Z" fill="white"/>
<path d="M138.345 33.3915H131.657C131.542 31.6634 131.682 29.9546 131.578 28.2731C131.06 28.1142 122.108 28.106 121.5 28.2731V33.2765C121.021 33.449 115.65 33.4983 114.782 33.3559C114.763 33.1752 114.722 32.978 114.722 32.7781C114.719 28.0622 114.703 23.3491 114.73 18.6332C114.741 16.8093 115.59 15.3469 116.94 14.1556C117.836 13.3641 118.876 12.8684 120.051 12.663C120.33 12.6138 120.621 12.5864 120.905 12.5836C124.655 12.5782 128.407 12.5672 132.156 12.5836C133.736 12.5918 135.075 13.2162 136.247 14.2679C137.775 15.6399 138.4 17.3488 138.389 19.3699C138.364 23.779 138.38 28.1882 138.38 32.5973C138.38 32.841 138.359 33.082 138.342 33.3915H138.345ZM131.553 22.8452C131.578 22.6425 131.611 22.4974 131.611 22.3495C131.616 21.6046 131.627 20.8624 131.605 20.1175C131.597 19.8163 131.545 19.5068 131.46 19.2193C131.194 18.321 130.537 17.8417 129.587 17.839C127.541 17.8363 125.495 17.8335 123.45 17.839C122.447 17.8417 121.831 18.3265 121.593 19.2905C121.535 19.5287 121.494 19.7779 121.492 20.0244C121.478 20.8049 121.481 21.5881 121.483 22.3686C121.483 22.5138 121.524 22.6589 121.555 22.8424H131.548L131.553 22.8452Z" fill="white"/>
<path d="M228.609 25.4167H223.762C223.723 23.9516 223.748 22.5686 223.743 21.2075C224.197 21.024 234.702 20.9857 235.398 21.1555C235.412 21.3581 235.439 21.5827 235.439 21.8045C235.442 23.5983 235.428 25.3948 235.445 27.1886C235.458 28.714 234.949 30.0176 233.916 31.1431C232.835 32.3235 231.561 33.1423 229.946 33.3586C229.625 33.4025 229.299 33.4244 228.973 33.4244C225.413 33.4299 221.853 33.4326 218.29 33.4244C215.647 33.4189 213.741 32.1454 212.454 29.9162C211.994 29.1193 211.778 28.2183 211.778 27.279C211.778 24.4719 211.761 21.6648 211.783 18.8578C211.802 16.4232 212.994 14.6568 215.031 13.4217C216.036 12.8137 217.143 12.5699 218.323 12.5727C222.822 12.5864 227.319 12.5782 231.819 12.5782H232.531C232.711 13.0519 232.739 17.1461 232.577 17.7979C232.353 17.8116 232.112 17.839 231.871 17.839C228.349 17.839 224.827 17.839 221.302 17.8445C221.018 17.8445 220.73 17.8691 220.448 17.9212C219.755 18.0471 219.229 18.4223 219.021 19.1015C218.819 19.7725 218.61 20.4626 218.567 21.1555C218.493 22.355 218.506 23.5627 218.561 24.7622C218.591 25.4003 218.728 26.0521 218.923 26.6628C219.229 27.6185 219.963 28.1307 220.957 28.1498C222.738 28.1854 224.518 28.1882 226.298 28.1498C227.703 28.117 228.678 26.9777 228.601 25.4222L228.609 25.4167Z" fill="white"/>
<path d="M57.9041 33.4271V28.2265C58.1615 28.2046 58.3998 28.1663 58.6381 28.1663C63.0417 28.1635 67.4427 28.1663 71.8463 28.1635C73.0184 28.1635 73.2594 27.9253 73.2594 26.7586C73.2594 26.5861 73.2677 26.4136 73.2485 26.2438C73.191 25.7234 72.8377 25.3674 72.3201 25.3099C72.1311 25.288 71.9367 25.2989 71.7477 25.2989C68.2259 25.2989 64.7041 25.2579 61.1822 25.3154C59.4542 25.3428 57.9041 24.1268 57.5098 22.5193C57.4468 22.2618 57.4166 21.9935 57.4166 21.7278C57.4084 19.8957 57.4057 18.0608 57.4166 16.2287C57.4276 14.2542 59.1064 12.5809 61.0891 12.5809C66.6019 12.5754 72.1147 12.5809 77.6275 12.5809C77.8165 12.5809 78.0027 12.5973 78.1725 12.6055C78.3259 13.0492 78.3724 16.9298 78.2355 17.7815C78.0164 17.8007 77.7781 17.839 77.5399 17.839C73.1554 17.8417 68.7736 17.839 64.3891 17.8417C64.1974 17.8417 64.0057 17.8335 63.814 17.8472C63.2827 17.8883 62.965 18.1895 62.9267 18.7154C62.8993 19.0769 62.9021 19.4411 62.9267 19.8026C62.9541 20.238 63.1841 20.5064 63.6196 20.5968C63.9345 20.6625 64.2631 20.6954 64.5863 20.6981C68.0123 20.7063 71.441 20.7474 74.8643 20.6844C76.617 20.6515 78.1451 21.9852 78.5805 23.5408C78.6572 23.8119 78.6627 24.1077 78.6654 24.3897C78.6737 26.126 78.6709 27.865 78.6682 29.6013C78.6627 31.7018 77.077 33.3367 74.9683 33.4189C74.7958 33.4244 74.6233 33.4244 74.4507 33.4244C69.2063 33.4244 63.9619 33.4244 58.7175 33.4244H57.9096L57.9041 33.4271Z" fill="white"/>
<path d="M188.689 33.3806H181.971C181.952 33.1368 181.924 32.9342 181.924 32.7315C181.924 28.1115 181.924 23.4888 181.922 18.8687C181.919 15.7604 184.449 13.2053 187.059 12.7069C187.489 12.6247 187.93 12.5837 188.368 12.5809C192.005 12.57 195.642 12.5727 199.279 12.5782C202.332 12.5837 205.107 14.9799 205.55 17.9979C205.6 18.3347 205.589 18.6825 205.589 19.0276C205.589 23.5709 205.589 28.117 205.589 32.6603C205.589 32.8685 205.589 33.0739 205.589 33.2546C205.101 33.4573 199.479 33.4792 198.868 33.2847C198.854 33.0492 198.824 32.789 198.824 32.5289C198.822 28.8619 198.832 25.1977 198.808 21.5307C198.802 20.8898 198.674 20.2435 198.559 19.6082C198.353 18.4744 197.211 17.8226 196.313 17.8308C194.648 17.8473 192.983 17.8281 191.318 17.8363C190.105 17.8445 189.349 18.3758 189.042 19.537C188.85 20.2682 188.716 21.035 188.708 21.7881C188.675 25.3784 188.691 28.9687 188.691 32.5563C188.691 32.8027 188.691 33.0465 188.691 33.3724L188.689 33.3806Z" fill="white"/>
<path d="M108.486 28.2046V33.3696C108.253 33.3915 108.051 33.4244 107.848 33.4244C102.335 33.4244 96.8195 33.4189 91.3067 33.4299C88.0122 33.4354 85.2654 30.9076 84.8793 27.7144C84.8546 27.5063 84.8601 27.2954 84.8601 27.0845C84.8601 24.3733 84.882 21.6621 84.8546 18.9482C84.8163 15.5715 87.8616 12.5481 91.2848 12.57C96.7593 12.6028 102.236 12.5782 107.711 12.5782H108.368C108.554 13.0383 108.593 17.1106 108.423 17.7952C108.201 17.8089 107.957 17.839 107.716 17.839C103.294 17.839 98.8708 17.8609 94.4507 17.8281C93.1882 17.8199 92.1064 18.4169 91.849 19.8875C91.7504 20.4489 91.6628 21.0185 91.6436 21.5854C91.6107 22.5576 91.5998 23.5353 91.6463 24.5075C91.6765 25.1511 91.7723 25.8001 91.9339 26.4245C92.2269 27.5556 93.0238 28.1526 94.196 28.1581C96.4745 28.1718 98.753 28.1636 101.032 28.1663C103.272 28.1663 105.512 28.1663 107.752 28.1663C107.977 28.1663 108.201 28.1882 108.489 28.2046H108.486Z" fill="white"/>
<path d="M162.771 33.386C162.562 33.3997 162.376 33.4244 162.19 33.4244C157.559 33.4244 152.925 33.4299 148.294 33.4244C146.676 33.4216 145.348 32.5371 144.792 31.0254C144.586 30.4667 144.499 29.8341 144.499 29.2343C144.477 23.8886 144.485 18.5428 144.488 13.1971C144.488 13.03 144.51 12.8602 144.521 12.7069C144.959 12.5563 150.529 12.5179 151.299 12.6576C151.315 12.8794 151.351 13.1204 151.351 13.3587C151.353 17.6747 151.351 21.988 151.351 26.304C151.351 26.4957 151.342 26.6874 151.356 26.8764C151.405 27.5802 151.893 28.0896 152.597 28.1526C152.92 28.18 153.246 28.1663 153.572 28.1663C156.403 28.1663 159.238 28.1663 162.069 28.1663C162.294 28.1663 162.519 28.1854 162.727 28.1964C162.875 28.6565 162.91 32.6384 162.771 33.3888V33.386Z" fill="white"/>
<path d="M286.216 6.61074C286.054 6.71207 285.901 6.82435 285.731 6.91199C281.582 9.01523 277.556 11.3293 273.635 13.8269C270.521 15.8124 267.486 17.9129 264.578 20.1832C262.968 21.4403 261.429 22.7849 259.879 24.1186C258.953 24.9155 258.052 25.7453 257.178 26.597C255.163 28.5579 253.309 30.6639 251.586 32.8849C251.518 32.9752 251.435 33.0546 251.356 33.1423H241.357C241.524 32.9533 241.623 32.8191 241.744 32.7068C243.025 31.532 244.271 30.3188 245.602 29.2014C247.311 27.7637 249.061 26.367 250.844 25.0196C253.881 22.7247 257.061 20.6296 260.322 18.6661C263.107 16.99 265.947 15.4099 268.853 13.9447C272.629 12.0414 276.461 10.264 280.41 8.74685C282.034 8.12245 283.658 7.49257 285.285 6.87638C285.586 6.76136 285.906 6.69838 286.221 6.61348L286.216 6.608V6.61074Z" fill="white"/>
<path d="M175.771 33.3806H169.168C169.028 32.915 168.993 13.3641 169.116 12.7014C169.527 12.5453 175.119 12.5152 175.768 12.6767V33.3806H175.771Z" fill="white"/>
<path d="M266.635 21.6128C271.824 25.4441 276.965 29.2371 282.108 33.03L282.072 33.1368C281.93 33.1532 281.79 33.1806 281.648 33.1806C278.279 33.1806 274.911 33.1806 271.542 33.1889C271.178 33.1889 270.877 33.0957 270.589 32.8767C267.667 30.6611 264.737 28.4511 261.812 26.241C261.694 26.1507 261.587 26.0493 261.42 25.9097C263.107 24.4116 264.8 22.9985 266.635 21.6155V21.6128Z" fill="white"/>
<path d="M259.454 16.3602C257.496 17.609 255.601 18.814 253.624 20.0737C249.773 17.1736 245.92 14.2734 241.965 11.2938C242.236 11.2527 242.373 11.2144 242.513 11.2144C245.69 11.2116 248.867 11.2061 252.043 11.2226C252.312 11.2226 252.632 11.2965 252.843 11.4526C254.93 12.9671 257 14.5089 259.073 16.0425C259.18 16.1219 259.276 16.2123 259.451 16.3629L259.454 16.3602Z" fill="white"/>
<path d="M286.218 6.6166C286.243 6.59716 286.268 6.57772 286.235 6.60271C286.274 6.5916 286.243 6.60271 286.213 6.61104L286.218 6.6166Z" fill="white"/>
</svg>
