<svg width="236" height="41" viewBox="0 0 236 41" fill="none" xmlns="http://www.w3.org/2000/svg">
<path d="M30.784 29.7806V35.0252H7.43255C7.75467 31.5735 8.95682 29.1446 13.114 25.7299L30.784 11.7635V24.0193H37.1449V1.47145H0.973788V12.7108H7.33219V7.36468H26.5474L8.96381 21.2662L8.92181 21.303C1.5527 27.3476 0.966797 32.2268 0.966797 37.975V40.9203H37.1424V29.7829H30.7816L30.784 29.7806Z" fill="#fff1e2"/>
<path d="M76.0725 22.3669C76.0514 22.3669 76.0326 22.3842 76.0326 22.4058C76.1612 24.7761 77.2277 28.604 82.7155 28.604C86.9496 28.604 87.8182 26.1559 88.159 25.4638C88.1659 25.4508 88.1777 25.4422 88.1939 25.4422H92.2902C92.3163 25.4422 92.3326 25.4638 92.3276 25.4855C92.078 26.7723 89.9351 31.8089 82.7155 31.8089C75.4959 31.8089 71.9546 26.7828 71.9546 21.3569C71.9546 14.7176 76.4669 10.8594 82.5732 10.8594C88.2663 10.8594 92.5285 14.8474 92.5285 19.8625C92.5285 20.1545 92.5216 20.507 92.5054 20.9157C92.4886 21.318 92.435 21.7916 92.3439 22.3345C92.3419 22.3517 92.3257 22.3648 92.3069 22.3648H76.0725V22.3669ZM82.4796 13.8028C77.3213 13.8028 76.0819 17.3647 76.0819 19.43C76.0819 19.4495 76.0981 19.469 76.1213 19.469H88.5091C88.5302 19.469 88.5465 19.4516 88.5485 19.4322C88.6932 17.1484 87.0269 13.8028 82.4796 13.8028Z" fill="#fff1e2"/>
<path d="M107.724 31.2965C107.724 31.3138 107.71 31.3289 107.692 31.3312C107.285 31.3873 106.751 31.4457 106.088 31.5018C105.409 31.5602 104.72 31.5903 104.027 31.5903C100.495 31.5903 97.2483 30.416 97.2483 24.6073V14.6288C97.2483 14.6093 97.232 14.592 97.2084 14.592H93.3037C93.2825 14.592 93.2638 14.5769 93.2638 14.5553V11.4216C93.2638 11.4021 93.28 11.3848 93.3037 11.3848H97.2084C97.2296 11.3848 97.2483 11.3697 97.2483 11.3481V4.70003C97.2483 4.6806 97.2645 4.66331 97.2882 4.66331H101.336C101.356 4.66331 101.375 4.67841 101.375 4.70003V11.3481C101.375 11.3675 101.391 11.3848 101.415 11.3848H106.93C106.952 11.3848 106.97 11.4 106.97 11.4216V14.5553C106.97 14.5747 106.954 14.592 106.93 14.592H101.415C101.394 14.592 101.375 14.6072 101.375 14.6288V23.7423C101.375 27.9315 103.224 28.0761 104.93 28.0761H106.424C106.949 28.0761 107.37 28.0373 107.68 27.957C107.703 27.9507 107.727 27.968 107.727 27.9917V31.2965H107.724Z" fill="#fff1e2"/>
<path d="M130.87 11.4239V31.292C130.87 31.3116 130.854 31.3289 130.831 31.3289H126.832C126.811 31.3289 126.793 31.3139 126.793 31.292V27.9963C126.793 27.9593 126.739 27.9466 126.722 27.9812C125.999 29.307 123.576 31.8111 119.255 31.8111C113.501 31.8111 108.21 27.6263 108.21 21.3591C108.21 16.2704 112.12 10.8616 119.255 10.8616C123.296 10.8616 125.896 13.167 126.722 14.6917C126.741 14.7241 126.793 14.7133 126.793 14.6765V11.4239C126.793 11.4044 126.809 11.3871 126.832 11.3871H130.831C130.851 11.3871 130.87 11.4022 130.87 11.4239ZM119.493 28.3854C124.568 28.3854 126.795 24.588 126.795 21.3591C126.795 17.6177 123.945 14.2872 119.493 14.2872C114.456 14.2872 112.288 18.2687 112.288 21.3591C112.288 24.4495 114.337 28.3854 119.493 28.3854Z" fill="#fff1e2"/>
<path d="M150.909 18.6342C150.891 18.6342 150.877 18.6212 150.872 18.6039C150.52 16.9581 149.852 14.2872 144.904 14.2872C140.94 14.2872 138.218 17.0403 138.218 21.3591C138.218 24.5274 139.866 28.3854 145.139 28.3854C149.082 28.3854 150.237 26.6338 150.914 24.5036C150.919 24.4885 150.933 24.4776 150.952 24.4776H155.001C155.025 24.4776 155.044 24.4971 155.041 24.5187C154.516 27.8818 151.789 31.8111 144.854 31.8111C138.356 31.8111 134.094 27.317 134.094 21.3591C134.094 16.0866 137.691 10.8616 144.808 10.8616C152.396 10.8616 154.763 15.6627 154.997 18.5952C154.997 18.6169 154.981 18.6342 154.957 18.6342H150.909Z" fill="#fff1e2"/>
<path d="M158.468 1.24219H162.515C162.536 1.24219 162.555 1.25733 162.555 1.27896V14.7523C162.555 14.7891 162.609 14.7999 162.627 14.7674C163.26 13.6017 165.22 10.8617 170.141 10.8617C176.95 10.8617 178.358 15.639 178.248 19.5577V31.2925C178.248 31.3116 178.232 31.329 178.208 31.329H174.16C174.139 31.329 174.121 31.3139 174.121 31.2925V20.7428C174.121 17.315 172.872 14.2419 168.668 14.2419C165.494 14.2419 162.553 16.4305 162.553 21.0499V31.2925C162.553 31.3116 162.536 31.329 162.513 31.329H158.465C158.444 31.329 158.426 31.3139 158.426 31.2925V1.27677C158.426 1.25733 158.442 1.24004 158.465 1.24004L158.468 1.24219Z" fill="#fff1e2"/>
<path d="M203.728 11.4239V31.292C203.728 31.3116 203.711 31.3289 203.688 31.3289H199.69C199.669 31.3289 199.65 31.3139 199.65 31.292V27.9963C199.65 27.9593 199.599 27.9489 199.58 27.9812C198.887 29.1532 196.604 31.8111 192.113 31.8111C185.787 31.8111 181.067 27.1938 181.067 21.3591C181.067 16.5364 184.797 10.8616 192.113 10.8616C196.55 10.8616 198.884 13.5217 199.58 14.6917C199.599 14.7241 199.65 14.7133 199.65 14.6765V11.4239C199.65 11.4044 199.666 11.3871 199.69 11.3871H203.688C203.709 11.3871 203.728 11.4022 203.728 11.4239ZM192.351 28.3854C197.188 28.3854 199.653 24.7372 199.653 21.3591C199.653 17.6004 196.774 14.2872 192.351 14.2872C187.141 14.2872 185.047 18.5347 185.145 21.3591C185.309 26.1343 188.85 28.3854 192.351 28.3854Z" fill="#fff1e2"/>
<path d="M206.491 3.69019C206.491 2.9614 206.734 2.32343 207.222 1.77625C207.859 1.05827 208.852 0.658171 209.851 0.7209C210.626 0.770627 211.3 1.06041 211.874 1.59459C212.449 2.12876 212.764 2.75377 212.817 3.4718C212.885 4.39955 212.453 5.31434 211.68 5.90692C211.09 6.35893 210.399 6.58603 209.612 6.58603C208.737 6.58603 207.997 6.30701 207.395 5.74688C206.79 5.18893 206.49 4.50339 206.49 3.69238L206.491 3.69019Z" fill="#fff1e2"/>
<path d="M211.68 11.3871H207.635C207.614 11.3871 207.595 11.4035 207.595 11.4238V31.2901C207.595 31.3102 207.614 31.3266 207.635 31.3266H211.68C211.702 31.3266 211.72 31.3102 211.72 31.2901V11.4238C211.72 11.4035 211.702 11.3871 211.68 11.3871Z" fill="#fff1e2"/>
<path d="M235.431 31.3266H231.472C231.451 31.3266 231.432 31.3116 231.432 31.2901V18.7465C231.493 15.5091 230.63 15.0527 227.481 15.0916H219.612C219.591 15.0916 219.573 15.1068 219.573 15.1284V31.2901C219.573 31.3093 219.556 31.3266 219.533 31.3266H215.614C215.592 31.3266 215.574 31.3116 215.574 31.2901V11.4216C215.574 11.4022 215.59 11.3849 215.614 11.3849H227.478C232.368 11.4324 235.424 15.1911 235.424 18.7465V31.3244H235.426L235.431 31.3266Z" fill="#fff1e2"/>
<path d="M57.548 21.2184C53.9043 24.2699 53.6152 26.729 53.6152 29.6245V31.3266H70.3184V27.9206H57.3171C57.5086 26.4239 58.1128 25.308 59.9337 23.779L70.3184 15.6712V11.3697H53.601V14.7759H65.8277L57.5948 21.1773L57.548 21.2163V21.2184Z" fill="#fff1e2"/>
</svg>
