<svg width="236" height="41" viewBox="0 0 236 41" fill="none" xmlns="http://www.w3.org/2000/svg">
<path d="M30.7839 29.7806V35.0252H7.43248C7.75461 31.5735 8.95676 29.1446 13.114 25.7299L30.7839 11.7635V24.0193H37.1448V1.47144H0.973727V12.7108H7.33213V7.36467H26.5473L8.96375 21.2662L8.92175 21.303C1.55264 27.3476 0.966736 32.2268 0.966736 37.975V40.9203H37.1424V29.7828H30.7816L30.7839 29.7806Z" fill="#92BCD8"/>
<path d="M76.0724 22.3669C76.0512 22.3669 76.0325 22.3842 76.0325 22.4058C76.161 24.7761 77.2276 28.604 82.7154 28.604C86.9495 28.604 87.8181 26.1558 88.1588 25.4638C88.1657 25.4508 88.1776 25.4422 88.1938 25.4422H92.2901C92.3162 25.4422 92.3324 25.4638 92.3275 25.4854C92.0779 26.7723 89.9349 31.8089 82.7154 31.8089C75.4958 31.8089 71.9545 26.7828 71.9545 21.3569C71.9545 14.7175 76.4668 10.8594 82.5731 10.8594C88.2662 10.8594 92.5284 14.8473 92.5284 19.8625C92.5284 20.1545 92.5215 20.507 92.5053 20.9157C92.4885 21.318 92.4348 21.7916 92.3438 22.3344C92.3418 22.3517 92.3255 22.3647 92.3068 22.3647H76.0724V22.3669ZM82.4795 13.8028C77.3211 13.8028 76.0818 17.3647 76.0818 19.43C76.0818 19.4495 76.098 19.4689 76.1211 19.4689H88.5089C88.5301 19.4689 88.5464 19.4516 88.5483 19.4322C88.6931 17.1484 87.0268 13.8028 82.4795 13.8028Z" fill="#92BCD8"/>
<path d="M107.724 31.2965C107.724 31.3139 107.71 31.3289 107.692 31.3312C107.285 31.3873 106.751 31.4457 106.088 31.5018C105.409 31.5602 104.72 31.5903 104.027 31.5903C100.495 31.5903 97.2482 30.416 97.2482 24.6073V14.6288C97.2482 14.6094 97.232 14.5921 97.2083 14.5921H93.3036C93.2824 14.5921 93.2637 14.5769 93.2637 14.5553V11.4216C93.2637 11.4022 93.28 11.3849 93.3036 11.3849H97.2083C97.2295 11.3849 97.2482 11.3697 97.2482 11.3481V4.70006C97.2482 4.68062 97.2645 4.66333 97.2881 4.66333H101.336C101.356 4.66333 101.375 4.67843 101.375 4.70006V11.3481C101.375 11.3675 101.391 11.3849 101.415 11.3849H106.93C106.951 11.3849 106.97 11.4 106.97 11.4216V14.5553C106.97 14.5748 106.954 14.5921 106.93 14.5921H101.415C101.394 14.5921 101.375 14.6072 101.375 14.6288V23.7423C101.375 27.9315 103.224 28.0761 104.93 28.0761H106.424C106.949 28.0761 107.369 28.0374 107.68 27.9571C107.703 27.9507 107.726 27.968 107.726 27.9917V31.2965H107.724Z" fill="#92BCD8"/>
<path d="M130.87 11.4239V31.2919C130.87 31.3116 130.854 31.3289 130.831 31.3289H126.832C126.811 31.3289 126.793 31.3138 126.793 31.2919V27.9963C126.793 27.9593 126.739 27.9466 126.722 27.9812C125.999 29.307 123.576 31.8111 119.255 31.8111C113.501 31.8111 108.21 27.6263 108.21 21.3591C108.21 16.2704 112.119 10.8616 119.255 10.8616C123.295 10.8616 125.896 13.1669 126.722 14.6916C126.741 14.7241 126.793 14.7133 126.793 14.6765V11.4239C126.793 11.4044 126.809 11.3871 126.832 11.3871H130.831C130.851 11.3871 130.87 11.4022 130.87 11.4239ZM119.493 28.3854C124.568 28.3854 126.794 24.5879 126.794 21.3591C126.794 17.6177 123.944 14.2872 119.493 14.2872C114.456 14.2872 112.287 18.2686 112.287 21.3591C112.287 24.4495 114.337 28.3854 119.493 28.3854Z" fill="#92BCD8"/>
<path d="M150.909 18.6342C150.891 18.6342 150.877 18.6212 150.872 18.6039C150.52 16.9581 149.852 14.2872 144.904 14.2872C140.94 14.2872 138.218 17.0403 138.218 21.3591C138.218 24.5274 139.866 28.3854 145.139 28.3854C149.082 28.3854 150.237 26.6338 150.914 24.5036C150.919 24.4884 150.933 24.4776 150.952 24.4776H155.001C155.025 24.4776 155.044 24.4971 155.041 24.5187C154.516 27.8818 151.789 31.8111 144.854 31.8111C138.356 31.8111 134.094 27.317 134.094 21.3591C134.094 16.0865 137.691 10.8616 144.808 10.8616C152.396 10.8616 154.763 15.6627 154.997 18.5952C154.997 18.6169 154.981 18.6342 154.957 18.6342H150.909Z" fill="#92BCD8"/>
<path d="M158.468 1.24213H162.515C162.536 1.24213 162.555 1.25728 162.555 1.27891V14.7523C162.555 14.789 162.609 14.7998 162.627 14.7674C163.26 13.6017 165.22 10.8616 170.141 10.8616C176.95 10.8616 178.358 15.6389 178.248 19.5577V31.2924C178.248 31.3116 178.232 31.3289 178.208 31.3289H174.16C174.139 31.3289 174.121 31.3139 174.121 31.2924V20.7428C174.121 17.315 172.872 14.2418 168.668 14.2418C165.494 14.2418 162.553 16.4305 162.553 21.0499V31.2924C162.553 31.3116 162.536 31.3289 162.513 31.3289H158.465C158.444 31.3289 158.426 31.3139 158.426 31.2924V1.27671C158.426 1.25728 158.442 1.23999 158.465 1.23999L158.468 1.24213Z" fill="#92BCD8"/>
<path d="M203.728 11.4239V31.2919C203.728 31.3116 203.711 31.3289 203.688 31.3289H199.69C199.669 31.3289 199.65 31.3138 199.65 31.2919V27.9963C199.65 27.9593 199.599 27.9488 199.58 27.9812C198.887 29.1532 196.604 31.8111 192.113 31.8111C185.787 31.8111 181.067 27.1938 181.067 21.3591C181.067 16.5364 184.797 10.8616 192.113 10.8616C196.55 10.8616 198.884 13.5216 199.58 14.6916C199.599 14.7241 199.65 14.7133 199.65 14.6765V11.4239C199.65 11.4044 199.666 11.3871 199.69 11.3871H203.688C203.709 11.3871 203.728 11.4022 203.728 11.4239ZM192.351 28.3854C197.188 28.3854 199.652 24.7372 199.652 21.3591C199.652 17.6004 196.774 14.2872 192.351 14.2872C187.141 14.2872 185.047 18.5347 185.145 21.3591C185.309 26.1343 188.85 28.3854 192.351 28.3854Z" fill="#92BCD8"/>
<path d="M206.491 3.69019C206.491 2.9614 206.734 2.32343 207.222 1.77625C207.859 1.05827 208.852 0.658171 209.851 0.7209C210.626 0.770627 211.3 1.06041 211.874 1.59459C212.449 2.12876 212.764 2.75377 212.817 3.4718C212.885 4.39955 212.453 5.31434 211.68 5.90692C211.09 6.35893 210.399 6.58603 209.612 6.58603C208.737 6.58603 207.997 6.30701 207.395 5.74688C206.79 5.18893 206.49 4.50339 206.49 3.69238L206.491 3.69019Z" fill="#92BCD8"/>
<path d="M211.68 11.3871H207.635C207.614 11.3871 207.595 11.4036 207.595 11.4239V31.2902C207.595 31.3102 207.614 31.3267 207.635 31.3267H211.68C211.702 31.3267 211.72 31.3102 211.72 31.2902V11.4239C211.72 11.4036 211.702 11.3871 211.68 11.3871Z" fill="#92BCD8"/>
<path d="M235.431 31.3267H231.472C231.451 31.3267 231.432 31.3116 231.432 31.2902V18.7466C231.493 15.5091 230.63 15.0527 227.481 15.0916H219.612C219.591 15.0916 219.573 15.1068 219.573 15.1284V31.2902C219.573 31.3093 219.556 31.3267 219.533 31.3267H215.614C215.592 31.3267 215.574 31.3116 215.574 31.2902V11.4217C215.574 11.4022 215.59 11.3849 215.614 11.3849H227.478C232.368 11.4325 235.424 15.1911 235.424 18.7466V31.3244H235.426L235.431 31.3267Z" fill="#92BCD8"/>
<path d="M57.548 21.2185C53.9042 24.27 53.6152 26.729 53.6152 29.6245V31.3267H70.3183V27.9206H57.317C57.5086 26.424 58.1127 25.308 59.9336 23.779L70.3183 15.6713V11.3698H53.6009V14.7759H65.8277L57.5947 21.1774L57.548 21.2163V21.2185Z" fill="#92BCD8"/>
</svg>
