<svg width="229" height="45" viewBox="0 0 229 45" fill="none" xmlns="http://www.w3.org/2000/svg">
<g clip-path="url(#clip0_1098_38)">
<path fill-rule="evenodd" clip-rule="evenodd" d="M78.7873 22.448L56.4386 0.010376V16.4515L34.2458 32.903L56.4386 32.9134V44.8961L78.7873 22.448Z" fill="#92BCD8" fill-opacity="0.9"/>
<path fill-rule="evenodd" clip-rule="evenodd" d="M0 22.448L22.3487 44.8961V28.6212L44.3855 12.1594L22.3591 12.149V0L0 22.448Z" fill="#92BCD8" fill-opacity="0.9"/>
<path d="M113.2 35.6675H96.0506V30.7206L105.868 19.7148H96.3002V14.8511H113.023V19.5485L102.914 30.7622H113.2V35.6675Z" fill="#92BCD8" fill-opacity="0.9"/>
<path d="M136.599 14.851L128.3 23.612L136.765 35.6674H129.901L124.421 27.7171L122.102 30.1697V35.6674H116.496V5.04041H122.102V22.6039L129.267 14.8614H136.599V14.851Z" fill="#92BCD8" fill-opacity="0.9"/>
<path d="M160.975 12.8244L155.755 14.4353C155.557 13.3649 155.027 12.3879 154.153 11.515C153.28 10.642 152 10.2055 150.316 10.2055C148.943 10.2055 147.82 10.59 146.946 11.3487C146.073 12.0866 145.636 12.9699 145.636 14.0092C145.636 15.8383 146.717 16.9711 148.881 17.3972L153.051 18.1974C155.692 18.7067 157.741 19.7667 159.207 21.3672C160.674 22.978 161.402 24.8695 161.402 27.0415C161.402 29.5254 160.424 31.6974 158.448 33.5577C156.514 35.3868 153.893 36.3117 150.607 36.3117C148.725 36.3117 147.029 36.0311 145.511 35.4699C143.993 34.9087 142.776 34.1605 141.85 33.2251C140.925 32.269 140.197 31.2609 139.656 30.2217C139.147 29.1512 138.845 28.0496 138.731 26.9168L144.128 25.4826C144.263 27.0935 144.887 28.4341 145.979 29.5046C147.102 30.575 148.662 31.1154 150.659 31.1154C152.177 31.1154 153.352 30.7725 154.195 30.097C155.068 29.4214 155.505 28.5277 155.505 27.4364C155.505 26.5635 155.183 25.8152 154.538 25.1916C153.924 24.5473 153.03 24.1108 151.886 23.8822L147.716 23.0404C145.303 22.5311 143.39 21.5334 141.986 20.0369C140.582 18.5404 139.885 16.6801 139.885 14.4561C139.885 11.806 140.894 9.57155 142.922 7.77363C144.97 5.96531 147.425 5.06116 150.295 5.06116C152.011 5.06116 153.54 5.30019 154.891 5.77825C156.243 6.25631 157.325 6.91104 158.136 7.72167C158.947 8.5115 159.582 9.33252 160.029 10.1743C160.455 11.0057 160.778 11.8891 160.975 12.8244Z" fill="#92BCD8" fill-opacity="0.9"/>
<path d="M170.834 43.8776H164.896L169.784 33.0485L160.975 14.8511H167.257L172.779 27.0312L177.875 14.8511H183.854L170.834 43.8776Z" fill="#92BCD8" fill-opacity="0.9"/>
<path d="M191.592 23.6951V35.6674H185.986V14.851H191.425V17.4283C192.018 16.4099 192.86 15.6408 193.952 15.1004C195.044 14.56 196.199 14.3002 197.405 14.3002C199.849 14.3002 201.7 15.0796 202.969 16.6281C204.258 18.1558 204.903 20.1304 204.903 22.5519V35.6674H199.298V23.5288C199.298 22.2921 198.975 21.284 198.331 20.5253C197.717 19.7667 196.76 19.3822 195.46 19.3822C194.285 19.3822 193.339 19.7875 192.642 20.6085C191.945 21.4295 191.592 22.4584 191.592 23.6951Z" fill="#92BCD8" fill-opacity="0.9"/>
<path d="M218.641 19.4238C217.154 19.4238 215.906 19.9435 214.887 20.9931C213.878 22.0324 213.368 23.4562 213.368 25.2645C213.368 27.0728 213.878 28.507 214.887 29.5774C215.927 30.6167 217.185 31.1467 218.683 31.1467C220.003 31.1467 221.054 30.8038 221.844 30.1282C222.634 29.4215 223.165 28.5901 223.446 27.634L228.375 29.2864C227.865 31.2091 226.773 32.8511 225.089 34.2333C223.404 35.6155 221.272 36.3014 218.683 36.3014C215.594 36.3014 212.994 35.2622 210.883 33.1733C208.803 31.0532 207.763 28.4238 207.763 25.2645C207.763 22.074 208.793 19.4446 210.841 17.3557C212.921 15.2668 215.48 14.2275 218.506 14.2275C221.147 14.2275 223.31 14.9135 224.995 16.2957C226.68 17.6467 227.761 19.2991 228.24 21.2426L223.227 22.9365C222.562 20.5878 221.033 19.4238 218.641 19.4238Z" fill="#92BCD8" fill-opacity="0.9"/>
</g>
<defs>
<clipPath id="clip0_1098_38">
<rect width="228.375" height="45" fill="white"/>
</clipPath>
</defs>
</svg>
