<svg width="229" height="45" viewBox="0 0 229 45" fill="none" xmlns="http://www.w3.org/2000/svg">
<g clip-path="url(#clip0_1102_11)">
<path fill-rule="evenodd" clip-rule="evenodd" d="M78.7873 22.448L56.4386 0.0103912V16.4515L34.2458 32.903L56.4386 32.9134V44.8961L78.7873 22.448Z" fill="#fff1e2" fill-opacity="0.9"/>
<path fill-rule="evenodd" clip-rule="evenodd" d="M0 22.448L22.3487 44.8961V28.6212L44.3855 12.1594L22.3591 12.149V0L0 22.448Z" fill="#fff1e2" fill-opacity="0.9"/>
<path d="M113.199 35.6674H96.0505V30.7206L105.868 19.7148H96.3001V14.851H113.023V19.5485L102.914 30.7621H113.199V35.6674Z" fill="#fff1e2" fill-opacity="0.9"/>
<path d="M136.599 14.851L128.3 23.612L136.765 35.6674H129.901L124.421 27.7171L122.101 30.1697V35.6674H116.496V5.04042H122.101V22.6039L129.267 14.8614H136.599V14.851Z" fill="#fff1e2" fill-opacity="0.9"/>
<path d="M160.975 12.8245L155.755 14.4353C155.557 13.3649 155.027 12.388 154.153 11.515C153.28 10.642 152 10.2055 150.316 10.2055C148.943 10.2055 147.82 10.5901 146.946 11.3487C146.073 12.0866 145.636 12.97 145.636 14.0092C145.636 15.8383 146.717 16.9711 148.88 17.3972L153.051 18.1975C155.692 18.7067 157.741 19.7667 159.207 21.3672C160.674 22.9781 161.402 24.8695 161.402 27.0416C161.402 29.5254 160.424 31.6975 158.448 33.5577C156.514 35.3868 153.893 36.3118 150.607 36.3118C148.724 36.3118 147.029 36.0312 145.511 35.47C143.993 34.9088 142.776 34.1605 141.85 33.2252C140.925 32.2691 140.197 31.261 139.656 30.2217C139.146 29.1513 138.845 28.0497 138.73 26.9169L144.128 25.4827C144.263 27.0935 144.887 28.4342 145.979 29.5046C147.102 30.5751 148.662 31.1155 150.659 31.1155C152.177 31.1155 153.352 30.7725 154.195 30.097C155.068 29.4215 155.505 28.5277 155.505 27.4365C155.505 26.5635 155.183 25.8152 154.538 25.1917C153.924 24.5473 153.03 24.1109 151.886 23.8822L147.716 23.0404C145.303 22.5312 143.389 21.5335 141.986 20.037C140.582 18.5404 139.885 16.6801 139.885 14.4561C139.885 11.806 140.894 9.5716 142.922 7.77367C144.97 5.96536 147.425 5.0612 150.295 5.0612C152.011 5.0612 153.539 5.30023 154.891 5.77829C156.243 6.25635 157.325 6.91109 158.136 7.72171C158.947 8.51155 159.582 9.33257 160.029 10.1744C160.455 11.0058 160.778 11.8891 160.975 12.8245Z" fill="#fff1e2" fill-opacity="0.9"/>
<path d="M170.834 43.8776H164.896L169.784 33.0485L160.975 14.851H167.257L172.779 27.0312L177.875 14.851H183.854L170.834 43.8776Z" fill="#fff1e2" fill-opacity="0.9"/>
<path d="M191.592 23.6952V35.6674H185.986V14.851H191.425V17.4284C192.018 16.4099 192.86 15.6409 193.952 15.1005C195.044 14.56 196.199 14.3002 197.405 14.3002C199.849 14.3002 201.7 15.0797 202.969 16.6282C204.258 18.1559 204.903 20.1305 204.903 22.552V35.6674H199.298V23.5289C199.298 22.2921 198.975 21.2841 198.331 20.5254C197.717 19.7667 196.76 19.3822 195.46 19.3822C194.285 19.3822 193.339 19.7875 192.642 20.6085C191.945 21.4296 191.592 22.4584 191.592 23.6952Z" fill="#fff1e2" fill-opacity="0.9"/>
<path d="M218.641 19.4238C217.154 19.4238 215.906 19.9434 214.887 20.9931C213.878 22.0323 213.368 23.4561 213.368 25.2644C213.368 27.0727 213.878 28.5069 214.887 29.5774C215.927 30.6166 217.185 31.1466 218.683 31.1466C220.003 31.1466 221.054 30.8037 221.844 30.1282C222.634 29.4215 223.165 28.5901 223.446 27.6339L228.375 29.2864C227.865 31.209 226.773 32.851 225.089 34.2333C223.404 35.6155 221.272 36.3014 218.683 36.3014C215.594 36.3014 212.994 35.2621 210.883 33.1732C208.803 31.0531 207.763 28.4238 207.763 25.2644C207.763 22.0739 208.792 19.4446 210.841 17.3557C212.921 15.2667 215.479 14.2275 218.506 14.2275C221.147 14.2275 223.31 14.9134 224.995 16.2956C226.68 17.6466 227.761 19.2991 228.24 21.2425L223.227 22.9365C222.562 20.5878 221.033 19.4238 218.641 19.4238Z" fill="#fff1e2" fill-opacity="0.9"/>
</g>
<defs>
<clipPath id="clip0_1102_11">
<rect width="228.375" height="45" fill="#fff1e2"/>
</clipPath>
</defs>
</svg>
