<svg xmlns="http://www.w3.org/2000/svg" width="222" height="92" fill="none"><path stroke="#3b627d" d="M1 1h220v90H1z"/><g opacity=".5"><g clip-path="url(#A)"><path d="M142.496 59.788l3.264-1.02V31.792l-3.264 1.02v26.976zM104.9 43.42c2.052 0 3.936.912 5.148 2.424l1.332-3.072c-1.74-1.668-4.056-2.46-6.48-2.46-5.604 0-9.468 4.428-9.432 9.324.036 5.304 4.212 9.624 9.432 9.624 2.652 0 4.656-.792 6.18-1.896v-3.756c-1.596 1.596-3.9 2.544-5.916 2.544-3.036 0-6.444-2.46-6.444-6.516 0-3.756 2.952-6.216 6.18-6.216zm21.672-3.108c-5.604 0-8.868 4.428-8.868 9.324 0 5.304 4.212 9.624 9.432 9.624 2.652 0 4.656-.792 6.18-1.896v-3.756c-1.596 1.596-3.9 2.544-5.916 2.544-2.688 0-5.652-1.668-6.252-5.196h14.292v-1.248c0-5.232-3.444-9.396-8.868-9.396zm35.208 0c-5.232 0-9.468 4.248-9.468 9.468s4.248 9.468 9.468 9.468 9.468-4.248 9.468-9.468-4.248-9.468-9.468-9.468zm-35.172 3.108c2.544 0 5.232 1.596 5.46 4.656H121.16c.228-3.072 2.916-4.656 5.46-4.656h-.012zm35.172 12.732a6.36 6.36 0 1 1 0-12.744 6.36 6.36 0 1 1 0 12.744z" fill="#fff"/><path d="M71.792 52.636c5.76 0 10.416-4.668 10.416-10.416S77.54 31.792 71.792 31.792 61.376 36.46 61.376 42.208s4.668 10.416 10.416 10.416v.012zm0 3.792A14.21 14.21 0 0 1 57.584 42.22 14.22 14.22 0 0 1 71.792 28 14.21 14.21 0 0 1 86 42.208a14.21 14.21 0 0 1-14.208 14.208v.012z" fill="#35d07f"/><path d="M64.208 60.208c5.76 0 10.416-4.668 10.416-10.416s-4.668-10.416-10.416-10.416-10.416 4.656-10.416 10.416 4.668 10.416 10.416 10.416zm0 3.792A14.21 14.21 0 0 1 50 49.792a14.21 14.21 0 0 1 14.208-14.208 14.21 14.21 0 0 1 14.208 14.208A14.21 14.21 0 0 1 64.208 64z" fill="#fbcc5c"/><path d="M72.26 56.416a10.32 10.32 0 0 0 2.064-4.092 10.32 10.32 0 0 0 4.092-2.064c-.06 1.74-.432 3.456-1.104 5.052-1.608.672-3.312 1.044-5.052 1.104zm-10.584-16.74a10.32 10.32 0 0 0-4.092 2.064c.06-1.74.432-3.456 1.104-5.052 1.608-.672 3.312-1.044 5.052-1.104a10.32 10.32 0 0 0-2.064 4.092z" fill="#5ea33b"/></g></g><defs><clipPath id="A"><path fill="#fff" transform="translate(50 28)" d="M0 0h121.26v36H0z"/></clipPath></defs></svg>