<svg xmlns="http://www.w3.org/2000/svg" width="222" height="92" fill="none"><path stroke="#3b627d" d="M1 1h220v90H1z"/><g opacity=".5"><g fill-rule="evenodd"><path d="M60.428 66C49.153 66.044 39.949 56.782 40 45.404c.051-11.249 9.21-20.471 20.56-20.403 11.189.068 20.378 9.259 20.29 20.673-.086 11.2-9.183 20.362-20.425 20.328" fill="#0090ff"/><g fill="#fff"><path d="M62.966 43.843l5.318.754.426-1.532-5.5-.817 1.872-6.536c.225-.696.731-1.351 1.248-1.891.676-.708 1.612-.552 2.186.228.24.327.465.672.754.951.367.355.909.53 1.278.183.242-.228.234-.764.258-1.166.008-.162-.18-.353-.313-.501-.641-.727-1.506-.986-2.419-1.025-2.038-.086-3.501.957-4.65 2.534-1.139 1.563-1.637 3.401-2.18 5.216l-.453 1.649-5.846-.848-.203 1.559 5.713.883-.742 3.14-5.459-.766-.201 1.54 5.293.811c0 .199.021.314-.004.419l-1.704 7.16c-.299 1.132-.78 2.222-1.717 3.017-.77.653-1.618.544-2.198-.267-.262-.366-.481-.799-.826-1.056-.252-.187-.815-.3-1-.15-.275.224-.473.717-.451 1.08.02.322.328.698.61.918.953.737 2.075.844 3.212.62 1.905-.376 3.247-1.569 4.078-3.255.654-1.327 1.143-2.741 1.606-4.15.42-1.275.703-2.596 1.059-3.943l5.574.811.444-1.542-5.709-.844.647-3.175"/></g></g><path d="M95.348 54.4v-8.019h8.925v-2.631h-8.925V38.89h9.476v-2.657H92.173V54.4h3.175zm14.513-15.161v-3.006h-2.974v3.006h2.974zm0 15.161V40.919h-2.974V54.4h2.974zm6.322 0V36.233h-2.974V54.4h2.974zm9.384.326c3.45 0 5.5-2.205 6.1-4.359h-2.925c-.524 1.277-1.725 1.879-3.3 1.879-1.7 0-3.45-1.228-3.65-3.733h10.025c.274-4.511-2.325-7.894-6.451-7.894-3.8 0-6.6 2.881-6.6 6.941s2.475 7.167 6.801 7.167zm3.226-8.395h-7.001c.274-2.532 2.175-3.382 3.574-3.382 1.75 0 3.352 1.277 3.425 3.382h.002zm11.498 8.395c2.877 0 5.65-1.778 6.25-4.936h-2.9c-.4 1.805-1.825 2.456-3.3 2.456-1.75 0-3.45-1.378-3.45-4.585s1.651-4.561 3.525-4.561c1.625 0 2.85 1.002 3.126 2.431h2.901c-.524-2.982-3.075-4.912-6.027-4.912-4.025 0-6.6 3.058-6.6 7.066s2.575 7.041 6.475 7.041zm14.618 0c3.276 0 6.627-2.154 6.627-7.041s-3.351-7.066-6.627-7.066-6.626 2.205-6.626 7.066 3.351 7.041 6.626 7.041zm0-2.431c-1.901 0-3.55-1.478-3.55-4.61s1.651-4.637 3.55-4.637 3.55 1.528 3.55 4.637-1.651 4.61-3.55 4.61zm12.254-13.056v-3.006h-2.974v3.006h2.974zm0 15.161V40.919h-2.974V54.4h2.974zm6.322 0v-7.167c0-2.431.826-4.185 3.126-4.185s2.55 1.805 2.55 3.608V54.4h2.975V45.93c0-3.208-1.326-5.312-4.577-5.312-1.901 0-3.3.776-4.076 2.181v-1.879h-2.974V54.4h2.974.002z" fill="#fff"/></g></svg>