<svg width="222" height="92" viewBox="0 0 222 92" fill="none" xmlns="http://www.w3.org/2000/svg">
<rect x="1" y="1" width="220" height="90" stroke="#3B627D"/>
<g opacity="0.5" clip-path="url(#clip0_2120_316)">
<path d="M46.3625 45.077H39.4497V37.6772H36.124V55.6182H39.4497V48.1532H46.3625V55.6182H49.6941V37.6772H46.3625V45.077Z" fill="white"/>
<path d="M101.266 47.9333C102.264 46.7634 102.793 45.2655 102.751 43.7286C102.803 42.1875 102.276 40.6829 101.272 39.5121C100.694 38.8904 99.9865 38.4037 99.1992 38.0866C98.412 37.7694 97.5646 37.6296 96.7171 37.677H91.2949V55.618H94.6267V49.7624H96.141L100.506 55.618H104.342L99.5261 49.2219C100.191 48.9205 100.784 48.4812 101.266 47.9333ZM99.6746 43.7286C99.7289 44.508 99.48 45.2783 98.9798 45.8784C98.6857 46.1732 98.331 46.4003 97.9402 46.544C97.5494 46.6876 97.132 46.7442 96.7171 46.7099H94.6029V40.7711H96.7171C97.1346 40.7269 97.5567 40.7747 97.9538 40.9112C98.3509 41.0476 98.7132 41.2694 99.0153 41.561C99.5023 42.1736 99.7381 42.9486 99.6746 43.7286Z" fill="white"/>
<path d="M114.985 37.6772H111.653V55.6182H114.985V37.6772Z" fill="white"/>
<path d="M124.677 37.6772V41.0089H131.388L123.098 55.6182H137.327V52.2866H129.042L137.327 37.6772H124.677Z" fill="white"/>
<path d="M145.243 55.6182H156.254V52.542H148.575V47.7969H154.894V44.7265H148.575V40.7298H156.254V37.6772H145.243V55.6182Z" fill="white"/>
<path d="M175.114 48.9193L166.682 37.6772H164.241V55.6182H167.572V44.3524L176.048 55.6182H178.47V37.6772H175.114V48.9193Z" fill="white"/>
<path d="M81.3836 38.7876L79.1744 42.2083C80.1125 44.0555 80.4425 46.1521 80.1174 48.1981C79.7921 50.2442 78.8282 52.135 77.3637 53.6002C75.899 55.0655 74.0087 56.0302 71.9627 56.3564C69.9168 56.6826 67.8201 56.3534 65.9725 55.4161L62.5518 57.6313C65.1537 59.4873 68.3295 60.3604 71.5146 60.0954C74.6996 59.8302 77.6875 58.4441 79.9467 56.1835C82.206 53.9228 83.5902 50.9341 83.8532 47.7489C84.1164 44.5637 83.2413 41.3883 81.3836 38.7876Z" fill="url(#paint0_radial_2120_316)"/>
<path d="M70.4023 53.409C71.9869 53.4091 73.5215 52.8545 74.7397 51.8413C75.9579 50.828 76.7829 49.4202 77.0715 47.8622C74.9579 47.409 72.7729 47.4014 70.6563 47.8401C68.5396 48.2787 66.5377 49.1541 64.7783 50.41C65.3978 51.3328 66.2349 52.089 67.2156 52.612C68.1965 53.135 69.2908 53.4087 70.4023 53.409Z" fill="url(#paint1_radial_2120_316)"/>
<path d="M73.7458 46.2827C74.9018 46.2835 76.0544 46.407 77.1844 46.6509C77.1844 44.8521 76.4699 43.1271 75.198 41.8552C73.9261 40.5833 72.2011 39.8688 70.4023 39.8688C68.6035 39.8688 66.8785 40.5833 65.6066 41.8552C64.3347 43.1271 63.6202 44.8521 63.6202 46.6509C63.6211 46.953 63.6429 47.2546 63.6855 47.5536C62.7465 48.2432 61.8913 49.0404 61.1378 49.929C60.4889 48.0834 60.406 46.0861 60.8995 44.193C61.3931 42.2999 62.4408 40.5973 63.9082 39.3034C65.3756 38.0096 67.1959 37.1834 69.1359 36.9307C71.0758 36.678 73.0471 37.0104 74.7969 37.8852L78.2296 35.6582C75.6145 33.7882 72.4179 32.9129 69.2149 33.1898C66.012 33.4668 63.0131 34.8777 60.7578 37.1688C58.5025 39.4599 57.1389 42.4807 56.9125 45.6876C56.686 48.8945 57.6115 52.077 59.5225 54.6622C60.1609 53.5117 60.9366 52.4427 61.8326 51.4791C62.5666 50.7191 63.361 50.02 64.2082 49.3887C66.9765 47.3659 70.3173 46.278 73.7458 46.2827Z" fill="white"/>
<path d="M180.846 40.1181V38.0514H180.109V37.6772H182.01V38.0514H181.273V40.1181H180.846Z" fill="white"/>
<path d="M184.48 40.1181V38.3068L183.733 40.1181H183.548L182.799 38.3068V40.1181H182.373V37.6772H182.967L183.625 39.2807L184.291 37.6772H184.885V40.1181H184.48Z" fill="white"/>
</g>
<defs>
<radialGradient id="paint0_radial_2120_316" cx="0" cy="0" r="1" gradientUnits="userSpaceOnUse" gradientTransform="translate(81.3836 38.7757) scale(22.7218)">
<stop offset="0.1" stop-color="#26DB8D"/>
<stop offset="0.26" stop-color="#23D29A"/>
<stop offset="0.56" stop-color="#1ABBBB"/>
<stop offset="0.89" stop-color="#0E9DE5"/>
</radialGradient>
<radialGradient id="paint1_radial_2120_316" cx="0" cy="0" r="1" gradientUnits="userSpaceOnUse" gradientTransform="translate(81.3831 38.7759) scale(22.7218 22.7218)">
<stop offset="0.1" stop-color="#26DB8D"/>
<stop offset="0.26" stop-color="#23D29A"/>
<stop offset="0.56" stop-color="#1ABBBB"/>
<stop offset="0.89" stop-color="#0E9DE5"/>
</radialGradient>
<clipPath id="clip0_2120_316">
<rect width="150" height="28.5124" fill="white" transform="translate(36 32)"/>
</clipPath>
</defs>
</svg>
