<svg xmlns="http://www.w3.org/2000/svg" width="222" height="92" fill="none"><path stroke="#3b627d" d="M1 1h220v90H1z"/><path opacity=".5" d="M152.841 63.647v2.527h17.211V54.77h-2.506v8.877h-14.705zm0-37.647v2.527h14.705v8.877h2.506V26h-17.211zm-8.873 19.568v-5.876h3.934c1.916 0 2.606.642 2.606 2.407v1.044c0 1.813-.666 2.431-2.606 2.431h-3.934v-.006zm6.243 1.044c1.797-.474 3.047-2.161 3.047-4.166 0-1.267-.494-2.407-1.428-3.325-1.179-1.14-2.756-1.711-4.797-1.711h-5.535V54.77h2.458v-6.921h3.69c1.892 0 2.654.792 2.654 2.779v4.142h2.506v-3.745c0-2.731-.637-3.77-2.607-4.07v-.342h.012zm-20.698.57h7.576v-2.281h-7.576v-5.21h8.314v-2.281h-10.82V54.77h11.189v-2.281h-8.677v-5.306h-.006zm-8.242.912v1.194c0 2.503-.911 3.325-3.196 3.325h-.542c-2.285 0-3.392-.744-3.392-4.19v-4.664c0-3.469 1.155-4.19 3.44-4.19h.494c2.238 0 2.952.846 2.975 3.175h2.702c-.244-3.421-2.505-5.582-5.903-5.582-1.649 0-3.023.522-4.059 1.513-1.547 1.465-2.41 3.944-2.41 7.413 0 3.349.738 5.828 2.261 7.365 1.03 1.014 2.458 1.561 3.863 1.561 1.475 0 2.826-.594 3.517-1.885h.345v1.639h2.261v-8.956h-6.665v2.281h4.309zm-21.686-8.403h2.678c2.535 0 3.91.642 3.91 4.118v4.562c0 3.469-1.375 4.118-3.91 4.118h-2.678V39.692zm2.904 15.078c4.695 0 6.445-3.596 6.445-8.679 0-5.156-1.869-8.68-6.493-8.68h-5.314V54.77h5.362zm-17.24-7.587h7.576v-2.281h-7.576v-5.21h8.314v-2.281H82.743V54.77h11.188v-2.281h-8.683v-5.306zm-14.503-9.772H68.24V54.77h11.313v-2.281h-8.808V37.411zM51 54.77V66.18h17.211v-2.527H53.505V54.77H51zM51 26v11.41h2.505v-8.883h14.705V26H51z" fill="#fff"/></svg>