<svg xmlns="http://www.w3.org/2000/svg" width="222" height="92" fill="none"><path stroke="#3b627d" d="M1 1h220v90H1z"/><path opacity=".5" d="M102.247 48.976l7.165 9.773h5.468l-8.673-11.613c-.377-.444-.629-1.015-.691-1.586 0-.508.314-.888.879-1.587l8.36-9.455h-5.531l-7.04 8.059c-1.068 1.269-1.571 2.158-1.571 2.983-.063 1.142.566 1.967 1.634 3.427zm37.962-2.285c0-7.044 4.903-12.692 12.194-12.692s12.381 5.331 12.381 12.692-5.216 12.565-12.319 12.565c-7.667 0-12.256-5.394-12.256-12.565zm19.861 0c0-4.95-3.016-8.63-7.605-8.63s-7.479 3.617-7.479 8.63 3.08 8.63 7.479 8.63c4.589 0 7.605-3.744 7.605-8.63zm-33.122 12.121H118.4v-3.998h9.365c2.703 0 4.085-.698 4.085-2.602 0-1.713-1.068-2.221-4.022-3.046l-2.829-.762c-5.216-1.459-6.976-3.173-6.976-7.171s2.388-6.663 8.045-6.663h8.611v4.061h-8.611c-2.388 0-3.583.571-3.583 2.285 0 1.65 1.069 2.411 3.834 3.109l2.892.761c4.839 1.269 7.165 3.046 7.165 6.98.062 4.506-2.452 7.044-9.428 7.044zm-42.11.508c-6.159 0-9.868-3.363-9.868-9.836V34.571h4.588V49.23c0 3.554 1.131 6.092 5.342 6.092s5.342-2.411 5.342-6.155V34.508h4.525v14.976c0 6.409-3.708 9.836-9.93 9.836zM62.588 34.571H58V54.18c0 3.236 1.383 4.633 4.085 4.633h8.799v-3.998h-6.599c-1.32 0-1.697-.381-1.697-1.713v-18.53z" fill="#fff"/></svg>