<svg width="222" height="92" viewBox="0 0 222 92" fill="none" xmlns="http://www.w3.org/2000/svg">
<rect x="1" y="1" width="220" height="90" stroke="#3B627D"/>
<g clip-path="url(#clip0_2032_309)">
<path d="M158.898 61H151.998C143.725 61 136.999 54.2739 136.999 46.0011C136.999 37.7283 143.725 31 152 31C160.275 31 166.999 37.7261 166.999 45.9989V60.6998H160.999V45.9989C160.999 41.0261 156.973 36.9996 152 36.9996C147.027 36.9996 143.001 41.0261 143.001 45.9989C143.001 50.9717 147.027 54.9983 152 54.9983H158.9V60.9978L158.898 61Z" fill="white" fill-opacity="0.5"/>
<path d="M125 60.6998H119V45.9989C119 37.7261 125.726 31 133.999 31V36.9996C129.026 36.9996 125 41.0261 125 45.9989V60.6998Z" fill="white" fill-opacity="0.5"/>
<path d="M97.9999 61C89.7271 61 83.001 54.2739 83.001 46.0011C83.001 37.7283 89.7271 31 97.9999 31C106.273 31 112.999 37.7261 112.999 45.9989V48.9987H95.7484V42.9991H106.477C105.231 39.5012 101.907 36.9996 98.0064 36.9996C93.0336 36.9996 89.0071 41.0261 89.0071 45.9989C89.0071 50.9717 93.0336 54.9983 98.0064 54.9983C101.006 54.9983 103.808 53.4973 105.483 50.9956L110.456 54.3435C107.678 58.4962 103.027 60.9978 97.9977 60.9978L97.9999 61Z" fill="white" fill-opacity="0.5"/>
<path d="M190.651 36.9995H175.998V60.6997H190.651V36.9995Z" fill="white" fill-opacity="0.5"/>
<path d="M62.0001 58.0004L73.9992 45.9991L62.0001 34V42.9993L50.001 52.0009H62.0001V58.0004Z" fill="white" fill-opacity="0.5"/>
<path d="M43.9991 34L32 45.9991L43.9991 58.0004V49.0011L56.0004 39.9996H43.9991V34Z" fill="white" fill-opacity="0.5"/>
</g>
<defs>
<clipPath id="clip0_2032_309">
<rect width="158.651" height="30" fill="white" transform="translate(32 31)"/>
</clipPath>
</defs>
</svg>
