<svg width="222" height="92" viewBox="0 0 222 92" fill="none" xmlns="http://www.w3.org/2000/svg">
<rect x="1" y="1" width="220" height="90" stroke="#3B627D"/>
<g opacity="0.5">
<path fill-rule="evenodd" clip-rule="evenodd" d="M83.744 45.5031L66.2288 28.0063V40.8203L48.8379 53.6498L66.2288 53.6618V62.9999L83.744 45.5031Z" fill="#4E529A"/>
<path fill-rule="evenodd" clip-rule="evenodd" d="M22 45.4968L39.5152 62.9935V50.3152L56.7788 37.4772L39.5152 37.4654V28L22 45.4968Z" fill="#8C8DFC"/>
<path d="M110.706 55.8067H97.2676V51.9476L104.961 43.3717H97.4657V39.5786H110.574V43.2399L102.65 51.9806H110.706V55.8067Z" fill="white" fill-opacity="0.9"/>
<path d="M129.047 39.5786L122.542 46.4063L129.179 55.8067H123.797L119.504 49.6057L117.688 51.5188V55.8067H113.297V31.9263H117.688V45.6147L123.302 39.5786H129.047Z" fill="white" fill-opacity="0.9"/>
<path d="M148.147 37.9953L144.052 39.2488C143.898 38.4131 143.48 37.6546 142.798 36.9729C142.116 36.2911 141.113 35.9504 139.793 35.9504C138.715 35.9504 137.835 36.2472 137.151 36.8409C136.469 37.4127 136.128 38.1054 136.128 38.9189C136.128 40.3482 136.976 41.2278 138.67 41.5576L141.939 42.1843C144.008 42.5802 145.615 43.4048 146.76 44.6581C147.905 45.9115 148.478 47.3848 148.478 49.078C148.478 51.0131 147.707 52.7062 146.166 54.1575C144.647 55.5869 142.599 56.3014 140.024 56.3014C138.55 56.3014 137.217 56.0815 136.029 55.6418C134.84 55.202 133.883 54.6192 133.156 53.8936C132.43 53.146 131.857 52.3653 131.439 51.5518C131.043 50.7161 130.801 49.8586 130.713 48.979L134.939 47.8576C135.049 49.1109 135.534 50.1554 136.392 50.9911C137.272 51.8266 138.495 52.2444 140.057 52.2444C141.246 52.2444 142.171 51.9806 142.831 51.4528C143.513 50.925 143.854 50.2324 143.854 49.3748C143.854 48.6931 143.601 48.1105 143.094 47.6266C142.611 47.1209 141.917 46.7801 141.015 46.6042L137.745 45.9445C135.852 45.5486 134.356 44.7681 133.255 43.6026C132.155 42.4372 131.604 40.9859 131.604 39.2488C131.604 37.1818 132.397 35.4447 133.982 34.0373C135.589 32.63 137.515 31.9263 139.76 31.9263C141.103 31.9263 142.303 32.1132 143.359 32.487C144.415 32.8608 145.264 33.3666 145.901 34.0042C146.54 34.6201 147.035 35.2577 147.387 35.9173C147.74 36.577 147.993 37.2697 148.147 37.9953Z" fill="white" fill-opacity="0.9"/>
<path d="M155.875 62.2056H151.22L155.05 53.7617L148.148 39.5786H153.069L157.394 49.078L161.39 39.5786H166.078L155.875 62.2056Z" fill="white" fill-opacity="0.9"/>
<path d="M172.14 46.4723V55.8068H167.748V39.5787H172.008V41.5907C172.47 40.7991 173.13 40.1944 173.989 39.7765C174.848 39.3588 175.75 39.1499 176.696 39.1499C178.611 39.1499 180.064 39.7546 181.055 40.964C182.068 42.1515 182.575 43.6906 182.575 45.5818V55.8068H178.182V46.3404C178.182 45.3729 177.929 44.5922 177.423 43.9985C176.938 43.4048 176.19 43.108 175.177 43.108C174.253 43.108 173.516 43.4269 172.966 44.0645C172.415 44.7021 172.14 45.5048 172.14 46.4723Z" fill="white" fill-opacity="0.9"/>
<path d="M193.337 43.1411C192.17 43.1411 191.19 43.5478 190.399 44.3615C189.606 45.175 189.209 46.2855 189.209 47.6929C189.209 49.1002 189.606 50.2216 190.399 51.0572C191.213 51.8708 192.203 52.2776 193.37 52.2776C194.404 52.2776 195.23 52.0137 195.847 51.4859C196.463 50.9363 196.881 50.2875 197.101 49.5399L200.964 50.8264C200.569 52.3216 199.71 53.6079 198.389 54.6855C197.068 55.7629 195.395 56.3016 193.37 56.3016C190.948 56.3016 188.913 55.4881 187.261 53.8609C185.633 52.2117 184.818 50.1556 184.818 47.6929C184.818 45.208 185.621 43.152 187.228 41.5248C188.858 39.8976 190.861 39.084 193.237 39.084C195.307 39.084 197.002 39.6228 198.323 40.7002C199.644 41.7558 200.491 43.0421 200.865 44.5593L196.936 45.8788C196.408 44.0536 195.208 43.1411 193.337 43.1411Z" fill="white" fill-opacity="0.9"/>
</g>
</svg>
