<svg width="122" height="60" viewBox="0 0 122 60" fill="none" xmlns="http://www.w3.org/2000/svg">
<g clip-path="url(#clip0_1545_51)">
<path fill-rule="evenodd" clip-rule="evenodd" d="M37.8198 30.2743L19.6166 0L1.40486 30.2743L12.4553 36.7457C12.3096 37.3286 12.224 37.9457 12.224 38.58C12.224 38.76 12.224 38.9486 12.2411 39.1286L0 31.9543L19.5909 60L19.6081 59.9657L19.6252 60L39.2161 31.9543L26.975 39.12C26.9921 38.94 26.9921 38.76 26.9921 38.58C26.9921 37.9457 26.915 37.3286 26.7608 36.7457L37.8113 30.2743H37.8198ZM26.1012 35.0314L34.5732 30.0686L22.7604 24.72V31.8857C24.1739 32.5543 25.3474 33.66 26.1012 35.0314ZM22.7604 22.7229L34.2905 27.9514L20.3191 4.80857V9.98571C23.1459 10.3457 25.3303 12.7629 25.3303 15.6857C25.3303 17.6829 24.3109 19.4486 22.7604 20.4771V22.7143V22.7229ZM19.5909 21.4371C20.0535 21.4371 20.5075 21.3857 20.9444 21.2743V31.3029C20.5161 31.2257 20.0706 31.1829 19.6166 31.1829C19.1969 31.1829 18.7857 31.2171 18.3831 31.2857V21.3086C18.7686 21.3943 19.1712 21.4371 19.5909 21.4371ZM16.5671 20.58C14.9395 19.5686 13.8516 17.76 13.8516 15.6943C13.8516 12.7714 16.0359 10.3629 18.8542 9.99429V4.92857L4.9427 27.9257L16.5671 22.6543V20.5629V20.58ZM16.5671 24.6686L4.64289 30.0771L13.132 35.0486C13.903 33.6429 15.1108 32.52 16.5671 31.86V24.6771V24.6686ZM21.9809 45.5914C21.2356 45.84 20.439 45.9771 19.6166 45.9771C18.7943 45.9771 17.9548 45.8314 17.1924 45.5743V53.3571L19.6166 56.8114L21.9809 53.4343V45.6V45.5914ZM14.8795 44.2629C15.0337 44.3914 15.205 44.52 15.3678 44.64V50.76L12.9949 47.3657L14.8795 44.2629ZM13.5946 42.8743C13.3119 42.4714 13.0635 42.0429 12.8579 41.5886L5.97922 37.3714L10.7763 44.2286H10.7934L11.8642 45.7457L13.6031 42.8829L13.5946 42.8743ZM23.7969 44.6829V50.8371L26.1955 47.4086L24.3023 44.2971C24.1396 44.4343 23.9683 44.5629 23.7884 44.6829H23.7969ZM28.4313 44.22L27.3348 45.7886L25.5958 42.9257C25.8957 42.5143 26.1526 42.06 26.3668 41.5886L33.2455 37.3714L28.4484 44.2286H28.4313V44.22ZM19.5824 19.62C21.7496 19.62 23.5057 17.8629 23.5057 15.6943C23.5057 13.5257 21.7496 11.7686 19.5824 11.7686C17.4151 11.7686 15.659 13.5257 15.659 15.6943C15.659 17.8629 17.4151 19.62 19.5824 19.62ZM25.1761 38.5886C25.1761 41.6657 22.6833 44.16 19.6081 44.16C16.5328 44.16 14.04 41.6657 14.04 38.5886C14.04 35.5114 16.5328 33.0171 19.6081 33.0171C22.6833 33.0171 25.1761 35.5114 25.1761 38.5886ZM44.7499 14.28H55.4063V16.44H47.5425V21.0343H54.1385V23.1943H47.5425V28.4571H55.6033V30.6171H44.7499V14.2714V14.28ZM65.8827 30.6257V16.4314H71.1767V14.2714H57.7962V16.4314H63.0902V30.6086H65.8827V30.6257ZM77.1302 23.2029V30.6257H74.3376V14.2714H77.1302V21.0257H84.9169V14.2714H87.7094V30.6171H84.9169V23.1943H77.1302V23.2029ZM47.5168 46.5257C48.0822 46.7657 48.7161 46.8857 49.427 46.8857C50.1723 46.8857 50.8233 46.74 51.3716 46.4571C51.9284 46.1657 52.3481 45.78 52.6308 45.3C52.9221 44.8286 53.0677 44.3229 53.0677 43.7829C53.0677 43.1143 52.9135 42.5829 52.5965 42.1886C52.2967 41.7857 51.9198 41.4857 51.4744 41.2971C51.0375 41.1086 50.4721 40.9114 49.7783 40.7229C49.2557 40.5771 48.836 40.4486 48.5362 40.3286C48.2363 40.2086 47.9794 40.0457 47.7823 39.84C47.5939 39.6257 47.4911 39.36 47.4911 39.0343C47.4911 38.5629 47.6453 38.1943 47.9622 37.9457C48.2792 37.6886 48.6818 37.5686 49.1786 37.5686C49.7269 37.5686 50.1637 37.7057 50.4978 37.98C50.8319 38.2543 51.0118 38.58 51.0461 38.9657H52.9563C52.8878 38.0743 52.5194 37.38 51.8684 36.8743C51.2174 36.36 50.3865 36.1029 49.3671 36.1029C48.6475 36.1029 48.0136 36.2229 47.4739 36.4629C46.9257 36.7029 46.506 37.0543 46.1976 37.5086C45.8978 37.9629 45.7436 38.4943 45.7436 39.1029C45.7436 39.7629 45.8978 40.2857 46.1976 40.68C46.4974 41.0743 46.8657 41.3657 47.2855 41.5629C47.7224 41.7429 48.2792 41.9229 48.9645 42.1114C49.5127 42.2571 49.9325 42.3857 50.2408 42.5057C50.5578 42.6257 50.8148 42.7971 51.0118 43.02C51.226 43.2429 51.3287 43.5343 51.3287 43.8857C51.3287 44.34 51.166 44.7171 50.8319 45.0086C50.4978 45.2914 50.0352 45.4371 49.4356 45.4371C48.836 45.4371 48.4077 45.2914 48.0822 45C47.7652 44.7086 47.5939 44.3314 47.551 43.8771H45.7007C45.7007 44.4857 45.8635 45.0171 46.189 45.4714C46.5145 45.9257 46.96 46.2771 47.5253 46.5343L47.5168 46.5257ZM63.5185 46.7829V36.24H61.7881V40.7571H56.8283V36.24H55.0979V46.7829H56.8283V42.1714H61.7881V46.7829H63.5185ZM72.1446 44.6314H67.733L66.9792 46.7829H65.1717L68.9494 36.2229H70.9539L74.7316 46.7829H72.9156L72.1618 44.6314H72.1446ZM71.6564 43.2171L69.9431 38.3143L68.2127 43.2171H71.6564ZM83.2893 46.7829H85.0197V36.2229H83.2893V44.0829L78.0896 36.2229H76.3592V46.7829H78.0896V38.9057L83.2893 46.7829ZM94.9136 39.2743C94.6395 38.7514 94.2626 38.3571 93.7743 38.0914C93.2861 37.8171 92.7293 37.68 92.0954 37.68C91.4015 37.68 90.7762 37.8343 90.2279 38.1514C89.6797 38.4686 89.2514 38.9057 88.943 39.4886C88.6432 40.0629 88.489 40.7314 88.489 41.4943C88.489 42.2571 88.6432 42.9257 88.943 43.5086C89.2599 44.0829 89.6882 44.5286 90.2279 44.8457C90.7762 45.1629 91.3929 45.3171 92.0954 45.3171C93.0376 45.3171 93.8 45.0514 94.3825 44.5286C94.965 44.0057 95.3248 43.2857 95.4619 42.3857H91.5043V41.0057H97.3122V42.36C97.2008 43.1829 96.9096 43.9286 96.4299 44.6229C95.9673 45.3086 95.3505 45.8657 94.5967 46.2771C93.8514 46.68 93.0119 46.8857 92.0954 46.8857C91.1017 46.8857 90.2022 46.6543 89.3799 46.2C88.5575 45.7371 87.9065 45.0943 87.4268 44.2714C86.9471 43.4486 86.7158 42.5229 86.7158 41.4943C86.7158 40.4657 86.9556 39.54 87.4268 38.7171C87.915 37.8943 88.5661 37.26 89.3799 36.8057C90.2108 36.3429 91.1102 36.1114 92.0954 36.1114C93.2175 36.1114 94.2112 36.3857 95.085 36.9429C95.9673 37.4914 96.6012 38.2714 96.9952 39.2829H94.9136V39.2743ZM107.429 46.7829V36.24H105.698V40.7571H100.739V36.24H99.0083V46.7829H100.739V42.1714H105.698V46.7829H107.429ZM116.055 44.6314H111.643L110.89 46.7829H109.082L112.86 36.2229H114.864L118.642 46.7829H116.826L116.072 44.6314H116.055ZM115.567 43.2171L113.854 38.3143L112.123 43.2171H115.567ZM122 46.7829V36.24H120.27V46.7829H122Z" fill="white"/>
</g>
<defs>
<clipPath id="clip0_1545_51">
<rect width="122" height="60" fill="white"/>
</clipPath>
</defs>
</svg>
