<svg width="120" height="24" viewBox="0 0 120 24" fill="none" xmlns="http://www.w3.org/2000/svg">
<path fill-rule="evenodd" clip-rule="evenodd" d="M4.29907 23.5712V14.5001H0V10.806H4.29907V9.49346H0V5.88225H4.29907V0H14.0646C16.6242 0 18.519 0.597808 19.7476 1.79343C20.9761 2.97767 21.5912 4.80521 21.5912 7.27604C21.5912 9.14907 21.1382 10.655 20.2304 11.7937C19.3227 12.9211 18.061 13.7058 16.4407 14.1459L21.9351 23.5712H16.854L11.8076 14.518H8.88088V23.5712H4.29907ZM8.88088 10.8125H14.6681C16.1033 10.8125 16.821 10.0279 16.821 8.46029V6.03982C16.821 5.25031 16.6605 4.68662 16.3381 4.34711C16.029 3.99785 15.4716 3.8224 14.6681 3.8224H8.88088V10.8125ZM22.1319 14.7048C22.1319 13.3175 22.3271 12.0601 22.7173 10.9311C23.1075 9.79237 23.6532 8.82092 24.3542 8.02005C25.0669 7.20781 25.9218 6.58239 26.9204 6.14216C27.9191 5.70192 29.027 5.48262 30.2439 5.48262C31.461 5.48262 32.5637 5.69705 33.5509 6.12591C34.5496 6.55477 35.3996 7.14608 36.1005 7.9031C36.8116 8.64711 37.3523 9.53894 37.7194 10.577C38.098 11.615 38.2881 12.7375 38.2881 13.9445V16.1279H26.7319V17.2958C26.7319 18.3566 27.0825 19.1802 27.7819 19.7667C28.4929 20.3417 29.3312 20.6293 30.2969 20.6293C31.2609 20.6293 32.0479 20.3807 32.6564 19.8852C33.2649 19.3882 33.627 18.6896 33.741 17.7864H38.1509C37.8632 19.7488 37.0199 21.2774 35.6194 22.3723C34.2305 23.4559 32.4381 23.9968 30.2456 23.9968C28.9708 23.9968 27.8282 23.7711 26.8179 23.3195C25.8193 22.8678 24.9693 22.2359 24.2682 21.4236C23.5787 20.6114 23.0513 19.635 22.6842 18.4963C22.3154 17.3559 22.1319 16.0921 22.1319 14.7048ZM26.7302 12.7587H33.7741V12.1332C33.7741 11.1634 33.4417 10.3739 32.7755 9.76475C32.1091 9.15557 31.2658 8.8518 30.2439 8.8518C29.2336 8.8518 28.3953 9.15719 27.729 9.76475C27.0626 10.3739 26.7302 11.1634 26.7302 12.1332V12.7587ZM39.5862 17.9538H43.996C44.1796 19.7358 45.2642 20.6277 47.2516 20.6277C48.1016 20.6277 48.8242 20.475 49.421 20.1711C50.018 19.856 50.3173 19.359 50.3173 18.6815C50.3173 18.0382 50.0709 17.5752 49.5766 17.2942C49.0821 17.0001 48.434 16.7695 47.6304 16.6006L44.5301 15.941C41.5224 15.2977 40.0178 13.6115 40.0178 10.8824C40.0178 10.1156 40.1731 9.40411 40.4823 8.75107C40.8031 8.09641 41.2627 7.52783 41.8597 7.04212C42.4566 6.5564 43.1858 6.17952 44.0473 5.90824C44.9087 5.62558 45.8892 5.48586 46.9921 5.48586C49.0358 5.48586 50.7125 5.97159 52.0203 6.9414C53.3299 7.91121 54.0294 9.37812 54.1219 11.3405H49.7121C49.6657 10.5055 49.3962 9.88496 48.9019 9.47884C48.4092 9.06135 47.7709 8.85341 46.9904 8.85341C46.2332 8.85341 45.6131 9.01749 45.1303 9.34401C44.6591 9.65915 44.4242 10.1059 44.4242 10.681C44.4242 11.256 44.6029 11.6849 44.9584 11.9675C45.3253 12.2388 45.8016 12.4354 46.3886 12.5605L49.9536 13.3224C50.6083 13.4572 51.2283 13.6603 51.8136 13.9315C52.4106 14.1914 52.9215 14.5293 53.3464 14.9469C53.7715 15.3643 54.1037 15.8598 54.3452 16.4365C54.5982 17.0116 54.7238 17.6938 54.7238 18.4834C54.7238 19.25 54.5568 19.9665 54.2244 20.6325C53.8921 21.2985 53.4093 21.8785 52.7776 22.3755C52.1461 22.871 51.3655 23.2674 50.4347 23.5599C49.5054 23.8522 48.4423 24 47.2484 24C44.8492 24 42.994 23.4819 41.686 22.4439C40.3782 21.3879 39.6771 19.8933 39.5862 17.9538ZM56.0748 14.7048C56.0748 13.3175 56.2698 12.0601 56.66 10.9311C57.0503 9.79237 57.5959 8.82092 58.2953 8.02005C59.008 7.20781 59.8629 6.58239 60.8616 6.14216C61.8602 5.70192 62.9681 5.48262 64.185 5.48262C65.4021 5.48262 66.5049 5.69705 67.4921 6.12591C68.4907 6.55477 69.3407 7.14608 70.0417 7.9031C70.7544 8.64711 71.2934 9.53894 71.6605 10.577C72.0391 11.615 72.2292 12.7375 72.2292 13.9445V16.1279H60.6731V17.2958C60.6731 18.3566 61.0236 19.1802 61.723 19.7667C62.4357 20.3417 63.2739 20.6293 64.238 20.6293C65.202 20.6293 65.9891 20.3807 66.5975 19.8852C67.206 19.3882 67.5682 18.6896 67.6822 17.7864H72.092C71.8043 19.7488 70.961 21.2774 69.5605 22.3723C68.1717 23.4559 66.3809 23.9968 64.1868 23.9968C62.9119 23.9968 61.7693 23.7711 60.7591 23.3195C59.7604 22.8678 58.9104 22.2359 58.2093 21.4236C57.5198 20.6114 56.9924 19.635 56.6253 18.4963C56.2582 17.3559 56.0748 16.0921 56.0748 14.7048ZM60.6731 12.7587H67.7169V12.1332C67.7169 11.1634 67.3846 10.3739 66.7182 9.76475C66.0518 9.15557 65.2085 8.8518 64.1868 8.8518C63.1765 8.8518 62.3381 9.15719 61.6717 9.76475C61.0053 10.3739 60.6731 11.1634 60.6731 12.1332V12.7587ZM73.9936 23.5712V5.90498H84.0351V9.28877H78.4034V23.5696H73.9936V23.5712ZM85.3348 5.90498H90.0538L93.9809 18.7141H94.1182L98.1311 5.90498H102.799L96.4777 23.5712H91.6544L85.3348 5.90498ZM102.897 14.7048C102.897 13.3175 103.092 12.0601 103.482 10.9311C103.872 9.79237 104.418 8.82092 105.117 8.02005C105.83 7.20781 106.685 6.58239 107.683 6.14216C108.682 5.70192 109.79 5.48262 111.007 5.48262C112.224 5.48262 113.327 5.69705 114.314 6.12591C115.313 6.55477 116.162 7.14608 116.862 7.9031C117.575 8.64711 118.113 9.53894 118.481 10.577C118.859 11.615 119.049 12.7375 119.049 13.9445V16.1279H107.493V17.2958C107.493 18.3566 107.844 19.1802 108.543 19.7667C109.256 20.3417 110.094 20.6293 111.058 20.6293C112.022 20.6293 112.809 20.3807 113.418 19.8852C114.026 19.3882 114.388 18.6896 114.502 17.7864H118.912C118.625 19.7488 117.781 21.2774 116.381 22.3723C114.992 23.4559 113.201 23.9968 111.007 23.9968C109.732 23.9968 108.59 23.7711 107.579 23.3195C106.58 22.8678 105.731 22.2359 105.03 21.4236C104.34 20.6114 103.813 19.635 103.445 18.4963C103.08 17.3559 102.897 16.0921 102.897 14.7048ZM107.495 12.7587H114.539V12.1332C114.539 11.1634 114.206 10.3739 113.54 9.76475C112.874 9.15557 112.03 8.8518 111.009 8.8518C109.998 8.8518 109.16 9.15719 108.494 9.76475C107.827 10.3739 107.495 11.1634 107.495 12.1332V12.7587Z" fill="white"/>
</svg>
