<svg width="142" height="49" viewBox="0 0 142 49" fill="none" xmlns="http://www.w3.org/2000/svg">
<g clip-path="url(#clip0_1545_4)">
<path d="M70.4118 11.0772H61.6409V34.7127H59.487V11.0772H50.7383V9.26416H70.4118V11.0772Z" fill="white"/>
<path d="M78.5162 35.0885C76.8952 35.0885 75.4297 34.6906 74.1418 33.8946C72.8539 33.0987 71.8103 31.9932 71.0998 30.5781C70.367 29.1631 70.0117 27.5712 70.0117 25.8245V25.0728C70.0117 23.2597 70.367 21.6236 71.0776 20.1644C71.7881 18.7051 72.7651 17.5554 74.0308 16.7373C75.2965 15.9192 76.6732 15.4771 78.1387 15.4771C80.448 15.4771 82.2688 16.2509 83.6233 17.8207C84.9778 19.3905 85.6439 21.5352 85.6439 24.2547V25.4265H72.0768V25.8245C72.0768 27.9692 72.6985 29.7601 73.9198 31.1751C75.1632 32.6122 76.7176 33.3198 78.5828 33.3198C79.7152 33.3198 80.6923 33.1208 81.5582 32.7007C82.4242 32.3027 83.2014 31.6394 83.912 30.7329L85.222 31.7278C83.7121 33.9609 81.4694 35.0885 78.5162 35.0885ZM78.1387 17.2458C76.5622 17.2458 75.2299 17.8207 74.1418 18.9704C73.0538 20.1201 72.4098 21.6678 72.1656 23.6135H83.5567V23.3924C83.4901 21.5794 82.9794 20.098 82.0023 18.9483C81.0253 17.7986 79.7374 17.2458 78.1387 17.2458Z" fill="white"/>
<path d="M91.8616 32.9659H104.208V34.7347H89.2637V33.187L100.788 17.6216H89.619V15.8086H103.43V17.3784L91.8616 32.9659Z" fill="white"/>
<path d="M107.228 24.984C107.228 23.171 107.583 21.5348 108.293 20.0756C109.004 18.6163 110.003 17.4887 111.291 16.6706C112.579 15.8526 114.044 15.4546 115.688 15.4546C118.219 15.4546 120.262 16.339 121.838 18.1078C123.415 19.8766 124.192 22.2202 124.192 25.1387V25.5809C124.192 27.4161 123.837 29.0522 123.126 30.5114C122.416 31.9707 121.416 33.0983 120.129 33.8943C118.841 34.6902 117.375 35.0882 115.732 35.0882C113.223 35.0882 111.158 34.2038 109.581 32.435C108.005 30.6662 107.228 28.3226 107.228 25.4041V24.984ZM109.337 25.5588C109.337 27.814 109.937 29.6713 111.091 31.1305C112.268 32.5898 113.8 33.2973 115.71 33.2973C117.619 33.2973 119.152 32.5677 120.328 31.1305C121.505 29.6713 122.083 27.7698 122.083 25.3819V24.984C122.083 23.5468 121.816 22.2202 121.283 21.0042C120.75 19.8102 119.995 18.8816 119.018 18.2183C118.041 17.555 116.931 17.2234 115.688 17.2234C113.822 17.2234 112.29 17.953 111.091 19.4123C109.914 20.8715 109.315 22.7951 109.315 25.1608L109.337 25.5588Z" fill="white"/>
<path d="M139.912 29.9148C139.912 28.8757 139.49 28.0355 138.647 27.4164C137.803 26.7973 136.559 26.2888 134.85 25.935C133.14 25.5813 131.852 25.1612 130.919 24.719C129.987 24.2547 129.298 23.7019 128.854 23.0386C128.41 22.3753 128.166 21.5794 128.166 20.6287C128.166 19.1252 128.788 17.9091 130.053 16.9363C131.297 15.9635 132.918 15.4771 134.872 15.4771C136.981 15.4771 138.691 16.0077 139.979 17.0469C141.267 18.086 141.911 19.4568 141.911 21.1372H139.801C139.801 20.0317 139.335 19.1031 138.402 18.3734C137.47 17.6438 136.293 17.268 134.872 17.268C133.451 17.268 132.385 17.5775 131.541 18.1745C130.697 18.7935 130.275 19.5895 130.275 20.5623C130.275 21.5352 130.631 22.2427 131.319 22.7512C132.007 23.2597 133.295 23.7462 135.138 24.1884C136.981 24.6306 138.358 25.0728 139.291 25.5592C140.201 26.0456 140.889 26.6426 141.333 27.328C141.778 28.0134 142 28.8535 142 29.8264C142 31.4183 141.356 32.7007 140.068 33.6514C138.78 34.6021 137.092 35.0885 135.005 35.0885C132.785 35.0885 130.986 34.5579 129.631 33.4966C128.255 32.4354 127.566 31.0867 127.566 29.4505H129.676C129.765 30.6666 130.275 31.6173 131.23 32.3027C132.185 32.9881 133.451 33.3198 135.027 33.3198C136.493 33.3198 137.67 32.9881 138.58 32.369C139.468 31.7057 139.912 30.8877 139.912 29.9148Z" fill="white"/>
<path d="M35.2169 36.1497C34.7062 27.151 23.3373 23.0606 22.2493 22.6406C22.2048 22.6184 22.2048 22.5742 22.2271 22.53L33.9512 10.8118V9.55149C33.9512 9.3525 33.7736 9.17562 33.5737 9.17562H11.9684V2.12255V0L3.99687 1.65824V2.85218H4.44097C4.44097 2.85218 6.395 2.85218 6.395 4.79785V9.15351H0.222048C0.111024 9.15351 0 9.26406 0 9.37461V12.1383H6.4172V27.151C6.4172 31.8604 9.45926 35.1327 14.7884 34.6905C15.9209 34.602 16.9645 34.1598 17.8527 33.585C18.2524 33.3196 18.4966 32.8996 18.4966 32.4131V30.9318C16.7647 32.0815 15.2991 32.0152 15.2991 32.0152C11.924 32.0152 11.9906 27.7479 11.9906 27.7479V12.1383H27.534L16.3428 23.3702C16.3206 24.8515 16.2984 26.0013 16.2984 26.0234C16.2984 26.0676 16.3206 26.0897 16.365 26.0897C26.6236 27.8143 29.3992 34.4251 29.3992 36.3487C29.3992 36.3487 30.5095 45.7012 21.1168 46.3424C21.1168 46.3424 14.9661 46.6077 13.878 44.1535C13.8336 44.0651 13.878 43.9766 13.9668 43.9324C14.9883 43.4681 15.6766 42.5616 15.6766 41.3455C15.6766 39.5325 14.5664 38.0512 12.2349 38.0512C10.3475 38.0512 8.79312 39.5325 8.79312 41.3455C8.79312 41.3455 7.90492 49.2167 21.0946 48.9956C36.1495 48.7303 35.2169 36.1497 35.2169 36.1497Z" fill="white"/>
</g>
<defs>
<clipPath id="clip0_1545_4">
<rect width="142" height="49" fill="white"/>
</clipPath>
</defs>
</svg>
