<svg width="170" height="32" viewBox="0 0 186 35" fill="none" xmlns="http://www.w3.org/2000/svg">
<g clip-path="url(#clip0_2032_310)">
<path d="M148.048 35H139.998C130.346 35 122.499 27.1529 122.499 17.5013C122.499 7.84968 130.346 0 140 0C149.654 0 157.499 7.84715 157.499 17.4987V34.6498H150.5V17.4987C150.5 11.6971 145.802 6.99949 140 6.99949C134.199 6.99949 129.501 11.6971 129.501 17.4987C129.501 23.3003 134.199 27.998 140 27.998H148.05V34.9975L148.048 35Z" fill="white"/>
<path d="M108.499 34.6498H101.5V17.4987C101.5 7.84715 109.347 0 118.999 0V6.99949C113.197 6.99949 108.499 11.6971 108.499 17.4987V34.6498Z" fill="white"/>
<path d="M76.9997 35C67.3481 35 59.501 27.1529 59.501 17.5013C59.501 7.84968 67.3481 0 76.9997 0C86.6513 0 94.4984 7.84715 94.4984 17.4987V20.9985H74.373V13.999H86.8899C85.4356 9.91806 81.5577 6.99949 77.0073 6.99949C71.2057 6.99949 66.5081 11.6971 66.5081 17.4987C66.5081 23.3003 71.2057 27.998 77.0073 27.998C80.5071 27.998 83.7759 26.2468 85.73 23.3283L91.5316 27.2341C88.2908 32.0789 82.8648 34.9975 76.9972 34.9975L76.9997 35Z" fill="white"/>
<path d="M185.093 6.99951H167.998V34.6498H185.093V6.99951Z" fill="white"/>
<path d="M35 31.5L48.9989 17.4985L35 3.49951V13.9988L21.001 24.5005H35V31.5Z" fill="white"/>
<path d="M13.999 3.49951L0 17.4985L13.999 31.5V21.0008L28.0005 10.499H13.999V3.49951Z" fill="white"/>
</g>
<defs>
<clipPath id="clip0_2032_310">
<rect width="185.093" height="35" fill="white"/>
</clipPath>
</defs>
</svg>
