<svg width="200" height="39" viewBox="0 0 231 46" fill="none" xmlns="http://www.w3.org/2000/svg">
<path fill-rule="evenodd" clip-rule="evenodd" d="M79.5845 22.7093L57.0649 0.213379V16.6885L34.7051 33.1836L57.0649 33.1991V45.2052L79.5845 22.7093Z" fill="white"/>
<path fill-rule="evenodd" clip-rule="evenodd" d="M0.199219 22.701L22.7189 45.1969V28.8962L44.9149 12.3901L22.7189 12.3749V0.205078L0.199219 22.701Z" fill="white"/>
<path d="M114.251 35.9566H96.9727V30.9949L106.864 19.9686H97.2274V15.0918H114.081V19.7992L103.892 31.0372H114.251V35.9566Z" fill="white" fill-opacity="0.9"/>
<path d="M137.832 15.0917L129.469 23.8702L138.002 35.9565H131.082L125.563 27.9838L123.228 30.4434V35.9565H117.582V5.25293H123.228V22.8524L130.445 15.0917H137.832Z" fill="white" fill-opacity="0.9"/>
<path d="M162.388 13.056L157.124 14.6677C156.926 13.5932 156.387 12.6179 155.511 11.7414C154.634 10.8649 153.345 10.4268 151.647 10.4268C150.261 10.4268 149.129 10.8085 148.251 11.5718C147.374 12.3069 146.935 13.1975 146.935 14.2435C146.935 16.0812 148.025 17.2121 150.204 17.6361L154.406 18.4419C157.066 18.9508 159.132 20.011 160.605 21.6225C162.077 23.234 162.813 25.1282 162.813 27.3052C162.813 29.7932 161.822 31.97 159.841 33.8361C157.887 35.6738 155.255 36.5925 151.944 36.5925C150.048 36.5925 148.336 36.3098 146.808 35.7445C145.279 35.1789 144.048 34.4297 143.114 33.4968C142.18 32.5355 141.444 31.5318 140.907 30.4858C140.397 29.4114 140.086 28.3088 139.973 27.1779L145.407 25.7361C145.548 27.3476 146.171 28.6905 147.274 29.7649C148.406 30.8392 149.978 31.3764 151.987 31.3764C153.515 31.3764 154.704 31.0371 155.553 30.3585C156.43 29.68 156.868 28.7894 156.868 27.6868C156.868 26.8104 156.543 26.0613 155.892 25.4392C155.27 24.7889 154.379 24.3508 153.219 24.1246L149.015 23.2764C146.58 22.7675 144.657 21.7639 143.241 20.2654C141.826 18.767 141.119 16.9011 141.119 14.6677C141.119 12.01 142.138 9.77659 144.176 7.96716C146.242 6.15773 148.718 5.25293 151.604 5.25293C153.332 5.25293 154.874 5.49324 156.232 5.97385C157.59 6.45447 158.681 7.10473 159.5 7.92462C160.322 8.71638 160.958 9.53628 161.411 10.3843C161.864 11.2325 162.19 12.1231 162.388 13.056Z" fill="white" fill-opacity="0.9"/>
<path d="M172.325 44.1837H166.34L171.264 33.3273L162.391 15.0918H168.717L174.278 27.3053L179.415 15.0918H185.443L172.325 44.1837Z" fill="white" fill-opacity="0.9"/>
<path d="M193.237 23.9551V35.9566H187.59V15.0918H193.067V17.6788C193.661 16.6609 194.51 15.8834 195.614 15.3462C196.718 14.8091 197.878 14.5405 199.095 14.5405C201.557 14.5405 203.425 15.3181 204.699 16.8729C206.002 18.3997 206.653 20.3786 206.653 22.8101V35.9566H201.006V23.7855C201.006 22.5415 200.68 21.5378 200.029 20.7745C199.406 20.0112 198.444 19.6295 197.142 19.6295C195.954 19.6295 195.005 20.0395 194.299 20.8594C193.59 21.6791 193.237 22.7112 193.237 23.9551Z" fill="white" fill-opacity="0.9"/>
<path d="M220.489 19.6718C218.989 19.6718 217.73 20.1948 216.712 21.241C215.693 22.2869 215.182 23.7147 215.182 25.5242C215.182 27.3336 215.693 28.7754 216.712 29.8497C217.759 30.8958 219.032 31.4188 220.532 31.4188C221.862 31.4188 222.923 31.0795 223.717 30.401C224.509 29.6943 225.047 28.8602 225.33 27.8989L230.296 29.553C229.787 31.4754 228.683 33.1293 226.985 34.5147C225.287 35.8999 223.136 36.5926 220.532 36.5926C217.419 36.5926 214.801 35.5466 212.678 33.4545C210.584 31.3341 209.537 28.6905 209.537 25.5242C209.537 22.3293 210.569 19.6859 212.635 17.5938C214.731 15.5017 217.306 14.4556 220.362 14.4556C223.023 14.4556 225.202 15.1484 226.9 16.5336C228.598 17.8907 229.688 19.5446 230.169 21.4953L225.117 23.1917C224.438 20.8451 222.896 19.6718 220.489 19.6718Z" fill="white" fill-opacity="0.9"/>
</svg>
