<svg xmlns="http://www.w3.org/2000/svg" width="222" height="92" fill="none"><path stroke="#3b627d" d="M1 1h220v90H1z"/><path opacity=".5" fill-rule="evenodd" d="M74.419 57.45h4.517V35.293h-4.517V57.45zm18.405-6.117v-3.649c-.918-1.335-2.189-1.781-3.462-1.781-2.219 0-3.757 1.483-3.757 3.74 0 1.663 1.538 3.472 3.757 3.472 1.27 0 2.544-.446 3.462-1.781zm4.516-8.814v14.978c0 4.651-3.612 7.504-8.038 7.504s-7.448-2.654-7.76-6.396l4.5.027c.186 1.592 1.582 2.279 3.421 2.279 1.743 0 3.363-.93 3.363-3.365v-1.904c-1.153.749-2.618 1.185-4.27 1.185-4.115 0-7.418-3.34-7.418-7.178 0-4.462 3.303-7.457 7.418-7.457 1.65 0 3.117.438 4.27 1.185v-.812l4.516-.046-.003.003zm13.634 7.282c0-2.172-1.427-3.928-3.626-3.928s-3.656 1.756-3.656 3.928 1.426 3.898 3.656 3.898 3.626-1.666 3.626-3.898zm4.358 0c0 4.612-3.407 7.898-7.981 7.898s-8.014-3.286-8.014-7.898 3.407-7.928 8.014-7.928 7.981 3.349 7.981 7.928zm23.577 2.487v-4.563c-.935-1.33-2.233-1.691-3.53-1.691-2.266 0-3.834 1.814-3.834 3.989s1.568 3.959 3.834 3.959c1.297 0 2.595-.364 3.53-1.693zm4.431-9.747v14.885l-4.431.022v-.843c-1.153.75-2.618 1.217-4.271 1.217-4.115 0-7.418-3.493-7.418-7.802s3.303-7.832 7.418-7.832c1.653 0 3.118.468 4.271 1.217v-.843l4.431-.022zm18.189 6.825v8.081h-4.35v-7.564c0-2.435-1.215-3.712-3.366-3.712-1.123 0-2.369.657-3.429 1.904v9.375h-4.448V42.565h4.448v1.124c1.216-.968 2.618-1.496 4.301-1.496 3.959 0 6.844 2.81 6.844 7.178m-89.168 8.068h-4.604l-2.989-11.137-6.426 11.137h-5.139l9.935-17.238-1.598-5.986-13.396 23.229H43L59.976 28h4.503l1.97 7.315h4.645l-3.172 5.521 4.44 16.603zm102.614-5.132v-4.599c-.943-1.34-2.252-1.704-3.558-1.704-2.281 0-3.863 1.827-3.863 3.989s1.582 4.019 3.863 4.019c1.306 0 2.615-.367 3.558-1.704zm4.516-17.013V57.45h-4.516v-.843c-1.153.749-2.618 1.217-4.271 1.217-4.115 0-7.418-3.493-7.418-7.832s3.303-7.802 7.418-7.802c1.651 0 3.118.468 4.271 1.217v-8.114h4.516zm-53.074 11.019c-.987.12-3.287.232-4.637 2.095v9.041h-4.454V42.587h4.454v1.116c1.014-.878 2.546-1.382 4.637-1.179v3.789z" fill="#fff"/></svg>