<svg xmlns="http://www.w3.org/2000/svg" width="222" height="92" fill="none"><path stroke="#3b627d" d="M1 1h220v90H1z"/><g opacity=".5" fill="#fff"><path d="M49.806 55.171H44V33.288h4.477c3.24 0 4.608.244 5.9 1.072 1.573 1.015 2.472 2.726 2.472 4.775s-.674 3.196-2.416 4.117c2.772 1.147 3.727 2.82 3.727 5.415 0 3.986-2.735 6.505-8.354 6.505zm-.112-17.917h-1.648v4.474h1.292c2.454 0 3.484-.677 3.484-2.256 0-1.504-1.03-2.218-3.128-2.218zm.262 8.441h-1.911v5.602h2.004c2.828 0 4.046-.827 4.046-2.726 0-1.955-1.33-2.876-4.139-2.876zm10.134 9.476V38.44h3.825v16.731H60.09zm.036-19.146V32h3.825v4.025h-3.825zm14.102 19.146c-4.976 0-8.988-3.717-8.988-8.367 0-4.706 3.896-8.367 8.872-8.367 3.838 0 7.175 2.051 8.487 5.712h-4.552c-.829-1.465-2.102-2.197-3.915-2.197-2.797 0-4.803 2.014-4.803 4.815s2.102 4.87 4.899 4.87c1.678 0 2.835-.641 3.838-2.105h4.552c-1.427 3.589-4.456 5.639-8.39 5.639zm17.703 0c-4.775 0-8.67-3.753-8.67-8.367 0-4.596 3.895-8.367 8.652-8.367 4.925 0 8.727 3.717 8.727 8.477-.019 4.504-3.97 8.257-8.708 8.257zm0-13.219c-2.566 0-4.719 2.16-4.719 4.797 0 2.746 2.097 4.907 4.757 4.907 2.603 0 4.719-2.16 4.719-4.852-.019-2.655-2.135-4.852-4.756-4.852zm20.966 13.219v-8.002c0-4.366-1.149-5.135-3.047-5.135-1.204 0-2.208.525-2.81 1.499-.493.806-.639 1.743-.639 3.935v7.702h-3.832V38.81h3.54v1.574c1.405-1.387 2.683-1.949 4.489-1.949 2.208 0 3.942.825 4.982 2.361.857 1.274 1.149 2.68 1.149 5.603v8.77h-3.832zm14.433 0c-4.775 0-8.67-3.753-8.67-8.367 0-4.596 3.895-8.367 8.652-8.367 4.925 0 8.726 3.717 8.726 8.477-.018 4.504-3.97 8.257-8.708 8.257zm0-13.219c-2.565 0-4.719 2.16-4.719 4.797 0 2.746 2.098 4.907 4.757 4.907 2.603 0 4.719-2.16 4.719-4.852-.019-2.655-2.135-4.852-4.757-4.852zm30.548 13.219v-8.976c0-3.279-1.233-4.16-3.064-4.16-2.186 0-3.288 1.181-3.288 5.078v8.058h-3.924v-8.976c0-3.223-1.121-4.16-3.177-4.16-2.261 0-3.176 1.218-3.176 5.078v8.058h-3.924v-16.36h3.588v1.537c1.14-1.387 2.317-1.911 4.241-1.911 2.242 0 3.681.768 4.802 2.549 1.327-1.78 2.952-2.549 5.232-2.549 4.297 0 6.595 2.399 6.595 7.29v9.445h-3.905zm11.111 5.149h-4.255l3.101-7.013-6.051-14.871h4.519l3.669 10.641 3.989-10.641h4.558l-9.53 21.883z"/></g></svg>