<svg width="193" height="35" viewBox="0 0 193 35" fill="none" xmlns="http://www.w3.org/2000/svg">
<path d="M12.5249 0L0 12.6663L22.0845 12.6663V35L34.6095 22.3337V0H12.5249Z" fill="white"/>
<path d="M47.135 22.3329V0.000325936H63.1292V3.57478H50.9213V9.31574H60.7634V12.7629H50.9213V18.7273H63.1292V22.3329H47.135Z" fill="white"/>
<path d="M69.2287 22.3329L64.8747 6.22186H68.503L71.8154 19.2052H74.0245L77.3369 6.22186H80.9639L76.642 22.3329H69.2287Z" fill="white"/>
<path d="M82.7358 14.2618C82.7358 9.4768 86.3628 5.80622 91.0957 5.80622C95.8903 5.80622 99.3606 9.50797 99.3606 14.1968V15.1554H86.2691C86.5838 17.6752 88.6349 19.6209 91.0957 19.6209C94.4081 19.6209 95.5114 17.2284 95.5114 17.2284H99.1397C99.1397 17.2284 97.5625 22.7485 91.0957 22.7485C86.3628 22.7485 82.7358 19.0468 82.7358 14.2618ZM95.6693 12.6668C95.3547 10.6873 93.6195 8.93387 91.0957 8.93387C88.572 8.93387 86.8368 10.6873 86.395 12.6668H95.6693Z" fill="white"/>
<path d="M102.461 22.3329V6.22186H105.931V8.6793H106.026C106.026 8.6793 107.099 5.96728 110.506 5.96728H112.399V9.41185H110.253C107.667 9.41185 105.931 11.1679 105.931 13.7189V22.3329H102.461Z" fill="white"/>
<path d="M114.01 17.2284H117.637C117.637 17.2284 118.426 19.6858 121.644 19.6858C124.105 19.6858 124.956 18.8234 124.956 17.7064C124.956 14.7398 114.798 16.7504 114.798 10.5289C114.798 8.04026 117.006 5.80622 121.17 5.80622C127.512 5.80622 128.364 10.8484 128.364 10.8484H124.798C124.798 10.8484 124.168 8.83776 121.17 8.83776C119.215 8.83776 118.331 9.73137 118.331 10.5289C118.331 13.4643 128.522 11.4848 128.522 17.7064C128.522 20.3223 126.154 22.7485 121.644 22.7485C115.113 22.7485 114.01 17.2284 114.01 17.2284Z" fill="white"/>
<path d="M130.582 14.2618C130.582 9.4768 134.209 5.80622 138.847 5.80622C145.471 5.80622 146.734 11.8043 146.734 11.8043H143.201C143.201 11.8043 142.254 8.93387 138.847 8.93387C136.26 8.93387 134.115 11.0718 134.115 14.2618C134.115 17.483 136.323 19.6209 138.847 19.6209C142.317 19.6209 143.264 16.5893 143.264 16.5893H146.828C146.828 16.5893 145.629 22.7485 138.847 22.7485C134.209 22.7485 130.582 19.0468 130.582 14.2618Z" fill="white"/>
<path d="M149.293 17.7713C149.293 14.9943 151.533 12.6668 155.666 12.6668H160.651V12.1239C160.651 10.1132 159.388 8.83776 157.18 8.83776C154.183 8.83776 153.457 11.1679 153.457 11.1679H149.924C149.924 11.1679 150.87 5.80622 157.18 5.80622C161.597 5.80622 164.121 8.29484 164.121 12.1239V22.3329H160.651V19.9404H160.556C160.556 19.9404 159.009 22.7485 154.971 22.7485C151.344 22.7485 149.293 20.6418 149.293 17.7713ZM160.651 15.2177H155.855C153.868 15.2177 152.826 16.2724 152.826 17.483C152.826 18.7273 153.773 19.6858 155.918 19.6858C158.82 19.6858 160.651 17.7713 160.651 15.2177Z" fill="white"/>
<path d="M167.915 22.3329V0.000325936H171.385V19.2052H175.014V22.3329H167.915Z" fill="white"/>
<path d="M176.375 14.2618C176.375 9.4768 180.002 5.80622 184.735 5.80622C189.53 5.80622 193 9.50797 193 14.1968V15.1554H179.908C180.223 17.6752 182.274 19.6209 184.735 19.6209C188.048 19.6209 189.151 17.2284 189.151 17.2284H192.779C192.779 17.2284 191.202 22.7485 184.735 22.7485C180.002 22.7485 176.375 19.0468 176.375 14.2618ZM189.309 12.6668C188.994 10.6873 187.259 8.93387 184.735 8.93387C182.211 8.93387 180.476 10.6873 180.034 12.6668H189.309Z" fill="white"/>
</svg>
