<svg width="111" height="26" viewBox="0 0 111 26" fill="none" xmlns="http://www.w3.org/2000/svg">
<path d="M45.9941 15.3784L53.442 25.4135H59.126L50.1101 13.4887C49.7181 13.0326 49.4567 12.4461 49.3914 11.8596C49.3914 11.3383 49.7181 10.9474 50.3061 10.2306L58.9953 0.521303H53.246L45.9288 8.79699C44.8181 10.1003 44.2955 11.0125 44.2955 11.8596C44.2301 13.0326 44.8835 13.8797 45.9941 15.3784ZM85.455 13.0326C85.455 5.7995 90.5509 0 98.1295 0C105.708 0 111 5.47368 111 13.0326C111 20.5915 105.577 25.9348 98.1948 25.9348C90.2243 25.9348 85.455 20.396 85.455 13.0326ZM106.1 13.0326C106.1 7.94987 102.964 4.17043 98.1948 4.17043C93.4255 4.17043 90.4202 7.88471 90.4202 13.0326C90.4202 18.1805 93.6215 21.8947 98.1948 21.8947C102.964 21.8947 106.1 18.0501 106.1 13.0326ZM71.6698 25.4787H62.7846V21.3734H72.5191C75.3284 21.3734 76.7657 20.6566 76.7657 18.7018C76.7657 16.9424 75.6551 16.4211 72.5845 15.5739L69.6445 14.792C64.2219 13.2932 62.3926 11.5338 62.3926 7.42857C62.3926 3.32331 64.8752 0.586466 70.7552 0.586466H79.7057V4.75689H70.7552C68.2725 4.75689 67.0312 5.34336 67.0312 7.10276C67.0312 8.79699 68.1418 9.57895 71.0165 10.2957L74.0218 11.0777C79.0524 12.381 81.4697 14.2055 81.4697 18.2456C81.535 22.8722 78.9217 25.4787 71.6698 25.4787ZM27.897 26C21.4944 26 17.6398 22.5464 17.6398 15.8997V0.586466H22.4091V15.6391C22.4091 19.2882 23.5851 21.8947 27.9623 21.8947C32.3396 21.8947 33.5156 19.4185 33.5156 15.5739V0.521303H38.2195V15.8997C38.2195 22.4812 34.3649 26 27.897 26ZM4.76928 0.586466H0V20.7218C0 24.0451 1.43732 25.4787 4.24662 25.4787H13.3932V21.3734H6.53325C5.16127 21.3734 4.76928 20.9825 4.76928 19.614V0.586466Z" fill="white"/>
</svg>
