<svg xmlns="http://www.w3.org/2000/svg" width="222" height="92" fill="none"><path stroke="#3b627d" d="M1 1h220v90H1z"/><g opacity=".5"><path d="M65.648 64.176c10.299 0 18.648-8.322 18.648-18.588S75.947 27 65.648 27 47 35.322 47 45.588s8.349 18.588 18.648 18.588z" fill="#1c68f3"/><g fill="#fff"><path fill-rule="evenodd" d="M76.837 41.251v6.196H58.189h0-.802c.849 3.759 4.219 6.568 8.247 6.568 3.33 0 6.211-1.919 7.589-4.709h3.614v5.205c0 1.232-1.002 2.231-2.238 2.231H56.697c-1.236 0-2.238-.999-2.238-2.231V41.251h22.378zm-5.761 8.055c-1.187 1.73-3.181 2.864-5.442 2.864s-4.256-1.135-5.442-2.864h10.885zm-10.214-6.568a3.48 3.48 0 0 0-3.446 2.974h1.908c.21-.647.819-1.115 1.538-1.115s1.328.468 1.538 1.115h1.907a3.48 3.48 0 0 0-3.446-2.974zm9.573 0a3.48 3.48 0 0 0-3.446 2.974h1.907c.21-.647.819-1.115 1.538-1.115s1.328.468 1.538 1.115h1.908a3.48 3.48 0 0 0-3.446-2.974zm4.165-8.303c1.236 0 2.238.999 2.238 2.23v2.726H54.459v-2.726c0-1.232 1.002-2.23 2.238-2.23h17.902z"/><path d="M146.972 40.445c3.387 0 7.233 1.314 7.463 5.519h-4.734c-.098-1.216-1.216-1.774-2.696-1.774-1.381 0-2.005.526-2.005 1.15 0 .526.394 1.018 1.644 1.248l2.991.493c2.992.559 4.965 2.004 4.965 4.829 0 3.679-3.321 5.388-7.463 5.388-4.176 0-7.562-1.741-7.891-5.979l4.735.033c.23 1.38 1.38 2.004 3.057 2.004 1.414 0 2.269-.427 2.269-1.117 0-.526-.494-.953-1.546-1.117l-3.222-.559c-2.761-.46-4.668-2.004-4.668-4.796 0-3.351 2.86-5.322 7.101-5.322zm-19.956.062c1.739 0 3.183.459 4.365 1.214v-.853h5.317v15.916h-5.317v-.886c-1.182.755-2.626 1.214-4.365 1.214-4.299 0-7.91-3.577-7.91-8.303 0-4.758 3.611-8.303 7.91-8.303zm-31.142-6.072l7.972 11.94 7.939-11.94h4.151v22.368h-5.567V45.586l-4.975 7.664v.033h-3.096v-.033l-5.008-7.73.033 11.282h-5.567V34.435h4.118zm66.981-.929v13.355l5.563-5.972h6.354l-6.057 6.497 6.584 9.417h-6.387l-3.819-5.513-2.238 2.395v3.117h-5.334V33.506h5.334zm-34.789 11.333c-2.166 0-3.741 1.772-3.741 3.971s1.575 3.938 3.741 3.938c1.182 0 2.33-.328 3.315-1.477v-4.922c-.985-1.149-2.133-1.51-3.315-1.51z"/></g></g></svg>