<svg xmlns="http://www.w3.org/2000/svg" width="222" height="92" fill="none"><path stroke="#3b627d" d="M1 1h220v90H1z"/><g opacity=".5"><path d="M64.882 46.555c-.214-9.905-8.415-17.757-18.327-17.551s-17.757 8.423-17.551 18.327a17.96 17.96 0 0 0 10.8 16.077 15.71 15.71 0 0 0 1.981-4.263c.356-.911.753-1.814 1.157-2.686 1.989.594 4.144.047 5.61-1.426l.063-.063a5.59 5.59 0 0 0-5.325.792c.491-1.038 1.038-2.036 1.593-3.019 1.957.689 4.128.246 5.658-1.157l.063-.063c-1.735-.729-3.716-.547-5.285.491.555-.911 1.125-1.815 1.727-2.654 2.021.531 4.176-.103 5.578-1.648l.047-.063a5.52 5.52 0 0 0-4.905.753l.151-.198c.357-.468.737-.927 1.109-1.379 2.33-.761 4.041-2.749 4.453-5.158l.016-.087h-.016c-2.425.634-4.279 2.583-4.786 5.039-.356.436-.721.872-1.062 1.323.586-1.537.46-3.265-.357-4.699l-.048.063a5.62 5.62 0 0 0-.483 5.856c-.571.808-1.125 1.632-1.648 2.504a5.54 5.54 0 0 0-1.458-4.905l-.032.079c-.776 1.941-.412 4.16.959 5.745a47.85 47.85 0 0 0-1.498 2.837c.293-1.846-.317-3.724-1.648-5.039l-.032.079c-.697 2.036-.214 4.295 1.26 5.864-.317.674-.618 1.347-.903 2.052-.079-.071-.166-.127-.269-.166a6.14 6.14 0 0 1-1.458-.642c-.372-.222-.776-.404-1.189-.539-1.616-.523-1.379-1.307-2.219-2.884-.269-.325-.563-.634-.872-.927-.285-.182-.515-.436-.673-.737a3.67 3.67 0 0 1-.349-1.189c-.008-.468-.317-.88-.769-1.022-2.385-.824-1.323-3.914-1.228-4.318-.04-.523-.151-1.038-.349-1.529-.024-.063-.032-.127-.047-.198-.127-.65.056-1.323.491-1.815.285-.285 1.276-.753 1.49-1.022s.357-.571.57-.824c.666-.666 1.434-1.22 2.282-1.632.689-.372.808-1.331 1.078-1.632.452-.507 1.141-.507 1.648-.959.254-.222.634-.349.872-.586 1.197-1.101 2.71-1.799 4.318-1.997 1.117-.095 2.242.008 3.328.301.158.024.309.063.467.103 2.472.087 5.444.602 6.529 1.648.531.515.935 1.157 1.157 1.862a7.15 7.15 0 0 0 .721 1.561l.658 1.078a3.03 3.03 0 0 1 .372 2.282c-.119.38-.135.784-.032 1.173.349.523.753 1.006 1.212 1.442.182.182.38.341.602.483a16.5 16.5 0 0 1 1.474.99.81.81 0 0 1-.349.753c-.42.372-1.228.959-1.228.959.032.166.079.325.151.483.119.206.388.539.301.824s-.673.523-.507.84c.166.333.586.42.467.721-.119.285-.705.792-.642 1.006s.539 2.219-.571 2.567a25.52 25.52 0 0 1-4.168.468c-.46.024-.872.285-1.093.689-.214.396-.349.832-.404 1.276a29.26 29.26 0 0 1-1.608 4.667s-.048.087-.103.222a2.8 2.8 0 0 0-.269.943 1.92 1.92 0 0 0 .42.642c.198.222.507.317.792.222 7.377-2.567 12.266-9.588 12.131-17.392v-.016z" fill="#00dacc"/><g fill="#fff"><path d="M80.849 37.808h4.097l4.548 7.322 4.548-7.321h4.112v17.313h-3.78v-11.3l-4.873 7.401h-.103l-4.818-7.321v11.22h-3.732V37.808h.016-.016zm30.863 0h13.051v3.391h-9.271v3.51h8.161V48.1h-8.161v3.629h9.389v3.391h-13.193V37.808h.016.008zm30.006 3.51h-5.269v-3.51h14.342v3.51h-5.269v13.803h-3.811V41.318h.007zm21.56-3.51h3.812v17.313h-3.812V37.808zm16.355 14.777l2.25-2.702a8.01 8.01 0 0 0 5.174 2.1c1.593 0 2.488-.618 2.488-1.632v-.048c0-.959-.602-1.49-3.478-2.203-3.51-.872-5.729-1.878-5.729-5.293v-.047c0-3.138 2.488-5.222 6.062-5.222a10.03 10.03 0 0 1 6.434 2.203l-1.981 2.868c-1.292-1.014-2.861-1.608-4.501-1.712-1.489 0-2.218.642-2.218 1.513v.048c0 1.157.736 1.49 3.732 2.282 3.51.943 5.491 2.179 5.491 5.19v.048c0 3.439-2.623 5.372-6.363 5.372a10.72 10.72 0 0 1-7.369-2.765h.008z"/></g></g></svg>