<svg width="222" height="92" viewBox="0 0 222 92" fill="none" xmlns="http://www.w3.org/2000/svg">
<rect x="1" y="1" width="220" height="90" stroke="#3B627D"/>
<g opacity="0.5">
<path d="M113.664 33.1728H105.609V54.8788H103.631V33.1728H95.5967V31.5078H113.664V33.1728V33.1728Z" fill="white"/>
<path d="M121.106 55.2239C119.617 55.2239 118.272 54.8584 117.089 54.1274C115.906 53.3964 114.948 52.3812 114.295 51.0817C113.622 49.7822 113.296 48.3202 113.296 46.7161V46.0257C113.296 44.3607 113.622 42.8582 114.275 41.518C114.927 40.1779 115.825 39.122 116.987 38.3708C118.149 37.6195 119.414 37.2134 120.759 37.2134C122.88 37.2134 124.552 37.9241 125.796 39.3657C127.04 40.8074 127.652 42.7769 127.652 45.2744V46.3506H115.192V46.7161C115.192 48.6857 115.763 50.3304 116.885 51.6299C118.027 52.9497 119.454 53.5995 121.167 53.5995C122.207 53.5995 123.105 53.4167 123.9 53.0309C124.695 52.6655 125.409 52.0563 126.061 51.2238L127.265 52.1375C125.878 54.1883 123.818 55.2239 121.106 55.2239V55.2239ZM120.759 38.8378C119.312 38.8378 118.088 39.3657 117.089 40.4216C116.09 41.4774 115.498 42.8988 115.274 44.6856H125.735V44.4826C125.674 42.8175 125.205 41.4571 124.308 40.4013C123.41 39.3454 122.228 38.8378 120.759 38.8378V38.8378Z" fill="white"/>
<path d="M133.362 53.2747H144.7V54.8991H130.977V53.4778L141.56 39.1831H131.303V37.5181H143.987V38.9597L133.362 53.2747V53.2747Z" fill="white"/>
<path d="M147.474 45.9443C147.474 44.2793 147.8 42.7767 148.452 41.4366C149.105 40.0965 150.023 39.0609 151.205 38.3096C152.388 37.5584 153.734 37.1929 155.243 37.1929C157.568 37.1929 159.444 38.0051 160.892 39.6295C162.34 41.2539 163.053 43.4062 163.053 46.0864V46.4925C163.053 48.1779 162.727 49.6804 162.074 51.0206C161.422 52.3607 160.504 53.3962 159.321 54.1272C158.139 54.8582 156.793 55.2237 155.284 55.2237C152.98 55.2237 151.083 54.4115 149.635 52.7871C148.187 51.1627 147.474 49.0104 147.474 46.3301V45.9443V45.9443ZM149.411 46.4722C149.411 48.5433 149.961 50.249 151.022 51.5891C152.103 52.9292 153.51 53.579 155.263 53.579C157.017 53.579 158.424 52.9089 159.505 51.5891C160.586 50.249 161.116 48.5027 161.116 46.3098V45.9443C161.116 44.6245 160.871 43.4062 160.382 42.2894C159.892 41.1929 159.199 40.3401 158.302 39.731C157.405 39.1218 156.385 38.8173 155.243 38.8173C153.53 38.8173 152.123 39.4873 151.022 40.8275C149.941 42.1676 149.39 43.9341 149.39 46.1068L149.411 46.4722V46.4722Z" fill="white"/>
<path d="M177.49 50.4725C177.49 49.5182 177.103 48.7466 176.328 48.1781C175.553 47.6095 174.411 47.1425 172.841 46.8176C171.271 46.4927 170.088 46.107 169.232 45.7009C168.375 45.2744 167.743 44.7668 167.335 44.1577C166.927 43.5485 166.703 42.8175 166.703 41.9444C166.703 40.5637 167.274 39.4469 168.436 38.5535C169.578 37.6601 171.067 37.2134 172.861 37.2134C174.799 37.2134 176.369 37.7007 177.552 38.655C178.734 39.6094 179.326 40.8683 179.326 42.4114H177.388C177.388 41.3962 176.96 40.5434 176.104 39.8733C175.247 39.2033 174.166 38.8581 172.861 38.8581C171.556 38.8581 170.577 39.1423 169.803 39.6906C169.028 40.2591 168.64 40.9901 168.64 41.8835C168.64 42.7769 168.966 43.4267 169.599 43.8937C170.231 44.3607 171.414 44.8074 173.106 45.2135C174.799 45.6196 176.063 46.0257 176.919 46.4724C177.755 46.9192 178.388 47.4674 178.795 48.0968C179.203 48.7263 179.407 49.4979 179.407 50.3913C179.407 51.8533 178.816 53.0309 177.633 53.9041C176.45 54.7772 174.901 55.2239 172.984 55.2239C170.944 55.2239 169.293 54.7366 168.049 53.7619C166.784 52.7873 166.152 51.5487 166.152 50.0461H168.09C168.171 51.1629 168.64 52.036 169.517 52.6655C170.394 53.2949 171.556 53.5995 173.004 53.5995C174.35 53.5995 175.431 53.2949 176.267 52.7264C177.083 52.1172 177.49 51.3659 177.49 50.4725V50.4725Z" fill="white"/>
<path d="M81.3419 56.1986C80.8729 47.9345 70.4321 44.1781 69.4329 43.7923C69.3921 43.772 69.3921 43.7314 69.4125 43.6908L80.1796 32.9291V31.7717C80.1796 31.589 80.0164 31.4266 79.8329 31.4266H59.9914V24.9493V23L52.6706 24.5229V25.6193H53.0784C53.0784 25.6193 54.8729 25.6193 54.8729 27.4062V31.4063H49.2039C49.102 31.4063 49 31.5078 49 31.6093V34.1474H54.8933V47.9345C54.8933 52.2595 57.6871 55.2646 62.5812 54.8585C63.6212 54.7773 64.5796 54.3712 65.3953 53.8432C65.7623 53.5996 65.9867 53.2138 65.9867 52.7671V51.4066C64.3961 52.4625 63.0502 52.4016 63.0502 52.4016C59.9506 52.4016 60.0118 48.4827 60.0118 48.4827V34.1474H74.2863L64.0086 44.4623C63.9882 45.8228 63.9678 46.8786 63.9678 46.8989C63.9678 46.9396 63.9882 46.9599 64.029 46.9599C73.4502 48.5436 75.9992 54.6148 75.9992 56.3814C75.9992 56.3814 77.0188 64.9704 68.3929 65.5592C68.3929 65.5592 62.7443 65.8029 61.7451 63.549C61.7043 63.4678 61.7451 63.3866 61.8267 63.346C62.7647 62.9196 63.3969 62.0871 63.3969 60.9703C63.3969 59.3053 62.3772 57.9448 60.2361 57.9448C58.5027 57.9448 57.0753 59.3053 57.0753 60.9703C57.0753 60.9703 56.2596 68.1989 68.3725 67.9958C82.1984 67.7521 81.3419 56.1986 81.3419 56.1986V56.1986Z" fill="white"/>
</g>
</svg>
